<svg style="margin-left: 5px; width: 18px;" viewbox="0 0 24 24" xmlns="http://www.w3.org/2000/svg"><path d="M 16.5 1.0019531 C 16.17721 1.0126869 15.859803 1.1025228 15.572266 1.2695312 L 0.9921875 9.7578125 C 0.3549786 10.129061 -0.0029006 10.806397 0 11.5 C 0.0014025 11.835371 0.0877016 12.175853 0.265625 12.486328 L 3 17.261719 L 3 21 C 3 22.102976 3.8974612 23 5 23 L 22 23 C 23.102539 23 24 22.102976 24 21 L 24 10 C 24.000001 8.8970261 23.102539 8 22 8 L 21.722656 8 L 18.287109 2.0019531 C 18.021484 1.5381081 17.591797 1.2060482 17.078125 1.0683594 C 16.886614 1.0172926 16.692465 0.99555292 16.5 1.0019531 z M 16.4375 2.0097656 C 16.563232 1.9927986 16.692871 2.0014665 16.820312 2.0351562 C 17.075195 2.1035123 17.287109 2.2671008 17.419922 2.4980469 L 18.394531 4.1992188 C 17.949707 4.3969632 17.47522 4.5 17 4.5 C 15.925841 4.5 14.942322 4.0141201 14.28125 3.1796875 L 16.076172 2.1347656 C 16.188965 2.0688509 16.311768 2.0267326 16.4375 2.0097656 z M 13.412109 3.6835938 C 14.259888 4.8270874 15.566894 5.5 17 5.5 C 17.64856 5.5 18.292297 5.3460693 18.890625 5.0644531 L 20.570312 8 L 6 8 L 13.412109 3.6835938 z M 5 9 L 6.9492188 9 C 6.7278443 10.526917 5.5269165 11.727844 4 11.949219 L 4 10 C 4 9.4487305 4.4482422 9 5 9 z M 7.9492188 9 L 19.050781 9 C 19.284485 11.077515 20.922485 12.715515 23 12.949219 L 23 18.050781 C 20.922485 18.284485 19.284485 19.922485 19.050781 22 L 7.9492188 22 C 7.7155151 19.922485 6.0775147 18.284485 4 18.050781 L 4 12.949219 C 6.0775146 12.715515 7.7155152 11.077515 7.9492188 9 z M 20.050781 9 L 22 9 C 22.551758 9 23 9.4487305 23 10 L 23 11.949219 C 21.473083 11.727844 20.272156 10.526917 20.050781 9 z M 3.0273438 9.7304688 C 3.0151367 9.8195801 3 9.9075928 3 10 L 3 15.25 L 1.1328125 11.988281 C 0.8593749 11.510742 1.022461 10.896484 1.4960938 10.621094 L 3.0273438 9.7304688 z M 13.5 11.5 C 13.223633 11.5 13 11.723633 13 12 L 13 12.525391 C 12.154114 12.647949 11.5 13.370728 11.5 14.25 C 11.5 15.214844 12.285156 16 13.25 16 L 13.75 16 C 14.163086 16 14.5 16.336426 14.5 16.75 C 14.5 17.163574 14.163086 17.5 13.75 17.5 L 12 17.5 C 11.723633 17.5 11.5 17.723633 11.5 18 C 11.5 18.276367 11.723633 18.5 12 18.5 L 13 18.5 L 13 19 C 13 19.276367 13.223633 19.5 13.5 19.5 C 13.776367 19.5 14 19.276367 14 19 L 14 18.474609 C 14.845886 18.352051 15.5 17.629272 15.5 16.75 C 15.5 15.785156 14.714844 15 13.75 15 L 13.25 15 C 12.836914 15 12.5 14.663574 12.5 14.25 C 12.5 13.836426 12.836914 13.5 13.25 13.5 L 15 13.5 C 15.276367 13.5 15.5 13.276367 15.5 13 C 15.5 12.723633 15.276367 12.5 15 12.5 L 14 12.5 L 14 12 C 14 11.723633 13.776367 11.5 13.5 11.5 z M 7 14.5 C 6.4482422 14.5 6 14.94873 6 15.5 C 6 16.05127 6.4482422 16.5 7 16.5 C 7.5517578 16.5 8 16.05127 8 15.5 C 8 14.94873 7.5517578 14.5 7 14.5 z M 20 14.5 C 19.448242 14.5 19 14.94873 19 15.5 C 19 16.05127 19.448242 16.5 20 16.5 C 20.551758 16.5 21 16.05127 21 15.5 C 21 14.94873 20.551758 14.5 20 14.5 z M 4 19.050781 C 5.5269165 19.272156 6.7278443 20.473084 6.9492188 22 L 5 22 C 4.4482422 22 4 21.55127 4 21 L 4 19.050781 z M 23 19.050781 L 23 21 C 23 21.55127 22.551758 22 22 22 L 20.050781 22 C 20.272156 20.473084 21.473084 19.272156 23 19.050781 z"></path></svg>
