<?xml version="1.0" encoding="utf-8"?>
<!-- Generator: Adobe Illustrator 24.1.2, SVG Export Plug-In . SVG Version: 6.00 Build 0)  -->
<!DOCTYPE svg PUBLIC "-//W3C//DTD SVG 1.1//EN" "http://www.w3.org/Graphics/SVG/1.1/DTD/svg11.dtd" [
	<!ENTITY ns_extend "http://ns.adobe.com/Extensibility/1.0/">
	<!ENTITY ns_ai "http://ns.adobe.com/AdobeIllustrator/10.0/">
	<!ENTITY ns_graphs "http://ns.adobe.com/Graphs/1.0/">
	<!ENTITY ns_vars "http://ns.adobe.com/Variables/1.0/">
	<!ENTITY ns_imrep "http://ns.adobe.com/ImageReplacement/1.0/">
	<!ENTITY ns_sfw "http://ns.adobe.com/SaveForWeb/1.0/">
	<!ENTITY ns_custom "http://ns.adobe.com/GenericCustomNamespace/1.0/">
	<!ENTITY ns_adobe_xpath "http://ns.adobe.com/XPath/1.0/">
]>
<svg version="1.1" xmlns:x="&ns_extend;" xmlns:i="&ns_ai;" xmlns:graph="&ns_graphs;"
	 xmlns="http://www.w3.org/2000/svg" xmlns:xlink="http://www.w3.org/1999/xlink" x="0px" y="0px" width="780px" height="440px"
	 viewBox="0 0 780 440" enable-background="new 0 0 780 440" xml:space="preserve">
<metadata>
	<sfw  xmlns="&ns_sfw;">
		<slices></slices>
		<sliceSourceBounds  bottomLeftOrigin="true" height="16383" width="16383" x="-7801" y="-8422"></sliceSourceBounds>
		<optimizationSettings>
			<targetSettings  fileFormat="PNG24Format" targetSettingsID="0">
				<PNG24Format  filtered="false" interlaced="false" matteColor="#FFFFFF" noMatteColor="false" transparency="false">
					</PNG24Format>
			</targetSettings>
		</optimizationSettings>
	</sfw>
</metadata>
<g id="Background">
	<rect x="0" y="0" fill="#C1C1F7" width="780" height="440"/>
</g>
<g id="Artwork">
	<rect x="210.8" y="168.9" fill="#A193F2" width="393.2" height="208.4"/>
	<path fill="#002138" d="M604,168.9v208.4H210.8V168.9H604 M605,167.9h-1H210.8h-1v1v208.4v1h1H604h1v-1V168.9V167.9L605,167.9z"/>
	<g>
		<g>
			<g>
				<g>
					<path fill="#A193F2" d="M308.7,140.3C308.7,140.3,308.7,140.3,308.7,140.3c-0.2,0-0.3-0.1-0.4-0.2l-6.8-8.2h-23.1
						c-2.1,0-3.9-1.7-3.9-3.9V79.2c0-2.1,1.7-3.9,3.9-3.9h59.8c2.1,0,3.9,1.7,3.9,3.9v48.9c0,2.1-1.7,3.9-3.9,3.9h-22.1l-7,8.2
						C309,140.3,308.9,140.3,308.7,140.3z"/>
					<path fill="#002138" d="M338.2,75.3c2.1,0,3.9,1.7,3.9,3.9v48.9c0,2.1-1.7,3.9-3.9,3.9h-22.1l-7,8.2c-0.1,0.1-0.3,0.2-0.4,0.2
						c0,0,0,0,0,0c-0.2,0-0.3-0.1-0.4-0.2l-6.8-8.2h-23.1c-2.1,0-3.9-1.7-3.9-3.9V79.2c0-2.1,1.7-3.9,3.9-3.9H338.2 M338.2,74.3
						h-59.8c-2.7,0-4.9,2.2-4.9,4.9v48.9c0,2.7,2.2,4.9,4.9,4.9H301l6.5,7.9c0.3,0.4,0.7,0.6,1.2,0.6c0.5,0,0.9-0.2,1.2-0.5l6.7-7.9
						h21.6c2.7,0,4.9-2.2,4.9-4.9V79.2C343.1,76.5,340.9,74.3,338.2,74.3L338.2,74.3z"/>
				</g>
			</g>
		</g>
	</g>
	<g>
		<g>
			<g>
				<g>
					<path fill="#A193F2" d="M390.4,140.3C390.4,140.3,390.4,140.3,390.4,140.3c-0.2,0-0.3-0.1-0.4-0.2l-6.8-8.2h-23.1
						c-2.1,0-3.9-1.7-3.9-3.9V79.2c0-2.1,1.7-3.9,3.9-3.9h59.8c2.1,0,3.9,1.7,3.9,3.9v48.9c0,2.1-1.7,3.9-3.9,3.9h-22.1l-7,8.2
						C390.7,140.3,390.6,140.3,390.4,140.3z"/>
					<path fill="#002138" d="M419.9,75.3c2.1,0,3.9,1.7,3.9,3.9v48.9c0,2.1-1.7,3.9-3.9,3.9h-22.1l-7,8.2c-0.1,0.1-0.3,0.2-0.4,0.2
						c0,0,0,0,0,0c-0.2,0-0.3-0.1-0.4-0.2l-6.8-8.2h-23.1c-2.1,0-3.9-1.7-3.9-3.9V79.2c0-2.1,1.7-3.9,3.9-3.9H419.9 M419.9,74.3
						h-59.8c-2.7,0-4.9,2.2-4.9,4.9v48.9c0,2.7,2.2,4.9,4.9,4.9h22.6l6.5,7.9c0.3,0.4,0.7,0.6,1.2,0.6c0.5,0,0.9-0.2,1.2-0.5
						l6.7-7.9h21.6c2.7,0,4.9-2.2,4.9-4.9V79.2C424.8,76.5,422.6,74.3,419.9,74.3L419.9,74.3z"/>
				</g>
			</g>
		</g>
	</g>
	<g>
		<g>
			<g>
				<g>
					<path fill="#A193F2" d="M472.1,140.3C472.1,140.3,472.1,140.3,472.1,140.3c-0.2,0-0.3-0.1-0.4-0.2l-6.8-8.2h-23.1
						c-2.1,0-3.9-1.7-3.9-3.9V79.2c0-2.1,1.7-3.9,3.9-3.9h59.8c2.1,0,3.9,1.7,3.9,3.9v48.9c0,2.1-1.7,3.9-3.9,3.9h-22.1l-7,8.2
						C472.4,140.3,472.3,140.3,472.1,140.3z"/>
					<path fill="#002138" d="M501.6,75.3c2.1,0,3.9,1.7,3.9,3.9v48.9c0,2.1-1.7,3.9-3.9,3.9h-22.1l-7,8.2c-0.1,0.1-0.3,0.2-0.4,0.2
						c0,0,0,0,0,0c-0.2,0-0.3-0.1-0.4-0.2l-6.8-8.2h-23.1c-2.1,0-3.9-1.7-3.9-3.9V79.2c0-2.1,1.7-3.9,3.9-3.9H501.6 M501.6,74.3
						h-59.8c-2.7,0-4.9,2.2-4.9,4.9v48.9c0,2.7,2.2,4.9,4.9,4.9h22.6l6.5,7.9c0.3,0.4,0.7,0.6,1.2,0.6c0.5,0,0.9-0.2,1.2-0.5
						l6.7-7.9h21.6c2.7,0,4.9-2.2,4.9-4.9V79.2C506.5,76.5,504.3,74.3,501.6,74.3L501.6,74.3z"/>
				</g>
			</g>
		</g>
	</g>
	<g>
		<g>
			<path fill="#FF7F6E" d="M457.8,109.5l7.4,15l6.1-3.5c0,0-4.8-3.8-5.4-12.3L457.8,109.5z"/>
			<path fill="#002138" d="M465.2,124.9c0,0-0.1,0-0.1,0c-0.1,0-0.2-0.1-0.2-0.2l-7.4-15c-0.1-0.2,0-0.4,0.2-0.5
				c0.2-0.1,0.4,0,0.5,0.2l7.2,14.6l5.3-3c-1.2-1.2-4.6-5-5.1-12.2c0-0.2,0.1-0.4,0.4-0.4c0.2,0,0.4,0.1,0.4,0.4
				c0.6,8.2,5.2,12,5.2,12c0.1,0.1,0.2,0.2,0.1,0.3c0,0.1-0.1,0.2-0.2,0.3l-6.1,3.5C465.4,124.9,465.3,124.9,465.2,124.9z"/>
		</g>
		<circle fill="#FF7F6E" cx="487.3" cy="97.4" r="4.7"/>
		<path fill="#162020" d="M487.3,102.5c-2.4,0-4.6-1.7-5-4.2l0,0c-0.2-1.3,0.1-2.7,0.8-3.8c0.8-1.1,1.9-1.9,3.3-2.1
			c2.8-0.5,5.4,1.4,5.9,4.1c0.5,2.8-1.4,5.4-4.1,5.9C487.9,102.5,487.6,102.5,487.3,102.5z M483.1,98.2c0.4,2.3,2.7,3.9,5,3.5
			c2.3-0.4,3.9-2.7,3.5-5c-0.4-2.3-2.7-3.9-5-3.5c-1.1,0.2-2.1,0.8-2.8,1.8C483.1,95.9,482.9,97.1,483.1,98.2L483.1,98.2z"/>
		<path fill="#FFFFFF" d="M467,93.5c0,0,8.9-2.8,17.7-10.8l5.2,29.4c0,0-10.8-3.9-20.3-3.9L467,93.5z"/>
		<path fill="#162020" d="M490.4,112.8l-0.6-0.2c-0.1,0-10.8-3.9-20.1-3.9c0,0-0.1,0-0.1,0l0-0.8c0,0,0.1,0,0.1,0
			c8.1,0,17.3,2.9,19.7,3.7l-5-28.1c-8.6,7.6-17.2,10.4-17.3,10.4l-0.2-0.7c0.1,0,8.9-2.9,17.6-10.7l0.5-0.5L490.4,112.8z"/>
		
			<rect x="453.4" y="94.7" transform="matrix(0.9845 -0.1752 0.1752 0.9845 -10.7829 82.3332)" fill="#FF7F6E" width="15" height="15"/>
		<path fill="#002138" d="M454.8,111.3c-0.2,0-0.3-0.1-0.4-0.3l-2.6-14.7c0-0.2,0.1-0.4,0.3-0.5l14.7-2.6c0.2,0,0.4,0.1,0.5,0.3
			l2.6,14.7c0,0.1,0,0.2-0.1,0.3c-0.1,0.1-0.1,0.1-0.3,0.2L454.8,111.3C454.9,111.3,454.9,111.3,454.8,111.3z M452.7,96.5l2.5,14
			l14-2.5l-2.5-14L452.7,96.5z"/>
	</g>
	<g>
		<g>
			<rect x="373" y="98.2" fill="#FF7F6E" width="5.9" height="18.3"/>
			<path fill="#002138" d="M379,116.9H373c-0.2,0-0.4-0.2-0.4-0.4V98.2c0-0.2,0.2-0.4,0.4-0.4h5.9c0.2,0,0.4,0.2,0.4,0.4v18.3
				C379.3,116.7,379.2,116.9,379,116.9z M373.4,116.1h5.2V98.6h-5.2V116.1z"/>
		</g>
		<g>
			<path fill="#FFFFFF" d="M382.2,116.5H401c2.3-4,4.5-9,5.2-11c2-5.9-0.3-9-6.6-8.8s-6.3,0.2-6.3,0.2s1-4.6,1.8-8
				c0.8-3.4-2.2-2.4-2.2-2.4l-10.7,10.7C382.2,97.2,382.2,109.3,382.2,116.5z"/>
			<path fill="#002138" d="M401,116.9h-18.8c-0.1,0-0.2,0-0.3-0.1s-0.1-0.2-0.1-0.3c0-7.1,0-19.2,0-19.3c0-0.1,0-0.2,0.1-0.3
				l10.7-10.7c0,0,0.1-0.1,0.1-0.1c0.1,0,1.4-0.5,2.3,0.3c0.5,0.5,0.7,1.3,0.4,2.6c-0.6,2.7-1.4,6.2-1.7,7.5l5.9-0.2
				c3.3-0.1,5.6,0.7,6.8,2.3c1.2,1.6,1.2,3.9,0.2,7c-0.7,2.1-3,7.2-5.2,11.1C401.3,116.8,401.2,116.9,401,116.9z M382.6,116.1h18.2
				c2.2-3.8,4.3-8.7,5.1-10.8c1-2.8,0.9-4.9-0.1-6.3c-1-1.4-3.1-2.1-6.2-2l-6.3,0.2c-0.1,0-0.2,0-0.3-0.1c-0.1-0.1-0.1-0.2-0.1-0.3
				c0,0,1-4.6,1.8-8c0.1-0.6,0.2-1.5-0.2-1.8c-0.4-0.3-1.1-0.2-1.5-0.1l-10.5,10.5C382.6,98.8,382.6,109.4,382.6,116.1z"/>
		</g>
	</g>
	<g>
		<g>
			<circle fill="#FF7F6E" cx="308.3" cy="103.4" r="21.1"/>
			<path fill="#002138" d="M308.3,124.9c-11.8,0-21.5-9.6-21.5-21.5S296.5,82,308.3,82s21.5,9.6,21.5,21.5S320.1,124.9,308.3,124.9z
				 M308.3,82.8c-11.4,0-20.7,9.3-20.7,20.7s9.3,20.7,20.7,20.7s20.7-9.3,20.7-20.7S319.7,82.8,308.3,82.8z"/>
		</g>
		<g>
			<path fill="#FFFFFF" d="M326,114.8c2.1-3.3,3.3-7.2,3.3-11.4c0-11.6-9.4-21.1-21.1-21.1v21.2L326,114.8z"/>
			<path fill="#002138" d="M326,115.2c-0.1,0-0.1,0-0.2-0.1l-17.7-11.3c-0.1-0.1-0.2-0.2-0.2-0.3V82.4c0-0.2,0.2-0.4,0.4-0.4
				c11.8,0,21.5,9.6,21.5,21.5c0,4.1-1.2,8.1-3.4,11.6C326.3,115.1,326.2,115.2,326,115.2z M308.7,103.3l17.2,10.9
				c2-3.3,3.1-7,3.1-10.8c0-11.3-9.1-20.5-20.3-20.7V103.3z"/>
		</g>
	</g>
	<g>
		<g>
			<g>
				<path fill="#002138" d="M219.6,107.7c0.2,0,0.3-0.1,0.4-0.2c0.2-0.2,0.2-0.6,0-0.9l-9.1-9.1c-0.2-0.2-0.6-0.2-0.9,0
					c-0.2,0.2-0.2,0.6,0,0.9l9.1,9.1C219.3,107.6,219.4,107.7,219.6,107.7z"/>
			</g>
		</g>
		<g>
			<g>
				<path fill="#002138" d="M210.5,107.7c0.2,0,0.3-0.1,0.4-0.2l9.1-9.1c0.2-0.2,0.2-0.6,0-0.9c-0.2-0.2-0.6-0.2-0.9,0l-9.1,9.1
					c-0.2,0.2-0.2,0.6,0,0.9C210.2,107.6,210.3,107.7,210.5,107.7z"/>
			</g>
		</g>
	</g>
	<g>
		<g>
			<g>
				<path fill="#002138" d="M149.8,158.5c0-3.4,2.8-6.2,6.2-6.2c3.4,0,6.2,2.8,6.2,6.2c0,3.4-2.8,6.2-6.2,6.2
					C152.6,164.7,149.8,161.9,149.8,158.5z M151,158.5c0,2.8,2.3,5,5,5s5-2.3,5-5s-2.3-5-5-5S151,155.7,151,158.5z"/>
			</g>
		</g>
		<g>
			<path fill="#002138" d="M155.2,144.7v-3.9c0-0.3,0.3-0.6,0.6-0.6c0.3,0,0.6,0.3,0.6,0.6v3.9c0,0.3-0.3,0.6-0.6,0.6
				C155.5,145.3,155.2,145,155.2,144.7z M155.2,133.1v-3.9c0-0.3,0.3-0.6,0.6-0.6c0.3,0,0.6,0.3,0.6,0.6v3.9c0,0.3-0.3,0.6-0.6,0.6
				C155.5,133.7,155.2,133.5,155.2,133.1z M155.2,121.5v-3.9c0-0.3,0.3-0.6,0.6-0.6c0.3,0,0.6,0.3,0.6,0.6v3.9
				c0,0.3-0.3,0.6-0.6,0.6C155.5,122.1,155.2,121.9,155.2,121.5z M155.2,110v-3.9c0-0.3,0.3-0.6,0.6-0.6c0.3,0,0.6,0.3,0.6,0.6v3.9
				c0,0.3-0.3,0.6-0.6,0.6C155.5,110.6,155.2,110.3,155.2,110z M159.5,102.7c0-0.3,0.3-0.6,0.6-0.6h3.9c0.3,0,0.6,0.3,0.6,0.6
				c0,0.3-0.3,0.6-0.6,0.6h-3.9C159.8,103.3,159.5,103.1,159.5,102.7z M171.1,102.7c0-0.3,0.3-0.6,0.6-0.6h3.9
				c0.3,0,0.6,0.3,0.6,0.6c0,0.3-0.3,0.6-0.6,0.6h-3.9C171.4,103.3,171.1,103.1,171.1,102.7z M182.7,102.7c0-0.3,0.3-0.6,0.6-0.6
				h3.9c0.3,0,0.6,0.3,0.6,0.6c0,0.3-0.3,0.6-0.6,0.6h-3.9C183,103.3,182.7,103.1,182.7,102.7z M194.3,102.7c0-0.3,0.3-0.6,0.6-0.6
				h3.9c0.3,0,0.6,0.3,0.6,0.6c0,0.3-0.3,0.6-0.6,0.6h-3.9C194.5,103.3,194.3,103.1,194.3,102.7z"/>
		</g>
	</g>
	<g>
		<g>
			<g>
				<path fill="#002138" d="M567,107.7c-0.2,0-0.3-0.1-0.4-0.2c-0.2-0.2-0.2-0.6,0-0.9l9.1-9.1c0.2-0.2,0.6-0.2,0.9,0
					c0.2,0.2,0.2,0.6,0,0.9l-9.1,9.1C567.3,107.6,567.1,107.7,567,107.7z"/>
			</g>
		</g>
		<g>
			<g>
				<path fill="#002138" d="M576.1,107.7c-0.2,0-0.3-0.1-0.4-0.2l-9.1-9.1c-0.2-0.2-0.2-0.6,0-0.9c0.2-0.2,0.6-0.2,0.9,0l9.1,9.1
					c0.2,0.2,0.2,0.6,0,0.9C576.4,107.6,576.3,107.7,576.1,107.7z"/>
			</g>
		</g>
	</g>
	<g>
		<g>
			<g>
				<path fill="#002138" d="M630.5,164.7c-3.4,0-6.2-2.8-6.2-6.2c0-3.4,2.8-6.2,6.2-6.2c3.4,0,6.2,2.8,6.2,6.2
					C636.8,161.9,634,164.7,630.5,164.7z M630.5,153.4c-2.8,0-5,2.3-5,5s2.3,5,5,5c2.8,0,5-2.3,5-5S633.3,153.4,630.5,153.4z"/>
			</g>
		</g>
		<g>
			<path fill="#002138" d="M630.8,145.3c-0.3,0-0.6-0.3-0.6-0.6v-3.9c0-0.3,0.3-0.6,0.6-0.6c0.3,0,0.6,0.3,0.6,0.6v3.9
				C631.4,145,631.1,145.3,630.8,145.3z M630.8,133.7c-0.3,0-0.6-0.3-0.6-0.6v-3.9c0-0.3,0.3-0.6,0.6-0.6c0.3,0,0.6,0.3,0.6,0.6v3.9
				C631.4,133.5,631.1,133.7,630.8,133.7z M630.8,122.1c-0.3,0-0.6-0.3-0.6-0.6v-3.9c0-0.3,0.3-0.6,0.6-0.6c0.3,0,0.6,0.3,0.6,0.6
				v3.9C631.4,121.9,631.1,122.1,630.8,122.1z M630.8,110.6c-0.3,0-0.6-0.3-0.6-0.6v-3.9c0-0.3,0.3-0.6,0.6-0.6
				c0.3,0,0.6,0.3,0.6,0.6v3.9C631.4,110.3,631.1,110.6,630.8,110.6z M626.4,103.3h-3.9c-0.3,0-0.6-0.3-0.6-0.6
				c0-0.3,0.3-0.6,0.6-0.6h3.9c0.3,0,0.6,0.3,0.6,0.6C627,103.1,626.8,103.3,626.4,103.3z M614.9,103.3H611c-0.3,0-0.6-0.3-0.6-0.6
				c0-0.3,0.3-0.6,0.6-0.6h3.9c0.3,0,0.6,0.3,0.6,0.6C615.5,103.1,615.2,103.3,614.9,103.3z M603.3,103.3h-3.9
				c-0.3,0-0.6-0.3-0.6-0.6c0-0.3,0.3-0.6,0.6-0.6h3.9c0.3,0,0.6,0.3,0.6,0.6C603.9,103.1,603.6,103.3,603.3,103.3z M591.7,103.3
				h-3.9c-0.3,0-0.6-0.3-0.6-0.6c0-0.3,0.3-0.6,0.6-0.6h3.9c0.3,0,0.6,0.3,0.6,0.6C592.3,103.1,592,103.3,591.7,103.3z"/>
		</g>
	</g>
	<rect x="193.4" y="151.5" fill="#D8D7F9" width="393.2" height="208.4"/>
	<path fill="#162020" d="M586.6,151.5v208.4H193.4V151.5H586.6 M587.6,150.5h-1H193.4h-1v1v208.4v1h1h393.2h1v-1V151.5V150.5
		L587.6,150.5z"/>
	<g>
		<rect x="272.7" y="354.3" fill="#FFFFFF" width="313.8" height="5.5"/>
	</g>
	
		<rect x="264.3" y="354.3" transform="matrix(7.166807e-11 -1 1 7.166807e-11 -85.2978 628.9347)" fill="#FF7F6E" width="15.1" height="5.5"/>
	<rect x="193.4" y="354.3" fill="#FF7F6E" width="78.4" height="5.5"/>
	<g>
		<rect x="132.1" y="183.2" fill="#FFFFFF" width="176.6" height="27.3"/>
		<path d="M308.7,183.2v27.3l-176.6,0v-27.3L308.7,183.2 M309.6,182.3h-0.9l-176.6,0l-0.9,0v0.9v27.3v0.9h0.9l176.6,0l0.9,0v-0.9
			v-27.3V182.3L309.6,182.3z"/>
	</g>
	<g>
		<rect x="132.1" y="183.2" fill="#FF7F6E" width="40.6" height="27.3"/>
		<path d="M172.7,183.2v27.3h-40.6v-27.3H172.7 M173.7,182.2h-1h-40.6h-1v1v27.3v1h1h40.6h1v-1v-27.3V182.2L173.7,182.2z"/>
	</g>
	<g>
		<path fill="#FFFFFF" d="M155.6,201.6c-3.6,0-6.5-2.9-6.5-6.5s2.9-6.5,6.5-6.5s6.5,2.9,6.5,6.5S159.2,201.6,155.6,201.6z
			 M155.6,190.6c-2.5,0-4.5,2-4.5,4.5s2,4.5,4.5,4.5s4.5-2,4.5-4.5S158.1,190.6,155.6,190.6z"/>
		<g>
			<path fill="#FFFFFF" d="M144.6,207.2c-0.3,0-0.5-0.1-0.7-0.3c-0.4-0.4-0.4-1,0-1.4l7.1-7.2c0.4-0.4,1-0.4,1.4,0
				c0.4,0.4,0.4,1,0,1.4l-7.1,7.2C145.1,207.1,144.8,207.2,144.6,207.2z"/>
		</g>
	</g>
	<path fill="#FFFFFF" d="M524.6,115.3c-0.1,0-0.2,0-0.3-0.1c-0.2-0.1-0.3-0.3-0.3-0.5V90.4c0-0.2,0.1-0.4,0.3-0.5
		c0.2-0.1,0.4-0.1,0.6,0l19.7,12.2c0.2,0.1,0.3,0.3,0.3,0.5s-0.1,0.4-0.3,0.5l-19.7,12.2C524.8,115.3,524.7,115.3,524.6,115.3z
		 M525.2,91.4v22.2l18-11.1L525.2,91.4z"/>
	<path fill="#FFFFFF" d="M243.5,113.7h-5.5c-0.3,0-0.6-0.3-0.6-0.6V91.9c0-0.3,0.3-0.6,0.6-0.6h5.5c0.3,0,0.6,0.3,0.6,0.6v21.2
		C244.1,113.5,243.8,113.7,243.5,113.7z M238.5,112.5h4.3v-20h-4.3V112.5z"/>
	<path fill="#FFFFFF" d="M255,113.7h-5.5c-0.3,0-0.6-0.3-0.6-0.6V91.9c0-0.3,0.3-0.6,0.6-0.6h5.5c0.3,0,0.6,0.3,0.6,0.6v21.2
		C255.6,113.5,255.4,113.7,255,113.7z M250.1,112.5h4.3v-20h-4.3V112.5z"/>
	<g>
		<g>
			<circle fill="#FF7F6E" cx="386.2" cy="253.6" r="36.8"/>
			<path d="M386.2,216.9c20.3,0,36.8,16.5,36.8,36.8s-16.5,36.8-36.8,36.8s-36.8-16.5-36.8-36.8S365.8,216.9,386.2,216.9
				 M386.2,215.9c-20.8,0-37.8,16.9-37.8,37.8s16.9,37.8,37.8,37.8s37.8-16.9,37.8-37.8S407,215.9,386.2,215.9L386.2,215.9z"/>
		</g>
	</g>
	<g>
		<polygon fill="#FFFFFF" points="374.3,276.2 413.4,253.6 374.3,231 		"/>
		<path d="M375.3,232.8l36.1,20.8l-36.1,20.8V232.8 M374.3,231v45.2l39.1-22.6L374.3,231L374.3,231z"/>
	</g>
</g>
<g id="Safe_Zone">
</g>
</svg>
