<?xml version="1.0" standalone="no"?>
<!DOCTYPE svg PUBLIC "-//W3C//DTD SVG 1.1//EN" "http://www.w3.org/Graphics/SVG/1.1/DTD/svg11.dtd" >
<svg xmlns="http://www.w3.org/2000/svg" xmlns:xlink="http://www.w3.org/1999/xlink" version="1.1">
<metadata></metadata>
<defs>
<font id="myriad_arabicregular" horiz-adv-x="0" >
<font-face units-per-em="2048" ascent="1390" descent="-658" />
<missing-glyph horiz-adv-x="389" />
<glyph unicode="&#x622;" horiz-adv-x="389" arabic-form="final" d="M-88 1182q1 58 31.5 95t87.5 37q36 0 95.5 -19t88.5 -19q50 0 102 49l14 -70q-36 -64 -129 -64q-35 0 -89.5 17.5t-77.5 17.5q-44 0 -54 -69zM85 1055l110 7l27 -723q4 -111 45.5 -156t121.5 -50q34 0 56 -17t22 -49q0 -27 -17.5 -47t-60.5 -20q-133 0 -200.5 70 t-74.5 233z" />
<glyph unicode="&#x623;" horiz-adv-x="389" arabic-form="final" d="M-28 1159l9 68q33 18 67 18q-52 39 -52 91q0 58 43.5 91t105.5 33q86 0 126 -38l-24 -67q-42 32 -105 32q-34 0 -54.5 -16.5t-20.5 -36.5q0 -35 36 -55.5t93 -20.5h97l-30 -75h-95q-137 0 -196 -24zM85 1055l110 7l27 -723q4 -111 45.5 -156t121.5 -50q34 0 56 -17 t22 -49q0 -27 -17.5 -47t-60.5 -20q-133 0 -200.5 70t-74.5 233z" />
<glyph unicode="&#x624;" horiz-adv-x="778" arabic-form="final" d="M20 -332l22 92q81 -42 188 -42q120 0 207 79.5t117 202.5h-29q-95 0 -162.5 21t-104 59.5t-52.5 82.5t-16 99q0 100 67.5 173.5t162.5 73.5q31 0 62 -10t64 -36.5t59 -67.5t43 -109t19 -154h111q34 0 56 -16.5t22 -48.5q0 -27 -17.5 -47t-60.5 -20h-121 q-34 -174 -149.5 -289t-266.5 -115q-144 0 -221 72zM217 685l8 68q31 18 66 18q-51 38 -51 91q0 58 43.5 91t105.5 33q84 0 124 -38l-21 -67q-42 32 -106 32q-35 0 -54.5 -16t-19.5 -37q0 -35 35.5 -55.5t92.5 -20.5h97l-31 -75h-95q-136 0 -194 -24zM284 276 q0 -30 9.5 -52.5t35.5 -45t81 -34.5t137 -12h22q-4 127 -50.5 196.5t-117.5 69.5q-50 0 -83.5 -37.5t-33.5 -84.5z" />
<glyph unicode="&#x625;" horiz-adv-x="389" arabic-form="final" d="M80 -405l9 69q32 17 68 17q-53 36 -53 91q0 58 43.5 91t105.5 33q84 0 126 -38l-24 -67q-42 32 -105 32q-35 0 -54.5 -16t-19.5 -37q0 -35 35.5 -55.5t92.5 -20.5h97l-31 -74h-95q-134 0 -195 -25zM85 1055l110 7l27 -723q4 -111 45.5 -156t121.5 -50q34 0 56 -17t22 -49 q0 -27 -17.5 -47t-60.5 -20q-133 0 -200.5 70t-74.5 233z" />
<glyph unicode="&#x626;" horiz-adv-x="418" arabic-form="initial" d="M-73 69q0 24 17.5 44t55.5 20h29q155 0 207 34q1 9 1 28q-5 151 -113 339l107 42q39 -72 71.5 -184t32.5 -208q0 -69 -16 -112q-39 -34 -102 -53t-195 -19h-22q-40 0 -56.5 20.5t-16.5 48.5zM-51 734l9 69q33 18 67 18q-53 40 -53 90q0 58 43.5 91.5t105.5 33.5 q86 0 126 -38l-23 -68q-43 33 -106 33q-34 0 -54 -16.5t-20 -36.5q0 -35 36 -55.5t93 -20.5h96l-29 -75h-95q-135 0 -196 -25z" />
<glyph unicode="&#x626;" horiz-adv-x="459" arabic-form="medial" d="M-79 67q0 25 19 45t57 20q58 0 97.5 16t61.5 49t32.5 68.5t16.5 89.5l86 8q-3 -36 -3 -50q0 -81 37 -130.5t134 -50.5q34 0 56 -16.5t22 -48.5q0 -27 -17.5 -47t-60.5 -20q-94 0 -148.5 36t-76.5 110q-53 -146 -238 -146q-40 0 -57.5 19.5t-17.5 47.5zM67 579l11 69 q31 18 65 18q-52 39 -52 90q0 58 44 91.5t106 33.5q85 0 125 -38l-22 -68q-42 32 -106 32q-35 0 -54.5 -15.5t-19.5 -36.5q0 -35 36 -55.5t93 -20.5h96l-31 -75h-95q-134 0 -196 -25z" />
<glyph unicode="&#x626;" horiz-adv-x="965" arabic-form="final" d="M73 -4q0 133 60 253l82 -12q-38 -109 -38 -217q0 -74 26 -130.5t72.5 -89.5t104 -49t125.5 -16q118 0 214.5 36t149.5 91q35 35 35 60q0 33 -49 55.5t-124 22.5h-8l38 132h204q34 0 56 -16.5t22 -48.5q0 -27 -17.5 -47t-60.5 -20h-5q33 -31 33 -82q0 -60 -41 -113 q-65 -89 -191.5 -144t-274.5 -55q-207 0 -310 106t-103 284zM331 569l8 69q32 17 68 17q-53 40 -53 91q0 58 43.5 91t105.5 33q86 0 126 -38l-23 -67q-42 32 -106 32q-34 0 -54 -16t-20 -36q0 -35 35.5 -55.5t92.5 -20.5h97l-29 -75h-95q-135 0 -196 -25z" />
<glyph unicode="&#x627;" horiz-adv-x="389" arabic-form="final" d="M85 1055l110 7l27 -723q4 -111 45.5 -156t121.5 -50q34 0 56 -17t22 -49q0 -27 -17.5 -47t-60.5 -20q-133 0 -200.5 70t-74.5 233z" />
<glyph unicode="&#x628;" horiz-adv-x="418" arabic-form="initial" d="M-73 69q0 24 17.5 44t55.5 20h29q155 0 207 34q1 9 1 28q-5 151 -113 339l107 42q39 -72 71.5 -184t32.5 -208q0 -69 -16 -112q-39 -34 -102 -53t-195 -19h-22q-40 0 -56.5 20.5t-16.5 48.5zM110 -290q0 35 21.5 57t54.5 22q34 0 55 -22t21 -57q0 -37 -21 -58.5 t-55 -21.5t-55 21.5t-21 58.5z" />
<glyph unicode="&#x628;" horiz-adv-x="459" arabic-form="medial" d="M-79 67q0 25 19 45t57 20q58 0 97.5 16t61.5 49t32.5 68.5t16.5 89.5l86 8q-3 -36 -3 -50q0 -81 37 -130.5t134 -50.5q34 0 56 -16.5t22 -48.5q0 -27 -17.5 -47t-60.5 -20q-94 0 -148.5 36t-76.5 110q-53 -146 -238 -146q-40 0 -57.5 19.5t-17.5 47.5zM158 -290 q0 35 21.5 57t54.5 22q34 0 55 -22t21 -57q0 -37 -21 -58.5t-55 -21.5t-55 21.5t-21 58.5z" />
<glyph unicode="&#x628;" horiz-adv-x="1339" arabic-form="final" d="M72 358q0 102 30 182l81 -15q-16 -70 -16 -124q0 -299 414 -299q169 0 298 35t196 78q-4 31 -4 61q0 42 16 98l86 9q-7 -44 -7 -79q0 -163 174 -171v-1q34 0 56.5 -16.5t22.5 -48.5q0 -27 -18 -47t-61 -20q-160 0 -228 110q-216 -142 -543 -142q-237 0 -366 96t-131 294z M592 -290q0 35 22 57t55 22q34 0 55 -22t21 -57q0 -37 -21 -58.5t-55 -21.5t-55.5 21.5t-21.5 58.5z" />
<glyph unicode="&#x629;" horiz-adv-x="702" arabic-form="final" d="M69 272q0 132 143 246q51 42 217 127l-5 117l100 10l17 -452q5 -109 47 -148t114 -39q34 0 56.5 -17t22.5 -49q0 -27 -18 -47t-61 -20q-174 0 -229 133q-33 -21 -86 -33t-96 -12q-100 0 -161 50.5t-61 133.5zM168 306q0 -44 37.5 -66t101.5 -22q78 0 139 28 q0 5 -0.5 15.5t-0.5 16.5l-12 259q-135 -57 -200 -116.5t-65 -114.5zM287 983q0 35 21 56.5t53 21.5q33 0 54 -21.5t21 -56.5t-21 -55.5t-54 -20.5q-32 0 -53 20.5t-21 55.5zM486 983q0 35 19.5 56.5t51.5 21.5q34 0 54.5 -21.5t20.5 -56.5t-20.5 -55.5t-54.5 -20.5 q-32 0 -51.5 20.5t-19.5 55.5z" />
<glyph unicode="&#x62a;" horiz-adv-x="418" arabic-form="initial" d="M-73 69q0 24 17.5 44t55.5 20h29q155 0 207 34q1 9 1 28q-5 151 -113 339l107 42q39 -72 71.5 -184t32.5 -208q0 -69 -16 -112q-39 -34 -102 -53t-195 -19h-22q-40 0 -56.5 20.5t-16.5 48.5zM-61 824q0 35 21 56t53 21q33 0 54 -21t21 -56q0 -36 -21 -57t-54 -21 q-32 0 -53 21.5t-21 56.5zM138 824q0 35 19.5 56t51.5 21q34 0 54.5 -21t20.5 -56q0 -36 -20.5 -57t-54.5 -21q-32 0 -51.5 21t-19.5 57z" />
<glyph unicode="&#x62a;" horiz-adv-x="459" arabic-form="medial" d="M-79 67q0 25 19 45t57 20q58 0 97.5 16t61.5 49t32.5 68.5t16.5 89.5l86 8q-3 -36 -3 -50q0 -81 37 -130.5t134 -50.5q34 0 56 -16.5t22 -48.5q0 -27 -17.5 -47t-60.5 -20q-94 0 -148.5 36t-76.5 110q-53 -146 -238 -146q-40 0 -57.5 19.5t-17.5 47.5zM59 669q0 35 21 56 t53 21q33 0 54 -21t21 -56q0 -36 -21 -57t-54 -21q-32 0 -53 21.5t-21 56.5zM257 669q0 35 19.5 56t52.5 21t54 -21t21 -56q0 -36 -21 -57t-54 -21t-52.5 21t-19.5 57z" />
<glyph unicode="&#x62a;" horiz-adv-x="1339" arabic-form="final" d="M72 358q0 102 30 182l81 -15q-16 -70 -16 -124q0 -299 414 -299q169 0 298 35t196 78q-4 31 -4 61q0 42 16 98l86 9q-7 -44 -7 -79q0 -163 174 -171v-1q34 0 56.5 -16.5t22.5 -48.5q0 -27 -18 -47t-61 -20q-160 0 -228 110q-216 -142 -543 -142q-237 0 -366 96t-131 294z M456 695q0 35 21.5 56t53.5 21q33 0 54 -21t21 -56q0 -36 -21 -57t-54 -21q-32 0 -53.5 21.5t-21.5 56.5zM655 695q0 35 20 56t52 21q34 0 54.5 -21t20.5 -56q0 -36 -20.5 -57t-54.5 -21q-32 0 -52 21t-20 57z" />
<glyph unicode="&#x62b;" horiz-adv-x="418" arabic-form="initial" d="M-73 69q0 24 17.5 44t55.5 20h29q155 0 207 34q1 9 1 28q-5 151 -113 339l107 42q39 -72 71.5 -184t32.5 -208q0 -69 -16 -112q-39 -34 -102 -53t-195 -19h-22q-40 0 -56.5 20.5t-16.5 48.5zM-59 825q0 32 21.5 54t52.5 22q32 0 53 -22t21 -54q0 -36 -20.5 -57.5 t-53.5 -21.5q-32 0 -53 21t-21 58zM42 1001q0 34 20 55.5t51 21.5q33 0 53.5 -21.5t20.5 -55.5q0 -36 -20 -57t-54 -21q-32 0 -51.5 20.5t-19.5 57.5zM136 825q0 32 20.5 54t52.5 22t52 -22t20 -54q0 -36 -19.5 -57.5t-52.5 -21.5t-53 21t-20 58z" />
<glyph unicode="&#x62b;" horiz-adv-x="459" arabic-form="medial" d="M-79 67q0 25 19 45t57 20q58 0 97.5 16t61.5 49t32.5 68.5t16.5 89.5l86 8q-3 -36 -3 -50q0 -81 37 -130.5t134 -50.5q34 0 56 -16.5t22 -48.5q0 -27 -17.5 -47t-60.5 -20q-94 0 -148.5 36t-76.5 110q-53 -146 -238 -146q-40 0 -57.5 19.5t-17.5 47.5zM61 670 q0 32 21.5 54t52.5 22t52 -22t21 -54q0 -36 -20.5 -57.5t-52.5 -21.5q-34 0 -54 21t-20 58zM161 846q0 34 20 55.5t52 21.5q33 0 53 -21.5t20 -55.5q0 -36 -19.5 -57t-53.5 -21q-32 0 -52 20.5t-20 57.5zM255 670q0 32 21 54t52 22q32 0 51.5 -22t19.5 -54q0 -36 -19 -57.5 t-52 -21.5q-32 0 -52.5 21t-20.5 58z" />
<glyph unicode="&#x62b;" horiz-adv-x="1339" arabic-form="final" d="M72 358q0 102 30 182l81 -15q-16 -70 -16 -124q0 -299 414 -299q169 0 298 35t196 78q-4 31 -4 61q0 42 16 98l86 9q-7 -44 -7 -79q0 -163 174 -171v-1q34 0 56.5 -16.5t22.5 -48.5q0 -27 -18 -47t-61 -20q-160 0 -228 110q-216 -142 -543 -142q-237 0 -366 96t-131 294z M459 696q0 32 21 54t52 22q33 0 54 -22t21 -54q0 -36 -21 -57.5t-54 -21.5q-32 0 -52.5 21t-20.5 58zM560 872q0 34 19.5 55.5t50.5 21.5q34 0 54.5 -21.5t20.5 -55.5q0 -36 -20.5 -57t-54.5 -21q-32 0 -51 20.5t-19 57.5zM654 696q0 32 20.5 54t52.5 22t52 -22t20 -54 q0 -36 -19.5 -57.5t-52.5 -21.5t-53 21t-20 58z" />
<glyph unicode="&#x62c;" horiz-adv-x="955" arabic-form="initial" d="M-73 66q0 28 18 47.5t56 19.5h18q286 0 496 97q124 56 154 65q-31 11 -115 48t-152.5 59t-126.5 22q-121 0 -196 -33l20 120q65 32 177 32q22 0 43.5 -1.5t46 -7t40 -8.5t44 -13t39 -13t43 -17t38.5 -16.5t43 -19t39 -17.5q79 -34 120 -45.5t85 -11.5h54l-20 -121h-24 q-91 0 -254 -94q-157 -91 -289 -124.5t-306 -33.5h-17q-35 0 -54.5 18.5t-19.5 47.5zM391 -233q0 35 21 57t55 22t54 -22t20 -57q0 -37 -20.5 -58.5t-55.5 -21.5q-33 0 -53.5 21.5t-20.5 58.5z" />
<glyph unicode="&#x62c;" horiz-adv-x="997" arabic-form="medial" d="M-73 66q0 28 18 47.5t56 19.5h18q273 0 452 88q30 14 63.5 30.5t50 25t36 17t36.5 13.5q-33 10 -112 43t-149 53.5t-134 20.5q-125 0 -193 -39l22 121q65 37 177 37q88 0 172 -26t193 -77q121 -54 227 -54h43l-21 -121h-39q-5 0 -11.5 -0.5t-14.5 -1.5t-12 -1 q7 -74 57.5 -101.5t135.5 -27.5q33 0 55 -17t22 -49q0 -67 -77 -67q-131 1 -201 57t-77 177q-62 -25 -120 -61q-152 -98 -277 -135.5t-305 -37.5h-17q-35 0 -54.5 18.5t-19.5 47.5zM391 -233q0 35 21 57t55 22t54 -22t20 -57q0 -37 -20.5 -58.5t-55.5 -21.5 q-33 0 -53.5 21.5t-20.5 58.5z" />
<glyph unicode="&#x62c;" horiz-adv-x="983" arabic-form="final" d="M75 -108q0 83 35 157t89.5 125.5t125.5 92t138.5 63.5t133.5 34q-9 2 -76.5 26t-128 38.5t-113.5 14.5q-122 0 -197 -36l25 124q73 32 178 32q48 0 106 -12t96.5 -24.5t103.5 -36t89 -31.5q81 -33 144 -33h74l-31 -128q-23 3 -90 3q14 -170 206 -168q35 0 57 -17t22 -49 q0 -27 -18 -47t-61 -20q-145 -1 -221 71.5t-76 225.5q-29 -4 -92 -18q-80 -19 -148.5 -52t-125 -78.5t-88.5 -109t-32 -136.5q0 -113 68 -192t180 -116t257 -37q102 0 192 21l-49 -114q-70 -25 -191 -25q-123 0 -228.5 29.5t-184.5 85.5t-124 142.5t-45 194.5zM468 -76 q0 35 21 57t55 22t55 -22t21 -57q0 -36 -21 -58.5t-56 -22.5q-33 0 -54 22.5t-21 58.5z" />
<glyph unicode="&#x62d;" horiz-adv-x="955" arabic-form="initial" d="M-73 66q0 28 18 47.5t56 19.5h18q286 0 496 97q124 56 154 65q-31 11 -115 48t-152.5 59t-126.5 22q-121 0 -196 -33l20 120q65 32 177 32q22 0 43.5 -1.5t46 -7t40 -8.5t44 -13t39 -13t43 -17t38.5 -16.5t43 -19t39 -17.5q79 -34 120 -45.5t85 -11.5h54l-20 -121h-24 q-91 0 -254 -94q-157 -91 -289 -124.5t-306 -33.5h-17q-35 0 -54.5 18.5t-19.5 47.5z" />
<glyph unicode="&#x62d;" horiz-adv-x="997" arabic-form="medial" d="M-73 66q0 28 18 47.5t56 19.5h18q273 0 452 88q30 14 63.5 30.5t50 25t36 17t36.5 13.5q-33 10 -112 43t-149 53.5t-134 20.5q-125 0 -193 -39l22 121q65 37 177 37q88 0 172 -26t193 -77q121 -54 227 -54h43l-21 -121h-39q-5 0 -11.5 -0.5t-14.5 -1.5t-12 -1 q7 -74 57.5 -101.5t135.5 -27.5q33 0 55 -17t22 -49q0 -67 -77 -67q-131 1 -201 57t-77 177q-62 -25 -120 -61q-152 -98 -277 -135.5t-305 -37.5h-17q-35 0 -54.5 18.5t-19.5 47.5z" />
<glyph unicode="&#x62d;" horiz-adv-x="983" arabic-form="final" d="M75 -108q0 83 35 157t89.5 125.5t125.5 92t138.5 63.5t133.5 34q-9 2 -76.5 26t-128 38.5t-113.5 14.5q-122 0 -197 -36l25 124q73 32 178 32q48 0 106 -12t96.5 -24.5t103.5 -36t89 -31.5q81 -33 144 -33h74l-31 -128q-23 3 -90 3q14 -170 206 -168q35 0 57 -17t22 -49 q0 -27 -18 -47t-61 -20q-145 -1 -221 71.5t-76 225.5q-29 -4 -92 -18q-80 -19 -148.5 -52t-125 -78.5t-88.5 -109t-32 -136.5q0 -113 68 -192t180 -116t257 -37q102 0 192 21l-49 -114q-70 -25 -191 -25q-123 0 -228.5 29.5t-184.5 85.5t-124 142.5t-45 194.5z" />
<glyph unicode="&#x62e;" horiz-adv-x="955" arabic-form="initial" d="M-73 66q0 28 18 47.5t56 19.5h18q286 0 496 97q124 56 154 65q-31 11 -115 48t-152.5 59t-126.5 22q-121 0 -196 -33l20 120q65 32 177 32q22 0 43.5 -1.5t46 -7t40 -8.5t44 -13t39 -13t43 -17t38.5 -16.5t43 -19t39 -17.5q79 -34 120 -45.5t85 -11.5h54l-20 -121h-24 q-91 0 -254 -94q-157 -91 -289 -124.5t-306 -33.5h-17q-35 0 -54.5 18.5t-19.5 47.5zM433 803q0 34 21.5 56.5t54.5 22.5t54.5 -22.5t21.5 -56.5q0 -37 -21 -58.5t-56 -21.5q-34 0 -54.5 21.5t-20.5 58.5z" />
<glyph unicode="&#x62e;" horiz-adv-x="997" arabic-form="medial" d="M-73 66q0 28 18 47.5t56 19.5h18q273 0 452 88q30 14 63.5 30.5t50 25t36 17t36.5 13.5q-33 10 -112 43t-149 53.5t-134 20.5q-125 0 -193 -39l22 121q65 37 177 37q88 0 172 -26t193 -77q121 -54 227 -54h43l-21 -121h-39q-5 0 -11.5 -0.5t-14.5 -1.5t-12 -1 q7 -74 57.5 -101.5t135.5 -27.5q33 0 55 -17t22 -49q0 -67 -77 -67q-131 1 -201 57t-77 177q-62 -25 -120 -61q-152 -98 -277 -135.5t-305 -37.5h-17q-35 0 -54.5 18.5t-19.5 47.5zM433 803q0 34 21.5 56.5t54.5 22.5t54.5 -22.5t21.5 -56.5q0 -37 -21 -58.5t-56 -21.5 q-34 0 -54.5 21.5t-20.5 58.5z" />
<glyph unicode="&#x62e;" horiz-adv-x="983" arabic-form="final" d="M75 -108q0 83 35 157t89.5 125.5t125.5 92t138.5 63.5t133.5 34q-9 2 -76.5 26t-128 38.5t-113.5 14.5q-122 0 -197 -36l25 124q73 32 178 32q48 0 106 -12t96.5 -24.5t103.5 -36t89 -31.5q81 -33 144 -33h74l-31 -128q-23 3 -90 3q14 -170 206 -168q35 0 57 -17t22 -49 q0 -27 -18 -47t-61 -20q-145 -1 -221 71.5t-76 225.5q-29 -4 -92 -18q-80 -19 -148.5 -52t-125 -78.5t-88.5 -109t-32 -136.5q0 -113 68 -192t180 -116t257 -37q102 0 192 21l-49 -114q-70 -25 -191 -25q-123 0 -228.5 29.5t-184.5 85.5t-124 142.5t-45 194.5zM443 824 q0 34 21.5 56.5t54.5 22.5t54.5 -22.5t21.5 -56.5q0 -37 -21 -59t-56 -22q-33 0 -54 22t-21 59z" />
<glyph unicode="&#x62f;" horiz-adv-x="844" arabic-form="final" d="M73 228l84 16q16 -57 52.5 -82.5t116.5 -25.5q138 0 205 61q15 14 25.5 33.5t9.5 28.5q-53 219 -120 443l107 37q17 -64 54.5 -215t63.5 -245q24 -86 63 -116t110 -30q34 0 56 -17t22 -49q0 -27 -17.5 -47t-60.5 -20q-103 0 -154 35t-87 114q-17 -63 -98.5 -106 t-187.5 -43q-121 0 -180 54t-64 174z" />
<glyph unicode="&#x630;" horiz-adv-x="844" arabic-form="final" d="M73 228l84 16q16 -57 52.5 -82.5t116.5 -25.5q138 0 205 61q15 14 25.5 33.5t9.5 28.5q-53 219 -120 443l107 37q17 -64 54.5 -215t63.5 -245q24 -86 63 -116t110 -30q34 0 56 -17t22 -49q0 -27 -17.5 -47t-60.5 -20q-103 0 -154 35t-87 114q-17 -63 -98.5 -106 t-187.5 -43q-121 0 -180 54t-64 174zM413 967q0 34 21.5 56.5t54.5 22.5t54.5 -22.5t21.5 -56.5q0 -37 -21 -59t-55 -22t-55 22t-21 59z" />
<glyph unicode="&#x631;" horiz-adv-x="689" arabic-form="final" d="M20 -285l14 95q83 -50 197 -50q96 0 176 77t85 197q-8 87 -139 326l106 54q46 -91 81 -181q27 -56 62.5 -78t86.5 -22q34 0 56 -17t22 -49q0 -27 -17.5 -47t-60.5 -20q-68 0 -104 25q-2 -43 -6 -67q-27 -150 -130.5 -236t-215.5 -86q-59 0 -117.5 20t-95.5 59z" />
<glyph unicode="&#x632;" horiz-adv-x="689" arabic-form="final" d="M20 -285l14 95q83 -50 197 -50q96 0 176 77t85 197q-8 87 -139 326l106 54q46 -91 81 -181q27 -56 62.5 -78t86.5 -22q34 0 56 -17t22 -49q0 -27 -17.5 -47t-60.5 -20q-68 0 -104 25q-2 -43 -6 -67q-27 -150 -130.5 -236t-215.5 -86q-59 0 -117.5 20t-95.5 59zM282 658 q0 34 21.5 56.5t54.5 22.5t54.5 -22.5t21.5 -56.5q0 -37 -21 -58.5t-56 -21.5q-34 0 -54.5 21.5t-20.5 58.5z" />
<glyph unicode="&#x633;" horiz-adv-x="983" arabic-form="initial" d="M-75 66q0 30 18.5 48.5t56.5 18.5q100 0 148 51t67 152l94 5q-20 -68 -21 -101q-3 -46 15 -79.5t66 -33.5q61 0 96 42t54 150l92 4q-11 -55 -11 -80q-2 -64 24.5 -89t74.5 -25t80.5 31.5t32.5 80.5q0 36 -15 88t-35 92l107 31q35 -68 35 -190t-62 -192t-156 -70 q-116 0 -156 102q-56 -102 -175 -102q-111 0 -140 107q-29 -48 -86.5 -77.5t-128.5 -29.5q-39 0 -57 19t-18 47z" />
<glyph unicode="&#x633;" horiz-adv-x="1069" arabic-form="medial" d="M-73 66q0 30 18 48.5t56 18.5q100 0 147.5 50.5t68.5 152.5l93 5q-16 -52 -20 -95q-6 -47 12 -83t67 -36q58 0 95 40t57 150l90 5q-10 -56 -11 -85q-4 -108 76 -108q110 0 143 247l88 7q-6 -50 -7 -66q-5 -88 31.5 -135.5t137.5 -48.5q34 0 56 -17t22 -49 q0 -27 -17.5 -47t-60.5 -20q-92 -1 -146.5 32t-78.5 100q-26 -63 -72.5 -97.5t-102.5 -34.5q-105 0 -138 104q-57 -104 -176 -104q-110 0 -140 108q-27 -47 -85.5 -77.5t-128.5 -30.5q-39 0 -56.5 19t-17.5 47z" />
<glyph unicode="&#x633;" horiz-adv-x="1584" arabic-form="final" d="M75 32q0 144 60 262l77 -15q-35 -117 -35 -207q0 -121 72.5 -189.5t182.5 -68.5q103 0 174.5 49t102.5 136q9 34 9 52q-12 124 -93 312l105 39q31 -68 70 -213q18 -62 86 -62q61 0 94.5 39.5t53.5 150.5l91 5q-10 -65 -10 -85q0 -60 18 -84t58 -24q24 0 44.5 11t35 33.5 t24.5 43.5t18 54.5t12 53t9 51.5l88 7q-9 -70 -9 -80q-1 -84 38 -126.5t133 -43.5q34 0 56 -17t22 -49q0 -27 -17.5 -47t-60.5 -20q-90 -1 -144 31.5t-80 100.5q-28 -62 -77 -97t-101 -35q-34 0 -59.5 9t-40 27t-22 32t-14.5 36q-55 -104 -168 -104q-40 0 -71 25 q-3 -45 -10 -72q-41 -126 -145.5 -197.5t-240.5 -71.5q-152 0 -244 98.5t-92 249.5z" />
<glyph unicode="&#x634;" horiz-adv-x="983" arabic-form="initial" d="M-75 66q0 30 18.5 48.5t56.5 18.5q100 0 148 51t67 152l94 5q-20 -68 -21 -101q-3 -46 15 -79.5t66 -33.5q61 0 96 42t54 150l92 4q-11 -55 -11 -80q-2 -64 24.5 -89t74.5 -25t80.5 31.5t32.5 80.5q0 36 -15 88t-35 92l107 31q35 -68 35 -190t-62 -192t-156 -70 q-116 0 -156 102q-56 -102 -175 -102q-111 0 -140 107q-29 -48 -86.5 -77.5t-128.5 -29.5q-39 0 -57 19t-18 47zM358 647q0 32 21.5 54t52.5 22t52 -22t21 -54q0 -36 -20.5 -57.5t-52.5 -21.5q-34 0 -54 21t-20 58zM458 822q0 34 20.5 56t51.5 22q33 0 53 -22t20 -56 q0 -36 -19.5 -56.5t-53.5 -20.5q-32 0 -52 20t-20 57zM551 647q0 32 21.5 54t52.5 22q32 0 51.5 -22t19.5 -54q0 -36 -19 -57.5t-52 -21.5q-32 0 -53 21t-21 58z" />
<glyph unicode="&#x634;" horiz-adv-x="1069" arabic-form="medial" d="M-73 66q0 30 18 48.5t56 18.5q100 0 147.5 50.5t68.5 152.5l93 5q-16 -52 -20 -95q-6 -47 12 -83t67 -36q58 0 95 40t57 150l90 5q-10 -56 -11 -85q-4 -108 76 -108q110 0 143 247l88 7q-6 -50 -7 -66q-5 -88 31.5 -135.5t137.5 -48.5q34 0 56 -17t22 -49 q0 -27 -17.5 -47t-60.5 -20q-92 -1 -146.5 32t-78.5 100q-26 -63 -72.5 -97.5t-102.5 -34.5q-105 0 -138 104q-57 -104 -176 -104q-110 0 -140 108q-27 -47 -85.5 -77.5t-128.5 -30.5q-39 0 -56.5 19t-17.5 47zM355 647q0 32 21.5 54t52.5 22q32 0 53 -22t21 -54 q0 -36 -20.5 -57.5t-53.5 -21.5q-32 0 -53 21t-21 58zM456 822q0 34 20 56t51 22q33 0 53.5 -22t20.5 -56q0 -36 -20 -56.5t-54 -20.5q-32 0 -51.5 20t-19.5 57zM550 647q0 32 20.5 54t52.5 22t52 -22t20 -54q0 -36 -19.5 -57.5t-52.5 -21.5t-53 21t-20 58z" />
<glyph unicode="&#x634;" horiz-adv-x="1584" arabic-form="final" d="M75 32q0 144 60 262l77 -15q-35 -117 -35 -207q0 -121 72.5 -189.5t182.5 -68.5q103 0 174.5 49t102.5 136q9 34 9 52q-12 124 -93 312l105 39q31 -68 70 -213q18 -62 86 -62q61 0 94.5 39.5t53.5 150.5l91 5q-10 -65 -10 -85q0 -60 18 -84t58 -24q24 0 44.5 11t35 33.5 t24.5 43.5t18 54.5t12 53t9 51.5l88 7q-9 -70 -9 -80q-1 -84 38 -126.5t133 -43.5q34 0 56 -17t22 -49q0 -27 -17.5 -47t-60.5 -20q-90 -1 -144 31.5t-80 100.5q-28 -62 -77 -97t-101 -35q-34 0 -59.5 9t-40 27t-22 32t-14.5 36q-55 -104 -168 -104q-40 0 -71 25 q-3 -45 -10 -72q-41 -126 -145.5 -197.5t-240.5 -71.5q-152 0 -244 98.5t-92 249.5zM872 647q0 32 21 54t52 22q33 0 54 -22t21 -54q0 -36 -21 -57.5t-54 -21.5q-32 0 -52.5 21t-20.5 58zM973 822q0 34 19.5 56t50.5 22q33 0 54 -22t21 -56q0 -36 -20.5 -56.5t-54.5 -20.5 q-32 0 -51 20t-19 57zM1066 647q0 32 21 54t53 22t51.5 -22t19.5 -54q0 -36 -19 -57.5t-52 -21.5q-34 0 -54 21t-20 58z" />
<glyph unicode="&#x635;" horiz-adv-x="1274" arabic-form="initial" d="M-76 66q0 28 19.5 47.5t55.5 19.5q48 0 84 16t56 38.5t34.5 63.5t20 72.5t12.5 84.5l92 6q-8 -37 -8 -85q-4 -124 92 -171q48 77 102.5 143.5t123 129t149 99t160.5 36.5q127 0 208.5 -85t81.5 -191q0 -83 -57 -144t-152 -99q-139 -57 -372 -57q-104 0 -176.5 12 t-115.5 36.5t-64.5 47.5t-42.5 60q-29 -65 -89.5 -105.5t-138.5 -40.5q-37 0 -56 20t-19 46zM471 135q67 -15 168 -15q197 0 299 31q77 22 127 56t50 78q0 62 -59 113t-159 51q-56 0 -122.5 -29t-149 -102.5t-154.5 -182.5z" />
<glyph unicode="&#x635;" horiz-adv-x="1306" arabic-form="medial" d="M-76 66q0 28 19.5 47.5t55.5 19.5q48 0 84 16t56 38.5t34.5 63.5t20 72.5t12.5 84.5l92 6q-8 -37 -8 -85q-4 -124 92 -171q48 77 102.5 143.5t123 129t149 99t160.5 36.5q127 0 208.5 -85t81.5 -191q0 -75 -50 -136q71 -21 149 -21q34 0 56 -17t22 -49q0 -27 -17.5 -47 t-60.5 -20h-22q-150 0 -247 64q-7 -3 -20.5 -9t-18.5 -8q-139 -57 -372 -57q-104 0 -176.5 12t-115.5 36.5t-64.5 47.5t-42.5 60q-29 -65 -89.5 -105.5t-138.5 -40.5q-37 0 -56 20t-19 46zM471 135q67 -15 168 -15q197 0 299 31q77 22 127 56t50 78q0 62 -59 113t-159 51 q-56 0 -122.5 -29t-149 -102.5t-154.5 -182.5z" />
<glyph unicode="&#x635;" horiz-adv-x="1792" arabic-form="final" d="M75 13q0 122 54 225l79 -14q-34 -94 -34 -174q0 -118 72 -182t180 -64q97 0 172.5 45t105.5 131q10 22 10 45q0 124 -84 314l103 47q1 -3 5 -15.5t8 -22.5q29 -87 53.5 -125t69.5 -62q37 60 78.5 114t95 108.5t108.5 94t121 64t131 24.5q127 0 209 -85t82 -191 q0 -75 -50 -136q71 -22 148 -22q35 0 57 -16.5t22 -48.5q0 -27 -18 -47t-61 -20h-22q-146 0 -246 64q-10 -5 -41 -17q-139 -57 -361 -57q-225 0 -317 76q0 -93 -12 -132q-37 -121 -139 -190t-244 -69q-156 0 -245.5 93t-89.5 245zM957 138q66 -18 169 -18q189 0 297 31 q176 54 176 136q0 60 -58.5 111t-153.5 51q-58 0 -125 -29t-149.5 -101.5t-155.5 -180.5z" />
<glyph unicode="&#x636;" horiz-adv-x="1274" arabic-form="initial" d="M-76 66q0 28 19.5 47.5t55.5 19.5q48 0 84 16t56 38.5t34.5 63.5t20 72.5t12.5 84.5l92 6q-8 -37 -8 -85q-4 -124 92 -171q48 77 102.5 143.5t123 129t149 99t160.5 36.5q127 0 208.5 -85t81.5 -191q0 -83 -57 -144t-152 -99q-139 -57 -372 -57q-104 0 -176.5 12 t-115.5 36.5t-64.5 47.5t-42.5 60q-29 -65 -89.5 -105.5t-138.5 -40.5q-37 0 -56 20t-19 46zM471 135q67 -15 168 -15q197 0 299 31q77 22 127 56t50 78q0 62 -59 113t-159 51q-56 0 -122.5 -29t-149 -102.5t-154.5 -182.5zM633 831q0 34 21.5 56.5t54.5 22.5 q34 0 55.5 -22.5t21.5 -56.5q0 -37 -21.5 -59t-55.5 -22t-55 22t-21 59z" />
<glyph unicode="&#x636;" horiz-adv-x="1306" arabic-form="medial" d="M-76 66q0 28 19.5 47.5t55.5 19.5q48 0 84 16t56 38.5t34.5 63.5t20 72.5t12.5 84.5l92 6q-8 -37 -8 -85q-4 -124 92 -171q48 77 102.5 143.5t123 129t149 99t160.5 36.5q127 0 208.5 -85t81.5 -191q0 -75 -50 -136q71 -21 149 -21q34 0 56 -17t22 -49q0 -27 -17.5 -47 t-60.5 -20h-22q-150 0 -247 64q-7 -3 -20.5 -9t-18.5 -8q-139 -57 -372 -57q-104 0 -176.5 12t-115.5 36.5t-64.5 47.5t-42.5 60q-29 -65 -89.5 -105.5t-138.5 -40.5q-37 0 -56 20t-19 46zM471 135q67 -15 168 -15q197 0 299 31q77 22 127 56t50 78q0 62 -59 113t-159 51 q-56 0 -122.5 -29t-149 -102.5t-154.5 -182.5zM633 831q0 34 21.5 56.5t54.5 22.5q34 0 55.5 -22.5t21.5 -56.5q0 -37 -21.5 -59t-56.5 -22q-33 0 -54 22t-21 59z" />
<glyph unicode="&#x636;" horiz-adv-x="1792" arabic-form="final" d="M75 13q0 122 54 225l79 -14q-34 -94 -34 -174q0 -118 72 -182t180 -64q97 0 172.5 45t105.5 131q10 22 10 45q0 124 -84 314l103 47q1 -3 5 -15.5t8 -22.5q29 -87 53.5 -125t69.5 -62q37 60 78.5 114t95 108.5t108.5 94t121 64t131 24.5q127 0 209 -85t82 -191 q0 -75 -50 -136q71 -22 148 -22q35 0 57 -16.5t22 -48.5q0 -27 -18 -47t-61 -20h-22q-146 0 -246 64q-10 -5 -41 -17q-139 -57 -361 -57q-225 0 -317 76q0 -93 -12 -132q-37 -121 -139 -190t-244 -69q-156 0 -245.5 93t-89.5 245zM957 138q66 -18 169 -18q189 0 297 31 q176 54 176 136q0 60 -58.5 111t-153.5 51q-58 0 -125 -29t-149.5 -101.5t-155.5 -180.5zM1119 831q0 34 21.5 56.5t54.5 22.5t54.5 -22.5t21.5 -56.5q0 -37 -21 -59t-55 -22t-55 22t-21 59z" />
<glyph unicode="&#x637;" horiz-adv-x="1015" arabic-form="initial" d="M-73 69q0 24 16.5 44t56.5 20h97q26 43 39 72q12 28 14 64.5t-2 78.5l-28 705l111 9l19 -528q5 -155 -1 -215q88 111 194.5 179t214.5 68q125 0 207.5 -83.5t82.5 -191.5q0 -156 -162 -225q-151 -66 -555 -66h-231q-40 0 -56.5 21t-16.5 48zM215 133h45q353 0 463 35 q64 21 96 48t32 74q0 57 -55.5 108t-153.5 51q-97 0 -212.5 -80.5t-214.5 -235.5z" />
<glyph unicode="&#x637;" horiz-adv-x="1045" arabic-form="medial" d="M-73 69q0 24 16.5 44t56.5 20h97q26 43 39 72q12 28 14 64.5t-2 78.5l-28 705l111 9l19 -528q5 -155 -1 -215q88 111 194.5 179t214.5 68q125 0 207.5 -83.5t82.5 -191.5q0 -82 -44 -139q52 -20 142 -20q34 0 55.5 -16.5t21.5 -48.5q0 -67 -77 -67h-23q-153 0 -242 64 q-146 -64 -550 -64h-231q-40 0 -56.5 21t-16.5 48zM215 133h45q353 0 463 35q64 21 96 48t32 74q0 57 -55.5 108t-153.5 51q-97 0 -212.5 -80.5t-214.5 -235.5z" />
<glyph unicode="&#x637;" horiz-adv-x="1152" arabic-form="final" d="M22 155q72 -22 181 -22q30 50 40 72q12 28 14 64.5t-2 78.5l-28 705l108 9l20 -528q7 -145 0 -215q88 111 194.5 179t214.5 68q126 0 207.5 -83.5t81.5 -191.5q0 -84 -45 -142q59 -17 145 -17q34 0 55.5 -16.5t21.5 -48.5q0 -67 -77 -67h-22q-157 0 -249 61 q-147 -61 -546 -61q-164 0 -269 19zM320 133h46q353 0 463 35q65 21 97 48t32 74q0 57 -56 108t-153 51q-99 0 -215 -80.5t-214 -235.5z" />
<glyph unicode="&#x638;" horiz-adv-x="1015" arabic-form="initial" d="M-73 69q0 24 16.5 44t56.5 20h97q26 43 39 72q12 28 14 64.5t-2 78.5l-28 705l111 9l19 -528q5 -155 -1 -215q88 111 194.5 179t214.5 68q125 0 207.5 -83.5t82.5 -191.5q0 -156 -162 -225q-151 -66 -555 -66h-231q-40 0 -56.5 21t-16.5 48zM215 133h45q353 0 463 35 q64 21 96 48t32 74q0 57 -55.5 108t-153.5 51q-97 0 -212.5 -80.5t-214.5 -235.5zM494 831q0 34 22 56.5t55 22.5t54.5 -22.5t21.5 -56.5q0 -37 -21 -59t-55 -22t-55.5 22t-21.5 59z" />
<glyph unicode="&#x638;" horiz-adv-x="1045" arabic-form="medial" d="M-73 69q0 24 16.5 44t56.5 20h97q26 43 39 72q12 28 14 64.5t-2 78.5l-28 705l111 9l19 -528q5 -155 -1 -215q88 111 194.5 179t214.5 68q125 0 207.5 -83.5t82.5 -191.5q0 -82 -44 -139q52 -20 142 -20q34 0 55.5 -16.5t21.5 -48.5q0 -67 -77 -67h-23q-153 0 -242 64 q-146 -64 -550 -64h-231q-40 0 -56.5 21t-16.5 48zM215 133h45q353 0 463 35q64 21 96 48t32 74q0 57 -55.5 108t-153.5 51q-97 0 -212.5 -80.5t-214.5 -235.5zM494 831q0 34 22 56.5t55 22.5t54.5 -22.5t21.5 -56.5q0 -37 -21 -59t-55 -22t-55.5 22t-21.5 59z" />
<glyph unicode="&#x638;" horiz-adv-x="1152" arabic-form="final" d="M22 155q72 -22 181 -22q30 50 40 72q12 28 14 64.5t-2 78.5l-28 705l108 9l20 -528q7 -145 0 -215q88 111 194.5 179t214.5 68q126 0 207.5 -83.5t81.5 -191.5q0 -84 -45 -142q59 -17 145 -17q34 0 55.5 -16.5t21.5 -48.5q0 -67 -77 -67h-22q-157 0 -249 61 q-147 -61 -546 -61q-164 0 -269 19zM320 133h46q353 0 463 35q65 21 97 48t32 74q0 57 -56 108t-153 51q-99 0 -215 -80.5t-214 -235.5zM598 831q0 34 21.5 56.5t54.5 22.5t54.5 -22.5t21.5 -56.5q0 -37 -21 -59t-55 -22t-55 22t-21 59z" />
<glyph unicode="&#x639;" horiz-adv-x="727" arabic-form="initial" d="M-75 69q0 25 17.5 44.5t57.5 19.5h18q79 0 209 10q-53 32 -94 87.5t-41 126.5q0 121 86 199.5t207 78.5q115 0 184 -51l13 -111q-70 45 -194 45q-87 0 -144 -45t-57 -110q0 -95 142 -171q48 -27 94 -27q50 0 124.5 15t132.5 41l-19 -127q-81 -40 -271.5 -67t-369.5 -27 h-21q-36 0 -55 20t-19 49z" />
<glyph unicode="&#x639;" horiz-adv-x="889" arabic-form="medial" d="M-73 66q0 24 17.5 45.5t55.5 21.5h4q196 0 366 47q-134 107 -203 238q-61 -23 -81 -35l-13 106q183 90 394 90q321 0 321 -166q0 -60 -42.5 -123t-122.5 -119q119 -38 261 -38h5q34 0 56 -17t22 -49q0 -27 -17.5 -47t-60.5 -20h-17q-201 0 -379 98q-216 -98 -493 -98 q-38 0 -55.5 20t-17.5 46zM259 445q82 -138 235 -221q93 41 146 88.5t53 82.5q0 9 -5 18t-20.5 20t-40 19t-67.5 13.5t-99 5.5q-85 0 -202 -26z" />
<glyph unicode="&#x639;" horiz-adv-x="906" arabic-form="final" d="M72 -168q0 98 62.5 180t231.5 169q-113 103 -180 234q-44 -14 -81 -35l-13 107q61 33 169 62.5t226 29.5q166 0 244 -46t78 -122q0 -54 -46 -106t-187 -125q122 -47 268 -47h63q35 0 57 -17t22 -49q0 -27 -18 -47t-61 -20h-66q-220 0 -393 117q-153 -77 -211.5 -141.5 t-58.5 -137.5q0 -115 129 -195t338 -80q155 0 241 23l-45 -111q-87 -29 -240 -29q-105 0 -199 24.5t-168.5 71.5t-118 122t-43.5 168zM278 443q72 -131 193 -210q244 113 244 163q0 10 -5.5 19t-22 19.5t-41.5 18.5t-68 13t-98 5q-95 0 -202 -28z" />
<glyph unicode="&#x63a;" horiz-adv-x="727" arabic-form="initial" d="M-75 69q0 25 17.5 44.5t57.5 19.5h18q79 0 209 10q-53 32 -94 87.5t-41 126.5q0 121 86 199.5t207 78.5q115 0 184 -51l13 -111q-70 45 -194 45q-87 0 -144 -45t-57 -110q0 -95 142 -171q48 -27 94 -27q50 0 124.5 15t132.5 41l-19 -127q-81 -40 -271.5 -67t-369.5 -27 h-21q-36 0 -55 20t-19 49zM243 894q0 35 21.5 57t54.5 22q34 0 55 -22t21 -57q0 -36 -21 -57.5t-55 -21.5q-33 0 -54.5 21.5t-21.5 57.5z" />
<glyph unicode="&#x63a;" horiz-adv-x="889" arabic-form="medial" d="M-73 66q0 24 17.5 45.5t55.5 21.5h4q196 0 366 47q-134 107 -203 238q-61 -23 -81 -35l-13 106q183 90 394 90q321 0 321 -166q0 -60 -42.5 -123t-122.5 -119q119 -38 261 -38h5q34 0 56 -17t22 -49q0 -27 -17.5 -47t-60.5 -20h-17q-201 0 -379 98q-216 -98 -493 -98 q-38 0 -55.5 20t-17.5 46zM259 445q82 -138 235 -221q93 41 146 88.5t53 82.5q0 9 -5 18t-20.5 20t-40 19t-67.5 13.5t-99 5.5q-85 0 -202 -26zM396 879q0 34 22 56.5t55 22.5t54.5 -22.5t21.5 -56.5q0 -37 -21 -58.5t-55 -21.5t-55.5 21.5t-21.5 58.5z" />
<glyph unicode="&#x63a;" horiz-adv-x="906" arabic-form="final" d="M72 -168q0 98 62.5 180t231.5 169q-113 103 -180 234q-44 -14 -81 -35l-13 107q61 33 169 62.5t226 29.5q166 0 244 -46t78 -122q0 -54 -46 -106t-187 -125q122 -47 268 -47h63q35 0 57 -17t22 -49q0 -27 -18 -47t-61 -20h-66q-220 0 -393 117q-153 -77 -211.5 -141.5 t-58.5 -137.5q0 -115 129 -195t338 -80q155 0 241 23l-45 -111q-87 -29 -240 -29q-105 0 -199 24.5t-168.5 71.5t-118 122t-43.5 168zM278 443q72 -131 193 -210q244 113 244 163q0 10 -5.5 19t-22 19.5t-41.5 18.5t-68 13t-98 5q-95 0 -202 -28zM408 879q0 34 21.5 56.5 t54.5 22.5t54.5 -22.5t21.5 -56.5q0 -37 -21 -58.5t-56 -21.5q-34 0 -54.5 21.5t-20.5 58.5z" />
<glyph unicode="&#x641;" horiz-adv-x="637" arabic-form="initial" d="M-75 69q0 26 20 45t55 19h98q106 0 210 14t135 29q8 40 8 49q-98 -4 -173 14.5t-117 54t-62.5 78t-20.5 89.5q0 104 76 184q37 39 83.5 59t87.5 20q91 0 161.5 -101t70.5 -273q0 -61 -10 -136t-28 -119q-131 -95 -434 -95h-85q-35 0 -55 20.5t-20 48.5zM171 475 q0 -67 76.5 -104.5t210.5 -34.5q5 53 -9.5 114.5t-52 110t-89.5 48.5q-58 0 -97 -40t-39 -94zM206 987q0 34 21.5 56.5t54.5 22.5t54.5 -22.5t21.5 -56.5q0 -37 -21 -58.5t-55 -21.5t-55 21.5t-21 58.5z" />
<glyph unicode="&#x641;" horiz-adv-x="669" arabic-form="medial" d="M-75 67q0 23 18 44.5t57 21.5h48q85 0 151 9q-97 87 -97 203q0 112 82 196.5t170 84.5q78 0 144.5 -78t66.5 -194q0 -117 -95 -209q87 -12 160 -12h40q35 0 57 -17t22 -49q0 -27 -18 -47t-61 -20h-50q-153 0 -285 57q-128 -57 -278 -57h-57q-75 0 -75 67zM196 351 q0 -115 148 -174q127 52 127 168q0 65 -40.5 114.5t-89.5 49.5q-62 0 -103.5 -49t-41.5 -109zM231 886q0 34 21.5 56.5t54.5 22.5t54.5 -22.5t21.5 -56.5q0 -37 -21 -58.5t-56 -21.5q-34 0 -54.5 21.5t-20.5 58.5z" />
<glyph unicode="&#x641;" horiz-adv-x="1341" arabic-form="final" d="M73 347q0 118 41 221l78 -17q-22 -75 -22 -163q0 -289 418 -289q172 0 301 27q-115 94 -115 222q0 112 82 195t168 83q76 0 143.5 -78t67.5 -191q0 -123 -88 -214q76 -10 161 -10h33q34 0 56 -17t22 -49q0 -27 -17.5 -47t-60.5 -20h-33q-155 0 -291 54q-176 -83 -468 -83 q-131 0 -227 31.5t-148.5 86.5t-76.5 119t-24 139zM867 355q0 -127 156 -182q119 60 119 174q0 63 -39.5 112.5t-91.5 49.5q-60 0 -102 -48t-42 -106zM920 886q0 34 21.5 56.5t54.5 22.5t54.5 -22.5t21.5 -56.5q0 -37 -21 -58.5t-56 -21.5q-34 0 -54.5 21.5t-20.5 58.5z" />
<glyph unicode="&#x642;" horiz-adv-x="637" arabic-form="initial" d="M-75 69q0 26 20 45t55 19h98q106 0 210 14t135 29q8 40 8 49q-98 -4 -173 14.5t-117 54t-62.5 78t-20.5 89.5q0 104 76 184q37 39 83.5 59t87.5 20q91 0 161.5 -101t70.5 -273q0 -61 -10 -136t-28 -119q-131 -95 -434 -95h-85q-35 0 -55 20.5t-20 48.5zM110 985 q0 35 21 56t53 21q33 0 54 -21t21 -56q0 -36 -21 -57t-54 -21q-32 0 -53 21.5t-21 56.5zM171 475q0 -67 76.5 -104.5t210.5 -34.5q5 53 -9.5 114.5t-52 110t-89.5 48.5q-58 0 -97 -40t-39 -94zM309 985q0 35 19 56t52 21t54 -21t21 -56q0 -36 -21 -57t-54 -21t-52 21t-19 57 z" />
<glyph unicode="&#x642;" horiz-adv-x="669" arabic-form="medial" d="M-75 67q0 23 18 44.5t57 21.5h48q85 0 151 9q-97 87 -97 203q0 112 82 196.5t170 84.5q78 0 144.5 -78t66.5 -194q0 -117 -95 -209q87 -12 160 -12h40q35 0 57 -17t22 -49q0 -27 -18 -47t-61 -20h-50q-153 0 -285 57q-128 -57 -278 -57h-57q-75 0 -75 67zM133 884 q0 35 21.5 56t53.5 21q33 0 53.5 -21t20.5 -56q0 -36 -20.5 -57t-53.5 -21q-32 0 -53.5 21.5t-21.5 56.5zM196 351q0 -115 148 -174q127 52 127 168q0 65 -40.5 114.5t-89.5 49.5q-62 0 -103.5 -49t-41.5 -109zM332 884q0 35 20 56t52 21q34 0 54 -21t20 -56q0 -36 -20 -57 t-54 -21q-32 0 -52 21t-20 57z" />
<glyph unicode="&#x642;" horiz-adv-x="1044" arabic-form="final" d="M73 51q0 127 48 243l82 -10q-29 -106 -29 -202q0 -156 84 -233t222 -77q123 0 209.5 50t122.5 118q5 12 15 60h-33q-95 0 -163.5 21.5t-105.5 59t-53.5 81.5t-16.5 97q-1 97 68 173.5t166 76.5q31 0 61.5 -10t64 -37t59 -67.5t42.5 -108t19 -153.5h109q35 0 57 -17 t22 -49q0 -27 -18 -47t-61 -20h-118q-9 -74 -23 -105q-21 -45 -58 -87.5t-91 -80t-130 -60t-162 -22.5q-175 0 -282 104.5t-107 301.5zM478 771q0 35 21.5 56t53.5 21q33 0 54 -21t21 -56q0 -36 -21 -57t-54 -21q-32 0 -53.5 21.5t-21.5 56.5zM547 276q0 -30 10.5 -53 t38 -45t83.5 -33.5t139 -11.5h22q-3 121 -52.5 193t-120.5 72q-50 0 -85 -37.5t-35 -84.5zM677 771q0 35 20 56t52 21q34 0 54.5 -21t20.5 -56q0 -36 -20.5 -57t-54.5 -21q-32 0 -52 21t-20 57z" />
<glyph unicode="&#x643;" horiz-adv-x="577" arabic-form="initial" d="M-75 69q0 22 18 43t57 21h124q85 0 141.5 9t85 26.5t39.5 37.5t11 47q0 28 -19.5 65t-62.5 86.5t-122.5 114.5t-187.5 138q3 89 19 121q10 17 58 43q102 62 246.5 130.5t273.5 110.5l-25 -129q-104 -37 -247 -102t-218 -111q57 -44 82 -63.5t74.5 -61t73 -65.5t58 -63.5 t50 -70.5t28 -70t12.5 -77q0 -62 -28 -113t-75 -80q-52 -31 -118.5 -43.5t-171.5 -12.5h-101q-40 0 -57.5 21t-17.5 48z" />
<glyph unicode="&#x643;" horiz-adv-x="652" arabic-form="medial" d="M-75 69q0 24 17.5 44t57.5 20h44q142 0 204 29t62 90q0 23 -11.5 47t-46.5 77q-85 121 -245 275q1 6 4.5 36t6.5 54t5 28q7 17 71 52q100 53 267 122t308 113l-25 -129q-114 -36 -291 -106.5t-249 -112.5q77 -76 140.5 -151t100 -125t125.5 -176q28 -42 52 -67.5 t48.5 -36.5t39 -14t42.5 -5q34 0 56 -17t22 -49q0 -27 -17.5 -47t-60.5 -20q-87 1 -142.5 35.5t-129.5 147.5q-18 -93 -97 -138t-241 -45h-42q-41 0 -58 20t-17 49z" />
<glyph unicode="&#x643;" horiz-adv-x="1250" arabic-form="final" d="M73 313q0 60 21 123l80 -15q-7 -44 -7 -80q0 -125 94 -182.5t250 -57.5q162 0 291 41t166 96q10 12 9 90l-31 725l110 9l27 -709q7 -125 47.5 -171.5t120.5 -48.5q33 0 55 -17t22 -49q0 -67 -77 -67q-184 0 -231 159q-42 -75 -188.5 -130t-332.5 -55q-99 0 -176 21 t-123.5 54t-75.5 79t-40 91t-11 94zM430 473q41 1 78 6.5t62.5 14t45 18.5t29 19t9.5 16q0 19 -86 24q-56 3 -78 21t-22 52q0 67 60.5 128t153.5 74v-93q-72 -11 -108 -34.5t-36 -49.5q0 -17 72 -22q68 -6 90.5 -25t22.5 -54q0 -48 -35.5 -87t-84.5 -58t-98 -19q-38 0 -50 4 z" />
<glyph unicode="&#x644;" horiz-adv-x="416" arabic-form="initial" d="M-75 69q0 23 18.5 43.5t56.5 20.5q180 0 170 189l-35 731l109 9l35 -742q9 -162 -65 -241t-214 -79q-40 0 -57.5 20t-17.5 49z" />
<glyph unicode="&#x644;" horiz-adv-x="443" arabic-form="medial" d="M-76 69q0 25 18.5 44.5t57.5 19.5q93 0 131.5 56t33.5 190l-25 674l110 9l26 -682q4 -136 41.5 -190t125.5 -57q35 0 57 -17t22 -49q0 -27 -18 -47t-61 -20q-169 0 -210 139q-62 -139 -234 -139q-40 0 -57.5 20t-17.5 49z" />
<glyph unicode="&#x644;" horiz-adv-x="1009" arabic-form="final" d="M76 10q0 109 50 236l85 -15q-30 -101 -30 -178q0 -71 24 -125t64 -85t87 -46t99 -15q93 0 169.5 38t109.5 94q18 30 16 89l-43 1050l111 9l29 -783q22 -147 162 -147q35 0 57 -16.5t22 -48.5q0 -27 -18 -47t-61 -20q-109 0 -155 72l2 -25q6 -131 -44 -198 q-55 -90 -156 -140.5t-216 -50.5q-166 0 -265 95t-99 257z" />
<glyph unicode="&#x645;" horiz-adv-x="669" arabic-form="initial" d="M-79 67q0 28 18.5 47t61.5 19q51 -1 80 30t52 99q47 135 98 191t133 56q71 0 128 -53t84 -125.5t27 -144.5q0 -82 -48 -134t-119 -52q-125 0 -266 108q-29 -58 -66.5 -83t-100.5 -25h-3q-35 0 -57 16.5t-22 50.5zM218 227q43 -40 105.5 -69t118.5 -29q69 0 69 61 q0 69 -47.5 137t-105.5 68q-46 0 -78 -35.5t-62 -132.5z" />
<glyph unicode="&#x645;" horiz-adv-x="724" arabic-form="medial" d="M-79 66q0 27 18 47t61 20h7q48 2 74 28t52 101q48 127 98.5 178.5t132.5 51.5q87 0 149.5 -74.5t83.5 -174.5q29 -67 58.5 -88.5t68.5 -21.5q34 0 56 -17t22 -49q0 -27 -17.5 -47t-60.5 -20q-90 0 -140 73q-21 -42 -59.5 -66.5t-85.5 -24.5q-129 0 -271 109 q-31 -48 -69 -69.5t-96 -21.5h-3q-34 0 -56.5 17t-22.5 49zM215 209q43 -40 107 -69t120 -29q69 0 69 62q0 71 -45.5 137.5t-107.5 66.5q-46 0 -79.5 -36t-63.5 -132z" />
<glyph unicode="&#x645;" horiz-adv-x="1179" arabic-form="final" d="M44 -233q167 68 298.5 147.5t179.5 149.5q5 5 9.5 13t10.5 21t10 23.5t11 29.5t10.5 29.5l11 33t9.5 29.5q43 134 95.5 191.5t134.5 57.5q84 0 147.5 -71t83.5 -165q16 -40 32.5 -66.5t33 -38t29 -15.5t29.5 -4q34 0 56 -16.5t22 -48.5q0 -27 -17.5 -47t-60.5 -20 q-91 0 -142 79q-22 -44 -58.5 -70.5t-80.5 -26.5q-125 0 -263 106q-32 -100 -60 -136q-59 -79 -194 -153.5t-267 -104.5zM676 209q43 -40 106 -69.5t119 -29.5q29 0 48 22t19 58q0 68 -46 128.5t-106 60.5q-46 0 -78.5 -36.5t-61.5 -133.5z" />
<glyph unicode="&#x646;" horiz-adv-x="418" arabic-form="initial" d="M-73 69q0 24 17.5 44t55.5 20h29q155 0 207 34q1 9 1 28q-5 151 -113 339l107 42q39 -72 71.5 -184t32.5 -208q0 -69 -16 -112q-39 -34 -102 -53t-195 -19h-22q-40 0 -56.5 20.5t-16.5 48.5zM37 827q0 34 21.5 56.5t54.5 22.5t54.5 -22.5t21.5 -56.5q0 -37 -21.5 -59 t-56.5 -22q-33 0 -53.5 22t-20.5 59z" />
<glyph unicode="&#x646;" horiz-adv-x="459" arabic-form="medial" d="M-79 67q0 25 19 45t57 20q58 0 97.5 16t61.5 49t32.5 68.5t16.5 89.5l86 8q-3 -36 -3 -50q0 -81 37 -130.5t134 -50.5q34 0 56 -16.5t22 -48.5q0 -27 -17.5 -47t-60.5 -20q-94 0 -148.5 36t-76.5 110q-53 -146 -238 -146q-40 0 -57.5 19.5t-17.5 47.5zM155 671 q0 34 21.5 56.5t54.5 22.5t54.5 -22.5t21.5 -56.5q0 -37 -21 -58.5t-55 -21.5t-55 21.5t-21 58.5z" />
<glyph unicode="&#x646;" horiz-adv-x="934" arabic-form="final" d="M73 44q0 121 56 235l86 -13q-37 -122 -37 -197q0 -115 71.5 -185t192.5 -70q80 0 152 35.5t115 111.5q11 17 19 41t8 35q0 57 -9 98q-28 112 -98 256l107 45q71 -149 93 -284q35 -20 106 -20q34 0 55.5 -16.5t21.5 -48.5q0 -67 -77 -67t-106 16q-10 -76 -46 -136 q-53 -91 -142.5 -143.5t-213.5 -52.5q-164 0 -259 98.5t-95 261.5zM347 620q0 34 21.5 56.5t54.5 22.5t54.5 -22.5t21.5 -56.5q0 -37 -21 -58.5t-57 -21.5q-33 0 -53.5 21.5t-20.5 58.5z" />
<glyph unicode="&#x647;" horiz-adv-x="923" arabic-form="initial" d="M-72 67q0 24 17 45t55 21h34q107 0 184 13q-80 91 -80 196q0 94 57.5 170.5t146.5 115.5l-64 49l63 94q15 -11 70.5 -49t101 -70.5t82.5 -60.5q122 -89 190 -178.5t68 -187.5q1 -105 -78 -171.5t-203 -66.5q-120 0 -238 64q-132 -51 -315 -51h-19q-72 0 -72 67zM236 358 q0 -103 108 -178q155 68 155 233q0 66 -32 104.5t-62 38.5q-52 0 -110.5 -56t-58.5 -142zM464 124q61 -16 114 -16q89 0 135 30.5t46 86.5q0 114 -174 250q10 -39 10 -84q0 -161 -131 -267z" />
<glyph unicode="&#x647;" horiz-adv-x="700" arabic-form="medial" d="M-73 67q0 27 19 46.5t54 19.5h110q31 233 202 484h39q44 -51 64 -75t61 -80.5t60.5 -106t19.5 -93.5q0 -67 -35 -129h180q35 0 57 -17t22 -49q0 -27 -18 -47t-61 -20h-154q91 -62 91 -152t-65.5 -147.5t-149.5 -57.5q-74 0 -133 32t-96.5 84.5t-59 113.5t-27.5 127h-107 q-37 0 -55 21t-18 46zM202 0q14 -103 75 -175t149 -72q54 0 85.5 25.5t31.5 70.5q0 55 -62 103t-186 48h-93zM205 133h86q100 0 136.5 26.5t36.5 76.5t-38 113.5t-94 121.5q-104 -173 -127 -338z" />
<glyph unicode="&#x647;" horiz-adv-x="702" arabic-form="final" d="M69 272q0 132 143 246q51 42 217 127l-5 117l100 10l17 -452q5 -109 47 -148t114 -39q34 0 56.5 -17t22.5 -49q0 -27 -18 -47t-61 -20q-174 0 -229 133q-33 -21 -86 -33t-96 -12q-100 0 -161 50.5t-61 133.5zM168 306q0 -44 37.5 -66t101.5 -22q78 0 139 28 q0 5 -0.5 15.5t-0.5 16.5l-12 259q-135 -57 -200 -116.5t-65 -114.5z" />
<glyph unicode="&#x648;" horiz-adv-x="778" arabic-form="final" d="M20 -332l22 92q81 -42 188 -42q120 0 207 79.5t117 202.5h-29q-95 0 -162.5 21t-104 59.5t-52.5 82.5t-16 99q0 100 67.5 173.5t162.5 73.5q31 0 62 -10t64 -36.5t59 -67.5t43 -109t19 -154h111q34 0 56 -16.5t22 -48.5q0 -27 -17.5 -47t-60.5 -20h-121 q-34 -174 -149.5 -289t-266.5 -115q-144 0 -221 72zM284 276q0 -30 9.5 -52.5t35.5 -45t81 -34.5t137 -12h22q-4 127 -50.5 196.5t-117.5 69.5q-50 0 -83.5 -37.5t-33.5 -84.5z" />
<glyph unicode="&#x649;" horiz-adv-x="418" d="M-73 69q0 24 17.5 44t55.5 20h29q155 0 207 34q1 9 1 28q-5 151 -113 339l107 42q39 -72 71.5 -184t32.5 -208q0 -69 -16 -112q-39 -34 -102 -53t-195 -19h-22q-40 0 -56.5 20.5t-16.5 48.5z" />
<glyph unicode="&#x649;" horiz-adv-x="459" d="M-79 67q0 25 19 45t57 20q58 0 97.5 16t61.5 49t32.5 68.5t16.5 89.5l86 8q-3 -36 -3 -50q0 -81 37 -130.5t134 -50.5q34 0 56 -16.5t22 -48.5q0 -27 -17.5 -47t-60.5 -20q-94 0 -148.5 36t-76.5 110q-53 -146 -238 -146q-40 0 -57.5 19.5t-17.5 47.5z" />
<glyph unicode="&#x649;" horiz-adv-x="965" arabic-form="final" d="M73 -4q0 133 60 253l82 -12q-38 -109 -38 -217q0 -74 26 -130.5t72.5 -89.5t104 -49t125.5 -16q118 0 214.5 36t149.5 91q35 35 35 60q0 33 -49 55.5t-124 22.5h-8l38 132h204q34 0 56 -16.5t22 -48.5q0 -27 -17.5 -47t-60.5 -20h-5q33 -31 33 -82q0 -60 -41 -113 q-65 -89 -191.5 -144t-274.5 -55q-207 0 -310 106t-103 284z" />
<glyph unicode="&#x64a;" horiz-adv-x="418" arabic-form="initial" d="M-73 69q0 24 17.5 44t55.5 20h29q155 0 207 34q1 9 1 28q-5 151 -113 339l107 42q39 -72 71.5 -184t32.5 -208q0 -69 -16 -112q-39 -34 -102 -53t-195 -19h-22q-40 0 -56.5 20.5t-16.5 48.5zM13 -288q0 35 21.5 56t53.5 21t53 -21t21 -56t-21 -56.5t-53 -21.5t-53.5 21.5 t-21.5 56.5zM212 -288q0 35 19.5 56t52.5 21t53.5 -21t20.5 -56t-20.5 -56.5t-53.5 -21.5t-52.5 21t-19.5 57z" />
<glyph unicode="&#x64a;" horiz-adv-x="459" arabic-form="medial" d="M-79 67q0 25 19 45t57 20q58 0 97.5 16t61.5 49t32.5 68.5t16.5 89.5l86 8q-3 -36 -3 -50q0 -81 37 -130.5t134 -50.5q34 0 56 -16.5t22 -48.5q0 -27 -17.5 -47t-60.5 -20q-94 0 -148.5 36t-76.5 110q-53 -146 -238 -146q-40 0 -57.5 19.5t-17.5 47.5zM61 -288 q0 35 21.5 56t53.5 21q33 0 54 -21t21 -56t-21 -56.5t-54 -21.5q-32 0 -53.5 21.5t-21.5 56.5zM260 -288q0 35 19.5 56t52.5 21t54 -21t21 -56t-21 -56.5t-54 -21.5t-52.5 21t-19.5 57z" />
<glyph unicode="&#x64a;" horiz-adv-x="965" arabic-form="final" d="M73 -4q0 133 60 253l82 -12q-38 -109 -38 -217q0 -74 26 -130.5t72.5 -89.5t104 -49t125.5 -16q118 0 214.5 36t149.5 91q35 35 35 60q0 33 -49 55.5t-124 22.5h-8l38 132h204q34 0 56 -16.5t22 -48.5q0 -27 -17.5 -47t-60.5 -20h-5q33 -31 33 -82q0 -60 -41 -113 q-65 -89 -191.5 -144t-274.5 -55q-207 0 -310 106t-103 284zM358 -610q0 35 21.5 56.5t53.5 21.5q33 0 54 -21.5t21 -56.5t-21 -56.5t-54 -21.5q-32 0 -53.5 21.5t-21.5 56.5zM557 -610q0 35 20 56.5t52 21.5q34 0 54.5 -21.5t20.5 -56.5t-20.5 -56.5t-54.5 -21.5 q-32 0 -52 21t-20 57z" />
<glyph unicode="&#x66e;" horiz-adv-x="1339" d="M72 358q0 102 30 182l81 -15q-16 -70 -16 -124q0 -299 414 -299q169 0 298 35t196 78q-4 31 -4 61q0 42 16 98l86 9q-7 -44 -7 -79q0 -163 174 -171v-1q34 0 56.5 -16.5t22.5 -48.5q0 -27 -18 -47t-61 -20q-160 0 -228 110q-216 -142 -543 -142q-237 0 -366 96t-131 294z " />
<glyph unicode="&#x66f;" horiz-adv-x="637" d="M-75 69q0 26 20 45t55 19h98q106 0 210 14t135 29q8 40 8 49q-98 -4 -173 14.5t-117 54t-62.5 78t-20.5 89.5q0 104 76 184q37 39 83.5 59t87.5 20q91 0 161.5 -101t70.5 -273q0 -61 -10 -136t-28 -119q-131 -95 -434 -95h-85q-35 0 -55 20.5t-20 48.5zM171 475 q0 -67 76.5 -104.5t210.5 -34.5q5 53 -9.5 114.5t-52 110t-89.5 48.5q-58 0 -97 -40t-39 -94z" />
<glyph unicode="&#x66f;" horiz-adv-x="669" d="M-75 67q0 23 18 44.5t57 21.5h48q85 0 151 9q-97 87 -97 203q0 112 82 196.5t170 84.5q78 0 144.5 -78t66.5 -194q0 -117 -95 -209q87 -12 160 -12h40q35 0 57 -17t22 -49q0 -27 -18 -47t-61 -20h-50q-153 0 -285 57q-128 -57 -278 -57h-57q-75 0 -75 67zM196 351 q0 -115 148 -174q127 52 127 168q0 65 -40.5 114.5t-89.5 49.5q-62 0 -103.5 -49t-41.5 -109z" />
<glyph unicode="&#x66f;" horiz-adv-x="1044" d="M73 51q0 127 48 243l82 -10q-29 -106 -29 -202q0 -156 84 -233t222 -77q123 0 209.5 50t122.5 118q5 12 15 60h-33q-95 0 -163.5 21.5t-105.5 59t-53.5 81.5t-16.5 97q-1 97 68 173.5t166 76.5q31 0 61.5 -10t64 -37t59 -67.5t42.5 -108t19 -153.5h109q35 0 57 -17 t22 -49q0 -27 -18 -47t-61 -20h-118q-9 -74 -23 -105q-21 -45 -58 -87.5t-91 -80t-130 -60t-162 -22.5q-175 0 -282 104.5t-107 301.5zM547 276q0 -30 10.5 -53t38 -45t83.5 -33.5t139 -11.5h22q-3 121 -52.5 193t-120.5 72q-50 0 -85 -37.5t-35 -84.5z" />
<glyph unicode="&#x671;" horiz-adv-x="389" arabic-form="final" d="M-94 1191v82q25 38 66 38q7 0 13 -1t11 -3t7 -2q87 136 171 136q54 0 87 -37.5t33 -92.5q0 -60 -43.5 -99t-105.5 -39q-44 0 -102 25.5t-74 25.5q-35 0 -63 -33zM60 1279q41 -24 95 -24q30 0 50 13t22 35q0 25 -14.5 41.5t-41.5 17.5q-56 0 -111 -83zM85 1055l110 7 l27 -723q4 -111 45.5 -156t121.5 -50q34 0 56 -17t22 -49q0 -27 -17.5 -47t-60.5 -20q-133 0 -200.5 70t-74.5 233z" />
<glyph unicode="&#x675;" horiz-adv-x="573" d="M85 1053l108 9l28 -730q5 -108 46.5 -153.5t150.5 -45.5h155q35 0 57 -17t22 -49q0 -27 -17 -47t-60 -20h-136q-84 0 -140 13.5t-97 48.5t-62 95.5t-27 152.5zM230 1071l8 69q29 17 66 17q-51 38 -51 91q0 58 43.5 91t105.5 33q85 0 125 -38l-22 -67q-42 32 -106 32 q-35 0 -54.5 -16t-19.5 -37q0 -35 35.5 -55.5t92.5 -20.5h97l-31 -74h-95q-133 0 -194 -25z" />
<glyph unicode="&#x676;" horiz-adv-x="905" d="M20 -332l22 92q81 -42 188 -42q119 0 206.5 79.5t117.5 202.5h-29q-95 0 -163 21.5t-105 59.5t-53.5 82.5t-16.5 98.5q0 106 68 176.5t168 70.5q40 0 78.5 -18t76.5 -57.5t62.5 -117t26.5 -183.5h239q34 0 56.5 -17t22.5 -49q0 -27 -18 -47t-61 -20h-249 q-32 -174 -148 -289t-268 -115q-144 0 -221 72zM284 281q0 -25 5.5 -44.5t22 -40t44.5 -33.5t76.5 -21.5t114.5 -8.5h22q-3 126 -51.5 196t-119.5 70q-51 0 -82.5 -34t-31.5 -84zM483 650l9 68q31 18 65 18q-51 38 -51 91q0 58 43.5 91t105.5 33q85 0 125 -38l-22 -67 q-42 32 -106 32q-35 0 -54.5 -16t-19.5 -37q0 -35 36 -55.5t93 -20.5h96l-31 -75h-95q-136 0 -194 -24z" />
<glyph unicode="&#x677;" horiz-adv-x="905" d="M20 -332l22 92q81 -42 188 -42q119 0 206.5 79.5t117.5 202.5h-29q-95 0 -163 21.5t-105 59.5t-53.5 82.5t-16.5 98.5q0 106 68 176.5t168 70.5q40 0 78.5 -18t76.5 -57.5t62.5 -117t26.5 -183.5h239q34 0 56.5 -17t22.5 -49q0 -27 -18 -47t-61 -20h-249 q-32 -174 -148 -289t-268 -115q-144 0 -221 72zM98 607v57q32 -9 78 -9q41 0 83.5 17t60.5 46q-72 -5 -118.5 28.5t-46.5 97.5q0 56 38 94.5t95 38.5q48 0 88.5 -40.5t41.5 -117.5q0 -107 -70 -169.5t-158 -62.5q-65 0 -92 20zM215 853q0 -33 34 -55.5t102 -17.5 q8 55 -12.5 91.5t-64.5 36.5q-24 0 -41.5 -15.5t-17.5 -39.5zM284 281q0 -25 5.5 -44.5t22 -40t44.5 -33.5t76.5 -21.5t114.5 -8.5h22q-3 126 -51.5 196t-119.5 70q-51 0 -82.5 -34t-31.5 -84zM483 650l9 68q31 18 65 18q-51 38 -51 91q0 58 43.5 91t105.5 33q85 0 125 -38 l-22 -67q-42 32 -106 32q-35 0 -54.5 -16t-19.5 -37q0 -35 36 -55.5t93 -20.5h96l-31 -75h-95q-136 0 -194 -24z" />
<glyph unicode="&#x678;" horiz-adv-x="610" d="M-73 69q0 24 17.5 44t55.5 20h29q155 0 207 34q1 9 1 28q-5 151 -113 339l107 42q39 -72 71.5 -184t32.5 -208q0 -69 -16 -112q-39 -34 -102 -53t-195 -19h-22q-40 0 -56.5 20.5t-16.5 48.5zM325 734l9 69q33 18 67 18q-53 40 -53 90q0 58 43.5 91.5t105.5 33.5 q86 0 126 -38l-23 -68q-43 33 -106 33q-34 0 -54 -16.5t-20 -36.5q0 -35 36 -55.5t93 -20.5h96l-29 -75h-95q-135 0 -196 -25z" />
<glyph unicode="&#x678;" horiz-adv-x="683" d="M-79 67q0 25 19 45t57 20q47 0 82 13.5t56.5 34.5t36 54.5t21.5 65t12 74.5l88 8q-5 -32 -5 -70t7.5 -67t26 -56t56 -41.5t93.5 -14.5h212q34 0 56 -17t22 -49q0 -27 -17.5 -47t-60.5 -20h-213q-106 0 -161 37t-75 111q-32 -72 -93 -110t-145 -38q-40 0 -57.5 19.5 t-17.5 47.5zM309 579l10 69q31 18 66 18q-53 40 -53 90q0 58 44.5 91.5t106.5 33.5q84 0 124 -38l-22 -68q-42 32 -105 32q-35 0 -55 -15.5t-20 -36.5q0 -35 36 -55.5t93 -20.5h96l-30 -75h-95q-134 0 -196 -25z" />
<glyph unicode="&#x678;" horiz-adv-x="1386" d="M73 -4q0 133 60 253l82 -12q-37 -107 -37 -217q0 -74 26 -130.5t72 -89.5t103.5 -49t125.5 -16q119 0 216.5 36t147.5 91q29 31 29 60q0 34 -46 56t-121 22h-8l38 132h626q34 0 55.5 -16.5t21.5 -48.5q0 -27 -17 -47t-60 -20h-429q35 -31 35 -82q0 -60 -41 -113 q-65 -89 -191.5 -144t-274.5 -55q-207 0 -310 106t-103 284zM901 579l10 69q31 18 66 18q-52 39 -52 90q0 58 44 91.5t106 33.5q85 0 125 -38l-22 -68q-42 32 -106 32q-35 0 -55.5 -16t-20.5 -36q0 -35 36 -55.5t94 -20.5h97l-31 -75h-95q-134 0 -196 -25z" />
<glyph unicode="&#x679;" horiz-adv-x="418" arabic-form="initial" d="M-83 812l84 -6q20 38 15 116l-17 240l65 5l11 -168q2 -57 -2 -83q61 92 146 92q46 0 73 -30.5t27 -74.5q0 -88 -75 -129t-185 -41h-101zM-73 69q0 24 17.5 44t55.5 20h29q155 0 207 34q1 9 1 28q-5 151 -113 339l107 42q39 -72 71.5 -184t32.5 -208q0 -69 -16 -112 q-39 -34 -102 -53t-195 -19h-22q-40 0 -56.5 20.5t-16.5 48.5zM63 807q192 0 192 84q0 18 -13.5 31t-36.5 13q-70 0 -142 -128z" />
<glyph unicode="&#x679;" horiz-adv-x="459" arabic-form="medial" d="M-79 67q0 25 19 45t57 20q58 0 97.5 16t61.5 49t32.5 68.5t16.5 89.5l86 8q-3 -36 -3 -50q0 -81 37 -130.5t134 -50.5q34 0 56 -16.5t22 -48.5q0 -27 -17.5 -47t-60.5 -20q-94 0 -148.5 36t-76.5 110q-53 -146 -238 -146q-40 0 -57.5 19.5t-17.5 47.5zM37 657l83 -6 q21 41 15 116l-18 239l67 6l11 -168q2 -52 -3 -83q63 92 147 92q46 0 73 -30.5t27 -74.5q0 -60 -39.5 -100t-95.5 -55t-127 -15h-99zM181 652q193 0 193 84q0 18 -13.5 31t-37.5 13q-68 0 -142 -128z" />
<glyph unicode="&#x679;" horiz-adv-x="1339" arabic-form="final" d="M72 358q0 102 30 182l81 -15q-16 -70 -16 -124q0 -299 414 -299q169 0 298 35t196 78q-4 31 -4 61q0 42 16 98l86 9q-7 -44 -7 -79q0 -163 174 -171v-1q34 0 56.5 -16.5t22.5 -48.5q0 -27 -18 -47t-61 -20q-160 0 -228 110q-216 -142 -543 -142q-237 0 -366 96t-131 294z M434 683l85 -6q20 38 15 116l-18 240l66 6l10 -169q2 -62 -1 -83q61 92 146 92q46 0 73 -30.5t27 -74.5q0 -88 -75.5 -129t-185.5 -41h-101zM581 679q191 0 191 83q0 18 -13 31t-36 13q-70 0 -142 -127z" />
<glyph unicode="&#x67e;" horiz-adv-x="418" arabic-form="initial" d="M-73 69q0 24 17.5 44t55.5 20h29q155 0 207 34q1 9 1 28q-5 151 -113 339l107 42q39 -72 71.5 -184t32.5 -208q0 -69 -16 -112q-39 -34 -102 -53t-195 -19h-22q-40 0 -56.5 20.5t-16.5 48.5zM16 -290q0 35 20.5 57t51.5 22q32 0 53 -22t21 -57q0 -32 -21 -54t-53 -22 q-31 0 -51.5 22t-20.5 54zM110 -465q0 35 21 56t55 21q30 0 50.5 -21t20.5 -56q0 -34 -21 -56t-52 -22q-33 0 -53.5 22t-20.5 56zM209 -290q0 36 21 57.5t54 21.5q32 0 51 -21.5t19 -57.5q0 -32 -20 -54t-52 -22q-31 0 -52 22t-21 54z" />
<glyph unicode="&#x67e;" horiz-adv-x="459" arabic-form="medial" d="M-79 67q0 25 19 45t57 20q58 0 97.5 16t61.5 49t32.5 68.5t16.5 89.5l86 8q-3 -36 -3 -50q0 -81 37 -130.5t134 -50.5q34 0 56 -16.5t22 -48.5q0 -27 -17.5 -47t-60.5 -20q-94 0 -148.5 36t-76.5 110q-53 -146 -238 -146q-40 0 -57.5 19.5t-17.5 47.5zM64 -290 q0 35 20.5 57t51.5 22q32 0 53.5 -22t21.5 -57q0 -32 -21 -54t-54 -22q-31 0 -51.5 22t-20.5 54zM158 -465q0 35 21 56t55 21q30 0 51 -21t21 -56q0 -34 -21 -56t-52 -22q-33 0 -54 22t-21 56zM257 -290q0 36 21 57.5t54 21.5q32 0 51 -21.5t19 -57.5q0 -32 -19.5 -54 t-51.5 -22q-31 0 -52.5 22t-21.5 54z" />
<glyph unicode="&#x67e;" horiz-adv-x="1339" arabic-form="final" d="M72 358q0 102 30 182l81 -15q-16 -70 -16 -124q0 -299 414 -299q169 0 298 35t196 78q-4 31 -4 61q0 42 16 98l86 9q-7 -44 -7 -79q0 -163 174 -171v-1q34 0 56.5 -16.5t22.5 -48.5q0 -27 -18 -47t-61 -20q-160 0 -228 110q-216 -142 -543 -142q-237 0 -366 96t-131 294z M499 -290q0 35 20.5 57t51.5 22q32 0 53 -22t21 -57q0 -32 -21 -54t-53 -22q-31 0 -51.5 22t-20.5 54zM592 -465q0 35 21.5 56t55.5 21q30 0 50.5 -21t20.5 -56q0 -34 -21 -56t-52 -22q-33 0 -54 22t-21 56zM692 -290q0 36 21 57.5t54 21.5q32 0 51 -21.5t19 -57.5 q0 -32 -20 -54t-52 -22q-31 0 -52 22t-21 54z" />
<glyph unicode="&#x686;" horiz-adv-x="955" arabic-form="initial" d="M-73 66q0 28 18 47.5t56 19.5h18q286 0 496 97q124 56 154 65q-31 11 -115 48t-152.5 59t-126.5 22q-121 0 -196 -33l20 120q65 32 177 32q22 0 43.5 -1.5t46 -7t40 -8.5t44 -13t39 -13t43 -17t38.5 -16.5t43 -19t39 -17.5q79 -34 120 -45.5t85 -11.5h54l-20 -121h-24 q-91 0 -254 -94q-157 -91 -289 -124.5t-306 -33.5h-17q-35 0 -54.5 18.5t-19.5 47.5zM295 -233q0 35 21.5 57t52.5 22t52.5 -22t21.5 -57q0 -32 -21.5 -54t-52.5 -22t-52.5 22t-21.5 54zM389 -408q0 35 22 56t54 21q31 0 51.5 -21t20.5 -56q0 -34 -20.5 -56t-51.5 -22 q-33 0 -54.5 22t-21.5 56zM490 -233q0 36 20 57.5t53 21.5t52.5 -21.5t19.5 -57.5q0 -32 -20 -54t-52 -22t-52.5 22t-20.5 54z" />
<glyph unicode="&#x686;" horiz-adv-x="997" arabic-form="medial" d="M-73 66q0 28 18 47.5t56 19.5h18q273 0 452 88q30 14 63.5 30.5t50 25t36 17t36.5 13.5q-33 10 -112 43t-149 53.5t-134 20.5q-125 0 -193 -39l22 121q65 37 177 37q88 0 172 -26t193 -77q121 -54 227 -54h43l-21 -121h-39q-5 0 -11.5 -0.5t-14.5 -1.5t-12 -1 q7 -74 57.5 -101.5t135.5 -27.5q33 0 55 -17t22 -49q0 -67 -77 -67q-131 1 -201 57t-77 177q-62 -25 -120 -61q-152 -98 -277 -135.5t-305 -37.5h-17q-35 0 -54.5 18.5t-19.5 47.5zM295 -233q0 35 21.5 57t52.5 22t52.5 -22t21.5 -57q0 -32 -21.5 -54t-52.5 -22t-52.5 22 t-21.5 54zM389 -408q0 35 22 56t54 21q31 0 51.5 -21t20.5 -56q0 -34 -20.5 -56t-51.5 -22q-33 0 -54.5 22t-21.5 56zM490 -233q0 36 20 57.5t53 21.5t52.5 -21.5t19.5 -57.5q0 -32 -20 -54t-52 -22t-52.5 22t-20.5 54z" />
<glyph unicode="&#x686;" horiz-adv-x="983" arabic-form="final" d="M75 -108q0 83 35 157t89.5 125.5t125.5 92t138.5 63.5t133.5 34q-9 2 -76.5 26t-128 38.5t-113.5 14.5q-122 0 -197 -36l25 124q73 32 178 32q48 0 106 -12t96.5 -24.5t103.5 -36t89 -31.5q81 -33 144 -33h74l-31 -128q-23 3 -90 3q14 -170 206 -168q35 0 57 -17t22 -49 q0 -27 -18 -47t-61 -20q-145 -1 -221 71.5t-76 225.5q-29 -4 -92 -18q-80 -19 -148.5 -52t-125 -78.5t-88.5 -109t-32 -136.5q0 -113 68 -192t180 -116t257 -37q102 0 192 21l-49 -114q-70 -25 -191 -25q-123 0 -228.5 29.5t-184.5 85.5t-124 142.5t-45 194.5zM399 -29 q0 29 17 47.5t42 18.5q26 0 44.5 -19t18.5 -47t-17.5 -46.5t-45.5 -18.5q-25 0 -42 18.5t-17 46.5zM480 -186q0 30 18 47.5t46 17.5q26 0 42.5 -17.5t16.5 -47.5q0 -28 -17 -46t-43 -18q-27 0 -45 18t-18 46zM568 -29q0 29 17 47.5t45 18.5q27 0 43 -18.5t16 -47.5t-16 -47 t-43 -18q-28 0 -45 18t-17 47z" />
<glyph unicode="&#x688;" horiz-adv-x="844" arabic-form="final" d="M73 228l84 16q16 -57 52.5 -82.5t116.5 -25.5q138 0 205 61q15 14 25.5 33.5t9.5 28.5q-53 219 -120 443l107 37q17 -64 54.5 -215t63.5 -245q24 -86 63 -116t110 -30q34 0 56 -17t22 -49q0 -27 -17.5 -47t-60.5 -20q-103 0 -154 35t-87 114q-17 -63 -98.5 -106 t-187.5 -43q-121 0 -180 54t-64 174zM294 952l83 -6q21 41 15 116l-18 240l68 6l10 -168q2 -53 -3 -84q63 92 148 92q46 0 72.5 -30t26.5 -75q0 -60 -39.5 -100t-95.5 -55t-127 -15h-99zM439 948q193 0 193 83q0 18 -13.5 31t-37.5 13q-69 0 -142 -127z" />
<glyph unicode="&#x691;" horiz-adv-x="689" arabic-form="final" d="M20 -285l14 95q83 -50 197 -50q96 0 176 77t85 197q-8 87 -139 326l106 54q46 -91 81 -181q27 -56 62.5 -78t86.5 -22q34 0 56 -17t22 -49q0 -27 -17.5 -47t-60.5 -20q-68 0 -104 25q-2 -43 -6 -67q-27 -150 -130.5 -236t-215.5 -86q-59 0 -117.5 20t-95.5 59zM162 644 l85 -6q20 38 15 115l-18 240l66 6l10 -168q2 -62 -1 -83q61 92 146 92q46 0 73 -30.5t27 -75.5q0 -46 -22 -80t-60 -52.5t-82.5 -27.5t-96.5 -9h-101zM307 639q193 0 193 84q0 18 -13 31t-36 13q-70 0 -144 -128z" />
<glyph unicode="&#x698;" horiz-adv-x="689" arabic-form="final" d="M20 -285l14 95q83 -50 197 -50q96 0 176 77t85 197q-8 87 -139 326l106 54q46 -91 81 -181q27 -56 62.5 -78t86.5 -22q34 0 56 -17t22 -49q0 -27 -17.5 -47t-60.5 -20q-68 0 -104 25q-2 -43 -6 -67q-27 -150 -130.5 -236t-215.5 -86q-59 0 -117.5 20t-95.5 59zM187 657 q0 32 21 54t52 22q33 0 54 -22t21 -54q0 -36 -21 -57.5t-54 -21.5q-32 0 -52.5 21t-20.5 58zM288 832q0 34 19.5 56t50.5 22q33 0 54 -22t21 -56q0 -36 -20.5 -56.5t-54.5 -20.5q-32 0 -51 20t-19 57zM382 657q0 32 20.5 54t52.5 22t52 -22t20 -54q0 -36 -19.5 -57.5 t-52.5 -21.5t-53 21t-20 58z" />
<glyph unicode="&#x6a1;" horiz-adv-x="1341" d="M73 347q0 118 41 221l78 -17q-22 -75 -22 -163q0 -289 418 -289q172 0 301 27q-115 94 -115 222q0 112 82 195t168 83q76 0 143.5 -78t67.5 -191q0 -123 -88 -214q76 -10 161 -10h33q34 0 56 -17t22 -49q0 -27 -17.5 -47t-60.5 -20h-33q-155 0 -291 54q-176 -83 -468 -83 q-131 0 -227 31.5t-148.5 86.5t-76.5 119t-24 139zM867 355q0 -127 156 -182q119 60 119 174q0 63 -39.5 112.5t-91.5 49.5q-60 0 -102 -48t-42 -106z" />
<glyph unicode="&#x6a4;" horiz-adv-x="637" arabic-form="initial" d="M-75 69q0 26 20 45t55 19h98q106 0 210 14t135 29q8 40 8 49q-98 -4 -173 14.5t-117 54t-62.5 78t-20.5 89.5q0 104 76 184q37 39 83.5 59t87.5 20q91 0 161.5 -101t70.5 -273q0 -61 -10 -136t-28 -119q-131 -95 -434 -95h-85q-35 0 -55 20.5t-20 48.5zM113 986 q0 32 21 54t52 22t52 -22t21 -54q0 -36 -20.5 -57.5t-52.5 -21.5q-33 0 -53 21t-20 58zM171 475q0 -67 76.5 -104.5t210.5 -34.5q5 53 -9.5 114.5t-52 110t-89.5 48.5q-58 0 -97 -40t-39 -94zM212 1162q0 34 20 55.5t52 21.5q33 0 53 -21.5t20 -55.5q0 -36 -19.5 -57 t-53.5 -21q-32 0 -52 20.5t-20 57.5zM306 986q0 32 21 54t52 22q32 0 52 -22t20 -54q0 -36 -19.5 -57.5t-52.5 -21.5q-32 0 -52.5 21t-20.5 58z" />
<glyph unicode="&#x6a4;" horiz-adv-x="669" arabic-form="medial" d="M-75 67q0 23 18 44.5t57 21.5h48q85 0 151 9q-97 87 -97 203q0 112 82 196.5t170 84.5q78 0 144.5 -78t66.5 -194q0 -117 -95 -209q87 -12 160 -12h40q35 0 57 -17t22 -49q0 -27 -18 -47t-61 -20h-50q-153 0 -285 57q-128 -57 -278 -57h-57q-75 0 -75 67zM136 885 q0 32 21 54t52 22q33 0 54 -22t21 -54q0 -36 -21 -57.5t-54 -21.5q-32 0 -52.5 21t-20.5 58zM196 351q0 -115 148 -174q127 52 127 168q0 65 -40.5 114.5t-89.5 49.5q-62 0 -103.5 -49t-41.5 -109zM237 1061q0 34 19.5 55.5t50.5 21.5q34 0 54.5 -21.5t20.5 -55.5 q0 -36 -20.5 -57t-54.5 -21q-32 0 -51 20.5t-19 57.5zM331 885q0 32 20.5 54t52.5 22t51.5 -22t19.5 -54q0 -36 -19 -57.5t-52 -21.5t-53 21t-20 58z" />
<glyph unicode="&#x6a4;" horiz-adv-x="1341" arabic-form="final" d="M73 347q0 118 41 221l78 -17q-22 -75 -22 -163q0 -289 418 -289q172 0 301 27q-115 94 -115 222q0 112 82 195t168 83q76 0 143.5 -78t67.5 -191q0 -123 -88 -214q76 -10 161 -10h33q34 0 56 -17t22 -49q0 -27 -17.5 -47t-60.5 -20h-33q-155 0 -291 54q-176 -83 -468 -83 q-131 0 -227 31.5t-148.5 86.5t-76.5 119t-24 139zM825 885q0 32 21 54t52 22q33 0 54 -22t21 -54q0 -36 -21 -57.5t-54 -21.5q-32 0 -52.5 21t-20.5 58zM867 355q0 -127 156 -182q119 60 119 174q0 63 -39.5 112.5t-91.5 49.5q-60 0 -102 -48t-42 -106zM926 1061 q0 34 19.5 55.5t50.5 21.5q34 0 54.5 -21.5t20.5 -55.5q0 -36 -20.5 -57t-54.5 -21q-32 0 -51 20.5t-19 57.5zM1020 885q0 32 20.5 54t52.5 22t51.5 -22t19.5 -54q0 -36 -19 -57.5t-52 -21.5t-53 21t-20 58z" />
<glyph unicode="&#x6a9;" horiz-adv-x="1407" arabic-form="final" d="M73 313q0 66 19 123l82 -15q-7 -45 -7 -80q0 -85 56.5 -141t146.5 -79.5t212 -23.5q99 0 181 11t132.5 28t85.5 38t49 39t14 33q0 58 -86 174q-93 130 -193 230q7 99 18 124q7 15 71 47q221 120 569 237l-23 -131q-405 -142 -538 -222q79 -84 149 -176.5t170 -240.5 q65 -96 112 -125.5t114 -29.5q34 0 56 -17t22 -49q0 -27 -17.5 -47t-60.5 -20h-13q-82 0 -145.5 38t-135.5 148q-29 -105 -171.5 -161t-373.5 -56q-113 0 -201 19.5t-142.5 52t-89.5 78t-48.5 93t-13.5 101.5z" />
<glyph unicode="&#x6aa;" horiz-adv-x="1429" d="M-75 69q0 22 18 42.5t57 20.5h136q204 0 374.5 7t402.5 23t341 22q5 99 -64 145.5t-195 46.5q-127 0 -312 -15q-252 -14 -344 -14q-41 0 -72 2.5t-67 11.5t-59.5 25.5t-39 46t-15.5 70.5q0 118 171 255q136 109 372 219l-26 -140q-75 -27 -175.5 -84t-167.5 -118 q-71 -67 -71 -110q0 -63 156 -63q93 0 417 18q142 9 237 9q181 -1 265.5 -75.5t85.5 -232.5q0 -48 -17 -118q-72 -2 -513.5 -32.5t-664.5 -30.5h-155q-40 0 -57.5 21t-17.5 48z" />
<glyph unicode="&#x6aa;" horiz-adv-x="1440" d="M-75 69q0 22 18 42.5t57 20.5h136q204 0 374.5 7t402.5 23t341 22q5 99 -64 145.5t-195 46.5q-127 0 -312 -15q-252 -14 -344 -14q-41 0 -72 2.5t-67 11.5t-59.5 25.5t-39 46t-15.5 70.5q0 118 171 255q136 109 372 219l-26 -140q-75 -27 -175.5 -84t-167.5 -118 q-71 -67 -71 -110q0 -63 156 -63q93 0 417 18q142 9 237 9q181 -1 265.5 -75.5t85.5 -232.5q0 -16 -1 -23q31 -26 92 -26q34 0 55.5 -16.5t21.5 -48.5q0 -27 -17 -47t-60 -20q-110 0 -167 60q-27 -1 -466.5 -30.5t-652.5 -29.5h-155q-40 0 -57.5 21t-17.5 48z" />
<glyph unicode="&#x6aa;" horiz-adv-x="1593" d="M44 165q126 -35 354 -35q165 0 324.5 7.5t400 25.5t284.5 21q5 100 -65 146t-197 46q-123 0 -308 -15q-252 -14 -344 -14q-41 0 -72 2.5t-67 11.5t-59.5 25.5t-39 46t-15.5 70.5q0 118 171 255q136 109 372 219l-27 -137q-77 -30 -176 -86.5t-166 -117.5 q-72 -69 -72 -111q0 -63 157 -63q74 0 145.5 3t163.5 9t108 7q142 9 237 9q181 -1 265.5 -76t85.5 -233q0 -9 -2 -23q31 -26 91 -26q35 0 57 -16.5t22 -48.5q0 -27 -18 -47t-61 -20q-105 0 -164 59q-721 -62 -1012 -62q-255 0 -320 19z" />
<glyph unicode="&#x6ad;" horiz-adv-x="577" arabic-form="initial" d="M-75 69q0 22 18 43t57 21h124q85 0 141.5 9t85 26.5t39.5 37.5t11 47q0 28 -19.5 65t-62.5 86.5t-122.5 114.5t-187.5 138q3 89 19 121q10 17 58 43q102 62 246.5 130.5t273.5 110.5l-25 -129q-104 -37 -247 -102t-218 -111q57 -44 82 -63.5t74.5 -61t73 -65.5t58 -63.5 t50 -70.5t28 -70t12.5 -77q0 -62 -28 -113t-75 -80q-52 -31 -118.5 -43.5t-171.5 -12.5h-101q-40 0 -57.5 21t-17.5 48zM-4 1137q0 32 20 52.5t50 20.5q31 0 51.5 -20t20.5 -53t-20.5 -53.5t-51.5 -20.5t-50.5 19.5t-19.5 54.5zM91 1305q0 33 18.5 53t49.5 20q32 0 52 -20 t20 -53t-20 -52.5t-52 -19.5q-31 0 -49.5 18.5t-18.5 53.5zM181 1137q0 33 19 53t50 20q32 0 51 -20t19 -53q0 -34 -19 -54t-51 -20q-31 0 -50 19.5t-19 54.5z" />
<glyph unicode="&#x6ad;" horiz-adv-x="652" arabic-form="medial" d="M-75 69q0 24 17.5 44t57.5 20h44q142 0 204 29t62 90q0 23 -11.5 47t-46.5 77q-85 121 -245 275q1 6 4.5 36t6.5 54t5 28q7 17 71 52q100 53 267 122t308 113l-25 -129q-114 -36 -291 -106.5t-249 -112.5q77 -76 140.5 -151t100 -125t125.5 -176q28 -42 52 -67.5 t48.5 -36.5t39 -14t42.5 -5q34 0 56 -17t22 -49q0 -27 -17.5 -47t-60.5 -20q-87 1 -142.5 35.5t-129.5 147.5q-18 -93 -97 -138t-241 -45h-42q-41 0 -58 20t-17 49zM-4 1137q0 32 20 52.5t50 20.5q31 0 51.5 -20t20.5 -53t-20.5 -53.5t-51.5 -20.5t-50.5 19.5t-19.5 54.5z M91 1305q0 33 18.5 53t49.5 20q32 0 52 -20t20 -53t-20 -52.5t-52 -19.5q-31 0 -49.5 18.5t-18.5 53.5zM181 1137q0 33 19 53t50 20q32 0 51 -20t19 -53q0 -34 -19 -54t-51 -20q-31 0 -50 19.5t-19 54.5z" />
<glyph unicode="&#x6ad;" horiz-adv-x="1250" arabic-form="final" d="M73 313q0 60 21 123l80 -15q-7 -44 -7 -80q0 -125 94 -182.5t250 -57.5q162 0 291 41t166 96q10 12 9 90l-31 725l110 9l27 -709q7 -125 47.5 -171.5t120.5 -48.5q33 0 55 -17t22 -49q0 -67 -77 -67q-184 0 -231 159q-42 -75 -188.5 -130t-332.5 -55q-99 0 -176 21 t-123.5 54t-75.5 79t-40 91t-11 94zM374 1071q0 32 20.5 52.5t50.5 20.5q31 0 51 -20t20 -53t-20 -53t-51 -20q-32 0 -51.5 19.5t-19.5 53.5zM430 473q41 1 78 6.5t62.5 14t45 18.5t29 19t9.5 16q0 19 -86 24q-56 3 -78 21t-22 52q0 67 60.5 128t153.5 74v-93 q-72 -11 -108 -34.5t-36 -49.5q0 -17 72 -22q68 -6 90.5 -25t22.5 -54q0 -48 -35.5 -87t-84.5 -58t-98 -19q-38 0 -50 4zM470 1239q0 33 18.5 53t49.5 20q32 0 52 -20t20 -53t-20 -52.5t-52 -19.5q-31 0 -49.5 18.5t-18.5 53.5zM559 1071q0 33 19.5 53t50.5 20q32 0 51 -20 t19 -53q0 -34 -19 -53.5t-51 -19.5q-31 0 -50.5 19t-19.5 54z" />
<glyph unicode="&#x6af;" horiz-adv-x="577" arabic-form="initial" d="M-75 69q0 22 18 43t57 21h124q85 0 141.5 9t85 26.5t39.5 37.5t11 47q0 28 -19.5 65t-62.5 86.5t-122.5 114.5t-187.5 138q3 89 19 121q10 17 58 43q102 62 246.5 130.5t273.5 110.5l-25 -129q-104 -37 -247 -102t-218 -111q57 -44 82 -63.5t74.5 -61t73 -65.5t58 -63.5 t50 -70.5t28 -70t12.5 -77q0 -62 -28 -113t-75 -80q-52 -31 -118.5 -43.5t-171.5 -12.5h-101q-40 0 -57.5 21t-17.5 48zM41 951l16 95q96 53 250.5 119.5t299.5 114.5l-20 -98q-306 -101 -546 -231z" />
<glyph unicode="&#x6af;" horiz-adv-x="652" arabic-form="medial" d="M-75 69q0 24 17.5 44t57.5 20h44q142 0 204 29t62 90q0 23 -11.5 47t-46.5 77q-85 121 -245 275q1 6 4.5 36t6.5 54t5 28q7 17 71 52q100 53 267 122t308 113l-25 -129q-114 -36 -291 -106.5t-249 -112.5q77 -76 140.5 -151t100 -125t125.5 -176q28 -42 52 -67.5 t48.5 -36.5t39 -14t42.5 -5q34 0 56 -17t22 -49q0 -27 -17.5 -47t-60.5 -20q-87 1 -142.5 35.5t-129.5 147.5q-18 -93 -97 -138t-241 -45h-42q-41 0 -58 20t-17 49zM61 951l17 95q96 53 250.5 119.5t299.5 114.5l-21 -98q-306 -101 -546 -231z" />
<glyph unicode="&#x6af;" horiz-adv-x="1407" arabic-form="final" d="M73 313q0 66 19 123l82 -15q-7 -45 -7 -80q0 -85 56.5 -141t146.5 -79.5t212 -23.5q99 0 181 11t132.5 28t85.5 38t49 39t14 33q0 58 -86 174q-93 130 -193 230q7 99 18 124q7 15 71 47q221 120 569 237l-23 -131q-405 -142 -538 -222q79 -84 149 -176.5t170 -240.5 q65 -96 112 -125.5t114 -29.5q34 0 56 -17t22 -49q0 -27 -17.5 -47t-60.5 -20h-13q-82 0 -145.5 38t-135.5 148q-29 -105 -171.5 -161t-373.5 -56q-113 0 -201 19.5t-142.5 52t-89.5 78t-48.5 93t-13.5 101.5zM818 951l17 95q96 53 250.5 119.5t299.5 114.5l-20 -98 q-299 -99 -547 -231z" />
<glyph unicode="&#x6ba;" horiz-adv-x="934" arabic-form="final" d="M73 44q0 121 56 235l86 -13q-37 -122 -37 -197q0 -115 71.5 -185t192.5 -70q80 0 152 35.5t115 111.5q11 17 19 41t8 35q0 57 -9 98q-28 112 -98 256l107 45q71 -149 93 -284q35 -20 106 -20q34 0 55.5 -16.5t21.5 -48.5q0 -67 -77 -67t-106 16q-10 -76 -46 -136 q-53 -91 -142.5 -143.5t-213.5 -52.5q-164 0 -259 98.5t-95 261.5z" />
<glyph unicode="&#x6be;" horiz-adv-x="759" arabic-form="final" d="M18 97q56 -1 146 1q11 128 69 265.5t137 253.5h40q32 -37 49 -57t51.5 -65.5t53 -79.5t34.5 -78t16 -81q0 -68 -36 -123h181q35 0 57 -17t22 -49q0 -27 -18 -47t-61 -20h-153q90 -62 90 -152t-65.5 -147.5t-149.5 -57.5q-70 0 -127.5 28t-94.5 76t-59.5 103.5 t-31.5 118.5q-51 -4 -118 -4zM260 105q260 27 262 131q0 50 -37.5 113.5t-93.5 120.5q-116 -193 -131 -365zM266 -19q17 -98 75.5 -163t142.5 -65q54 0 85 25.5t31 70.5q0 54 -60 101.5t-183 49.5q-65 -16 -91 -19z" />
<glyph unicode="&#x6c0;" horiz-adv-x="702" arabic-form="final" d="M69 272q0 132 143 246q51 42 217 127l-5 117l100 10l17 -452q5 -109 47 -148t114 -39q34 0 56.5 -17t22.5 -49q0 -27 -18 -47t-61 -20q-174 0 -229 133q-33 -21 -86 -33t-96 -12q-100 0 -161 50.5t-61 133.5zM168 306q0 -44 37.5 -66t101.5 -22q78 0 139 28 q0 5 -0.5 15.5t-0.5 16.5l-12 259q-135 -57 -200 -116.5t-65 -114.5zM297 895l9 69q30 16 67 18q-53 40 -53 90q0 58 44 91.5t106 33.5q85 0 125 -40l-23 -67q-43 33 -105 33q-34 0 -54.5 -16.5t-20.5 -35.5q0 -36 36 -57t93 -21h96l-29 -73h-95q-132 0 -196 -25z" />
<glyph unicode="&#x6c1;" horiz-adv-x="672" arabic-form="initial" d="M-75 66q0 30 18.5 48.5t56.5 18.5q84 0 136.5 40.5t72.5 145.5l92 4q-11 -55 -11 -80q-2 -64 24.5 -89t74.5 -25t80.5 31.5t32.5 80.5q0 36 -15 88t-35 92l107 31q35 -68 35 -190t-62 -192t-156 -70q-117 0 -158 110q-28 -49 -88 -79.5t-130 -30.5q-39 0 -57 19t-18 47z M298 -313q0 99 85 199l85 -34q-64 -86 -64 -161q0 -80 64 -153l-91 -46q-30 29 -54.5 83.5t-24.5 111.5z" />
<glyph unicode="&#x6c1;" horiz-adv-x="712" arabic-form="medial" d="M-75 72q0 24 18 42t57 18h59q59 0 105 18.5t79 55.5t54 73t45 90l97 -18q-61 -126 -86 -203t-25 -157q0 -176 109 -284l6 5q-22 86 -22 174q0 127 57.5 187t165.5 59h68q35 0 57 -16.5t22 -48.5q0 -27 -18 -47t-61 -20h-67q-70 0 -101 -32.5t-31 -112.5q0 -109 40 -250 l-102 -72q-105 77 -166 192.5t-61 240.5q0 50 7 91q-63 -57 -192 -57h-39q-75 0 -75 72z" />
<glyph unicode="&#x6c1;" horiz-adv-x="702" arabic-form="final" d="M69 272q0 132 143 246q51 42 217 127l-5 117l100 10l17 -452q5 -109 47 -148t114 -39q34 0 56.5 -17t22.5 -49q0 -27 -18 -47t-61 -20q-174 0 -229 133q-33 -21 -86 -33t-96 -12q-100 0 -161 50.5t-61 133.5zM168 306q0 -44 37.5 -66t101.5 -22q78 0 139 28 q0 5 -0.5 15.5t-0.5 16.5l-12 259q-135 -57 -200 -116.5t-65 -114.5z" />
<glyph unicode="&#x6c2;" horiz-adv-x="702" d="M69 272q0 132 143 246q51 42 217 127l-5 117l100 10l17 -452q5 -109 47 -148t114 -39q34 0 56.5 -17t22.5 -49q0 -27 -18 -47t-61 -20q-174 0 -229 133q-33 -21 -86 -33t-96 -12q-100 0 -161 50.5t-61 133.5zM168 306q0 -44 37.5 -66t101.5 -22q78 0 139 28 q0 5 -0.5 15.5t-0.5 16.5l-12 259q-135 -57 -200 -116.5t-65 -114.5zM297 895l9 69q30 16 67 18q-53 40 -53 90q0 58 44 91.5t106 33.5q85 0 125 -40l-23 -67q-43 33 -105 33q-34 0 -54.5 -16.5t-20.5 -35.5q0 -36 36 -57t93 -21h96l-29 -73h-95q-132 0 -196 -25z" />
<glyph unicode="&#x6c3;" horiz-adv-x="702" d="M69 272q0 132 143 246q51 42 217 127l-5 117l100 10l17 -452q5 -109 47 -148t114 -39q34 0 56.5 -17t22.5 -49q0 -27 -18 -47t-61 -20q-174 0 -229 133q-33 -21 -86 -33t-96 -12q-100 0 -161 50.5t-61 133.5zM168 306q0 -44 37.5 -66t101.5 -22q78 0 139 28 q0 5 -0.5 15.5t-0.5 16.5l-12 259q-135 -57 -200 -116.5t-65 -114.5zM287 983q0 35 21 56.5t53 21.5q33 0 54 -21.5t21 -56.5t-21 -55.5t-54 -20.5q-32 0 -53 20.5t-21 55.5zM486 983q0 35 19.5 56.5t51.5 21.5q34 0 54.5 -21.5t20.5 -56.5t-20.5 -55.5t-54.5 -20.5 q-32 0 -51.5 20.5t-19.5 55.5z" />
<glyph unicode="&#x6c5;" horiz-adv-x="784" arabic-form="final" d="M23 -363l21 92q82 -42 189 -42q83 0 152.5 40.5t116.5 111.5h-328v73h367q22 61 27 88h-36q-96 0 -164 21t-104.5 59.5t-52.5 82.5t-16 99q-1 106 67 176.5t167 70.5q31 0 61.5 -10t63.5 -36.5t58 -67.5t42.5 -109t19.5 -154h110q34 0 56 -16.5t22 -48.5q0 -27 -17.5 -47 t-60.5 -20h-118q-30 -187 -148 -310.5t-275 -123.5q-145 0 -220 71zM287 281q0 -32 10.5 -56t37 -46.5t82 -34.5t137.5 -12h25q-4 127 -53.5 196.5t-121.5 69.5q-51 0 -84 -34t-33 -83z" />
<glyph unicode="&#x6c6;" horiz-adv-x="778" arabic-form="final" d="M20 -332l22 92q81 -42 188 -42q120 0 207 79.5t117 202.5h-29q-95 0 -162.5 21t-104 59.5t-52.5 82.5t-16 99q0 100 67.5 173.5t162.5 73.5q31 0 62 -10t64 -36.5t59 -67.5t43 -109t19 -154h111q34 0 56 -16.5t22 -48.5q0 -27 -17.5 -47t-60.5 -20h-121 q-34 -174 -149.5 -289t-266.5 -115q-144 0 -221 72zM186 923l64 50q70 -78 130 -185q54 93 133 189l59 -45q-105 -135 -158 -243h-76q-45 104 -152 234zM284 276q0 -30 9.5 -52.5t35.5 -45t81 -34.5t137 -12h22q-4 127 -50.5 196.5t-117.5 69.5q-50 0 -83.5 -37.5 t-33.5 -84.5z" />
<glyph unicode="&#x6c7;" horiz-adv-x="778" arabic-form="final" d="M20 -332l22 92q81 -42 188 -42q120 0 207 79.5t117 202.5h-29q-95 0 -162.5 21t-104 59.5t-52.5 82.5t-16 99q0 100 67.5 173.5t162.5 73.5q31 0 62 -10t64 -36.5t59 -67.5t43 -109t19 -154h111q34 0 56 -16.5t22 -48.5q0 -27 -17.5 -47t-60.5 -20h-121 q-34 -174 -149.5 -289t-266.5 -115q-144 0 -221 72zM200 692v57q32 -9 78 -9q41 0 84 17t61 46q-72 -5 -119 28.5t-47 97.5q0 56 38.5 94.5t95.5 38.5q48 0 88.5 -40.5t41.5 -117.5q0 -107 -70 -170t-158 -63q-65 0 -93 21zM284 276q0 -30 9.5 -52.5t35.5 -45t81 -34.5 t137 -12h22q-4 127 -50.5 196.5t-117.5 69.5q-50 0 -83.5 -37.5t-33.5 -84.5zM317 938q0 -33 34 -55.5t102 -17.5q8 55 -12.5 91.5t-64.5 36.5q-24 0 -41.5 -15.5t-17.5 -39.5z" />
<glyph unicode="&#x6c8;" horiz-adv-x="778" arabic-form="final" d="M20 -332l22 92q81 -42 188 -42q120 0 207 79.5t117 202.5h-29q-95 0 -162.5 21t-104 59.5t-52.5 82.5t-16 99q0 100 67.5 173.5t162.5 73.5q31 0 62 -10t64 -36.5t59 -67.5t43 -109t19 -154h111q34 0 56 -16.5t22 -48.5q0 -27 -17.5 -47t-60.5 -20h-121 q-34 -174 -149.5 -289t-266.5 -115q-144 0 -221 72zM284 276q0 -30 9.5 -52.5t35.5 -45t81 -34.5t137 -12h22q-4 127 -50.5 196.5t-117.5 69.5q-50 0 -83.5 -37.5t-33.5 -84.5zM310 1044l100 8l13 -354l-88 -6z" />
<glyph unicode="&#x6c9;" horiz-adv-x="778" arabic-form="final" d="M20 -332l22 92q81 -42 188 -42q120 0 207 79.5t117 202.5h-29q-95 0 -162.5 21t-104 59.5t-52.5 82.5t-16 99q0 100 67.5 173.5t162.5 73.5q31 0 62 -10t64 -36.5t59 -67.5t43 -109t19 -154h111q34 0 56 -16.5t22 -48.5q0 -27 -17.5 -47t-60.5 -20h-121 q-34 -174 -149.5 -289t-266.5 -115q-144 0 -221 72zM186 715q103 132 159 243h75q45 -104 152 -234l-64 -50q-68 75 -129 185q-56 -93 -135 -189zM284 276q0 -30 9.5 -52.5t35.5 -45t81 -34.5t137 -12h22q-4 127 -50.5 196.5t-117.5 69.5q-50 0 -83.5 -37.5t-33.5 -84.5z " />
<glyph unicode="&#x6cb;" horiz-adv-x="778" arabic-form="final" d="M20 -332l22 92q81 -42 188 -42q120 0 207 79.5t117 202.5h-29q-95 0 -162.5 21t-104 59.5t-52.5 82.5t-16 99q0 100 67.5 173.5t162.5 73.5q31 0 62 -10t64 -36.5t59 -67.5t43 -109t19 -154h111q34 0 56 -16.5t22 -48.5q0 -27 -17.5 -47t-60.5 -20h-121 q-34 -174 -149.5 -289t-266.5 -115q-144 0 -221 72zM209 775q0 32 21 54t52 22t52 -22t21 -54q0 -36 -20.5 -57.5t-52.5 -21.5q-33 0 -53 21t-20 58zM284 276q0 -30 9.5 -52.5t35.5 -45t81 -34.5t137 -12h22q-4 127 -50.5 196.5t-117.5 69.5q-50 0 -83.5 -37.5t-33.5 -84.5z M309 951q0 34 20 55.5t51 21.5q33 0 53 -21.5t20 -55.5q0 -36 -19.5 -57t-53.5 -21q-32 0 -51.5 20.5t-19.5 57.5zM402 775q0 32 21 54t52 22q32 0 52 -22t20 -54q0 -36 -19.5 -57.5t-52.5 -21.5q-32 0 -52.5 21t-20.5 58z" />
<glyph unicode="&#x6d0;" horiz-adv-x="418" arabic-form="initial" d="M-73 69q0 24 17.5 44t55.5 20h29q155 0 207 34q1 9 1 28q-5 151 -113 339l107 42q39 -72 71.5 -184t32.5 -208q0 -69 -16 -112q-39 -34 -102 -53t-195 -19h-22q-40 0 -56.5 20.5t-16.5 48.5zM111 -274q0 35 20.5 57t52.5 22q33 0 54 -22t21 -57t-21.5 -56t-54.5 -21 q-31 0 -51.5 21t-20.5 56zM111 -473q0 35 21 57t54 22q32 0 52.5 -22t20.5 -57q0 -34 -20.5 -55t-52.5 -21t-53.5 21t-21.5 55z" />
<glyph unicode="&#x6d0;" horiz-adv-x="459" arabic-form="medial" d="M-79 67q0 25 19 45t57 20q58 0 97.5 16t61.5 49t32.5 68.5t16.5 89.5l86 8q-3 -36 -3 -50q0 -81 37 -130.5t134 -50.5q34 0 56 -16.5t22 -48.5q0 -27 -17.5 -47t-60.5 -20q-94 0 -148.5 36t-76.5 110q-53 -146 -238 -146q-40 0 -57.5 19.5t-17.5 47.5zM159 -274 q0 35 21 57t53 22q33 0 53.5 -22t20.5 -57t-21.5 -56t-54.5 -21q-31 0 -51.5 21t-20.5 56zM159 -473q0 35 21 57t54 22q32 0 52.5 -22t20.5 -57q0 -34 -20.5 -55t-52.5 -21t-53.5 21t-21.5 55z" />
<glyph unicode="&#x6d0;" horiz-adv-x="965" arabic-form="final" d="M73 -4q0 133 60 253l82 -12q-38 -109 -38 -217q0 -74 26 -130.5t72.5 -89.5t104 -49t125.5 -16q118 0 214.5 36t149.5 91q35 35 35 60q0 33 -49 55.5t-124 22.5h-8l38 132h204q34 0 56 -16.5t22 -48.5q0 -27 -17.5 -47t-60.5 -20h-5q33 -31 33 -82q0 -60 -41 -113 q-65 -89 -191.5 -144t-274.5 -55q-207 0 -310 106t-103 284zM456 -595q0 35 21.5 57t53.5 22q33 0 54 -22t21 -57t-22 -56.5t-56 -21.5q-30 0 -51 22t-21 56zM456 -794q0 35 21.5 57t53.5 22q33 0 54 -22t21 -57q0 -34 -21 -55t-54 -21q-32 0 -53.5 21t-21.5 55z" />
<glyph unicode="&#x6d2;" horiz-adv-x="399" arabic-form="final" d="M34 -151q0 85 45 148q43 60 127 98t183 38h10q34 0 56 -17t22 -49q0 -27 -17.5 -47t-60.5 -20h-23q-121 0 -185 -37.5t-64 -97.5q0 -51 53.5 -76.5t185.5 -25.5q139 0 392 11t370 24l-35 -118q-301 -40 -724 -40q-175 0 -255 52t-80 157z" />
<glyph unicode="&#x6d3;" horiz-adv-x="399" arabic-form="final" d="M34 -151q0 85 45 148q43 60 127 98t183 38h10q34 0 56 -17t22 -49q0 -27 -17.5 -47t-60.5 -20h-23q-121 0 -185 -37.5t-64 -97.5q0 -51 53.5 -76.5t185.5 -25.5q139 0 392 11t370 24l-35 -118q-301 -40 -724 -40q-175 0 -255 52t-80 157zM113 317l8 69q33 18 68 18 q-53 40 -53 90q0 58 43.5 91.5t105.5 33.5q86 0 126 -38l-23 -68q-43 33 -106 33q-34 0 -54 -16.5t-20 -36.5q0 -35 35.5 -55.5t92.5 -20.5h97l-29 -75h-95q-135 0 -196 -25z" />
<glyph unicode="&#x6d5;" horiz-adv-x="702" d="M69 272q0 132 143 246q51 42 217 127l-5 117l100 10l17 -452q5 -109 47 -148t114 -39q34 0 56.5 -17t22.5 -49q0 -27 -18 -47t-61 -20q-174 0 -229 133q-33 -21 -86 -33t-96 -12q-100 0 -161 50.5t-61 133.5zM168 306q0 -44 37.5 -66t101.5 -22q78 0 139 28 q0 5 -0.5 15.5t-0.5 16.5l-12 259q-135 -57 -200 -116.5t-65 -114.5z" />
<glyph unicode=" "  horiz-adv-x="389" />
<glyph unicode="&#x09;" horiz-adv-x="389" />
<glyph unicode="&#xa0;" horiz-adv-x="389" />
<glyph unicode="!" horiz-adv-x="430" d="M99 75q0 40 24.5 65t62.5 25t62 -25t24 -65q0 -39 -23.5 -65t-62.5 -26q-38 0 -62.5 26t-24.5 65zM116 986h140l-20 -702h-100z" />
<glyph unicode="&#x22;" horiz-adv-x="492" d="M75 1012h125l-23 -351h-79zM293 1012h127l-25 -351h-78z" />
<glyph unicode="#" horiz-adv-x="727" d="M54 285v88h133l30 212h-128v86h139l38 280h85l-36 -280h152l38 280h86l-37 -280h119v-86h-132l-26 -212h124v-86h-137l-38 -287h-88l38 287h-152l-38 -287h-88l38 285h-120zM275 373h152l28 212h-152z" />
<glyph unicode="$" horiz-adv-x="750" d="M95 86l35 100q93 -65 209 -65q78 0 127 40t49 102q0 59 -40 99t-125 75q-122 49 -182.5 107t-60.5 148q0 91 60.5 155.5t160.5 81.5v145h92v-141q110 -4 189 -52l-34 -97q-86 51 -186 51q-78 0 -116.5 -37.5t-38.5 -88.5q0 -55 40.5 -90t140.5 -78q117 -46 172 -108.5 t55 -157.5q0 -92 -61 -161.5t-171 -87.5v-152h-91v148q-63 1 -124 18.5t-100 45.5z" />
<glyph unicode="%" horiz-adv-x="1157" d="M44 669q0 139 65.5 218.5t164.5 79.5q101 0 160.5 -75t59.5 -209q0 -143 -65 -221.5t-163 -78.5q-94 0 -157.5 75t-64.5 211zM145 674q-1 -93 32 -153t92 -60q62 0 92.5 58.5t30.5 157.5q0 95 -29 153.5t-92 58.5q-59 0 -92.5 -61t-33.5 -154zM256 -18l560 986h81 l-559 -986h-82zM664 275q0 138 66 218t164 80q101 0 160 -74.5t59 -208.5q0 -143 -65 -221.5t-163 -78.5q-94 0 -157.5 74.5t-63.5 210.5zM765 281q-2 -93 31.5 -154t92.5 -61q61 0 91.5 59t30.5 157q0 95 -29.5 154.5t-92.5 59.5q-58 0 -91 -61.5t-33 -153.5z" />
<glyph unicode="&#x26;" horiz-adv-x="883" d="M45 260q0 180 192 289l1 4q-81 100 -81 205q0 98 67 171t183 73q93 0 155.5 -58t62.5 -151q0 -79 -51 -142t-166 -121v-5q145 -169 240 -275q66 102 95 288h116q-42 -249 -142 -364q25 -26 79 -83.5t86 -90.5h-153q-16 15 -46 46.5t-47 48.5q-121 -111 -288 -111 q-139 0 -221 80t-82 196zM168 279q0 -85 57 -142t144 -57q120 0 203 90q-214 237 -277 310q-127 -80 -127 -201zM272 771q0 -81 76 -179q84 50 123.5 93t39.5 102q0 51 -29 89t-84 38q-59 0 -92.5 -41.5t-33.5 -101.5z" />
<glyph unicode="'" horiz-adv-x="275" d="M75 1012h125l-23 -351h-79z" />
<glyph unicode="(" horiz-adv-x="478" d="M98 417q1 365 203 633h103q-199 -271 -199 -633q0 -343 199 -623h-103q-203 264 -203 623z" />
<glyph unicode=")" horiz-adv-x="476" d="M75 -206q197 264 197 633q0 346 -197 623h102q203 -266 203 -623q-1 -369 -203 -633h-102z" />
<glyph unicode="*" horiz-adv-x="607" d="M44 696v100l213 -28l2 3l-138 180l90 50l90 -204h3l90 205l87 -51l-139 -182v-2l221 29v-100l-221 27v-3l141 -177l-91 -51l-89 204h-3l-95 -206l-84 53l139 178v3z" />
<glyph unicode="+" horiz-adv-x="871" d="M59 347v87h330v344h94v-344h330v-87h-330v-347h-94v347h-330z" />
<glyph unicode="," horiz-adv-x="302" d="M25 -181q24 67 49.5 169.5t36.5 181.5l144 14q-26 -92 -68 -197.5t-73 -157.5z" />
<glyph unicode="-" horiz-adv-x="444" d="M44 348v95h357v-95h-357z" />
<glyph unicode="." horiz-adv-x="302" d="M76 75q0 42 24.5 67.5t63.5 25.5q38 0 62 -25.5t24 -67.5q0 -39 -24.5 -65t-63.5 -26q-38 0 -62 26t-24 65z" />
<glyph unicode="/" horiz-adv-x="501" d="M-1 -59l408 1061h99l-409 -1061h-98z" />
<glyph unicode="0" horiz-adv-x="750" d="M53 473q0 234 91 364t239 130q150 0 232.5 -126.5t82.5 -354.5q0 -242 -86 -372t-245 -130q-142 0 -227 128t-87 361zM181 471q0 -183 52 -285.5t141 -102.5q97 0 146 105t49 292q0 182 -48 284t-145 102q-88 0 -141.5 -103t-53.5 -292z" />
<glyph unicode="1" horiz-adv-x="750" d="M152 840l208 111h108v-951h-123v831h-3l-165 -89z" />
<glyph unicode="2" horiz-adv-x="750" d="M64 0v79l103 97q100 96 158.5 157t106.5 123.5t67.5 113.5t19.5 104q0 82 -44 134t-143 52q-107 0 -202 -80l-41 89q113 98 269 98q74 0 131.5 -23.5t91 -63.5t50.5 -87.5t17 -100.5q0 -123 -78 -235.5t-250 -276.5l-74 -72v-3h425v-105h-607z" />
<glyph unicode="3" horiz-adv-x="750" d="M61 50l36 98q97 -60 210 -60q112 0 164 56.5t51 127.5q-1 94 -72.5 142t-173.5 48h-71v97h71q81 0 147 41.5t66 119.5q0 62 -41.5 102.5t-125.5 40.5q-101 0 -190 -63l-34 94q41 30 109 51.5t140 21.5q132 0 202.5 -66t70.5 -161q0 -76 -45.5 -135t-131.5 -90v-3 q92 -17 152 -82t60 -161q0 -121 -91.5 -203t-254.5 -82q-76 0 -143 19t-105 47z" />
<glyph unicode="4" horiz-adv-x="750" d="M22 259v85l424 607h139v-593h133v-99h-133v-259h-121v259h-442zM152 358h312v319q0 83 4 150h-4q-35 -68 -81 -141l-231 -325v-3z" />
<glyph unicode="5" horiz-adv-x="750" d="M61 42l33 98q92 -54 204 -54q93 0 158.5 57.5t64.5 150.5q0 97 -67.5 154t-204.5 57q-36 0 -132 -11l61 457h454v-108h-361l-37 -245q44 6 78 6q118 0 204 -51q59 -34 97.5 -97t38.5 -147q0 -140 -100 -232.5t-254 -92.5q-73 0 -136.5 17t-100.5 41z" />
<glyph unicode="6" horiz-adv-x="750" d="M50 388q0 135 43.5 245.5t117.5 184.5q118 117 304 140q38 7 94 7v-105q-59 0 -97 -7q-144 -23 -228.5 -117t-102.5 -220h3q36 49 96 80.5t134 31.5q128 0 208 -85t80 -224q0 -137 -87 -236t-230 -99q-152 0 -243.5 110t-91.5 294zM177 355q2 -122 56.5 -197.5 t152.5 -75.5q83 0 134 63t51 167q0 101 -53 159.5t-142 58.5q-58 0 -108.5 -32.5t-77.5 -84.5q-13 -28 -13 -58z" />
<glyph unicode="7" horiz-adv-x="750" d="M83 844v107h600v-85l-414 -866h-133l413 841v3h-466z" />
<glyph unicode="8" horiz-adv-x="750" d="M54 241q0 87 49 151.5t138 103.5v4q-76 36 -114 92.5t-38 121.5q0 111 84.5 182t211.5 71q131 0 203.5 -69t72.5 -165q0 -147 -156 -222v-5q90 -34 140.5 -98t50.5 -148q0 -123 -92 -199.5t-232 -76.5q-143 0 -230.5 74.5t-87.5 182.5zM186 257q-3 -74 49.5 -126.5 t140.5 -52.5q86 0 138 47.5t52 121.5q0 82 -53 130t-156 76q-82 -23 -126.5 -75t-44.5 -121zM212 723q-1 -68 46.5 -110.5t135.5 -65.5q65 22 104 66.5t39 106.5q0 64 -40 109.5t-121 45.5q-76 0 -120 -44t-44 -108z" />
<glyph unicode="9" horiz-adv-x="750" d="M60 629q0 139 91 238.5t234 99.5q145 0 229.5 -109t84.5 -292q0 -287 -164 -446q-109 -107 -276 -127q-66 -10 -119 -8v106q28 -3 104 4q120 15 199 92q100 91 126 253h-4q-86 -102 -226 -102q-126 0 -202.5 83.5t-76.5 207.5zM187 638q0 -90 50.5 -147t132.5 -57 q62 0 111 28t76 72q12 26 12 48q1 128 -48.5 207.5t-146.5 79.5q-83 0 -135 -65.5t-52 -165.5z" />
<glyph unicode=":" horiz-adv-x="419" d="M135 75q0 40 24.5 66t62.5 26t62 -25.5t25 -66.5q0 -39 -24.5 -65t-63.5 -26q-38 0 -62 26t-24 65zM135 591q0 40 24.5 66t62.5 26t62 -25.5t25 -66.5q0 -38 -24.5 -64.5t-63.5 -26.5q-38 0 -62 26.5t-24 64.5z" />
<glyph unicode=";" horiz-adv-x="396" d="M70 -181q60 166 88 351l142 14q-26 -92 -68 -197.5t-73 -157.5zM133 591q0 40 25 66t63 26t61.5 -25.5t23.5 -66.5q0 -38 -24 -64.5t-63 -26.5q-38 0 -62 26.5t-24 64.5z" />
<glyph unicode="&#x3c;" horiz-adv-x="871" d="M97 348v81l678 349v-102l-572 -285v-3l572 -287v-101z" />
<glyph unicode="=" horiz-adv-x="871" d="M59 206v88h754v-88h-754zM59 493v88h754v-88h-754z" />
<glyph unicode="&#x3e;" horiz-adv-x="871" d="M97 0v101l576 287v3l-576 285v102l678 -348v-83z" />
<glyph unicode="?" horiz-adv-x="617" d="M98 944q37 28 94 44t115 16q119 0 182.5 -63t63.5 -153q0 -68 -31.5 -124.5t-95.5 -129.5q-91 -110 -82 -217l1 -36h-114l-4 38q-14 125 92 253q54 65 78 109.5t24 90.5q0 58 -36 91.5t-104 34.5q-88 0 -148 -47zM199 75q0 41 24 66.5t62 25.5q39 0 63 -25.5t25 -66.5 q0 -39 -24.5 -65t-63.5 -26q-38 0 -62 26t-24 65z" />
<glyph unicode="@" horiz-adv-x="1078" d="M63 304q0 151 64.5 278.5t188 206t281.5 78.5q189 0 306.5 -119.5t117.5 -304.5q0 -159 -75.5 -253.5t-183.5 -94.5q-48 0 -80 32.5t-30 96.5h-4q-76 -129 -208 -129q-65 0 -111.5 50t-46.5 134q0 90 44 169.5t124.5 128.5t179.5 49q88 0 157 -29l-50 -266 q-30 -164 44 -164q61 -1 109.5 72.5t48.5 193.5q0 164 -94 265t-261 101q-183 0 -310.5 -134.5t-127.5 -351.5q0 -180 105.5 -289t269.5 -109q128 0 222 53l24 -63q-112 -59 -261 -59q-186 0 -314.5 126t-128.5 332zM380 285q0 -51 25 -81t72 -30q61 0 113 63t65 136l31 165 q-41 11 -73 11q-96 0 -164.5 -78.5t-68.5 -185.5z" />
<glyph unicode="A" horiz-adv-x="895" d="M37 0l335 986h153l337 -986h-136l-106 310h-349l-101 -310h-133zM297 410h297l-97 283q-15 45 -51 180h-4q-19 -87 -48 -178z" />
<glyph unicode="B" horiz-adv-x="792" d="M110 3v970q95 20 232 20q186 0 271 -71q83 -60 83 -176q0 -71 -45 -129t-121 -86v-4q82 -19 142.5 -81.5t60.5 -164.5q0 -118 -85 -198q-98 -92 -339 -92q-111 0 -199 12zM238 97q39 -6 107 -6q71 0 125.5 17t92 61.5t37.5 112.5q0 96 -72 143.5t-184 47.5h-106v-376z M238 568h116q98 0 155 46.5t57 119.5q0 161 -215 161q-83 0 -113 -9v-318z" />
<glyph unicode="C" horiz-adv-x="848" d="M53 484q0 231 142.5 374t372.5 143q158 0 234 -43l-31 -104q-86 41 -199 41q-176 0 -280.5 -107.5t-104.5 -298.5q0 -183 100.5 -290t278.5 -107q124 0 208 41l26 -102q-100 -47 -262 -47q-104 0 -192.5 33t-153.5 95.5t-102 158t-37 213.5z" />
<glyph unicode="D" horiz-adv-x="974" d="M110 3v970q132 20 272 20q267 0 399 -123q139 -126 139 -354q0 -241 -142 -383t-436 -142q-119 0 -232 12zM238 101q37 -7 129 -7q203 0 311.5 109t108.5 313q0 176 -100 276q-101 100 -299 100q-76 0 -150 -13v-778z" />
<glyph unicode="E" horiz-adv-x="718" d="M110 0v986h534v-105h-406v-313h382v-106h-382v-357h428v-105h-556z" />
<glyph unicode="F" horiz-adv-x="710" d="M110 0v986h531v-105h-403v-330h373v-105h-373v-446h-128z" />
<glyph unicode="G" horiz-adv-x="945" d="M53 487q0 224 145 366.5t389 142.5q146 0 245 -45l-30 -104q-97 42 -218 42q-181 0 -289 -106t-108 -290q0 -186 103 -292t278 -106q118 0 168 26v294h-199v103h325v-474q-140 -54 -303 -54q-232 0 -369 130q-65 62 -101 157.5t-36 209.5z" />
<glyph unicode="H" horiz-adv-x="953" d="M110 0v986h128v-414h477v414h128v-986h-128v462h-477v-462h-128z" />
<glyph unicode="I" horiz-adv-x="349" d="M110 0v986h128v-986h-128z" />
<glyph unicode="J" horiz-adv-x="541" d="M6 6l17 105q44 -19 109 -19q91 0 135.5 54t44.5 192v648h128v-660q0 -185 -79.5 -263.5t-218.5 -78.5q-77 0 -136 22z" />
<glyph unicode="K" horiz-adv-x="792" d="M110 0v986h128v-475h3q50 68 79 105l302 370h156l-355 -418l384 -568h-150l-325 483l-94 -109v-374h-128z" />
<glyph unicode="L" horiz-adv-x="690" d="M110 0v986h128v-879h422v-107h-550z" />
<glyph unicode="M" horiz-adv-x="1176" d="M85 0l69 986h162l168 -478q54 -157 98 -338h6q34 146 104 339l175 477h163l61 -986h-126l-21 433q-17 261 -17 408v16h-4q-46 -155 -126 -379l-171 -472h-101l-156 469q-72 210 -114 382h-3q-9 -264 -19 -434l-27 -423h-121z" />
<glyph unicode="N" horiz-adv-x="962" d="M110 0v986h140l316 -499q105 -170 177 -322l3 3q-15 165 -15 404v414h120v-986h-128l-313 500q-131 209 -185 329l-4 -1q10 -177 10 -407v-421h-121z" />
<glyph unicode="O" horiz-adv-x="1007" d="M53 487q0 228 128 371.5t332 143.5q137 0 238 -68t152 -182t51 -258q0 -120 -36.5 -217.5t-99.5 -161t-145.5 -97.5t-176.5 -34q-199 0 -321 140.5t-122 362.5zM187 492q0 -174 85 -289t231 -115q100 0 173.5 57t108 147t34.5 200q0 78 -19 149t-56 129.5t-99 93 t-140 34.5q-148 0 -233 -116.5t-85 -289.5z" />
<glyph unicode="P" horiz-adv-x="778" d="M110 0v974q116 19 245 19q186 0 277 -82q86 -76 86 -207q0 -134 -76 -212q-100 -109 -298 -109q-54 0 -106 8v-391h-128zM238 494q27 -8 104 -8q117 0 183 55t66 155q0 96 -62.5 146t-170.5 50q-76 0 -120 -8v-390z" />
<glyph unicode="Q" horiz-adv-x="1007" d="M53 487q0 227 127.5 371t332.5 144q137 0 238.5 -68t152 -182t50.5 -256q0 -176 -77.5 -298.5t-203.5 -168.5v-6q155 -36 288 -62l-36 -106q-161 44 -378 114q-39 14 -60 15q-202 11 -318 147.5t-116 355.5zM187 490q0 -109 35 -199t108 -146.5t172 -56.5 q100 0 173.5 56.5t108.5 147t35 201.5q0 79 -19.5 150.5t-57 129t-99 91.5t-138.5 34q-101 0 -174.5 -58t-108.5 -149t-35 -201z" />
<glyph unicode="R" horiz-adv-x="787" d="M110 0v973q102 20 245 20q199 0 286 -80q77 -71 77 -189q0 -93 -51.5 -157.5t-134.5 -92.5v-4q108 -37 145 -199q52 -225 76 -271h-133q-23 44 -64 236q-22 101 -66.5 144.5t-131.5 46.5h-120v-427h-128zM238 524h131q102 0 161.5 51t59.5 136q0 92 -61 137.5t-165 46.5 q-89 0 -126 -11v-360z" />
<glyph unicode="S" horiz-adv-x="721" d="M60 48l34 107q99 -64 228 -64q96 0 151 46t55 122q0 68 -42.5 112.5t-143.5 83.5q-127 44 -194.5 111.5t-67.5 167.5q0 115 89.5 191t231.5 76q130 0 216 -47l-33 -104q-84 47 -188 47q-93 0 -139 -45t-46 -103q0 -66 44.5 -107t151.5 -83q130 -51 190 -117.5t60 -172.5 q0 -122 -89 -203.5t-255 -81.5q-70 0 -141 18.5t-112 45.5z" />
<glyph unicode="T" horiz-adv-x="727" d="M-1 878v108h730v-108h-302v-878h-129v878h-299z" />
<glyph unicode="U" horiz-adv-x="946" d="M110 404v582h128v-585q0 -158 62.5 -235.5t167.5 -77.5q113 0 176.5 77.5t63.5 235.5v585h127v-576q0 -217 -100.5 -321.5t-270.5 -104.5q-162 0 -258 101t-96 319z" />
<glyph unicode="V" horiz-adv-x="814" d="M4 986h139l154 -486q85 -279 105 -368h3q33 133 113 365l167 489h136l-353 -986h-139z" />
<glyph unicode="W" horiz-adv-x="1237" d="M20 986h137l117 -499q30 -128 73 -341h3q19 115 80 343l132 497h133l120 -500q51 -214 69 -338h2q19 104 79 341l129 497h132l-280 -986h-134l-123 513q-45 182 -66 322h-3q-21 -126 -74 -323l-139 -512h-136z" />
<glyph unicode="X" horiz-adv-x="835" d="M37 0l301 499l-290 487h147l131 -231q25 -43 92 -168h3q30 64 90 168l134 231h146l-299 -480l307 -506h-148l-126 217q-50 78 -114 196h-3q-37 -78 -107 -196l-118 -217h-146z" />
<glyph unicode="Y" horiz-adv-x="791" d="M19 986h146l138 -272q60 -118 98 -203h3q16 38 99 203l142 272h143l-329 -566v-420h-128v417z" />
<glyph unicode="Z" horiz-adv-x="808" d="M44 0v75l547 800v4h-500v107h665v-78l-544 -797v-4h552v-107h-720z" />
<glyph unicode="[" horiz-adv-x="469" d="M120 -197v1233h268v-81h-169v-1072h169v-80h-268z" />
<glyph unicode="\" horiz-adv-x="498" d="M1 1002h100l399 -1061h-99z" />
<glyph unicode="]" horiz-adv-x="469" d="M83 -117h167v1072h-167v81h268v-1233h-268v80z" />
<glyph unicode="^" horiz-adv-x="871" d="M88 276l303 675h90l302 -675h-103l-243 568h-4l-244 -568h-101z" />
<glyph unicode="_" horiz-adv-x="731" d="M0 -110h731v-73h-731v73z" />
<glyph unicode="`" horiz-adv-x="438" d="M28 1014h140l139 -209h-104z" />
<glyph unicode="a" horiz-adv-x="705" d="M51 187q1 128 111 196q107 66 303 66h12v16q0 27 -5.5 51.5t-21 52t-50 44t-84.5 16.5q-101 0 -184 -53l-31 85q99 63 234 63q78 0 133 -24.5t83.5 -68t40.5 -92t12 -106.5v-263q0 -101 10 -170h-115l-12 89h-3q-32 -45 -88.5 -75t-127.5 -30q-101 0 -159 60.5t-58 142.5 zM180 202q0 -61 34 -92t87 -31q66 0 110.5 34t62.5 84q6 26 6 40v124h-7q-293 0 -293 -159z" />
<glyph unicode="b" horiz-adv-x="832" d="M99 0q6 72 6 181v858h129v-445h3q74 130 241 130q132 0 216 -100q83 -99 83 -257q0 -95 -27.5 -169t-73 -120t-101.5 -70t-116 -24q-161 0 -238 132h-3l-6 -116h-113zM234 284q0 -25 6 -47q19 -69 71 -110t122 -41q101 0 158 74.5t57 197.5q0 112 -56 188t-156 76 q-66 0 -121 -43t-74 -115q-7 -37 -7 -54v-126z" />
<glyph unicode="c" horiz-adv-x="655" d="M56 345q0 166 104 272t274 106q108 0 180 -37l-29 -99q-64 33 -149 33q-117 0 -183.5 -76.5t-66.5 -190.5q0 -121 69.5 -193t177.5 -72q76 0 157 33l21 -95q-79 -42 -203 -42q-160 0 -256 99t-96 262z" />
<glyph unicode="d" horiz-adv-x="825" d="M56 348q0 169 91 272q92 104 226 104q76 0 132 -31t82 -77h3v423h127v-858q0 -85 6 -181h-114l-6 121h-5q-30 -61 -92.5 -99t-145.5 -38q-131 0 -217.5 100.5t-86.5 263.5zM186 350q0 -113 54.5 -188.5t154.5 -75.5q66 0 118.5 42t70.5 113q6 27 6 56v123q0 26 -6 55 q-15 63 -65.5 105t-120.5 42q-98 0 -155 -76.5t-57 -195.5z" />
<glyph unicode="e" horiz-adv-x="732" d="M56 341q0 166 90.5 274.5t242.5 108.5q66 0 118.5 -22.5t84 -57t52 -80.5t28.5 -88.5t8 -84.5q0 -37 -6 -60h-496q2 -124 70 -185t172 -61q111 0 197 36l22 -92q-99 -45 -235 -45q-161 0 -254.5 98t-93.5 259zM180 423h376q0 34 -8 67t-26.5 66t-56 53.5t-88.5 20.5 q-61 0 -106 -34.5t-65 -79t-26 -93.5z" />
<glyph unicode="f" horiz-adv-x="427" d="M20 610v98h100v34q0 169 82 247q67 66 171 66q71 0 113 -22l-24 -98q-36 16 -79 16q-136 0 -136 -205v-38h171v-98h-171v-610h-127v610h-100z" />
<glyph unicode="g" horiz-adv-x="817" d="M56 348q0 172 94.5 274t223.5 102q84 0 139 -35.5t82 -87.5h3l6 107h113q-6 -102 -6 -195v-411q0 -234 -101 -323q-92 -85 -257 -85q-146 0 -237 57l32 100q94 -57 209 -57q105 0 166.5 60.5t61.5 187.5v79h-3q-30 -52 -88.5 -85t-136.5 -33q-132 0 -216.5 98.5 t-84.5 246.5zM186 355q0 -110 54.5 -183t154.5 -73q60 0 108.5 36.5t69.5 97.5q11 35 11 68v128q0 22 -8 58q-18 60 -65.5 98t-115.5 38q-92 0 -150.5 -73.5t-58.5 -194.5z" />
<glyph unicode="h" horiz-adv-x="811" d="M107 0v1039h127v-442h3q34 57 94 91q62 36 130 36q32 0 63 -7.5t65.5 -29t60 -54t42 -87.5t16.5 -126v-420h-127v407q0 95 -39.5 152.5t-124.5 57.5q-61 0 -108 -37t-65 -91q-10 -27 -10 -62v-427h-127z" />
<glyph unicode="i" horiz-adv-x="342" d="M91 907q0 34 22.5 57t57.5 23t57 -23t22 -57q1 -34 -21.5 -56.5t-60.5 -22.5q-35 0 -56 22.5t-21 56.5zM107 0v708h127v-708h-127z" />
<glyph unicode="j" horiz-adv-x="355" d="M-66 -208q99 7 141 54q27 31 38 87t11 178v597h128v-645q0 -105 -20 -174.5t-65 -116.5q-40 -41 -101 -61t-119 -20zM108 907q-1 33 22 56.5t59 23.5q34 0 55.5 -23t21.5 -57q0 -33 -22 -56t-60 -23q-34 0 -55.5 23t-20.5 56z" />
<glyph unicode="k" horiz-adv-x="684" d="M105 0v1039h129v-656h3q34 48 61 81l210 244h155l-274 -291l312 -417h-157l-244 339l-66 -73v-266h-129z" />
<glyph unicode="l" horiz-adv-x="343" d="M107 0v1039h127v-1039h-127z" />
<glyph unicode="m" horiz-adv-x="1220" d="M101 708h113l5 -114h3q76 130 224 130q71 0 124 -39t77 -103h3q32 56 79 92q69 50 156 50q31 0 60.5 -8t61.5 -29.5t56 -54.5t39.5 -88.5t15.5 -126.5v-417h-126v399q0 105 -38.5 161.5t-115.5 56.5q-52 0 -93.5 -33t-58.5 -81q-12 -40 -12 -66v-437h-124v424 q0 87 -38.5 140t-109.5 53q-57 0 -100 -37.5t-61 -89.5q-8 -25 -8 -63v-427h-126v516q0 72 -6 192z" />
<glyph unicode="n" horiz-adv-x="811" d="M101 708h114l6 -117h4q29 55 90.5 94t143.5 39q41 0 80.5 -14t79.5 -45.5t64.5 -94t24.5 -147.5v-423h-127v407q0 94 -39.5 152t-124.5 58q-62 0 -108.5 -37t-64.5 -94q-10 -27 -10 -60v-426h-127v516q0 72 -6 192z" />
<glyph unicode="o" horiz-adv-x="803" d="M56 351q0 172 101 272.5t251 100.5q151 0 245.5 -101t94.5 -269q0 -94 -32 -167.5t-85 -116.5t-114 -64.5t-125 -21.5q-144 0 -240 100t-96 267zM186 351q0 -112 57 -192t158 -80q100 0 158 80t58 194q0 49 -12 95t-36.5 87t-67.5 66t-100 25t-100 -25t-67 -66t-36 -87.5 t-12 -96.5z" />
<glyph unicode="p" horiz-adv-x="832" d="M99 708h118l5 -121h3q84 137 252 137q130 0 215 -100t85 -260q0 -181 -94 -280.5t-227 -99.5q-71 0 -129.5 29.5t-89.5 81.5h-3v-385h-129v767q0 131 -6 231zM234 288q0 -28 6 -52q17 -68 70.5 -110.5t122.5 -42.5q100 0 157.5 75.5t57.5 199.5q0 111 -56.5 186.5 t-154.5 75.5q-67 0 -122 -43.5t-72 -114.5q-9 -36 -9 -52v-122z" />
<glyph unicode="q" horiz-adv-x="822" d="M56 342q0 95 28.5 170.5t76 120.5t102.5 68t113 23q79 0 134 -34t82 -89h3l6 107h122q-6 -120 -6 -195v-803h-127v400h-3q-31 -57 -90.5 -91.5t-142.5 -34.5q-126 0 -212 100t-86 258zM186 350q0 -114 54 -189t155 -75q63 0 113 37t71 102q11 35 11 63v133q0 29 -6 53 q-15 62 -65.5 105t-120.5 43q-98 0 -155 -75.5t-57 -196.5z" />
<glyph unicode="r" horiz-adv-x="478" d="M99 708h115l4 -140h4q25 72 79 114t119 42q20 0 36 -4v-122q-22 5 -43 5q-67 0 -113 -46t-60 -120q-6 -27 -6 -60v-377h-129v487q0 121 -6 221z" />
<glyph unicode="s" horiz-adv-x="579" d="M57 34l32 96q83 -50 170 -50q68 0 102.5 29.5t34.5 76.5q0 45 -29.5 73.5t-101.5 55.5q-187 69 -187 201q0 88 66.5 148t177.5 60q99 0 172 -44l-30 -93q-74 42 -145 42q-55 0 -87 -28t-32 -70t29.5 -66.5t105.5 -54.5q94 -35 140 -85t46 -128q0 -95 -70.5 -154 t-194.5 -59q-113 0 -199 50z" />
<glyph unicode="t" horiz-adv-x="484" d="M25 610v98h110v170l127 33v-203h184v-98h-184v-382q0 -69 22 -103t74 -34q45 0 75 10l6 -98q-47 -19 -114 -19q-93 0 -141 54q-49 57 -49 186v386h-110z" />
<glyph unicode="u" horiz-adv-x="804" d="M102 294v414h128v-392q0 -227 156 -227q65 0 111 35.5t62 81.5q12 34 12 68v434h127v-515q0 -79 6 -193h-113l-7 116h-3q-31 -53 -89.5 -92.5t-146.5 -39.5q-111 0 -177 74.5t-66 235.5z" />
<glyph unicode="v" horiz-adv-x="703" d="M19 708h136l140 -398q25 -73 59 -183h3q18 68 58 183l139 398h135l-278 -708h-123z" />
<glyph unicode="w" horiz-adv-x="1076" d="M26 708h131l95 -360q28 -112 52 -227h5q11 56 63 226l115 361h108l110 -355q40 -129 63 -232h4q14 82 55 232l100 355h128l-230 -708h-116l-108 338q-37 111 -63 233h-3q-24 -114 -64 -235l-114 -336h-117z" />
<glyph unicode="x" horiz-adv-x="678" d="M12 0l251 361l-240 347h144l101 -152q37 -58 71 -116h3q13 25 40 66.5t32 50.5l98 151h140l-239 -342l247 -366h-145l-105 158q-20 31 -76 124h-3q-13 -26 -76 -124l-101 -158h-142z" />
<glyph unicode="y" horiz-adv-x="689" d="M13 708h141l155 -418q22 -65 45 -145h3q3 8 18.5 62.5t26.5 83.5l141 417h136l-193 -505q-71 -188 -125 -288t-118 -155q-77 -67 -158 -83l-32 108q59 17 114 61q69 59 107 145q10 22 10 31q0 11 -10 32z" />
<glyph unicode="z" horiz-adv-x="624" d="M26 0v75l321 417q18 22 52.5 62t39.5 47v3h-383v104h539l-1 -80l-316 -413q-57 -73 -91 -110v-3h414v-102h-575z" />
<glyph unicode="{" horiz-adv-x="462" d="M37 383v75q71 0 96.5 30.5t25.5 79.5q0 53 -11 128q-12 82 -12 148q0 97 57 144.5t155 47.5h31v-81h-26q-62 -1 -89 -32.5t-27 -93.5q0 -72 10 -130q12 -105 12 -117q0 -130 -107 -159v-3q107 -26 107 -160q0 -13 -12 -118q-10 -62 -10 -130q0 -63 27.5 -95t88.5 -34h26 v-80h-31q-97 0 -154.5 48t-57.5 152q0 67 12 145q11 75 11 127q0 108 -122 108z" />
<glyph unicode="|" horiz-adv-x="349" d="M126 -366v1463h98v-1463h-98z" />
<glyph unicode="}" horiz-adv-x="460" d="M83 -117h27q62 1 88.5 32.5t26.5 93.5q0 72 -10 130q-12 70 -12 117q0 129 106 159v3q-106 26 -106 160q0 48 12 118q10 62 10 131q0 124 -115 128h-27v81h31q97 0 154.5 -48.5t57.5 -152.5q0 -73 -13 -145q-10 -103 -10 -127q0 -108 121 -108v-75q-71 0 -96 -30t-25 -79 q0 -27 10 -129q13 -76 13 -148q0 -97 -57.5 -144t-154.5 -47h-31v80z" />
<glyph unicode="~" horiz-adv-x="871" d="M70 309q-3 105 47 162t129 57q43 0 83.5 -13.5t123.5 -52.5q125 -61 182 -61q77 0 79 123h88q5 -115 -44 -169t-126 -54q-42 0 -87.5 14.5t-123.5 51.5q-9 5 -33 16.5t-33 16t-27.5 12.5t-29.5 11t-25.5 6t-26.5 3q-84 0 -88 -123h-88z" />
<glyph unicode="&#xa1;" horiz-adv-x="362" d="M82 622q0 40 24.5 66t61.5 26q39 0 63 -26t24 -66q0 -38 -24 -64.5t-63 -26.5q-38 0 -62 26.5t-24 64.5zM98 -285l20 698h100l22 -698h-142z" />
<glyph unicode="&#xa2;" horiz-adv-x="750" d="M97 477q0 142 80.5 240.5t213.5 120.5v147h92v-144q89 0 159 -36l-29 -98q-62 36 -152 36q-106 0 -170 -75t-64 -187q0 -118 64.5 -187t163.5 -69q86 0 167 37l22 -92q-60 -38 -161 -44v-146h-92v147q-130 17 -210 103q-84 92 -84 247z" />
<glyph unicode="&#xa3;" horiz-adv-x="750" d="M80 0v72q76 39 121.5 107.5t45.5 148.5q0 45 -6 102h-150v94h136q-16 101 -16 158q0 128 78.5 206.5t200.5 78.5q104 0 160 -37l-28 -96q-50 29 -130 29q-81 0 -121 -50.5t-40 -132.5q0 -76 17 -156h211v-94h-199q8 -106 -6 -162q-24 -93 -101 -158v-3h436v-107h-609z " />
<glyph unicode="&#xa4;" horiz-adv-x="750" d="M42 764l65 67l99 -110q68 60 168 60q104 0 169 -58l105 108l64 -66l-114 -104q52 -72 52 -171q0 -105 -52 -181l109 -107l-63 -64l-101 111q-67 -62 -171 -62q-46 0 -92 16t-75 43l-98 -108l-63 64l105 104q-54 71 -54 174q0 108 57 181zM199 483q0 -98 53.5 -151 t119.5 -53q70 0 122 52.5t52 157.5q0 81 -47 140.5t-126 59.5t-126.5 -59t-47.5 -147z" />
<glyph unicode="&#xa5;" horiz-adv-x="750" d="M23 951h138l151 -301q31 -64 58 -134h6q33 87 58 136l158 299h135l-262 -443h189v-74h-228v-105h228v-73h-228v-256h-120v256h-227v73h227v105h-227v74h190z" />
<glyph unicode="&#xa6;" horiz-adv-x="349" d="M126 255h98v-512h-98v512zM126 474v512h98v-512h-98z" />
<glyph unicode="&#xa7;" horiz-adv-x="759" d="M85 497q0 101 108 172q-23 18 -38.5 52t-15.5 70q0 94 77.5 151t193.5 57q115 0 201 -48l-32 -84q-76 47 -174 47q-66 0 -109 -29.5t-43 -78.5q0 -22 9.5 -40.5t22.5 -31t39.5 -25.5t48 -21t61.5 -22q56 -18 95 -36.5t74 -45.5t52.5 -64.5t17.5 -85.5q0 -106 -95 -177 q23 -19 40 -53.5t17 -76.5q0 -106 -82.5 -162t-195.5 -56q-144 0 -230 60l34 85q89 -60 194 -60q73 0 118.5 31.5t45.5 88.5q0 50 -38.5 83t-139.5 69q-128 43 -192 94t-64 137zM190 515q0 -43 35.5 -77t119.5 -64q121 -42 168 -70q55 41 55 113q0 88 -131 136 q-140 49 -181 73q-66 -47 -66 -111z" />
<glyph unicode="&#xa8;" horiz-adv-x="438" d="M12 908q0 31 21 53t52 22q30 0 51 -22t21 -53q0 -30 -20.5 -52t-51.5 -22q-32 0 -52.5 22t-20.5 52zM281 908q0 31 21.5 53t52.5 22q30 0 51 -22t21 -53q0 -30 -20.5 -52t-52.5 -22q-31 0 -52 22t-21 52z" />
<glyph unicode="&#xa9;" horiz-adv-x="990" d="M53 497q0 123 58.5 226.5t160.5 164t225 60.5q122 0 223.5 -60.5t159.5 -164t58 -226.5q0 -190 -127.5 -321.5t-313.5 -131.5q-187 0 -315.5 131.5t-128.5 321.5zM126 493q0 -164 106.5 -276.5t264.5 -112.5q155 0 261.5 113.5t106.5 279.5q0 163 -106.5 276t-261.5 113 q-158 0 -264.5 -113t-106.5 -280zM253 489q0 121 82 196.5t197 75.5q53 0 99 -12.5t62 -27.5l-17 -57q-65 34 -142 34q-100 0 -152.5 -56.5t-52.5 -148.5q0 -89 54.5 -147.5t150.5 -58.5q90 0 149 38l18 -56q-67 -45 -180 -45q-124 0 -196 75t-72 190z" />
<glyph unicode="&#xaa;" horiz-adv-x="506" d="M48 522q0 79 77 124t217 42v14q0 11 -4 24t-14.5 29.5t-34 27t-56.5 10.5q-73 0 -125 -40l-23 63q66 49 167 49q185 0 185 -207v-156q0 -62 9 -113h-88l-8 62h-3q-55 -69 -147 -69q-71 0 -111.5 39.5t-40.5 100.5zM145 527q0 -35 25 -55t60 -20q64 0 98 53q16 20 16 39 v79q-38 1 -70.5 -2.5t-63 -13.5t-48 -30.5t-17.5 -49.5z" />
<glyph unicode="&#xab;" horiz-adv-x="683" d="M70 369l206 269h104l-206 -269l208 -270h-106zM310 369l206 269h104l-206 -269l206 -270h-104z" />
<glyph unicode="&#xac;" horiz-adv-x="871" d="M59 496v88h754v-407h-93v319h-661z" />
<glyph unicode="&#xad;" horiz-adv-x="444" d="M44 348v95h357v-95h-357z" />
<glyph unicode="&#xae;" horiz-adv-x="612" d="M60 759q0 100 72 170t175 70t173.5 -70t70.5 -170q0 -102 -70.5 -171.5t-173.5 -69.5q-104 0 -175.5 69.5t-71.5 171.5zM121 759q0 -81 54 -136t134 -55q78 0 130.5 55.5t52.5 134.5q0 81 -52.5 136t-132.5 55q-78 0 -132 -55.5t-54 -134.5zM214 633v240q40 8 92 8 q54 0 83 -18q24 -18 24 -53q0 -39 -50 -55v-3q32 -10 42 -60q9 -44 19 -59h-60q-9 11 -19 59q-9 38 -50 38h-26v-97h-55zM271 769h26q23 0 39.5 9.5t16.5 26.5q0 16 -13.5 26t-38.5 10q-12 0 -30 -3v-69z" />
<glyph unicode="&#xaf;" horiz-adv-x="438" d="M41 859v89h358v-89h-358z" />
<glyph unicode="&#xb0;" horiz-adv-x="463" d="M42 805q0 84 57 141.5t138 57.5q87 0 140 -56.5t53 -134.5q0 -86 -58.5 -141.5t-137.5 -55.5q-84 0 -138 55.5t-54 133.5zM121 806q0 -51 33 -86t82 -35q50 0 82.5 35.5t32.5 89.5q0 48 -29 86.5t-86 38.5q-53 0 -84 -39.5t-31 -89.5z" />
<glyph unicode="&#xb1;" horiz-adv-x="871" d="M59 0v86h754v-86h-754zM59 464v87h330v286h94v-286h330v-87h-330v-293h-94v293h-330z" />
<glyph unicode="&#xb2;" horiz-adv-x="453" d="M18 647v54l92 85q101 94 142 147.5t41 106.5q0 45 -28 73.5t-82 28.5q-61 0 -123 -45l-31 66q30 27 78 44t101 17q96 0 144.5 -49.5t48.5 -115.5q0 -75 -47 -138t-146 -150l-46 -41v-3h251v-80h-395z" />
<glyph unicode="&#xb3;" horiz-adv-x="444" d="M13 679l25 73q63 -38 136 -38q63 0 96.5 30.5t32.5 68.5q0 51 -45 77t-110 26h-40v67h41q49 0 90.5 23t42.5 69q0 32 -23 53.5t-69 21.5q-69 0 -124 -40l-27 69q76 45 170 45q89 0 134 -39.5t45 -97.5q0 -45 -30.5 -80t-82.5 -52v-3q60 -9 98 -48.5t38 -93.5 q0 -72 -61.5 -121.5t-168.5 -49.5q-110 0 -168 40z" />
<glyph unicode="&#xb4;" horiz-adv-x="438" d="M142 805l140 209h142l-177 -209h-105z" />
<glyph unicode="&#xb5;" horiz-adv-x="808" d="M105 -29v737h129v-420q0 -88 39.5 -143.5t120.5 -55.5q60 0 105 35t64 84q10 27 10 66v434h129v-513q0 -60 14.5 -85t52.5 -27l-10 -93q-23 -6 -44 -6q-51 0 -84.5 30.5t-40.5 95.5h-6q-26 -49 -78.5 -86t-123.5 -37q-111 0 -155 77v-87q0 -203 14 -267h-114 q-22 65 -22 261z" />
<glyph unicode="&#xb6;" horiz-adv-x="748" d="M48 664q0 49 10.5 92.5t39 87t72.5 75t116.5 51t165.5 19.5q100 0 171 -13v-1048h-91v972h-103v-972h-91v458h-12q-45 0 -92 17.5t-89 50t-69 87.5t-28 123z" />
<glyph unicode="&#xb7;" horiz-adv-x="302" d="M64 385q0 40 24.5 66t63.5 26q37 0 61 -25.5t24 -66.5q0 -40 -23.5 -66t-62.5 -26q-38 0 -62.5 26t-24.5 66z" />
<glyph unicode="&#xb8;" horiz-adv-x="438" d="M82 -276l20 65q32 -19 81 -19q63 0 63 46q-1 50 -114 61l67 126h79l-45 -76q43 -8 72.5 -36t29.5 -71q0 -62 -43 -91.5t-109 -29.5q-60 0 -101 25z" />
<glyph unicode="&#xb9;" horiz-adv-x="356" d="M32 1153l138 64h87v-570h-100v481h-2l-107 -51z" />
<glyph unicode="&#xba;" horiz-adv-x="519" d="M26 619q0 110 69 178t167 68q105 0 168 -67t63 -172q-1 -118 -70.5 -181t-163.5 -63q-99 0 -166 66t-67 171zM124 620q0 -70 40 -117.5t95 -47.5q60 0 98 46.5t38 121.5q0 64 -34.5 116t-101.5 52q-65 0 -100 -52t-35 -119z" />
<glyph unicode="&#xbb;" horiz-adv-x="683" d="M63 99l206 270l-206 269h104l206 -269l-206 -270h-104zM301 99l208 270l-208 269h103l207 -269l-206 -270h-104z" />
<glyph unicode="&#xbc;" horiz-adv-x="1110" d="M63 895l136 65h89v-571h-101v481h-3l-105 -51zM202 -16l554 983h84l-556 -983h-82zM594 149v60l260 362h116v-349h82v-73h-82v-149h-98v149h-278zM696 225l2 -3h174v170q0 18 2 51t2 41h-3q-44 -79 -49 -86z" />
<glyph unicode="&#xbd;" horiz-adv-x="1110" d="M41 895l137 65h90v-571h-101v481h-3l-107 -51zM173 -16l556 983h81l-555 -983h-82zM644 0v54l92 85q100 94 141.5 148t41.5 107q0 45 -28 73.5t-82 28.5q-58 0 -124 -45l-30 65q30 27 78 44.5t101 17.5q96 0 144.5 -49.5t48.5 -115.5q0 -75 -47.5 -138.5t-147.5 -150.5 l-44 -41v-3h249v-80h-393z" />
<glyph unicode="&#xbe;" horiz-adv-x="1110" d="M42 421l27 73q63 -38 136 -38q63 0 96 30.5t33 69.5q0 51 -45.5 76.5t-110.5 25.5h-39v68h41q49 0 90.5 23t42.5 69q0 31 -23 52.5t-69 21.5q-70 0 -124 -39l-27 69q72 45 170 45q89 0 133.5 -40t44.5 -98q0 -45 -30 -79.5t-82 -51.5v-3q60 -9 98 -48.5t38 -93.5 q0 -72 -61.5 -121.5t-168.5 -49.5q-110 0 -170 39zM255 -16l555 983h82l-554 -983h-83zM610 149v60l260 362h116v-349h82v-73h-82v-149h-98v149h-278zM712 225l2 -3h174v170q0 53 4 92h-4q-30 -57 -48 -86z" />
<glyph unicode="&#xbf;" horiz-adv-x="601" d="M73 -91q0 67 31.5 124t94.5 131q89 108 83 216l-1 37h114l3 -38q15 -126 -91 -253q-53 -63 -77.5 -108.5t-24.5 -92.5q0 -58 35.5 -91t103.5 -34q88 0 149 45l34 -92q-37 -26 -94.5 -42.5t-115.5 -16.5q-118 0 -181 62.5t-63 152.5zM252 622q0 40 24.5 66t62.5 26 t62.5 -26t24.5 -66q0 -39 -24.5 -65t-62.5 -26q-39 0 -63 26t-24 65z" />
<glyph unicode="&#xc0;" horiz-adv-x="895" d="M37 0l335 986h153l337 -986h-136l-106 310h-349l-101 -310h-133zM237 1208h155l139 -168h-116zM297 410h297l-97 283q-15 45 -51 180h-4q-19 -87 -48 -178z" />
<glyph unicode="&#xc1;" horiz-adv-x="895" d="M37 0l335 986h153l337 -986h-136l-106 310h-349l-101 -310h-133zM297 410h297l-97 283q-15 45 -51 180h-4q-19 -87 -48 -178zM369 1039l137 169h154l-176 -169h-115z" />
<glyph unicode="&#xc2;" horiz-adv-x="895" d="M37 0l335 986h153l337 -986h-136l-106 310h-349l-101 -310h-133zM250 1039l152 166h101l155 -166h-111l-94 101h-2l-93 -101h-108zM297 410h297l-97 283q-15 45 -51 180h-4q-19 -87 -48 -178z" />
<glyph unicode="&#xc3;" horiz-adv-x="895" d="M37 0l335 986h153l337 -986h-136l-106 310h-349l-101 -310h-133zM252 1049q-2 74 28 116t81 42q38 0 104 -34q45 -26 70 -26q20 0 30 13.5t13 50.5h77q1 -155 -112 -155q-40 0 -100 32q-51 27 -71 27q-39 0 -41 -66h-79zM297 410h297l-97 283q-15 45 -51 180h-4 q-19 -87 -48 -178z" />
<glyph unicode="&#xc4;" horiz-adv-x="895" d="M37 0l335 986h153l337 -986h-136l-106 310h-349l-101 -310h-133zM243 1128q0 30 21.5 52t52.5 22q30 0 50.5 -21.5t20.5 -52.5t-20 -53t-51 -22q-32 0 -53 22t-21 53zM297 410h297l-97 283q-15 45 -51 180h-4q-19 -87 -48 -178zM515 1128q0 30 21.5 52t51.5 22 q31 0 52 -21.5t21 -52.5q0 -32 -20.5 -53.5t-52.5 -21.5t-52.5 21.5t-20.5 53.5z" />
<glyph unicode="&#xc5;" horiz-adv-x="895" d="M37 0l335 986h153l337 -986h-136l-106 310h-349l-101 -310h-133zM297 410h297l-97 283q-15 45 -51 180h-4q-19 -87 -48 -178zM297 1154q0 54 41.5 92t109.5 38q67 0 108 -36.5t41 -91.5q0 -57 -41 -94.5t-107 -37.5q-69 0 -110.5 37t-41.5 93zM374 1156q0 -29 20 -52.5 t54 -23.5t53.5 22t19.5 52q0 29 -19.5 52t-53.5 23q-33 0 -53.5 -22.5t-20.5 -50.5z" />
<glyph unicode="&#xc6;" horiz-adv-x="1151" d="M-1 0l450 986h617v-105h-418l37 -316h367v-106h-353l46 -354h361l-2 -105h-471l-42 347h-303l-158 -347h-131zM329 451h247l-32 283q-14 109 -17 160h-6q-31 -80 -63 -155z" />
<glyph unicode="&#xc7;" horiz-adv-x="848" d="M53 484q0 231 142.5 374t372.5 143q158 0 234 -43l-31 -104q-86 41 -199 41q-176 0 -280.5 -107.5t-104.5 -298.5q0 -183 100.5 -290t278.5 -107q124 0 208 41l26 -102q-100 -47 -260 -47l-34 -57q45 -10 74 -38.5t29 -71.5q0 -59 -44 -88.5t-107 -29.5q-61 0 -104 25 l20 65q35 -19 82 -19q62 0 62 44q0 51 -113 63l60 111q-186 22 -299 152t-113 344z" />
<glyph unicode="&#xc8;" horiz-adv-x="718" d="M110 0v986h534v-105h-406v-313h382v-106h-382v-357h428v-105h-556zM177 1208h155l139 -168h-117z" />
<glyph unicode="&#xc9;" horiz-adv-x="718" d="M110 0v986h534v-105h-406v-313h382v-106h-382v-357h428v-105h-556zM301 1039l138 169h153l-175 -169h-116z" />
<glyph unicode="&#xca;" horiz-adv-x="718" d="M110 0v986h534v-105h-406v-313h382v-106h-382v-357h428v-105h-556zM173 1039l152 166h101l155 -166h-113l-92 101h-3l-94 -101h-106z" />
<glyph unicode="&#xcb;" horiz-adv-x="718" d="M110 0v986h534v-105h-406v-313h382v-106h-382v-357h428v-105h-556zM164 1131q0 30 21.5 52t52.5 22q29 0 50 -21.5t21 -52.5t-20.5 -53t-51.5 -22q-32 0 -52.5 21.5t-20.5 53.5zM434 1131q0 29 22 51.5t53 22.5t51.5 -21.5t20.5 -52.5q0 -32 -20.5 -53.5t-52.5 -21.5 t-53 22t-21 53z" />
<glyph unicode="&#xcc;" horiz-adv-x="349" d="M-35 1208h156l138 -168h-116zM110 0v986h128v-986h-128z" />
<glyph unicode="&#xcd;" horiz-adv-x="349" d="M94 1039l137 169h154l-176 -169h-115zM110 0v986h128v-986h-128z" />
<glyph unicode="&#xce;" horiz-adv-x="349" d="M-29 1039l152 166h101l155 -166h-111l-94 101h-3l-92 -101h-108zM110 0v986h128v-986h-128z" />
<glyph unicode="&#xcf;" horiz-adv-x="349" d="M-34 1131q0 30 22 52t53 22q29 0 49.5 -21.5t20.5 -52.5t-20.5 -53t-51.5 -22q-32 0 -52.5 21.5t-20.5 53.5zM110 0v986h128v-986h-128zM237 1131q0 30 22 52t53 22q30 0 50.5 -21.5t20.5 -52.5q0 -32 -20.5 -53.5t-52.5 -21.5t-52.5 21.5t-20.5 53.5z" />
<glyph unicode="&#xd0;" horiz-adv-x="981" d="M-3 449v102h120v425q132 20 271 20q271 0 400 -123q139 -125 139 -357q0 -243 -141 -384q-147 -144 -436 -144q-120 0 -233 12v449h-120zM246 98q48 -6 128 -6q205 0 312.5 108.5t107.5 312.5q0 181 -101 281.5t-298 100.5q-75 0 -149 -13v-331h263v-102h-263v-351z" />
<glyph unicode="&#xd1;" horiz-adv-x="962" d="M110 0v986h140l316 -499q105 -170 177 -322l3 3q-15 165 -15 404v414h120v-986h-128l-313 500q-131 209 -185 329l-4 -1q10 -177 10 -407v-421h-121zM288 1049q-2 74 28.5 116t81.5 42q38 0 104 -34q45 -26 70 -26q20 0 29.5 13.5t12.5 50.5h76q4 -155 -111 -155 q-39 0 -99 32q-51 27 -72 27q-39 0 -41 -66h-79z" />
<glyph unicode="&#xd2;" horiz-adv-x="1007" d="M53 487q0 228 128 371.5t332 143.5q137 0 238 -68t152 -182t51 -258q0 -120 -36.5 -217.5t-99.5 -161t-145.5 -97.5t-176.5 -34q-199 0 -321 140.5t-122 362.5zM187 492q0 -174 85 -289t231 -115q100 0 173.5 57t108 147t34.5 200q0 78 -19 149t-56 129.5t-99 93 t-140 34.5q-148 0 -233 -116.5t-85 -289.5zM294 1213h155l139 -170h-115z" />
<glyph unicode="&#xd3;" horiz-adv-x="1007" d="M53 487q0 228 128 371.5t332 143.5q137 0 238 -68t152 -182t51 -258q0 -120 -36.5 -217.5t-99.5 -161t-145.5 -97.5t-176.5 -34q-199 0 -321 140.5t-122 362.5zM187 492q0 -174 85 -289t231 -115q100 0 173.5 57t108 147t34.5 200q0 78 -19 149t-56 129.5t-99 93 t-140 34.5q-148 0 -233 -116.5t-85 -289.5zM423 1043l137 170h152l-175 -170h-114z" />
<glyph unicode="&#xd4;" horiz-adv-x="1007" d="M53 487q0 228 128 371.5t332 143.5q137 0 238 -68t152 -182t51 -258q0 -120 -36.5 -217.5t-99.5 -161t-145.5 -97.5t-176.5 -34q-199 0 -321 140.5t-122 362.5zM187 492q0 -174 85 -289t231 -115q100 0 173.5 57t108 147t34.5 200q0 78 -19 149t-56 129.5t-99 93 t-140 34.5q-148 0 -233 -116.5t-85 -289.5zM300 1043l152 167h99l157 -167h-113l-92 101h-3l-93 -101h-107z" />
<glyph unicode="&#xd5;" horiz-adv-x="1007" d="M53 487q0 228 128 371.5t332 143.5q137 0 238 -68t152 -182t51 -258q0 -120 -36.5 -217.5t-99.5 -161t-145.5 -97.5t-176.5 -34q-199 0 -321 140.5t-122 362.5zM187 492q0 -174 85 -289t231 -115q100 0 173.5 57t108 147t34.5 200q0 78 -19 149t-56 129.5t-99 93 t-140 34.5q-148 0 -233 -116.5t-85 -289.5zM303 1052q-2 74 28.5 116t81.5 42q18 0 37 -5.5t29 -10t37 -18.5q52 -26 71 -26t29 14t13 50h76q4 -155 -111 -155q-40 0 -100 32q-51 27 -71 27q-38 0 -43 -66h-77z" />
<glyph unicode="&#xd6;" horiz-adv-x="1007" d="M53 487q0 228 128 371.5t332 143.5q137 0 238 -68t152 -182t51 -258q0 -120 -36.5 -217.5t-99.5 -161t-145.5 -97.5t-176.5 -34q-199 0 -321 140.5t-122 362.5zM187 492q0 -174 85 -289t231 -115q100 0 173.5 57t108 147t34.5 200q0 78 -19 149t-56 129.5t-99 93 t-140 34.5q-148 0 -233 -116.5t-85 -289.5zM294 1131q0 30 22 52t53 22q30 0 50 -21.5t20 -52.5t-19.5 -53t-50.5 -22q-32 0 -53.5 22t-21.5 53zM566 1131q0 30 21.5 52t51.5 22q31 0 51.5 -21.5t20.5 -52.5q0 -32 -20.5 -53.5t-52.5 -21.5q-31 0 -51.5 22t-20.5 53z" />
<glyph unicode="&#xd7;" horiz-adv-x="871" d="M59 64l313 321l-313 320l62 64l315 -320l313 320l64 -64l-313 -320l312 -321l-63 -64l-313 319l-313 -319z" />
<glyph unicode="&#xd8;" horiz-adv-x="1007" d="M53 489q0 229 129 371t326 142q136 0 245 -77l78 103l76 -54l-80 -111q127 -136 127 -361q0 -125 -36.5 -225.5t-99.5 -163.5t-143 -96t-170 -33q-141 0 -249 79l-88 -114l-71 57l86 117q-130 140 -130 366zM183 494q0 -134 72 -263h2l433 600q-82 69 -185 69 q-77 0 -140 -34t-102 -92t-59.5 -129.5t-20.5 -150.5zM319 157q76 -71 184 -71q148 0 234.5 118.5t86.5 292.5q0 144 -69 255l-5 1z" />
<glyph unicode="&#xd9;" horiz-adv-x="946" d="M110 404v582h128v-585q0 -158 62.5 -235.5t167.5 -77.5q113 0 176.5 77.5t63.5 235.5v585h127v-576q0 -217 -100.5 -321.5t-270.5 -104.5q-162 0 -258 101t-96 319zM269 1208h155l139 -168h-115z" />
<glyph unicode="&#xda;" horiz-adv-x="946" d="M110 404v582h128v-585q0 -158 62.5 -235.5t167.5 -77.5q113 0 176.5 77.5t63.5 235.5v585h127v-576q0 -217 -100.5 -321.5t-270.5 -104.5q-162 0 -258 101t-96 319zM396 1039l138 169h154l-176 -169h-116z" />
<glyph unicode="&#xdb;" horiz-adv-x="946" d="M110 404v582h128v-585q0 -158 62.5 -235.5t167.5 -77.5q113 0 176.5 77.5t63.5 235.5v585h127v-576q0 -217 -100.5 -321.5t-270.5 -104.5q-162 0 -258 101t-96 319zM278 1039l152 166h101l155 -166h-111l-94 101h-3l-92 -101h-108z" />
<glyph unicode="&#xdc;" horiz-adv-x="946" d="M110 404v582h128v-585q0 -158 62.5 -235.5t167.5 -77.5q113 0 176.5 77.5t63.5 235.5v585h127v-576q0 -217 -100.5 -321.5t-270.5 -104.5q-162 0 -258 101t-96 319zM266 1131q0 30 22 52t53 22q30 0 50 -21.5t20 -52.5t-19.5 -53t-50.5 -22q-32 0 -53.5 22t-21.5 53z M538 1131q0 30 21.5 52t51.5 22q31 0 52.5 -21.5t21.5 -52.5t-21 -53t-53 -22t-52.5 21.5t-20.5 53.5z" />
<glyph unicode="&#xdd;" horiz-adv-x="791" d="M19 986h146l138 -272q60 -118 98 -203h3q16 38 99 203l142 272h143l-329 -566v-420h-128v417zM328 1030l137 171h154l-176 -171h-115z" />
<glyph unicode="&#xde;" horiz-adv-x="776" d="M110 0v986h127v-208q78 8 140 8q169 0 261 -81q80 -74 80 -192q0 -151 -102 -231t-268 -80q-77 0 -111 7v-209h-127zM237 313q41 -9 110 -9q117 0 180.5 52.5t63.5 143.5q0 92 -60.5 138.5t-164.5 46.5q-68 0 -129 -8v-364z" />
<glyph unicode="&#xdf;" horiz-adv-x="801" d="M107 0v661q0 222 104 318q83 76 215 76q109 0 184.5 -66.5t75.5 -181.5q0 -74 -35 -119q-105 -41 -105 -119q0 -24 12 -47.5t22.5 -35t41.5 -44.5q38 -38 58.5 -62.5t40 -69t19.5 -93.5q0 -105 -71 -169t-191 -64q-94 0 -155 29l24 100q60 -30 123 -30q68 0 105.5 35 t37.5 88q0 44 -19 78.5t-60 72.5q-39 36 -59.5 59t-39 60t-18.5 75q0 111 133 180q13 26 13 63q0 75 -41.5 117.5t-110.5 42.5q-88 0 -132.5 -67.5t-44.5 -216.5v-670h-127z" />
<glyph unicode="&#xe0;" horiz-adv-x="705" d="M51 187q0 128 110.5 196t315.5 66v16q0 27 -5.5 51.5t-21 52t-50 44t-84.5 16.5q-101 0 -184 -53l-31 85q99 63 234 63q78 0 133 -24.5t83.5 -68t40.5 -92t12 -106.5v-263q0 -101 10 -170h-115l-12 89h-3q-32 -45 -88.5 -75t-127.5 -30q-101 0 -159 60.5t-58 142.5z M133 1014h141l139 -209h-104zM180 202q0 -61 34 -92t87 -31q66 0 110.5 34t62.5 84q6 26 6 40v124q-300 2 -300 -159z" />
<glyph unicode="&#xe1;" horiz-adv-x="705" d="M51 187q0 128 110.5 196t315.5 66v16q0 27 -5.5 51.5t-21 52t-50 44t-84.5 16.5q-101 0 -184 -53l-31 85q99 63 234 63q78 0 133 -24.5t83.5 -68t40.5 -92t12 -106.5v-263q0 -101 10 -170h-115l-12 89h-3q-32 -45 -88.5 -75t-127.5 -30q-101 0 -159 60.5t-58 142.5z M180 202q0 -61 34 -92t87 -31q66 0 110.5 34t62.5 84q6 26 6 40v124q-300 2 -300 -159zM269 805l141 209h140l-177 -209h-104z" />
<glyph unicode="&#xe2;" horiz-adv-x="705" d="M51 187q0 128 110.5 196t315.5 66v16q0 27 -5.5 51.5t-21 52t-50 44t-84.5 16.5q-101 0 -184 -53l-31 85q99 63 234 63q78 0 133 -24.5t83.5 -68t40.5 -92t12 -106.5v-263q0 -101 10 -170h-115l-12 89h-3q-32 -45 -88.5 -75t-127.5 -30q-101 0 -159 60.5t-58 142.5z M142 807l153 204h97l157 -204h-103l-101 132h-3l-99 -132h-101zM180 202q0 -61 34 -92t87 -31q66 0 110.5 34t62.5 84q6 26 6 40v124q-300 2 -300 -159z" />
<glyph unicode="&#xe3;" horiz-adv-x="705" d="M51 187q0 128 110.5 196t315.5 66v16q0 27 -5.5 51.5t-21 52t-50 44t-84.5 16.5q-101 0 -184 -53l-31 85q99 63 234 63q78 0 133 -24.5t83.5 -68t40.5 -92t12 -106.5v-263q0 -101 10 -170h-115l-12 89h-3q-32 -45 -88.5 -75t-127.5 -30q-101 0 -159 60.5t-58 142.5z M145 834q-2 75 28 113t83 38q8 0 15 -0.5t15 -3t13.5 -4t14.5 -5.5t13 -6t15.5 -7.5t15.5 -7.5q7 -4 23.5 -13t26.5 -13.5t19 -4.5q22 0 34.5 13.5t15.5 53.5h74q0 -155 -112 -155q-35 0 -103 37q-48 28 -71 28q-21 0 -32.5 -13t-13.5 -50h-74zM180 202q0 -61 34 -92t87 -31 q66 0 110.5 34t62.5 84q6 26 6 40v124q-300 2 -300 -159z" />
<glyph unicode="&#xe4;" horiz-adv-x="705" d="M51 187q0 128 110.5 196t315.5 66v16q0 27 -5.5 51.5t-21 52t-50 44t-84.5 16.5q-101 0 -184 -53l-31 85q99 63 234 63q78 0 133 -24.5t83.5 -68t40.5 -92t12 -106.5v-263q0 -101 10 -170h-115l-12 89h-3q-32 -45 -88.5 -75t-127.5 -30q-101 0 -159 60.5t-58 142.5z M145 908q0 31 21 53t52 22q30 0 51 -22t21 -53q0 -30 -20.5 -52t-51.5 -22q-32 0 -52.5 22t-20.5 52zM180 202q0 -61 34 -92t87 -31q66 0 110.5 34t62.5 84q6 26 6 40v124q-300 2 -300 -159zM414 908q0 31 22 53t53 22q30 0 50.5 -22t20.5 -53q0 -30 -20.5 -52t-52.5 -22 q-31 0 -52 22t-21 52z" />
<glyph unicode="&#xe5;" horiz-adv-x="705" d="M51 187q0 128 110.5 196t315.5 66v16q0 27 -5.5 51.5t-21 52t-50 44t-84.5 16.5q-101 0 -184 -53l-31 85q99 63 234 63q78 0 133 -24.5t83.5 -68t40.5 -92t12 -106.5v-263q0 -101 10 -170h-115l-12 89h-3q-32 -45 -88.5 -75t-127.5 -30q-101 0 -159 60.5t-58 142.5z M180 202q0 -61 34 -92t87 -31q66 0 110.5 34t62.5 84q6 26 6 40v124q-300 2 -300 -159zM199 922q0 57 42 97t110 40q67 0 108 -39t41 -97q0 -59 -42 -98t-107 -39q-68 0 -110 39t-42 97zM278 925q0 -32 19.5 -56.5t52.5 -24.5q35 0 54.5 23t19.5 55q0 31 -19.5 55t-54.5 24 q-33 0 -52.5 -23t-19.5 -53z" />
<glyph unicode="&#xe6;" horiz-adv-x="1130" d="M53 186q0 123 110.5 190.5t314.5 65.5v29q0 13 -3 30t-13.5 40.5t-27 42t-48 32t-71.5 13.5q-48 0 -99 -15.5t-84 -38.5l-30 85q103 64 221 64q179 0 228 -149h3q37 70 101 109.5t147 39.5q62 0 111.5 -23t79.5 -58t50 -80t27.5 -86t7.5 -79q0 -5 -4 -57h-476 q-2 -123 61 -190.5t166 -67.5q110 0 192 41l23 -92q-89 -48 -231 -48q-93 0 -166 41.5t-103 116.5h-5q-33 -74 -102 -116t-159 -42q-105 0 -163 59.5t-58 142.5zM178 196q0 -54 35.5 -85.5t87.5 -31.5q67 0 112 34.5t61 86.5q7 19 7 52v103q-303 7 -303 -159zM600 432h354 q2 29 -6.5 62t-26.5 65t-52.5 52.5t-80.5 20.5q-88 0 -136.5 -63.5t-51.5 -136.5z" />
<glyph unicode="&#xe7;" horiz-adv-x="655" d="M56 345q0 166 104 272t274 106q108 0 180 -37l-29 -99q-64 33 -149 33q-117 0 -183.5 -76.5t-66.5 -190.5q0 -121 69.5 -193t177.5 -72q76 0 157 33l21 -95q-76 -38 -188 -42l-34 -57q43 -8 73 -36.5t30 -70.5q0 -62 -43.5 -91.5t-109.5 -29.5q-60 0 -101 25l21 65 q32 -19 80 -19q63 0 63 46q-1 50 -114 61l60 111q-135 19 -213.5 115t-78.5 242z" />
<glyph unicode="&#xe8;" horiz-adv-x="732" d="M56 341q0 166 90.5 274.5t242.5 108.5q66 0 118.5 -22.5t84 -57t52 -80.5t28.5 -88.5t8 -84.5q0 -37 -6 -60h-496q2 -124 70 -185t172 -61q111 0 197 36l22 -92q-99 -45 -235 -45q-161 0 -254.5 98t-93.5 259zM180 423h376q0 34 -8 67t-26.5 66t-56 53.5t-88.5 20.5 q-61 0 -106 -34.5t-65 -79t-26 -93.5zM193 1014h141l139 -209h-104z" />
<glyph unicode="&#xe9;" horiz-adv-x="732" d="M56 341q0 166 90.5 274.5t242.5 108.5q66 0 118.5 -22.5t84 -57t52 -80.5t28.5 -88.5t8 -84.5q0 -37 -6 -60h-496q2 -124 70 -185t172 -61q111 0 197 36l22 -92q-99 -45 -235 -45q-161 0 -254.5 98t-93.5 259zM180 423h376q0 34 -8 67t-26.5 66t-56 53.5t-88.5 20.5 q-61 0 -106 -34.5t-65 -79t-26 -93.5zM310 805l141 209h141l-177 -209h-105z" />
<glyph unicode="&#xea;" horiz-adv-x="732" d="M56 341q0 166 90.5 274.5t242.5 108.5q66 0 118.5 -22.5t84 -57t52 -80.5t28.5 -88.5t8 -84.5q0 -37 -6 -60h-496q2 -124 70 -185t172 -61q111 0 197 36l22 -92q-99 -45 -235 -45q-161 0 -254.5 98t-93.5 259zM180 423h376q0 34 -8 67t-26.5 66t-56 53.5t-88.5 20.5 q-61 0 -106 -34.5t-65 -79t-26 -93.5zM180 807l154 204h96l157 -204h-103l-101 132h-3l-99 -132h-101z" />
<glyph unicode="&#xeb;" horiz-adv-x="732" d="M56 341q0 166 90.5 274.5t242.5 108.5q66 0 118.5 -22.5t84 -57t52 -80.5t28.5 -88.5t8 -84.5q0 -37 -6 -60h-496q2 -124 70 -185t172 -61q111 0 197 36l22 -92q-99 -45 -235 -45q-161 0 -254.5 98t-93.5 259zM180 423h376q0 34 -8 67t-26.5 66t-56 53.5t-88.5 20.5 q-61 0 -106 -34.5t-65 -79t-26 -93.5zM183 908q0 31 21.5 53t52.5 22q29 0 50 -22t21 -53q0 -30 -20.5 -52t-51.5 -22q-32 0 -52.5 22t-20.5 52zM453 908q0 31 22 53t53 22q30 0 51 -22t21 -53q0 -30 -20.5 -52t-52.5 -22t-53 22t-21 52z" />
<glyph unicode="&#xec;" horiz-adv-x="342" d="M-45 1014h140l139 -209h-104zM107 0v708h127v-708h-127z" />
<glyph unicode="&#xed;" horiz-adv-x="342" d="M92 805l141 209h141l-177 -209h-105zM107 0v708h127v-708h-127z" />
<glyph unicode="&#xee;" horiz-adv-x="342" d="M-32 807l153 204h97l156 -204h-102l-101 132h-3l-99 -132h-101zM107 0v708h127v-708h-127z" />
<glyph unicode="&#xef;" horiz-adv-x="342" d="M-37 908q0 31 21.5 53t53.5 22q29 0 49.5 -22t20.5 -53q0 -30 -20 -52t-51 -22q-32 0 -53 22t-21 52zM107 0v708h127v-708h-127zM234 908q0 31 21 53t52 22q30 0 51 -22t21 -53q0 -30 -20.5 -52t-52.5 -22q-31 0 -51.5 22t-20.5 52z" />
<glyph unicode="&#xf0;" horiz-adv-x="791" d="M56 345q0 163 96.5 262.5t229.5 100.5q98 0 165 -61l3 3q-62 104 -173 188l-207 -96l-28 63l170 80q-63 46 -154 88l57 80q113 -52 206 -118l188 89l30 -64l-155 -74q124 -102 186 -232q63 -126 63 -284q0 -98 -29.5 -174.5t-79 -121.5t-109 -67.5t-124.5 -22.5 q-146 0 -240.5 99t-94.5 262zM186 347q0 -113 58.5 -190.5t146.5 -77.5q95 0 152.5 77t57.5 198q0 136 -50 197q-60 69 -156 69q-71 0 -120.5 -45t-69 -104.5t-19.5 -123.5z" />
<glyph unicode="&#xf1;" horiz-adv-x="811" d="M101 708h114l6 -117h4q29 55 90.5 94t143.5 39q41 0 80.5 -14t79.5 -45.5t64.5 -94t24.5 -147.5v-423h-127v407q0 94 -39.5 152t-124.5 58q-62 0 -108.5 -37t-64.5 -94q-10 -27 -10 -60v-426h-127v516q0 72 -6 192zM203 834q-2 75 28.5 113t83.5 38q8 0 15 -0.5t15 -3 t13.5 -4t14.5 -5.5t13 -6t15.5 -7.5t15.5 -7.5q7 -3 23.5 -13t27 -14t19.5 -4q21 0 33.5 13.5t14.5 53.5h75q0 -78 -30 -116.5t-83 -38.5q-7 0 -14 1t-12 2t-12.5 3.5t-11.5 4t-12.5 6t-12 6t-13.5 7t-13 7.5q-50 28 -73 28q-21 0 -31.5 -13t-12.5 -50h-76z" />
<glyph unicode="&#xf2;" horiz-adv-x="803" d="M56 351q0 172 101 272.5t251 100.5q151 0 245.5 -101t94.5 -269q0 -94 -32 -167.5t-85 -116.5t-114 -64.5t-125 -21.5q-144 0 -240 100t-96 267zM186 351q0 -112 57 -192t158 -80q100 0 158 80t58 194q0 49 -12 95t-36.5 87t-67.5 66t-100 25t-100 -25t-67 -66t-36 -87.5 t-12 -96.5zM208 1014h140l139 -209h-104z" />
<glyph unicode="&#xf3;" horiz-adv-x="803" d="M56 351q0 172 101 272.5t251 100.5q151 0 245.5 -101t94.5 -269q0 -94 -32 -167.5t-85 -116.5t-114 -64.5t-125 -21.5q-144 0 -240 100t-96 267zM186 351q0 -112 57 -192t158 -80q100 0 158 80t58 194q0 49 -12 95t-36.5 87t-67.5 66t-100 25t-100 -25t-67 -66t-36 -87.5 t-12 -96.5zM317 805l141 209h142l-177 -209h-106z" />
<glyph unicode="&#xf4;" horiz-adv-x="803" d="M56 351q0 172 101 272.5t251 100.5q151 0 245.5 -101t94.5 -269q0 -94 -32 -167.5t-85 -116.5t-114 -64.5t-125 -21.5q-144 0 -240 100t-96 267zM186 351q0 -112 57 -192t158 -80q100 0 158 80t58 194q0 49 -12 95t-36.5 87t-67.5 66t-100 25t-100 -25t-67 -66t-36 -87.5 t-12 -96.5zM197 807l154 204h97l156 -204h-102l-101 132h-3l-100 -132h-101z" />
<glyph unicode="&#xf5;" horiz-adv-x="803" d="M56 351q0 172 101 272.5t251 100.5q151 0 245.5 -101t94.5 -269q0 -94 -32 -167.5t-85 -116.5t-114 -64.5t-125 -21.5q-144 0 -240 100t-96 267zM186 351q0 -112 57 -192t158 -80q100 0 158 80t58 194q0 49 -12 95t-36.5 87t-67.5 66t-100 25t-100 -25t-67 -66t-36 -87.5 t-12 -96.5zM197 834q-2 75 28.5 113t83.5 38q11 0 20.5 -1.5t20.5 -5.5t17.5 -6.5t21.5 -10t22 -10.5q7 -4 23.5 -13t26.5 -13.5t19 -4.5q21 0 34 13.5t16 53.5h74q-1 -155 -112 -155q-35 0 -103 37q-48 28 -72 28q-21 0 -32 -13t-13 -50h-75z" />
<glyph unicode="&#xf6;" horiz-adv-x="803" d="M56 351q0 172 101 272.5t251 100.5q151 0 245.5 -101t94.5 -269q0 -94 -32 -167.5t-85 -116.5t-114 -64.5t-125 -21.5q-144 0 -240 100t-96 267zM186 351q0 -112 57 -192t158 -80q100 0 158 80t58 194q0 49 -12 95t-36.5 87t-67.5 66t-100 25t-100 -25t-67 -66t-36 -87.5 t-12 -96.5zM193 908q0 31 21 53t52 22q30 0 51 -22t21 -53q0 -30 -20.5 -52t-51.5 -22q-32 0 -52.5 22t-20.5 52zM462 908q0 31 22 53t53 22q30 0 51 -22t21 -53q0 -30 -21 -52t-53 -22q-31 0 -52 22t-21 52z" />
<glyph unicode="&#xf7;" horiz-adv-x="871" d="M59 347v87h754v-87h-754zM358 133q0 36 22 59t57 23q34 0 55 -23t21 -59q0 -35 -21 -57.5t-56 -22.5t-56.5 23t-21.5 57zM358 647q0 36 22 59t57 23q34 0 55 -23t21 -59q0 -35 -21 -58t-56 -23t-56.5 23.5t-21.5 57.5z" />
<glyph unicode="&#xf8;" horiz-adv-x="803" d="M56 350q0 171 99.5 272.5t248.5 101.5q102 0 178 -51l63 88l59 -40l-63 -91q107 -107 107 -272q0 -93 -30.5 -167t-81 -118t-110.5 -66.5t-125 -22.5q-102 0 -180 50l-63 -90l-54 44l60 88q-108 103 -108 274zM180 351q0 -105 51 -175h5l288 408q-45 42 -125 42 q-56 0 -100 -24.5t-69 -65t-37.5 -87.5t-12.5 -98zM279 121q51 -42 119 -42q99 0 162 78.5t63 197.5q0 98 -52 173h-2z" />
<glyph unicode="&#xf9;" horiz-adv-x="804" d="M102 294v414h128v-392q0 -227 156 -227q65 0 111 35.5t62 81.5q12 34 12 68v434h127v-515q0 -79 6 -193h-113l-7 116h-3q-31 -53 -89.5 -92.5t-146.5 -39.5q-111 0 -177 74.5t-66 235.5zM200 1014h141l139 -209h-104z" />
<glyph unicode="&#xfa;" horiz-adv-x="804" d="M102 294v414h128v-392q0 -227 156 -227q65 0 111 35.5t62 81.5q12 34 12 68v434h127v-515q0 -79 6 -193h-113l-7 116h-3q-31 -53 -89.5 -92.5t-146.5 -39.5q-111 0 -177 74.5t-66 235.5zM335 805l140 209h142l-177 -209h-105z" />
<glyph unicode="&#xfb;" horiz-adv-x="804" d="M102 294v414h128v-392q0 -227 156 -227q65 0 111 35.5t62 81.5q12 34 12 68v434h127v-515q0 -79 6 -193h-113l-7 116h-3q-31 -53 -89.5 -92.5t-146.5 -39.5q-111 0 -177 74.5t-66 235.5zM199 807l154 204h96l157 -204h-103l-101 132h-3l-99 -132h-101z" />
<glyph unicode="&#xfc;" horiz-adv-x="804" d="M102 294v414h128v-392q0 -227 156 -227q65 0 111 35.5t62 81.5q12 34 12 68v434h127v-515q0 -79 6 -193h-113l-7 116h-3q-31 -53 -89.5 -92.5t-146.5 -39.5q-111 0 -177 74.5t-66 235.5zM199 908q0 31 21.5 53t53.5 22q29 0 49.5 -22t20.5 -53q0 -30 -20.5 -52t-51.5 -22 q-32 0 -52.5 22t-20.5 52zM470 908q0 31 21 53t52 22q30 0 50.5 -22t20.5 -53q0 -30 -19.5 -52t-51.5 -22t-52.5 22t-20.5 52z" />
<glyph unicode="&#xfd;" horiz-adv-x="689" d="M13 708h141l155 -418q22 -65 45 -145h3q3 8 18.5 62.5t26.5 83.5l141 417h136l-193 -505q-71 -188 -125 -288t-118 -155q-77 -67 -158 -83l-32 108q59 17 114 61q69 59 107 145q10 22 10 31q0 11 -10 32zM282 805l141 209h142l-177 -209h-106z" />
<glyph unicode="&#xfe;" horiz-adv-x="832" d="M105 -290v1270h129v-383h3q79 127 240 127q128 1 214 -99.5t86 -261.5q0 -93 -27.5 -167.5t-74 -119.5t-103 -68.5t-117.5 -23.5q-143 0 -218 111h-3v-385h-129zM234 278q0 -28 13 -63q22 -60 73.5 -96t116.5 -36q94 0 152.5 76t58.5 202q0 109 -56.5 184t-152.5 75 q-62 0 -114.5 -37.5t-75.5 -101.5q-15 -43 -15 -71v-132z" />
<glyph unicode="&#xff;" horiz-adv-x="689" d="M13 708h141l155 -418q22 -65 45 -145h3q3 8 18.5 62.5t26.5 83.5l141 417h136l-193 -505q-71 -188 -125 -288t-118 -155q-77 -67 -158 -83l-32 108q59 17 114 61q69 59 107 145q10 22 10 31q0 11 -10 32zM152 908q0 31 22 53t53 22q30 0 50 -22t20 -53q0 -30 -19.5 -52 t-50.5 -22q-32 0 -53.5 22t-21.5 52zM423 908q0 31 21.5 53t52.5 22q30 0 51 -22t21 -53q0 -30 -20.5 -52t-52.5 -22t-52.5 22t-20.5 52z" />
<glyph unicode="&#x100;" horiz-adv-x="895" d="M37 0l335 986h153l337 -986h-136l-106 310h-349l-101 -310h-133zM262 1072v90h366v-90h-366zM297 410h297l-97 283q-15 45 -51 180h-4q-19 -87 -48 -178z" />
<glyph unicode="&#x101;" horiz-adv-x="705" d="M51 187q0 128 110.5 196t315.5 66v16q0 27 -5.5 51.5t-21 52t-50 44t-84.5 16.5q-101 0 -184 -53l-31 85q99 63 234 63q78 0 133 -24.5t83.5 -68t40.5 -92t12 -106.5v-263q0 -101 10 -170h-115l-12 89h-3q-32 -45 -88.5 -75t-127.5 -30q-101 0 -159 60.5t-58 142.5z M174 859v89h358v-89h-358zM180 202q0 -61 34 -92t87 -31q66 0 110.5 34t62.5 84q6 26 6 40v124q-300 2 -300 -159z" />
<glyph unicode="&#x10c;" horiz-adv-x="848" d="M53 484q0 231 142.5 374t372.5 143q158 0 234 -43l-31 -104q-86 41 -199 41q-176 0 -280.5 -107.5t-104.5 -298.5q0 -183 100.5 -290t278.5 -107q124 0 208 41l26 -102q-100 -47 -262 -47q-104 0 -192.5 33t-153.5 95.5t-102 158t-37 213.5zM328 1210h111l95 -103h3 l92 103h108l-150 -167h-106z" />
<glyph unicode="&#x10d;" horiz-adv-x="655" d="M56 345q0 166 104 272t274 106q108 0 180 -37l-29 -99q-64 33 -149 33q-117 0 -183.5 -76.5t-66.5 -190.5q0 -121 69.5 -193t177.5 -72q76 0 157 33l21 -95q-79 -42 -203 -42q-160 0 -256 99t-96 262zM178 1011h104l100 -132h3l99 132h101l-153 -204h-97z" />
<glyph unicode="&#x110;" horiz-adv-x="981" d="M-3 449v102h120v425q132 20 271 20q271 0 400 -123q139 -125 139 -357q0 -243 -141 -384q-147 -144 -436 -144q-120 0 -233 12v449h-120zM246 98q48 -6 128 -6q205 0 312.5 108.5t107.5 312.5q0 181 -101 281.5t-298 100.5q-75 0 -149 -13v-331h263v-102h-263v-351z" />
<glyph unicode="&#x111;" horiz-adv-x="825" d="M56 344q-1 172 91 276t226 104q76 0 132 -31t82 -77h3v206h-289v82h289v135h127v-135h114v-82h-114v-641q0 -85 6 -181h-114l-6 121h-5q-30 -61 -92.5 -99t-145.5 -38q-131 0 -217.5 100.5t-86.5 259.5zM186 350q0 -113 54.5 -188.5t154.5 -75.5q66 0 118.5 42t70.5 113 q6 27 6 56v123q0 26 -6 55q-15 63 -65.5 105t-120.5 42q-98 0 -155 -76.5t-57 -195.5z" />
<glyph unicode="&#x112;" horiz-adv-x="718" d="M110 0v986h534v-105h-406v-313h382v-106h-382v-357h428v-105h-556zM196 1072v90h366v-90h-366z" />
<glyph unicode="&#x113;" horiz-adv-x="732" d="M56 341q0 166 90.5 274.5t242.5 108.5q66 0 118.5 -22.5t84 -57t52 -80.5t28.5 -88.5t8 -84.5q0 -37 -6 -60h-496q2 -124 70 -185t172 -61q111 0 197 36l22 -92q-99 -45 -235 -45q-161 0 -254.5 98t-93.5 259zM180 423h376q0 34 -8 67t-26.5 66t-56 53.5t-88.5 20.5 q-61 0 -106 -34.5t-65 -79t-26 -93.5zM192 859v89h358v-89h-358z" />
<glyph unicode="&#x11e;" horiz-adv-x="945" d="M53 487q0 224 145 366.5t389 142.5q146 0 245 -45l-30 -104q-97 42 -218 42q-181 0 -289 -106t-108 -290q0 -186 103 -292t278 -106q118 0 168 26v294h-199v103h325v-474q-140 -54 -303 -54q-232 0 -369 130q-65 62 -101 157.5t-36 209.5zM344 1210h80q23 -78 106 -78 q85 0 106 78h78q-10 -68 -58.5 -112.5t-128.5 -44.5q-81 0 -128 43.5t-55 113.5z" />
<glyph unicode="&#x11f;" horiz-adv-x="817" d="M56 348q0 172 94.5 274t223.5 102q84 0 139 -35.5t82 -87.5h3l6 107h113q-6 -102 -6 -195v-411q0 -234 -101 -323q-92 -85 -257 -85q-146 0 -237 57l32 100q94 -57 209 -57q105 0 166.5 60.5t61.5 187.5v79h-3q-30 -52 -88.5 -85t-136.5 -33q-132 0 -216.5 98.5 t-84.5 246.5zM186 355q0 -110 54.5 -183t154.5 -73q60 0 108.5 36.5t69.5 97.5q11 35 11 68v128q0 22 -8 58q-18 60 -65.5 98t-115.5 38q-92 0 -150.5 -73.5t-58.5 -194.5zM211 990h79q21 -96 108 -96q90 0 108 96h78q-5 -81 -55 -129t-131 -48q-88 0 -136 52.5t-51 124.5z " />
<glyph unicode="&#x120;" horiz-adv-x="945" d="M53 487q0 224 145 366.5t389 142.5q146 0 245 -45l-30 -104q-97 42 -218 42q-181 0 -289 -106t-108 -290q0 -186 103 -292t278 -106q118 0 168 26v294h-199v103h325v-474q-140 -54 -303 -54q-232 0 -369 130q-65 62 -101 157.5t-36 209.5zM455 1128q0 31 22 52.5t53 21.5 q30 0 50.5 -21.5t20.5 -52.5q0 -32 -19.5 -54t-51.5 -22q-31 0 -53 22.5t-22 53.5z" />
<glyph unicode="&#x121;" horiz-adv-x="817" d="M56 348q0 172 94.5 274t223.5 102q84 0 139 -35.5t82 -87.5h3l6 107h113q-6 -102 -6 -195v-411q0 -234 -101 -323q-92 -85 -257 -85q-146 0 -237 57l32 100q94 -57 209 -57q105 0 166.5 60.5t61.5 187.5v79h-3q-30 -52 -88.5 -85t-136.5 -33q-132 0 -216.5 98.5 t-84.5 246.5zM186 355q0 -110 54.5 -183t154.5 -73q60 0 108.5 36.5t69.5 97.5q11 35 11 68v128q0 22 -8 58q-18 60 -65.5 98t-115.5 38q-92 0 -150.5 -73.5t-58.5 -194.5zM334 913q0 31 21.5 52.5t52.5 21.5t51.5 -21t20.5 -53q0 -31 -20.5 -53t-51.5 -22q-32 0 -53 22 t-21 53z" />
<glyph unicode="&#x124;" horiz-adv-x="953" d="M110 0v986h128v-414h477v414h128v-986h-128v462h-477v-462h-128zM274 1039l152 166h101l155 -166h-111l-94 101h-3l-92 -101h-108z" />
<glyph unicode="&#x125;" horiz-adv-x="811" d="M-26 1065l150 167h101l157 -167h-113l-92 101h-3l-94 -101h-106zM107 0v1039h127v-442h3q34 57 94 91q62 36 130 36q32 0 63 -7.5t65.5 -29t60 -54t42 -87.5t16.5 -126v-420h-127v407q0 95 -39.5 152.5t-124.5 57.5q-61 0 -108 -37t-65 -91q-10 -27 -10 -62v-427h-127z " />
<glyph unicode="&#x126;" horiz-adv-x="961" d="M29 701v85h85v200h127v-200h477v200h129v-200h83v-85h-83v-701h-129v424h-477v-424h-127v701h-85zM241 535h477v166h-477v-166z" />
<glyph unicode="&#x127;" horiz-adv-x="811" d="M-1 822v82h108v135h127v-135h288v-82h-288v-225h3q34 57 94 91q62 36 130 36q32 0 63 -7.5t65.5 -29t60 -54t42 -87.5t16.5 -126v-420h-127v407q0 95 -39.5 152.5t-124.5 57.5q-61 0 -108 -37t-65 -91q-10 -27 -10 -62v-427h-127v822h-108z" />
<glyph unicode="&#x12a;" horiz-adv-x="349" d="M-7 1072v90h367v-90h-367zM110 0v986h128v-986h-128z" />
<glyph unicode="&#x12b;" horiz-adv-x="342" d="M-7 859v89h358v-89h-358zM107 0v708h127v-708h-127z" />
<glyph unicode="&#x131;" horiz-adv-x="342" d="M107 0v708h127v-708h-127z" />
<glyph unicode="&#x141;" horiz-adv-x="696" d="M-6 355v97l123 60v474h127v-410l205 100v-100l-205 -99v-370h422v-107h-549v415z" />
<glyph unicode="&#x142;" horiz-adv-x="354" d="M13 429v98l100 61v451h128v-387l109 66v-101l-109 -64v-553h-128v487z" />
<glyph unicode="&#x14b;" horiz-adv-x="811" d="M101 708h114l6 -117h4q29 55 90.5 94t143.5 39q41 0 80.5 -14t79.5 -45.5t64.5 -94t24.5 -147.5v-337q0 -160 -75.5 -245t-202.5 -103l-23 103q174 34 174 234v332q0 94 -39.5 152t-124.5 58q-62 0 -108.5 -37t-64.5 -94q-10 -27 -10 -60v-426h-127v516q0 72 -6 192z" />
<glyph unicode="&#x14c;" horiz-adv-x="1007" d="M53 487q0 228 128 371.5t332 143.5q137 0 238 -68t152 -182t51 -258q0 -120 -36.5 -217.5t-99.5 -161t-145.5 -97.5t-176.5 -34q-199 0 -321 140.5t-122 362.5zM187 492q0 -174 85 -289t231 -115q100 0 173.5 57t108 147t34.5 200q0 78 -19 149t-56 129.5t-99 93 t-140 34.5q-148 0 -233 -116.5t-85 -289.5zM320 1080v89h368v-89h-368z" />
<glyph unicode="&#x14d;" horiz-adv-x="803" d="M56 351q0 172 101 272.5t251 100.5q151 0 245.5 -101t94.5 -269q0 -94 -32 -167.5t-85 -116.5t-114 -64.5t-125 -21.5q-144 0 -240 100t-96 267zM186 351q0 -112 57 -192t158 -80q100 0 158 80t58 194q0 49 -12 95t-36.5 87t-67.5 66t-100 25t-100 -25t-67 -66t-36 -87.5 t-12 -96.5zM222 859v89h359v-89h-359z" />
<glyph unicode="&#x152;" horiz-adv-x="1307" d="M53 486q0 239 136 377.5t354 138.5q77 0 205 -16h484v-105h-407v-315h383v-105h-383v-356h429v-105h-517q-123 -16 -206 -16q-112 0 -203.5 38.5t-151 106.5t-91.5 159.5t-32 197.5zM187 492q0 -183 97.5 -293.5t269.5 -110.5q90 0 144 19v769q-64 22 -157 22 q-163 0 -258.5 -111.5t-95.5 -294.5z" />
<glyph unicode="&#x153;" horiz-adv-x="1262" d="M56 350q0 169 96.5 271.5t242.5 102.5q91 0 163 -45t105 -125h3q39 83 106 126.5t151 43.5q65 0 116.5 -22.5t82.5 -57.5t52 -81t28.5 -88t7.5 -83q0 -40 -5 -60h-479q-1 -118 64.5 -183.5t169.5 -65.5q92 0 190 41l23 -92q-85 -48 -229 -48q-199 0 -281 168h-3 q-38 -83 -112.5 -125.5t-162.5 -42.5q-142 0 -235.5 100.5t-93.5 265.5zM186 351q0 -115 59.5 -193.5t150.5 -78.5q93 0 150.5 76.5t57.5 198.5q0 70 -20.5 130t-69.5 101t-118 41q-56 0 -98.5 -25t-66 -66.5t-34.5 -88t-11 -95.5zM724 424h361q0 26 -4 52t-15.5 54.5 t-30 50t-50 35.5t-72.5 14q-60 0 -103.5 -34t-62.5 -78.5t-23 -93.5z" />
<glyph unicode="&#x15a;" horiz-adv-x="721" d="M60 48l34 107q99 -64 228 -64q96 0 151 46t55 122q0 68 -42.5 112.5t-143.5 83.5q-127 44 -194.5 111.5t-67.5 167.5q0 115 89.5 191t231.5 76q130 0 216 -47l-33 -104q-84 47 -188 47q-93 0 -139 -45t-46 -103q0 -66 44.5 -107t151.5 -83q130 -51 190 -117.5t60 -172.5 q0 -122 -89 -203.5t-255 -81.5q-70 0 -141 18.5t-112 45.5zM297 1043l137 170h154l-175 -170h-116z" />
<glyph unicode="&#x15b;" horiz-adv-x="579" d="M57 34l32 96q83 -50 170 -50q68 0 102.5 29.5t34.5 76.5q0 45 -29.5 73.5t-101.5 55.5q-187 69 -187 201q0 88 66.5 148t177.5 60q99 0 172 -44l-30 -93q-74 42 -145 42q-55 0 -87 -28t-32 -70t29.5 -66.5t105.5 -54.5q94 -35 140 -85t46 -128q0 -95 -70.5 -154 t-194.5 -59q-113 0 -199 50zM222 805l141 209h142l-177 -209h-106z" />
<glyph unicode="&#x15e;" horiz-adv-x="721" d="M60 48l34 107q99 -64 228 -64q96 0 151 46t55 122q0 68 -42.5 112.5t-143.5 83.5q-127 44 -194.5 111.5t-67.5 167.5q0 115 89.5 191t231.5 76q130 0 216 -47l-33 -104q-84 47 -188 47q-93 0 -139 -45t-46 -103q0 -66 44.5 -107t151.5 -83q130 -51 190 -117.5t60 -172.5 q0 -104 -65.5 -180.5t-190.5 -97.5l-38 -64q45 -10 73.5 -38.5t28.5 -71.5q0 -60 -43.5 -89t-106.5 -29q-61 0 -104 25l20 65q35 -19 82 -19q61 0 61 44q0 51 -112 63l57 107h-6q-70 0 -141 18.5t-112 45.5z" />
<glyph unicode="&#x15f;" horiz-adv-x="579" d="M57 34l32 96q83 -50 170 -50q68 0 102.5 29.5t34.5 76.5q0 45 -29.5 73.5t-101.5 55.5q-187 69 -187 201q0 88 66.5 148t177.5 60q99 0 172 -44l-30 -93q-74 42 -145 42q-55 0 -87 -28t-32 -70t29.5 -66.5t105.5 -54.5q94 -35 140 -85t46 -128q0 -79 -50 -134.5 t-140 -72.5l-40 -63q44 -8 74 -36t30 -71q0 -62 -43.5 -91.5t-108.5 -29.5q-60 0 -101 25l20 65q32 -19 79 -19q65 0 65 46q-1 50 -114 61l57 107q-109 1 -192 50z" />
<glyph unicode="&#x160;" horiz-adv-x="721" d="M60 48l34 107q99 -64 228 -64q96 0 151 46t55 122q0 68 -42.5 112.5t-143.5 83.5q-127 44 -194.5 111.5t-67.5 167.5q0 115 89.5 191t231.5 76q130 0 216 -47l-33 -104q-84 47 -188 47q-93 0 -139 -45t-46 -103q0 -66 44.5 -107t151.5 -83q130 -51 190 -117.5t60 -172.5 q0 -122 -89 -203.5t-255 -81.5q-70 0 -141 18.5t-112 45.5zM171 1210h111l95 -103h3l93 103h108l-151 -167h-105z" />
<glyph unicode="&#x161;" horiz-adv-x="579" d="M57 34l32 96q83 -50 170 -50q68 0 102.5 29.5t34.5 76.5q0 45 -29.5 73.5t-101.5 55.5q-187 69 -187 201q0 88 66.5 148t177.5 60q99 0 172 -44l-30 -93q-74 42 -145 42q-55 0 -87 -28t-32 -70t29.5 -66.5t105.5 -54.5q94 -35 140 -85t46 -128q0 -95 -70.5 -154 t-194.5 -59q-113 0 -199 50zM92 1011h104l99 -132h3l100 132h101l-154 -204h-96z" />
<glyph unicode="&#x162;" horiz-adv-x="727" d="M-1 878v108h730v-108h-302v-878h-23l-46 -73q45 -10 74.5 -38.5t29.5 -71.5q0 -60 -43.5 -89t-106.5 -29q-62 0 -104 25l20 65q35 -19 82 -19q62 0 62 44q0 51 -115 63l66 123h-25v878h-299z" />
<glyph unicode="&#x163;" horiz-adv-x="484" d="M25 610v98h110v170l127 33v-203h184v-98h-184v-382q0 -69 22 -103t74 -34q45 0 75 10l6 -98q-47 -19 -114 -19h-3l-34 -57q43 -8 73 -36.5t30 -70.5q0 -62 -43.5 -91.5t-109.5 -29.5q-59 0 -100 25l20 65q32 -19 80 -19q63 0 63 46q-1 50 -114 61l63 119q-39 14 -66 42 q-49 57 -49 186v386h-110z" />
<glyph unicode="&#x166;" horiz-adv-x="727" d="M-1 878v108h730v-108h-302v-337h182v-92h-182v-449h-129v449h-181v92h181v337h-299z" />
<glyph unicode="&#x167;" horiz-adv-x="484" d="M25 610v98h110v164l127 34v-198h184v-98h-184v-168h143v-79h-143v-141q0 -131 96 -131q48 0 75 10l6 -98q-47 -19 -114 -19q-93 0 -141 54q-49 57 -49 186v139h-97v79h97v168h-110z" />
<glyph unicode="&#x16a;" horiz-adv-x="946" d="M110 404v582h128v-585q0 -158 62.5 -235.5t167.5 -77.5q113 0 176.5 77.5t63.5 235.5v585h127v-576q0 -217 -100.5 -321.5t-270.5 -104.5q-162 0 -258 101t-96 319zM290 1072v90h367v-90h-367z" />
<glyph unicode="&#x16b;" horiz-adv-x="804" d="M102 294v414h128v-392q0 -227 156 -227q65 0 111 35.5t62 81.5q12 34 12 68v434h127v-515q0 -79 6 -193h-113l-7 116h-3q-31 -53 -89.5 -92.5t-146.5 -39.5q-111 0 -177 74.5t-66 235.5zM224 859v89h358v-89h-358z" />
<glyph unicode="&#x176;" horiz-adv-x="791" d="M19 986h146l138 -272q60 -118 98 -203h3q16 38 99 203l142 272h143l-329 -566v-420h-128v417zM192 1039l152 166h101l155 -166h-111l-94 101h-3l-92 -101h-108z" />
<glyph unicode="&#x177;" horiz-adv-x="689" d="M13 708h141l155 -418q22 -65 45 -145h3q3 8 18.5 62.5t26.5 83.5l141 417h136l-193 -505q-71 -188 -125 -288t-118 -155q-77 -67 -158 -83l-32 108q59 17 114 61q69 59 107 145q10 22 10 31q0 11 -10 32zM145 807l153 204h97l156 -204h-102l-101 132h-3l-99 -132h-101z " />
<glyph unicode="&#x178;" horiz-adv-x="791" d="M19 986h146l138 -272q60 -118 98 -203h3q16 38 99 203l142 272h143l-329 -566v-420h-128v417zM199 1121q0 30 22 52t53 22q29 0 49.5 -21.5t20.5 -52.5t-20.5 -53t-51.5 -22t-52 22t-21 53zM470 1121q0 30 22 52t52 22q31 0 51.5 -21.5t20.5 -52.5q0 -32 -20.5 -53.5 t-52.5 -21.5t-52.5 21.5t-20.5 53.5z" />
<glyph unicode="&#x17b;" horiz-adv-x="808" d="M44 0v75l547 800v4h-500v107h665v-78l-544 -797v-4h552v-107h-720zM335 1128q0 32 22.5 54t53.5 22q29 0 50.5 -22.5t21.5 -53.5q0 -32 -20.5 -54t-52.5 -22q-31 0 -53 22.5t-22 53.5z" />
<glyph unicode="&#x17c;" horiz-adv-x="624" d="M26 0v75l321 417q18 22 52.5 62t39.5 47v3h-383v104h539l-1 -80l-316 -413q-57 -73 -91 -110v-3h414v-102h-575zM241 910q0 30 22.5 52.5t52.5 22.5t51 -22t21 -53q0 -32 -20.5 -54t-52.5 -22q-31 0 -52.5 22.5t-21.5 53.5z" />
<glyph unicode="&#x17d;" horiz-adv-x="808" d="M44 0v75l547 800v4h-500v107h665v-78l-544 -797v-4h552v-107h-720zM215 1205h111l95 -101h3l91 101h108l-149 -166h-107z" />
<glyph unicode="&#x17e;" horiz-adv-x="624" d="M26 0v75l321 417q18 22 52.5 62t39.5 47v3h-383v104h539l-1 -80l-316 -413q-57 -73 -91 -110v-3h414v-102h-575zM127 1011h104l100 -132h3l99 132h101l-154 -204h-96z" />
<glyph unicode="&#x192;" horiz-adv-x="750" d="M15 -118l23 92q34 -18 80 -18q65 1 97.5 56.5t46.5 173.5l35 310h-133v94h145l10 92q6 47 17 88.5t32.5 84t51.5 73t75.5 49.5t102.5 19q60 -1 101 -22l-25 -93q-34 14 -76 14q-69 0 -107 -56.5t-48 -145.5l-11 -103h175v-94h-186l-39 -320q-18 -155 -75.5 -236.5 t-179.5 -81.5q-70 0 -112 24z" />
<glyph unicode="&#x1e6;" horiz-adv-x="945" d="M53 487q0 224 145 366.5t389 142.5q146 0 245 -45l-30 -104q-97 42 -218 42q-181 0 -289 -106t-108 -290q0 -186 103 -292t278 -106q118 0 168 26v294h-199v103h325v-474q-140 -54 -303 -54q-232 0 -369 130q-65 62 -101 157.5t-36 209.5zM355 1210h112l95 -103h3l92 103 h108l-151 -167h-105z" />
<glyph unicode="&#x1e7;" horiz-adv-x="817" d="M56 348q0 172 94.5 274t223.5 102q84 0 139 -35.5t82 -87.5h3l6 107h113q-6 -102 -6 -195v-411q0 -234 -101 -323q-92 -85 -257 -85q-146 0 -237 57l32 100q94 -57 209 -57q105 0 166.5 60.5t61.5 187.5v79h-3q-30 -52 -88.5 -85t-136.5 -33q-132 0 -216.5 98.5 t-84.5 246.5zM186 355q0 -110 54.5 -183t154.5 -73q60 0 108.5 36.5t69.5 97.5q11 35 11 68v128q0 22 -8 58q-18 60 -65.5 98t-115.5 38q-92 0 -150.5 -73.5t-58.5 -194.5zM217 1014h99l86 -139h3l87 139h95l-138 -209h-92z" />
<glyph unicode="&#x251;" horiz-adv-x="822" d="M56 342q0 95 28.5 170.5t76 120.5t102.5 68t113 23q79 0 134 -34t82 -89h3l6 107h122q-6 -120 -6 -195v-336q0 -95 12 -177h-120l-15 111h-3q-32 -55 -90 -91t-138 -36q-133 0 -220 99t-87 259zM186 350q0 -114 54 -190.5t155 -76.5q63 0 112.5 38t71.5 103q11 35 11 63 v134q0 29 -6 53q-15 62 -65.5 105t-120.5 43q-98 0 -155 -75.5t-57 -196.5z" />
<glyph unicode="&#x252;" horiz-adv-x="822" d="M94 708h120l14 -111h5q31 55 88.5 91t137.5 36q134 0 221 -99.5t87 -258.5q0 -95 -29 -171t-76 -120.5t-102.5 -67.5t-113.5 -23q-78 0 -133.5 33.5t-82.5 87.5l-3 2l-6 -107h-122q6 120 6 195v335q0 117 -11 178zM233 285q0 -32 5 -52q16 -63 66 -105.5t120 -42.5 q98 0 156 75t58 195q0 116 -53.5 191.5t-155.5 75.5q-63 0 -114 -37t-72 -102q-10 -32 -10 -62v-136z" />
<glyph unicode="&#x254;" horiz-adv-x="655" d="M39 23l27 98q66 -33 153 -33q118 0 185 76.5t67 193.5q0 121 -68.5 191.5t-175.5 70.5q-77 0 -158 -35l-21 98q88 40 204 40q159 0 254 -98t95 -259q0 -169 -101 -275.5t-275 -106.5q-114 0 -186 39z" />
<glyph unicode="&#x256;" horiz-adv-x="825" d="M56 344q-1 172 91 276t226 104q76 0 132 -31t82 -77h3v423h127v-1059q0 -95 27 -136t84 -41q40 0 76 14l15 -102q-41 -19 -114 -19q-102 0 -158.5 63t-56.5 209v142h-3q-31 -57 -90 -91.5t-139 -34.5q-130 0 -216 100.5t-86 259.5zM186 350q0 -113 54.5 -188.5 t154.5 -75.5q66 0 118.5 42t70.5 113q6 24 6 54v125q0 26 -6 55q-15 63 -65.5 105t-120.5 42q-98 0 -155 -76.5t-57 -195.5z" />
<glyph unicode="&#x259;" horiz-adv-x="732" d="M53 323q0 38 6 68h494q-3 112 -69 172t-168 60q-104 0 -198 -39l-23 92q109 48 237 48q162 0 253.5 -100t91.5 -266q0 -163 -88 -268.5t-241 -105.5q-79 0 -138 29.5t-92 79t-49 107.5t-16 123zM174 297q-1 -89 44 -155t136 -66q61 0 106 35t65.5 83.5t24.5 102.5h-376z " />
<glyph unicode="&#x25b;" horiz-adv-x="642" d="M57 199q0 66 49 115.5t127 61.5v6q-69 16 -105 56t-36 94q0 77 74.5 134.5t207.5 57.5q137 0 216 -54l-27 -86q-26 17 -77 31t-101 14q-74 0 -119 -28.5t-45 -76.5q0 -50 54.5 -76.5t141.5 -26.5h86v-90h-89q-101 0 -161.5 -29.5t-60.5 -90.5q0 -60 55 -94.5t135 -34.5 q55 0 114 16.5t96 37.5l22 -88q-41 -28 -113 -46t-146 -18q-56 0 -107 11.5t-95 36t-70 67.5t-26 100z" />
<glyph unicode="&#x261;" horiz-adv-x="817" d="M56 348q0 172 94.5 274t223.5 102q84 0 139 -35.5t82 -87.5h3l6 107h113q-6 -102 -6 -195v-411q0 -234 -101 -323q-92 -85 -257 -85q-146 0 -237 57l32 100q94 -57 209 -57q105 0 166.5 60.5t61.5 187.5v79h-3q-30 -52 -88.5 -85t-136.5 -33q-132 0 -216.5 98.5 t-84.5 246.5zM186 355q0 -110 54.5 -183t154.5 -73q60 0 108.5 36.5t69.5 97.5q11 35 11 68v128q0 22 -8 58q-18 60 -65.5 98t-115.5 38q-92 0 -150.5 -73.5t-58.5 -194.5z" />
<glyph unicode="&#x262;" horiz-adv-x="778" d="M59 348q0 174 115 275t297 101q119 0 198 -34l-28 -98q-81 31 -167 31q-126 0 -207 -69t-81 -204q0 -133 76 -201.5t194 -68.5q78 0 116 18v195h-142v89h259v-360q-105 -38 -238 -38q-186 0 -287 94q-105 97 -105 270z" />
<glyph unicode="&#x263;" horiz-adv-x="703" d="M19 708h136l139 -363q40 -98 59 -169h4q20 61 60 168l137 364h135l-250 -603q6 -14 29 -62.5t29.5 -66t15 -48.5t8.5 -57q0 -78 -49 -127.5t-130 -49.5q-79 0 -123.5 46t-44.5 122q0 21 4 42.5t15 48t18.5 43.5t25.5 52.5t26 52.5zM287 -135q0 -31 15 -51t43 -20 q25 0 42.5 21t17.5 50q0 18 -6 40.5t-12.5 38.5t-19 45.5t-17.5 41.5h-6q-57 -114 -57 -166z" />
<glyph unicode="&#x26a;" horiz-adv-x="403" d="M44 0v94h94v519h-94v95h316v-95h-95v-519h95v-94h-316z" />
<glyph unicode="&#x274;" horiz-adv-x="817" d="M104 0v708h149l218 -328q81 -127 133 -234l3 2q-15 142 -15 292v268h120v-708h-131l-223 328q-83 125 -140 245l-4 -1q10 -152 10 -301v-271h-120z" />
<glyph unicode="&#x278;" horiz-adv-x="937" d="M56 348q0 168 99 264t256 109l-1 315h120l-2 -313q159 -12 256.5 -109t97.5 -259q0 -167 -99 -262.5t-255 -107.5l2 -275h-120l1 275q-158 10 -256.5 106t-98.5 257zM183 351q0 -112 61 -188.5t167 -87.5v558q-109 -12 -168.5 -87t-59.5 -195zM528 75q106 12 166.5 87.5 t60.5 192.5q0 114 -61 190.5t-166 87.5v-558z" />
<glyph unicode="&#x27d;" horiz-adv-x="478" d="M99 708h115l4 -140h4q25 72 79 114t119 42q20 0 36 -4v-122q-22 5 -43 5q-67 0 -113 -46t-60 -120q-6 -27 -6 -60v-397q0 -95 27 -136t83 -41q41 0 76 14l16 -102q-44 -19 -114 -19q-217 0 -217 272v519q0 121 -6 221z" />
<glyph unicode="&#x27e;" horiz-adv-x="478" d="M105 0v430q0 145 69 219.5t187 74.5q55 0 98 -16l-11 -111q-38 12 -75 12q-65 0 -102 -41t-37 -141v-427h-129z" />
<glyph unicode="&#x281;" horiz-adv-x="696" d="M104 0v708h127v-298h89q61 0 97 29t54 101q31 135 53 168h131q-6 -10 -14.5 -33.5t-15 -45.5t-17.5 -60t-17 -57q-33 -117 -114 -143v-3q66 -15 107 -61t41 -112q0 -93 -68 -148q-79 -61 -248 -61q-100 0 -205 16zM231 83q35 -7 97 -7q171 0 171 120q0 58 -42 89.5 t-125 31.5h-101v-234z" />
<glyph unicode="&#x283;" horiz-adv-x="367" d="M-80 -287l20 103q36 -13 76 -13q104 0 104 156v828q0 135 61.5 201.5t165.5 66.5q64 0 104 -22l-25 -100q-35 15 -75 15q-104 0 -104 -158v-831q0 -131 -62.5 -197t-164.5 -66q-65 0 -100 17z" />
<glyph unicode="&#x288;" horiz-adv-x="484" d="M25 610v98h110v170l127 33v-203h184v-98h-184v-630q0 -95 26.5 -136t83.5 -41q38 0 74 14l16 -102q-44 -19 -112 -19q-103 0 -159 63t-56 209v642h-110z" />
<glyph unicode="&#x28a;" horiz-adv-x="836" d="M50 613v95h294v-75q-154 -104 -154 -299q0 -104 60.5 -178t164.5 -74q106 0 167.5 72.5t61.5 180.5q0 96 -43 176t-112 122v75h298v-95h-159v-4q61 -46 102.5 -119.5t41.5 -169.5q0 -144 -100.5 -240t-258.5 -96q-164 0 -257 96.5t-93 232.5q0 98 42.5 174t103.5 122v4 h-159z" />
<glyph unicode="&#x28b;" horiz-adv-x="810" d="M102 307v401h128v-391q0 -111 45 -174t130 -63q101 0 158 93t57 225q0 42 -6 79t-20 70.5t-41 53t-64 19.5q-33 0 -52 -9l-17 97q49 15 93 15q109 0 173 -82t64 -231q0 -197 -98.5 -311.5t-249.5 -114.5q-134 0 -217 81t-83 242z" />
<glyph unicode="&#x292;" horiz-adv-x="678" d="M6 -247l31 101q96 -56 222 -56q106 0 170.5 56.5t64.5 152.5q0 100 -68.5 155t-206.5 55h-41v68l249 321h-393v102h545v-80l-250 -315q58 -8 107.5 -27t93.5 -51.5t69.5 -87t25.5 -124.5q0 -147 -100.5 -238t-268.5 -91q-155 0 -250 59z" />
<glyph unicode="&#x294;" horiz-adv-x="640" d="M31 990q127 65 259 65q138 0 219 -76.5t81 -203.5q0 -119 -75 -202.5t-199 -123.5v-449h-129v521q130 32 199.5 95.5t69.5 155.5q0 79 -48.5 127.5t-138.5 48.5q-54 0 -113 -17t-95 -36z" />
<glyph unicode="&#x295;" horiz-adv-x="640" d="M31 758q0 134 96 215.5t247 81.5q129 0 218 -47l-32 -101q-82 41 -187 41q-94 0 -151.5 -51.5t-57.5 -134.5q0 -95 67 -151.5t202 -89.5v-521h-129v446q-124 39 -198.5 117t-74.5 195z" />
<glyph unicode="&#x2a4;" horiz-adv-x="1357" d="M56 344q-1 172 91 276t226 104q76 0 132 -31t82 -77h3v423h127v-331h540v-80l-249 -315q58 -8 107 -27t92.5 -51.5t69 -87t25.5 -124.5q0 -147 -100 -238t-267 -91q-155 0 -252 59l32 101q94 -56 221 -56q106 0 171.5 56.5t65.5 152.5q0 100 -69 155t-206 55h-42v68 l248 321h-387v-425q0 -85 6 -181h-114l-6 121h-5q-30 -61 -92.5 -99t-145.5 -38q-131 0 -217.5 100.5t-86.5 259.5zM186 350q0 -113 54.5 -188.5t154.5 -75.5q66 0 118.5 42t70.5 113q6 27 6 56v123q0 26 -6 55q-15 63 -65.5 105t-120.5 42q-98 0 -155 -76.5t-57 -195.5z " />
<glyph unicode="&#x2a7;" horiz-adv-x="778" d="M25 610v98h110v170l127 33v-203h269v79q0 135 61.5 201.5t166.5 66.5q61 0 103 -22l-25 -100q-34 15 -73 15q-106 0 -106 -158v-831q0 -132 -61.5 -197.5t-163.5 -65.5q-65 0 -102 17l22 103q36 -13 73 -13q105 0 105 156v651h-269v-382q0 -137 92 -137q46 0 67 8l5 -99 q-41 -16 -101 -16q-93 0 -141 54q-49 57 -49 186v386h-110z" />
<glyph unicode="&#x2b1;" horiz-adv-x="554" d="M72 389v495q0 96 46 146.5t126 50.5q45 0 73 -13l-16 -72q-26 8 -49 8q-84 0 -84 -113v-107h2q24 37 63 59t84 22q71 0 120 -49t49 -150v-277h-98v265q0 133 -104 133q-38 0 -68 -22.5t-43 -55.5q-5 -22 -5 -42v-278h-96z" />
<glyph unicode="&#x2b9;" horiz-adv-x="275" d="M53 661l64 351h126l-111 -351h-79z" />
<glyph unicode="&#x2be;" horiz-adv-x="301" d="M63 717v76q44 0 69 27t25 65q0 37 -25 65.5t-69 28.5v74q87 0 138.5 -47.5t51.5 -119.5q0 -74 -52.5 -121.5t-137.5 -47.5z" />
<glyph unicode="&#x2bf;" horiz-adv-x="301" d="M48 884q0 74 53 121.5t139 47.5v-74q-45 0 -70 -27.5t-25 -66.5q0 -37 25 -64.5t70 -27.5v-76q-87 0 -139.5 47.5t-52.5 119.5z" />
<glyph unicode="&#x2c6;" horiz-adv-x="438" d="M16 807l154 204h96l157 -204h-103l-101 132h-2l-100 -132h-101z" />
<glyph unicode="&#x2c7;" horiz-adv-x="438" d="M16 1011h104l99 -132h3l100 132h101l-154 -204h-96z" />
<glyph unicode="&#x2c8;" horiz-adv-x="438" d="M173 832v212h93v-212h-93z" />
<glyph unicode="&#x2cc;" horiz-adv-x="438" d="M173 -132h93v-215h-93v215z" />
<glyph unicode="&#x2d0;" horiz-adv-x="323" d="M41 0l117 192h6l115 -192h-238zM41 708h238l-115 -193h-6z" />
<glyph unicode="&#x2d8;" horiz-adv-x="438" d="M32 990h79q21 -96 108 -96q91 0 109 96h77q-5 -81 -55 -129t-131 -48q-88 0 -136 52.5t-51 124.5z" />
<glyph unicode="&#x2d9;" horiz-adv-x="438" d="M130 910q0 30 22.5 52.5t52.5 22.5t50.5 -22t20.5 -53q0 -32 -20.5 -54t-52.5 -22q-31 0 -52 22.5t-21 53.5z" />
<glyph unicode="&#x2da;" horiz-adv-x="438" d="M56 922q0 57 42 97t110 40q67 0 108 -39t41 -97q0 -59 -42 -98t-107 -39q-68 0 -110 39t-42 97zM135 925q0 -32 19 -56.5t52 -24.5q35 0 55 23t20 55q0 31 -20 55t-55 24q-33 0 -52 -23t-19 -53z" />
<glyph unicode="&#x2db;" horiz-adv-x="438" d="M92 -174q0 90 88 180h83q-62 -75 -73 -119q-4 -14 -4 -27q0 -34 20.5 -54t52.5 -20q31 0 67 14l21 -66q-46 -34 -119 -34q-63 0 -99.5 32.5t-36.5 93.5z" />
<glyph unicode="&#x2dc;" horiz-adv-x="438" d="M16 834q-2 75 28 113t83 38q7 0 14 -1t12.5 -1.5t13 -3t11.5 -4t12.5 -5.5t12 -5.5t13.5 -6.5l14 -7q7 -3 23.5 -13t27 -14t19.5 -4q21 0 33.5 13.5t14.5 53.5h75q0 -78 -30 -116.5t-83 -38.5q-7 0 -14 1t-12 2t-12.5 3.5t-11.5 4t-12.5 6t-12 6t-13.5 7t-13 7.5 q-50 28 -73 28q-21 0 -31.5 -13t-12.5 -50h-76z" />
<glyph unicode="&#x2dd;" horiz-adv-x="438" d="M60 813l88 199h117l-120 -199h-85zM285 813l88 199h119l-122 -199h-85z" />
<glyph unicode="&#x2e4;" horiz-adv-x="440" d="M20 882q0 90 66.5 144.5t173.5 54.5q88 0 150 -31l-25 -73q-54 27 -125 27q-64 0 -102 -33t-38 -86q0 -112 180 -154v-342h-95v288q-84 26 -134.5 77t-50.5 128z" />
<glyph unicode="&#x300;" d="M-203 1014h140l133 -209h-104z" />
<glyph unicode="&#x301;" d="M-69 805l141 209h140l-175 -209h-106z" />
<glyph unicode="&#x302;" d="M-203 807l153 204h97l156 -204h-102l-101 132h-3l-99 -132h-101z" />
<glyph unicode="&#x303;" d="M-203 834q-1 75 29.5 113t82.5 38q11 0 20.5 -1.5t21.5 -5.5t17.5 -6.5l22 -10t21.5 -10.5q6 -3 18 -10t19 -10.5t16.5 -7t16.5 -3.5q20 0 32.5 13.5t15.5 53.5h75q0 -78 -30 -116.5t-83 -38.5q-36 0 -101 37q-53 28 -73 28q-21 0 -32 -13t-13 -50h-76z" />
<glyph unicode="&#x304;" d="M-178 859v89h358v-89h-358z" />
<glyph unicode="&#x306;" d="M-187 990h79q10 -43 36.5 -69.5t70.5 -26.5q94 0 108 96h79q-5 -82 -55 -129.5t-132 -47.5q-87 0 -135 52.5t-51 124.5z" />
<glyph unicode="&#x307;" d="M-75 910q0 30 22.5 52.5t52.5 22.5t51 -22t21 -53t-20.5 -53.5t-51.5 -22.5q-32 0 -53.5 22.5t-21.5 53.5z" />
<glyph unicode="&#x308;" d="M-208 908q0 31 22 53t53 22q29 0 49.5 -22t20.5 -53q0 -30 -20.5 -52t-51.5 -22q-32 0 -52.5 22t-20.5 52zM63 908q0 31 22 53t53 22q30 0 50 -22t20 -53q0 -30 -20 -52t-52 -22q-31 0 -52 22t-21 52z" />
<glyph unicode="&#x30a;" d="M-151 922q0 57 42 97t110 40q67 0 108.5 -39t41.5 -97q0 -59 -42 -98t-108 -39q-68 0 -110 39t-42 97zM-72 925q0 -32 19 -56.5t53 -24.5t54.5 23.5t20.5 54.5t-20 55t-55 24q-33 0 -52.5 -23t-19.5 -53z" />
<glyph unicode="&#x30b;" d="M-168 813l115 199h126l-161 -199h-80zM44 813l114 199h127l-161 -199h-80z" />
<glyph unicode="&#x30c;" d="M-186 1014h98l87 -139h2l87 139h96l-139 -209h-90z" />
<glyph unicode="&#x323;" d="M-75 -193q0 31 22 53.5t53 22.5t51.5 -22t20.5 -54q0 -31 -20 -53t-53 -22q-31 0 -52.5 22.5t-21.5 52.5z" />
<glyph unicode="&#x324;" d="M-208 -192q0 31 22 53t53 22q29 0 49.5 -22t20.5 -53q0 -30 -20.5 -52t-51.5 -22q-32 0 -52.5 22t-20.5 52zM63 -192q0 31 22 53t53 22q30 0 50 -22t20 -53q0 -30 -20 -52t-52 -22q-31 0 -52 22t-21 52z" />
<glyph unicode="&#x327;" d="M-143 -276l22 65q32 -19 80 -19q63 0 63 46q-1 49 -116 61l75 138h79l-51 -88q43 -8 72 -36t29 -71q0 -62 -43 -91.5t-108 -29.5q-61 0 -102 25z" />
<glyph unicode="&#x32a;" d="M-180 -130h360v-179h-78v104h-204v-104h-78v179z" />
<glyph unicode="&#x32e;" d="M-181 -120h76q7 -45 34.5 -73t70.5 -28q48 0 75 29.5t30 71.5h76q0 -83 -49.5 -133t-131.5 -50q-90 0 -135.5 53.5t-45.5 129.5z" />
<glyph unicode="&#x330;" d="M-190 -288q-2 75 26.5 118t78.5 43q8 0 17 -1.5t14 -2.5t16 -6t14 -6.5t17.5 -9t16.5 -8.5q43 -26 65 -26q20 0 29.5 14t11.5 50h74q2 -155 -105 -155q-34 0 -94 31q-50 28 -66 28q-34 0 -39 -69h-76z" />
<glyph unicode="&#x331;" d="M-170 -151h341v-87h-341v87z" />
<glyph unicode="&#x35f;" d="M-170 -151h1146v-87h-1146v87z" />
<glyph unicode="&#x361;" d="M-181 824q69 90 221 156t370 66q216 0 362 -64.5t224 -157.5h-112q-180 137 -476 137q-174 0 -285 -37.5t-193 -99.5h-111z" />
<glyph unicode="&#x3b8;" horiz-adv-x="781" d="M56 528q0 231 90.5 379t251.5 148q110 0 184.5 -67t109 -183t34.5 -277q0 -254 -84 -399t-248 -145q-160 0 -249 138.5t-89 405.5zM181 584h419q0 106 -22.5 189t-71 135t-117.5 52q-93 0 -150.5 -111t-57.5 -265zM183 487q0 -192 58.5 -300t154.5 -108q99 0 151.5 111.5 t52.5 296.5h-417z" />
<glyph unicode="&#x3c0;" horiz-adv-x="810" d="M19 670q55 38 203 38h553l-14 -101h-97v-396q0 -141 19 -211h-124q-24 40 -24 197v410h-231q-6 -153 -34.5 -339t-64.5 -268h-122q37 102 65.5 282.5t31.5 324.5q-94 0 -143 -12z" />
<glyph unicode="&#x3c7;" horiz-adv-x="669" d="M15 -279l254 507l-244 480h139l180 -382h6q40 91 74 157l106 225h125l-250 -478l258 -509l-120 -34l-211 434h-6q-7 -16 -29.5 -67t-37.5 -83l-133 -284z" />
<glyph unicode="&#x60c;" horiz-adv-x="558" d="M124 142q0 115 76.5 211t169.5 134l64 -60q-85 -39 -141.5 -102.5t-64.5 -124.5q61 13 101.5 -15.5t40.5 -85.5q0 -54 -33 -86.5t-85 -32.5q-55 0 -91.5 42.5t-36.5 119.5z" />
<glyph unicode="&#x615;" d="M-53 1236l85 -6q20 38 15 116l-18 240l66 6l10 -169q2 -62 -1 -83q61 92 146 92q46 0 73 -30.5t27 -74.5q0 -88 -75.5 -129t-185.5 -41h-101zM94 1232q191 0 191 83q0 18 -13 31t-36 13q-70 0 -142 -127z" />
<glyph unicode="&#x61b;" horiz-adv-x="504" d="M138 102q0 52 33 86t81 34q52 0 83 -33.5t31 -86.5t-31.5 -86.5t-84.5 -33.5q-49 0 -80.5 34t-31.5 86zM140 581q0 103 68.5 184t152.5 111l63 -57q-74 -27 -121.5 -72.5t-59.5 -94.5q58 5 93.5 -23.5t35.5 -81.5q0 -49 -32.5 -80t-80.5 -31q-49 0 -84 40.5t-35 104.5z " />
<glyph unicode="&#x61f;" horiz-adv-x="677" d="M88 788q0 87 63 150.5t185 63.5q130 0 207 -53l-35 -101q-72 49 -158 49q-63 0 -98 -34t-35 -89q0 -46 25 -90.5t80 -111.5q108 -127 89 -253l-3 -37h-114l1 37q9 108 -81 215q-44 53 -65.5 82.5t-41 76.5t-19.5 95zM268 75q0 41 23.5 66.5t62.5 25.5q38 0 63 -26t25 -66 q0 -38 -25 -64.5t-62 -26.5q-39 0 -63 26t-24 65z" />
<glyph unicode="&#x621;" horiz-adv-x="681" d="M107 54l11 107q44 25 99 31q-85 53 -85 139t67 138t165 52q102 0 161 -46l-16 -98q-54 40 -146 40q-57 0 -94.5 -23.5t-37.5 -65.5q0 -53 60 -83.5t161 -30.5h121l-32 -109h-123q-110 0 -177.5 -11t-133.5 -40z" />
<glyph unicode="&#x622;" horiz-adv-x="367" d="M-80 1182q1 58 31 95t87 37q36 0 95.5 -19t88.5 -19q51 0 103 49l13 -70q-36 -64 -129 -64q-35 0 -89.5 17.5t-77.5 17.5q-44 0 -54 -69zM95 1053l110 9l41 -1062h-110z" />
<glyph unicode="&#x623;" horiz-adv-x="367" d="M-20 1159l8 68q33 18 68 18q-53 40 -53 91q0 58 43.5 91t105.5 33q86 0 126 -38l-23 -67q-42 32 -106 32q-34 0 -54 -16.5t-20 -36.5q0 -35 35.5 -55.5t92.5 -20.5h97l-29 -75h-95q-137 0 -196 -24zM95 1053l110 9l41 -1062h-110z" />
<glyph unicode="&#x624;" horiz-adv-x="734" d="M20 -252l18 87q75 -40 183 -40q124 0 217 83.5t125 213.5q-44 -7 -88 -7q-119 0 -199.5 65.5t-80.5 184.5q0 105 68.5 178.5t160.5 73.5q60 0 108 -32.5t76.5 -86t43 -115t14.5 -125.5q0 -115 -31 -208q-36 -119 -103 -199t-141 -113t-157 -33q-59 0 -118 18t-96 55z M217 762l8 69q29 17 66 17q-51 38 -51 91q0 58 43.5 91t105.5 33q84 0 124 -38l-21 -67q-42 32 -106 32q-35 0 -54.5 -15.5t-19.5 -36.5q0 -35 35.5 -55.5t92.5 -20.5h97l-31 -75h-95q-133 0 -194 -25zM285 354q0 -40 19 -69.5t50.5 -44.5t65.5 -22t72 -7q57 0 84 8 q-2 125 -54.5 192t-116.5 67q-57 0 -88.5 -39t-31.5 -85z" />
<glyph unicode="&#x625;" horiz-adv-x="367" d="M47 -405l9 69q32 17 67 17q-53 40 -53 91q0 57 43.5 90.5t105.5 33.5q86 0 126 -38l-22 -67q-44 32 -105 32q-35 0 -55.5 -16t-20.5 -37q0 -35 36 -55.5t94 -20.5h95l-29 -74h-95q-134 0 -196 -25zM95 1053l110 9l41 -1062h-110z" />
<glyph unicode="&#x626;" horiz-adv-x="1045" d="M66 538l9 69q33 18 67 18q-53 40 -53 90q0 58 43.5 91.5t105.5 33.5q86 0 126 -38l-23 -68q-43 33 -105 33q-34 0 -54.5 -16.5t-20.5 -36.5q0 -35 36 -55.5t93 -20.5h96l-29 -75h-95q-135 0 -196 -25zM73 86q0 130 54 250l81 -10q-31 -105 -31 -190q0 -67 19 -119.5 t49.5 -85.5t73 -54.5t85.5 -30t90 -8.5q206 0 312 109q50 55 50 92q0 23 -29 44t-119 49l-73 23q-90 28 -123.5 65.5t-33.5 105.5q0 55 25.5 118.5t78.5 118.5q49 49 111 78.5t122 29.5q135 0 168 -136l-70 -80q-17 47 -51 74t-75 27q-88 0 -150 -67t-62 -131 q0 -26 20.5 -44t83.5 -38l105 -33q88 -29 130.5 -64t42.5 -101q0 -108 -84 -201q-74 -81 -178.5 -121.5t-221.5 -40.5q-188 0 -294 99.5t-106 271.5z" />
<glyph unicode="&#x627;" horiz-adv-x="367" d="M95 1053l110 9l41 -1062h-110z" />
<glyph unicode="&#x628;" horiz-adv-x="1293" d="M72 358q0 102 32 182l79 -16q-16 -66 -16 -123q0 -302 425 -302q328 0 515 75q2 24 2 29q-5 157 -104 338l105 30q100 -183 100 -379q0 -49 -15 -109q-261 -114 -610 -114q-513 0 -513 389zM592 -290q0 35 22 57t55 22q34 0 55 -22t21 -57q0 -37 -21 -58.5t-55 -21.5 t-55.5 21.5t-21.5 58.5z" />
<glyph unicode="&#x629;" horiz-adv-x="650" d="M67 257q0 90 43 173.5t121 175.5q-22 17 -29 22l67 89q137 -99 234 -221q81 -110 81 -227q0 -68 -24.5 -123.5t-64 -89t-86 -51t-94.5 -17.5q-112 0 -180 79.5t-68 189.5zM111 917q0 35 21.5 56.5t53.5 21.5q33 0 53.5 -21.5t20.5 -56.5q0 -36 -20.5 -56.5t-53.5 -20.5 q-32 0 -53.5 21t-21.5 56zM161 287q0 -73 48 -118t117 -45q78 0 121 48t43 103q0 65 -44.5 130t-138.5 142q-64 -64 -105 -133.5t-41 -126.5zM310 917q0 35 20 56.5t52 21.5q34 0 54 -21.5t20 -56.5q0 -36 -20 -56.5t-54 -20.5q-32 0 -52 21t-20 56z" />
<glyph unicode="&#x62a;" horiz-adv-x="1293" d="M72 358q0 102 32 182l79 -16q-16 -66 -16 -123q0 -302 425 -302q328 0 515 75q2 24 2 29q-5 157 -104 338l105 30q100 -183 100 -379q0 -49 -15 -109q-261 -114 -610 -114q-513 0 -513 389zM456 695q0 35 21.5 56t53.5 21q33 0 54 -21t21 -56q0 -36 -21 -57t-54 -21 q-32 0 -53.5 21.5t-21.5 56.5zM655 695q0 35 20 56t52 21q34 0 54.5 -21t20.5 -56q0 -36 -20.5 -57t-54.5 -21q-32 0 -52 21t-20 57z" />
<glyph unicode="&#x62b;" horiz-adv-x="1293" d="M72 358q0 102 32 182l79 -16q-16 -66 -16 -123q0 -302 425 -302q328 0 515 75q2 24 2 29q-5 157 -104 338l105 30q100 -183 100 -379q0 -49 -15 -109q-261 -114 -610 -114q-513 0 -513 389zM459 696q0 32 21 54t52 22q33 0 54 -22t21 -54q0 -36 -21 -57.5t-54 -21.5 q-32 0 -52.5 21t-20.5 58zM560 872q0 34 19.5 55.5t50.5 21.5q34 0 54.5 -21.5t20.5 -55.5q0 -36 -20.5 -57t-54.5 -21q-32 0 -51 20.5t-19 57.5zM654 696q0 32 20.5 54t52.5 22t52 -22t20 -54q0 -36 -19.5 -57.5t-52.5 -21.5t-53 21t-20 58z" />
<glyph unicode="&#x62c;" horiz-adv-x="949" d="M75 -111q0 83 34 156t88 124t125 91t141 63t140 35q-1 0 -71.5 27.5t-132 42.5t-120.5 15q-117 0 -197 -38l25 126q69 32 183 32q39 0 79.5 -6t87 -20.5t73 -23.5t81 -30.5t69.5 -27.5q98 -40 144 -40l74 -1l-31 -129q-40 5 -106 5q-69 0 -174 -22q-80 -19 -148.5 -51.5 t-123.5 -77.5t-86.5 -106t-31.5 -132q0 -111 70.5 -190t183 -116t254.5 -37q74 0 192 21l-49 -114q-81 -25 -191 -25q-123 0 -228.5 29.5t-184.5 85t-124 141.5t-45 193zM515 -72q0 35 21 57t55 22t55 -22t21 -57q0 -36 -21 -58t-56 -22q-33 0 -54 22t-21 58z" />
<glyph unicode="&#x62d;" horiz-adv-x="949" d="M75 -111q0 83 34 156t88 124t125 91t141 63t140 35q-1 0 -71.5 27.5t-132 42.5t-120.5 15q-117 0 -197 -38l25 126q69 32 183 32q39 0 79.5 -6t87 -20.5t73 -23.5t81 -30.5t69.5 -27.5q98 -40 144 -40l74 -1l-31 -129q-40 5 -106 5q-69 0 -174 -22q-80 -19 -148.5 -51.5 t-123.5 -77.5t-86.5 -106t-31.5 -132q0 -111 70.5 -190t183 -116t254.5 -37q74 0 192 21l-49 -114q-81 -25 -191 -25q-123 0 -228.5 29.5t-184.5 85t-124 141.5t-45 193z" />
<glyph unicode="&#x62e;" horiz-adv-x="949" d="M75 -111q0 83 34 156t88 124t125 91t141 63t140 35q-1 0 -71.5 27.5t-132 42.5t-120.5 15q-117 0 -197 -38l25 126q69 32 183 32q39 0 79.5 -6t87 -20.5t73 -23.5t81 -30.5t69.5 -27.5q98 -40 144 -40l74 -1l-31 -129q-40 5 -106 5q-69 0 -174 -22q-80 -19 -148.5 -51.5 t-123.5 -77.5t-86.5 -106t-31.5 -132q0 -111 70.5 -190t183 -116t254.5 -37q74 0 192 21l-49 -114q-81 -25 -191 -25q-123 0 -228.5 29.5t-184.5 85t-124 141.5t-45 193zM443 824q0 34 21.5 56.5t54.5 22.5t54.5 -22.5t21.5 -56.5q0 -37 -21 -59t-56 -22q-33 0 -54 22 t-21 59z" />
<glyph unicode="&#x62f;" horiz-adv-x="700" d="M61 162q76 -29 229 -29q159 0 232 54q0 42 -16.5 92t-52 108t-102 119t-155.5 113l92 79q145 -82 240 -219.5t95 -285.5q0 -61 -9 -85q-106 -108 -339 -108q-123 0 -193 31z" />
<glyph unicode="&#x630;" horiz-adv-x="700" d="M61 162q76 -29 229 -29q159 0 232 54q0 42 -16.5 92t-52 108t-102 119t-155.5 113l92 79q145 -82 240 -219.5t95 -285.5q0 -61 -9 -85q-106 -108 -339 -108q-123 0 -193 31zM209 967q0 34 21.5 56.5t54.5 22.5t54.5 -22.5t21.5 -56.5q0 -37 -21 -59t-56 -22q-33 0 -54 22 t-21 59z" />
<glyph unicode="&#x631;" horiz-adv-x="671" d="M31 -250l19 91q74 -41 168 -41q26 0 54.5 7.5t61.5 24t65 50.5t57 81q15 29 25.5 65.5t10.5 53.5q0 154 -138 431l108 47q51 -99 89.5 -230t38.5 -229q0 -82 -33 -164q-48 -122 -139 -191t-190 -69q-65 0 -118 21.5t-79 51.5z" />
<glyph unicode="&#x632;" horiz-adv-x="671" d="M31 -250l19 91q74 -41 168 -41q26 0 54.5 7.5t61.5 24t65 50.5t57 81q15 29 25.5 65.5t10.5 53.5q0 154 -138 431l108 47q51 -99 89.5 -230t38.5 -229q0 -82 -33 -164q-48 -122 -139 -191t-190 -69q-65 0 -118 21.5t-79 51.5zM282 810q0 34 21.5 56.5t54.5 22.5 t54.5 -22.5t21.5 -56.5q0 -37 -21 -58.5t-56 -21.5q-34 0 -54.5 21.5t-20.5 58.5z" />
<glyph unicode="&#x633;" horiz-adv-x="1496" d="M75 38q0 126 48 227l79 -15q-26 -90 -26 -177q0 -119 73.5 -189t182.5 -70q102 0 175.5 50.5t100.5 134.5q12 26 12 52q-9 119 -95 312l105 39q44 -95 72 -221q16 -54 80 -54q58 0 95.5 43t55.5 149l92 4q-12 -60 -12 -80q-4 -114 100 -114q48 0 80 31.5t32 80.5 q0 37 -14.5 89t-34.5 91l106 31q36 -70 36 -190q0 -122 -62 -192t-156 -70q-117 0 -156 105q-57 -105 -171 -105q-38 0 -66 18q-4 -42 -11 -66q-39 -127 -143.5 -197.5t-241.5 -70.5q-152 0 -244 100t-92 254z" />
<glyph unicode="&#x634;" horiz-adv-x="1496" d="M75 38q0 126 48 227l79 -15q-26 -90 -26 -177q0 -119 73.5 -189t182.5 -70q102 0 175.5 50.5t100.5 134.5q12 26 12 52q-9 119 -95 312l105 39q44 -95 72 -221q16 -54 80 -54q58 0 95.5 43t55.5 149l92 4q-12 -60 -12 -80q-4 -114 100 -114q48 0 80 31.5t32 80.5 q0 37 -14.5 89t-34.5 91l106 31q36 -70 36 -190q0 -122 -62 -192t-156 -70q-117 0 -156 105q-57 -105 -171 -105q-38 0 -66 18q-4 -42 -11 -66q-39 -127 -143.5 -197.5t-241.5 -70.5q-152 0 -244 100t-92 254zM872 647q0 32 21 54t52 22q33 0 54 -22t21 -54q0 -36 -21 -57.5 t-54 -21.5q-32 0 -52.5 21t-20.5 58zM973 822q0 34 19.5 56t50.5 22q33 0 54 -22t21 -56q0 -36 -20.5 -56.5t-54.5 -20.5q-32 0 -51 20t-19 57zM1066 647q0 32 21 54t53 22t51.5 -22t19.5 -54q0 -36 -19 -57.5t-52 -21.5q-34 0 -54 21t-20 58z" />
<glyph unicode="&#x635;" horiz-adv-x="1761" d="M75 13q0 122 54 225l79 -14q-34 -94 -34 -174q0 -118 72 -182t180 -64q98 0 173.5 43.5t104.5 130.5q10 20 10 45q0 126 -84 316l103 47q1 -3 5 -15.5t8 -22.5q29 -87 53.5 -125t69.5 -62q37 60 78.5 114t95 108.5t108.5 94t121 64t131 24.5q127 0 209 -85t82 -191 q0 -82 -57.5 -143.5t-153.5 -99.5q-139 -57 -361 -57q-225 0 -317 76q0 -93 -12 -132q-37 -121 -139 -190t-244 -69q-156 0 -245.5 93t-89.5 245zM957 138q66 -18 169 -18q189 0 297 31q176 54 176 136q0 60 -58.5 111t-153.5 51q-58 0 -125 -29t-149.5 -101.5 t-155.5 -180.5z" />
<glyph unicode="&#x636;" horiz-adv-x="1761" d="M75 13q0 122 54 225l79 -14q-34 -94 -34 -174q0 -118 72 -182t180 -64q98 0 173.5 43.5t104.5 130.5q10 20 10 45q0 126 -84 316l103 47q1 -3 5 -15.5t8 -22.5q29 -87 53.5 -125t69.5 -62q37 60 78.5 114t95 108.5t108.5 94t121 64t131 24.5q127 0 209 -85t82 -191 q0 -82 -57.5 -143.5t-153.5 -99.5q-139 -57 -361 -57q-225 0 -317 76q0 -93 -12 -132q-37 -121 -139 -190t-244 -69q-156 0 -245.5 93t-89.5 245zM957 138q66 -18 169 -18q189 0 297 31q176 54 176 136q0 60 -58.5 111t-153.5 51q-58 0 -125 -29t-149.5 -101.5 t-155.5 -180.5zM1118 831q0 34 21.5 56.5t54.5 22.5t54.5 -22.5t21.5 -56.5q0 -37 -21.5 -59t-56.5 -22q-33 0 -53.5 22t-20.5 59z" />
<glyph unicode="&#x637;" horiz-adv-x="1120" d="M22 155q72 -22 181 -22q30 50 40 72q12 28 14 64.5t-2 78.5l-28 705l108 9l20 -528q7 -145 0 -215q88 111 194.5 179t214.5 68q126 0 207.5 -83.5t81.5 -191.5q0 -155 -161 -225q-151 -66 -556 -66q-164 0 -269 19zM320 133h46q353 0 463 35q65 21 97 48t32 74 q0 57 -56 108t-153 51q-99 0 -215 -80.5t-214 -235.5z" />
<glyph unicode="&#x638;" horiz-adv-x="1120" d="M22 155q72 -22 181 -22q30 50 40 72q12 28 14 64.5t-2 78.5l-28 705l108 9l20 -528q7 -145 0 -215q88 111 194.5 179t214.5 68q126 0 207.5 -83.5t81.5 -191.5q0 -155 -161 -225q-151 -66 -556 -66q-164 0 -269 19zM320 133h46q353 0 463 35q65 21 97 48t32 74 q0 57 -56 108t-153 51q-99 0 -215 -80.5t-214 -235.5zM598 831q0 34 21.5 56.5t54.5 22.5t54.5 -22.5t21.5 -56.5q0 -37 -21 -59t-55 -22t-55 22t-21 59z" />
<glyph unicode="&#x639;" horiz-adv-x="804" d="M53 -151q0 103 57 191.5t159 149.5q-76 45 -117 110t-41 136q0 115 88 195t218 80q117 0 194 -53l9 -108q-76 45 -200 45q-100 0 -156 -50.5t-56 -107.5t55 -108.5t123 -68.5q45 12 334 104l-21 -137q-167 -40 -288 -85q-123 -47 -187.5 -120t-64.5 -162q0 -39 14 -78.5 t48 -80t84 -71.5t129 -50.5t175 -19.5q130 0 229 23l-45 -113q-83 -29 -212 -29q-243 0 -385.5 111t-142.5 297z" />
<glyph unicode="&#x63a;" horiz-adv-x="804" d="M53 -151q0 103 57 191.5t159 149.5q-76 45 -117 110t-41 136q0 115 88 195t218 80q117 0 194 -53l9 -108q-76 45 -200 45q-100 0 -156 -50.5t-56 -107.5t55 -108.5t123 -68.5q45 12 334 104l-21 -137q-167 -40 -288 -85q-123 -47 -187.5 -120t-64.5 -162q0 -39 14 -78.5 t48 -80t84 -71.5t129 -50.5t175 -19.5q130 0 229 23l-45 -113q-83 -29 -212 -29q-243 0 -385.5 111t-142.5 297zM266 967q0 34 21.5 56.5t54.5 22.5t54 -22.5t21 -56.5q0 -37 -21 -59t-55 -22q-33 0 -54 22t-21 59z" />
<glyph unicode="&#x640;" horiz-adv-x="387" d="M-73 69q0 24 17.5 44t55.5 20h388q73 0 73 -67q0 -26 -17 -46t-56 -20h-388q-73 0 -73 69z" />
<glyph unicode="&#x641;" horiz-adv-x="1318" d="M73 353q0 109 40 215l79 -17q-24 -98 -24 -153q0 -153 112.5 -226t309.5 -73q172 0 320 26.5t219 57.5q4 19 9 50q-104 -6 -181 11.5t-118.5 53t-60.5 76t-19 87.5q0 102 76 184q37 39 83 59t86 20q94 0 164.5 -103.5t70.5 -297.5q0 -126 -37 -221q-80 -53 -258 -93 t-365 -40q-121 0 -213.5 24.5t-147 62t-88.5 90.5t-45.5 102.5t-11.5 104.5zM850 475q0 -67 79.5 -102t215.5 -28q-5 114 -45 189t-114 75q-56 0 -96 -40.5t-40 -93.5zM885 987q0 34 21.5 56.5t54.5 22.5t54.5 -22.5t21.5 -56.5q0 -37 -21 -58.5t-55 -21.5t-55 21.5 t-21 58.5z" />
<glyph unicode="&#x642;" horiz-adv-x="1062" d="M73 152q0 149 59 271l80 -10q-38 -107 -38 -224q0 -160 92 -244.5t231 -84.5q118 0 214 44.5t143 121.5q14 18 25 81q-56 -8 -101 -8q-127 2 -198 63.5t-71 175.5q0 105 73 182.5t155 77.5q107 0 176.5 -107.5t69.5 -276.5q0 -62 -14.5 -136.5t-27.5 -97.5 q-55 -105 -174.5 -175.5t-288.5 -70.5q-181 0 -293 110.5t-112 307.5zM531 860q0 35 21.5 56.5t53.5 21.5t53 -21.5t21 -56.5t-21 -56t-53 -21t-53.5 21t-21.5 56zM604 355q0 -56 46 -94.5t147 -38.5q49 0 91 6q-4 122 -53 189t-118 67q-47 0 -80 -35.5t-33 -93.5zM730 860 q0 35 19.5 56.5t52.5 21.5t53.5 -21.5t20.5 -56.5q0 -36 -20.5 -56.5t-53.5 -20.5t-52.5 20.5t-19.5 56.5z" />
<glyph unicode="&#x643;" horiz-adv-x="1161" d="M73 313q0 66 19 123l79 -15q-6 -52 -6 -80q0 -74 47 -123.5t122 -70t177 -20.5q213 0 408 40q5 32 0 134l-30 752l110 9l31 -800q5 -135 -5 -187q-223 -75 -526 -75q-100 0 -176.5 19.5t-123 49.5t-75.5 72.5t-40 84t-11 87.5zM410 473q41 1 77.5 6.5t62.5 14t45 18.5 t28.5 19t9.5 16q0 19 -86 24q-55 3 -77 21t-22 52q0 67 60 128t153 74v-93q-71 -11 -107 -34.5t-36 -49.5q0 -17 72 -22q67 -6 89.5 -25t22.5 -54q0 -48 -35.5 -87t-84.5 -58t-98 -19q-38 0 -50 4z" />
<glyph unicode="&#x644;" horiz-adv-x="959" d="M76 132q0 109 45 223l85 -13q-25 -89 -25 -174q0 -68 22.5 -118.5t60.5 -77.5t80.5 -39.5t89.5 -12.5q85 0 159.5 32t108.5 92q12 20 10 76l-38 933l110 9l38 -919q1 -88 -23 -137q-48 -99 -153.5 -155t-219.5 -56q-164 0 -257 91.5t-93 245.5z" />
<glyph unicode="&#x645;" horiz-adv-x="1129" d="M44 -138q167 69 298.5 149t179.5 150q22 22 72 178q45 135 96.5 192t133.5 57q67 0 123 -48t85.5 -117t29.5 -136q0 -91 -45.5 -149.5t-116.5 -58.5q-129 0 -264 104q-1 -3 -6 -19.5t-7.5 -23.5t-8.5 -22.5t-11 -25.5t-13 -23.5t-17 -24.5q-58 -78 -192 -150.5 t-267 -104.5zM677 306q43 -41 105 -70.5t118 -29.5q30 0 50 22t20 57q0 68 -47.5 128.5t-106.5 60.5q-46 0 -78 -35t-61 -133z" />
<glyph unicode="&#x646;" horiz-adv-x="943" d="M69 123q0 54 14 119t37 113l83 -14q-29 -95 -29 -182q0 -120 76.5 -187t198.5 -67q222 0 297 152q18 30 18 63q0 150 -128 405l113 37q43 -85 77 -199t34 -224q0 -33 -10 -76t-23 -69q-53 -108 -157 -165t-238 -57q-164 0 -263.5 97t-99.5 254zM338 743q0 35 21.5 57 t54.5 22q34 0 55 -22t21 -57q0 -36 -21 -57.5t-55 -21.5q-33 0 -54.5 21.5t-21.5 57.5z" />
<glyph unicode="&#x647;" horiz-adv-x="650" d="M67 257q0 90 43 173.5t121 175.5q-22 17 -29 22l67 89q137 -99 234 -221q81 -110 81 -227q0 -68 -24.5 -123.5t-64 -89t-86 -51t-94.5 -17.5q-112 0 -180 79.5t-68 189.5zM161 287q0 -73 48 -118t117 -45q78 0 121 48t43 103q0 65 -44.5 130t-138.5 142 q-64 -64 -105 -133.5t-41 -126.5z" />
<glyph unicode="&#x648;" horiz-adv-x="734" d="M20 -252l18 87q75 -40 183 -40q124 0 217 83.5t125 213.5q-44 -7 -88 -7q-119 0 -199.5 65.5t-80.5 184.5q0 105 68.5 178.5t160.5 73.5q60 0 108 -32.5t76.5 -86t43 -115t14.5 -125.5q0 -115 -31 -208q-36 -119 -103 -199t-141 -113t-157 -33q-59 0 -118 18t-96 55z M285 354q0 -40 19 -69.5t50.5 -44.5t65.5 -22t72 -7q57 0 84 8q-2 125 -54.5 192t-116.5 67q-57 0 -88.5 -39t-31.5 -85z" />
<glyph unicode="&#x649;" horiz-adv-x="1045" d="M73 86q0 130 54 250l81 -10q-31 -105 -31 -190q0 -67 19 -119.5t49.5 -85.5t73 -54.5t85.5 -30t90 -8.5q206 0 312 109q50 55 50 92q0 23 -29 44t-119 49l-73 23q-90 28 -123.5 65.5t-33.5 105.5q0 55 25.5 118.5t78.5 118.5q49 49 111 78.5t122 29.5q135 0 168 -136 l-70 -80q-17 47 -51 74t-75 27q-88 0 -150 -67t-62 -131q0 -26 20.5 -44t83.5 -38l105 -33q88 -29 130.5 -64t42.5 -101q0 -108 -84 -201q-74 -81 -178.5 -121.5t-221.5 -40.5q-188 0 -294 99.5t-106 271.5z" />
<glyph unicode="&#x64a;" horiz-adv-x="1045" d="M73 86q0 130 54 250l81 -10q-31 -105 -31 -190q0 -67 19 -119.5t49.5 -85.5t73 -54.5t85.5 -30t90 -8.5q206 0 312 109q50 55 50 92q0 23 -29 44t-119 49l-73 23q-90 28 -123.5 65.5t-33.5 105.5q0 55 25.5 118.5t78.5 118.5q49 49 111 78.5t122 29.5q135 0 168 -136 l-70 -80q-17 47 -51 74t-75 27q-88 0 -150 -67t-62 -131q0 -26 20.5 -44t83.5 -38l105 -33q88 -29 130.5 -64t42.5 -101q0 -108 -84 -201q-74 -81 -178.5 -121.5t-221.5 -40.5q-188 0 -294 99.5t-106 271.5zM358 -503q0 35 21.5 56t53.5 21q33 0 54 -21t21 -56t-21 -56.5 t-54 -21.5q-32 0 -53.5 21.5t-21.5 56.5zM557 -503q0 35 20 56t52 21q34 0 54.5 -21t20.5 -56t-20.5 -56.5t-54.5 -21.5q-32 0 -52 21t-20 57z" />
<glyph unicode="&#x64b;" d="M-73 1385q275 87 373 131l16 -85q-153 -65 -375 -126zM-66 1201q274 86 373 130l16 -85q-127 -55 -374 -125z" />
<glyph unicode="&#x64c;" d="M-154 1281l9 74q42 33 92 33q73 0 73 -102q0 -40 -7 -78q52 0 105.5 18t80.5 51q-66 5 -110 43.5t-44 92.5q0 61 40 99.5t95 38.5q48 0 86 -42.5t38 -121.5q0 -67 -28 -119t-76 -82t-105 -45t-120 -15q-6 0 -20 1t-18 1q19 78 19 142q0 41 -29 41q-39 0 -81 -30z M105 1426q0 -34 36 -55.5t96 -20.5q10 43 -10 86.5t-63 43.5q-26 0 -42.5 -15t-16.5 -39z" />
<glyph unicode="&#x64d;" d="M-202 -136q285 90 375 130l16 -85q-135 -57 -375 -126zM-195 -320q285 90 375 130l16 -85q-137 -58 -374 -126z" />
<glyph unicode="&#x64e;" d="M-66 1201q226 68 373 130l16 -85q-119 -52 -374 -125z" />
<glyph unicode="&#x64f;" d="M-37 1166v57q33 -9 78 -9q41 0 84 17t61 46q-72 -5 -119 28.5t-47 97.5q0 56 39 94.5t96 38.5q47 0 88 -40.5t41 -117.5q0 -107 -70 -170t-157 -63q-66 0 -94 21zM80 1412q0 -33 34 -55.5t104 -17.5q8 55 -12.5 91.5t-66.5 36.5q-24 0 -41.5 -16t-17.5 -39z" />
<glyph unicode="&#x650;" d="M-202 -136q285 90 375 130l16 -85q-123 -53 -375 -126z" />
<glyph unicode="&#x651;" d="M-69 1270q0 40 10 77l62 25q-7 -44 -7 -89q0 -57 36 -57q73 0 62 174l58 23q5 -144 67 -144q19 0 32.5 15.5t13.5 44.5q-2 47 -31 112l67 28q30 -72 30 -140q0 -64 -32 -104t-75 -40q-57 0 -84 48q-16 -47 -51 -74t-63 -27q-95 0 -95 128z" />
<glyph unicode="&#x652;" d="M-12 1308q0 72 43 129t105 57t104 -57.5t42 -128.5q0 -67 -40.5 -105.5t-105.5 -38.5q-66 0 -106.5 38.5t-41.5 105.5zM54 1311q0 -34 23 -54.5t59 -20.5q37 0 59 19.5t22 55.5q0 45 -24 77t-57 32q-34 0 -58 -31t-24 -78z" />
<glyph unicode="&#x653;" d="M-80 1178q1 56 31.5 94.5t86.5 38.5q36 0 95.5 -19t88.5 -19q50 0 103 48l13 -66q-18 -33 -53 -51t-76 -18q-35 0 -88.5 18.5t-76.5 18.5q-43 0 -53 -69z" />
<glyph unicode="&#x654;" d="M-19 1156l9 68q33 18 67 18q-53 36 -53 91q0 58 43.5 91t106.5 33q83 0 125 -38l-23 -67q-42 32 -105 32q-35 0 -55 -16t-20 -37q0 -35 36 -55.5t93 -20.5h96l-30 -74h-95q-134 0 -195 -25z" />
<glyph unicode="&#x655;" d="M-142 -338l9 69q27 16 66 16q-51 41 -51 92q0 58 43.5 91t105.5 33q85 0 126 -39l-24 -67q-43 33 -105 33q-35 0 -55 -16.5t-20 -35.5q0 -36 36 -57t93 -21h96l-30 -73h-95q-131 0 -195 -25z" />
<glyph unicode="&#x656;" d="M-54 -41l99 7l14 -354l-88 -7z" />
<glyph unicode="&#x657;" d="M3 1295q0 102 79 173t183 71l17 -66q-66 -2 -122 -35t-72 -89q52 5 83.5 -20.5t31.5 -73.5t-27 -73t-71 -25q-38 0 -70 34.5t-32 103.5z" />
<glyph unicode="&#x658;" d="M-37 1379l66 17q15 -141 113 -141q48 0 73 37.5t41 116.5l64 -8q-10 -116 -58.5 -176.5t-128.5 -60.5q-70 0 -115.5 52t-54.5 163z" />
<glyph unicode="&#x659;" d="M-44 1163l15 86h364l-15 -86h-364z" />
<glyph unicode="&#x65a;" d="M-50 1397l65 50q67 -76 128 -185q56 93 135 189l57 -45q-100 -129 -158 -243h-75q-42 96 -152 234z" />
<glyph unicode="&#x65b;" d="M-50 1189q105 135 158 243h76q39 -94 151 -234l-64 -50q-69 79 -129 185q-58 -97 -133 -189z" />
<glyph unicode="&#x65c;" d="M-75 -104q0 34 21.5 56.5t54.5 22.5t54 -22.5t21 -56.5q0 -37 -20.5 -58.5t-55.5 -21.5q-34 0 -54.5 21.5t-20.5 58.5z" />
<glyph unicode="&#x65d;" d="M-37 1371q0 77 44 121t97 44q56 0 91.5 -38t35.5 -95q0 -55 -43 -92.5t-115 -40.5q75 -67 214 -51l-6 -56q-36 -18 -84 -18q-55 0 -106.5 22.5t-89.5 76t-38 127.5zM31 1365q0 -14 3 -35q63 2 98.5 23t35.5 54q0 24 -18.5 42t-42.5 18q-31 0 -53.5 -25t-22.5 -77z" />
<glyph unicode="&#x65e;" d="M-32 1207l313 288l39 -47l-316 -289zM-25 1441q0 24 14.5 40t38.5 16t38 -16t14 -40q0 -25 -14 -39.5t-38 -14.5t-38.5 14.5t-14.5 39.5zM205 1207q0 24 15 39.5t37 15.5q24 0 38.5 -15.5t14.5 -39.5q0 -26 -14.5 -41.5t-39.5 -15.5q-22 0 -36.5 16t-14.5 41z" />
<glyph unicode="&#x660;" horiz-adv-x="383" d="M70 451q0 57 34 92t89 35q52 0 86 -35.5t34 -91.5t-34 -90.5t-86 -34.5h-1q-54 0 -88 34t-34 91z" />
<glyph unicode="&#x661;" horiz-adv-x="416" d="M44 952l124 13q87 -182 142 -447t63 -518h-116q-23 553 -213 952z" />
<glyph unicode="&#x662;" horiz-adv-x="709" d="M44 952l123 11q6 -14 19 -47t24.5 -59t19.5 -36q51 -79 165 -79q72 0 118.5 48.5t49.5 161.5l95 8q2 -18 2 -38q0 -134 -72.5 -215.5t-182.5 -81.5q-83 0 -137 41q37 -123 68 -307.5t36 -358.5h-116q-19 543 -212 952z" />
<glyph unicode="&#x663;" horiz-adv-x="779" d="M44 952l123 13q22 -42 57 -140q18 -43 41.5 -60t57.5 -17q92 0 92 112q0 42 -8 92l85 6q9 -96 31.5 -131.5t57.5 -35.5q32 0 47.5 25.5t15.5 89.5q0 19 -5 46l84 8q7 -49 7 -90q0 -96 -39 -146.5t-94 -50.5q-67 0 -107 63q-16 -56 -52 -84.5t-81 -28.5q-56 0 -86 38 q38 -124 66 -299t35 -362h-115q-19 548 -213 952z" />
<glyph unicode="&#x664;" horiz-adv-x="659" d="M94 651q0 113 103.5 201t257.5 118l34 -111q-154 -36 -224 -91.5t-70 -109.5q0 -44 51 -73t156 -29q63 0 119 9v-110q-138 -32 -200 -91.5t-62 -119.5q0 -48 37.5 -83t121.5 -35q113 0 211 54l6 -116q-92 -68 -233 -68q-100 0 -174 59t-74 166q0 73 43 135t115 105 q-104 7 -161 60t-57 130z" />
<glyph unicode="&#x665;" horiz-adv-x="746" d="M82 413q0 141 42 258.5t112.5 184t151.5 66.5q83 0 149 -77.5t97.5 -183t31.5 -208.5q0 -81 -16.5 -148t-52 -122t-96.5 -86t-144 -31q-50 0 -95.5 17.5t-87 55.5t-67 108.5t-25.5 165.5zM181 451q0 -255 188 -255q57 0 98 22.5t62 60t30.5 77t9.5 83.5q0 34 -8 82.5 t-27 112t-61.5 107t-100.5 43.5q-57 0 -102.5 -55t-67 -130t-21.5 -148z" />
<glyph unicode="&#x666;" horiz-adv-x="671" d="M19 844l16 120q55 -12 234 -12h227q-10 -100 -10 -222q0 -169 32.5 -373t101.5 -357h-121q-136 325 -123 828h-155q-145 0 -202 16z" />
<glyph unicode="&#x667;" horiz-adv-x="784" d="M32 952l138 8q73 -153 146.5 -398t97.5 -411h4q21 145 83 389.5t127 419.5l124 -8q-64 -149 -146 -437.5t-126 -514.5h-133q-47 234 -127.5 493t-187.5 459z" />
<glyph unicode="&#x668;" horiz-adv-x="784" d="M32 0q66 154 149.5 442.5t125.5 508.5l135 9q141 -637 310 -960h-136q-71 147 -144 387.5t-98 396.5h-4q-22 -143 -84 -374.5t-128 -409.5h-126z" />
<glyph unicode="&#x669;" horiz-adv-x="696" d="M61 696q0 113 75.5 192.5t173.5 79.5q199 0 241 -346q3 -30 12 -109t11.5 -103.5t10 -83.5t12.5 -87.5t13.5 -74.5t18 -84t21.5 -80h-118q-37 146 -73 452q-43 -10 -115 -10q-120 0 -201.5 67t-81.5 187zM161 709q0 -75 56.5 -111t152.5 -36q56 0 79 7q-9 110 -32.5 174 t-53 84.5t-70.5 20.5q-55 0 -93.5 -42.5t-38.5 -96.5z" />
<glyph unicode="&#x66a;" horiz-adv-x="808" d="M54 25q94 180 268 477.5t301 496.5l78 -60q-317 -494 -563 -970zM85 879q0 38 24.5 63.5t61.5 25.5q38 0 62 -25t24 -64q0 -43 -23.5 -67.5t-63.5 -24.5q-37 0 -61 25t-24 67zM493 92q0 38 24.5 63.5t61.5 25.5q38 0 62.5 -25.5t24.5 -63.5q0 -42 -24 -67t-63 -25 q-38 0 -62 25t-24 67z" />
<glyph unicode="&#x66b;" horiz-adv-x="564" d="M124 39q85 40 142 104t65 125q-61 -14 -101.5 14.5t-40.5 84.5q0 54 33 87t85 33q55 0 91 -42t36 -120q0 -114 -76 -210.5t-169 -134.5z" />
<glyph unicode="&#x66c;" horiz-adv-x="564" d="M124 142q0 115 76.5 211t169.5 134l64 -60q-85 -39 -141.5 -102.5t-64.5 -124.5q61 13 101.5 -15.5t40.5 -85.5q0 -54 -33 -86.5t-85 -32.5q-55 0 -91.5 42.5t-36.5 119.5z" />
<glyph unicode="&#x66d;" horiz-adv-x="937" d="M82 462l4 11l294 -11l82 287h12l82 -287l297 11l3 -8l-249 -167l100 -279l-6 -6l-234 183l-231 -183l-9 6l99 279z" />
<glyph unicode="&#x66e;" horiz-adv-x="1293" d="M72 358q0 102 32 182l79 -16q-16 -66 -16 -123q0 -302 425 -302q328 0 515 75q2 24 2 29q-5 157 -104 338l105 30q100 -183 100 -379q0 -49 -15 -109q-261 -114 -610 -114q-513 0 -513 389z" />
<glyph unicode="&#x66f;" horiz-adv-x="1062" d="M73 152q0 149 59 271l80 -10q-38 -107 -38 -224q0 -160 92 -244.5t231 -84.5q118 0 214 44.5t143 121.5q14 18 25 81q-56 -8 -101 -8q-127 2 -198 63.5t-71 175.5q0 105 73 182.5t155 77.5q107 0 176.5 -107.5t69.5 -276.5q0 -62 -14.5 -136.5t-27.5 -97.5 q-55 -105 -174.5 -175.5t-288.5 -70.5q-181 0 -293 110.5t-112 307.5zM604 355q0 -56 46 -94.5t147 -38.5q49 0 91 6q-4 122 -53 189t-118 67q-47 0 -80 -35.5t-33 -93.5z" />
<glyph unicode="&#x670;" d="M73 1518l100 8l13 -354l-88 -6z" />
<glyph unicode="&#x671;" horiz-adv-x="367" d="M-86 1191v82q25 38 66 38q7 0 13 -1t10.5 -3t6.5 -2q87 136 171 136q54 0 87 -37.5t33 -92.5q0 -60 -43.5 -99t-105.5 -39q-44 0 -101.5 25.5t-73.5 25.5q-35 0 -63 -33zM67 1279q41 -24 95 -24q30 0 50 13t22 35q0 25 -14.5 41.5t-41.5 17.5q-56 0 -111 -83zM95 1053 l110 9l41 -1062h-110z" />
<glyph unicode="&#x674;" horiz-adv-x="433" d="M51 1068l9 69q29 17 66 17q-51 38 -51 91q0 58 43.5 91t105.5 33q84 0 126 -38l-24 -67q-42 32 -105 32q-35 0 -55 -16t-20 -37q0 -35 36 -55.5t93 -20.5h97l-31 -74h-95q-134 0 -195 -25z" />
<glyph unicode="&#x675;" horiz-adv-x="471" d="M95 1053l110 9l41 -1062h-110zM237 1071l9 69q32 17 67 17q-53 40 -53 91q0 58 43.5 91t106.5 33q85 0 125 -38l-23 -67q-42 32 -105 32q-34 0 -54.5 -16.5t-20.5 -36.5q0 -35 36 -55.5t93 -20.5h96l-29 -74h-95q-134 0 -196 -25z" />
<glyph unicode="&#x676;" horiz-adv-x="844" d="M20 -252l18 87q75 -40 183 -40q124 0 217 83.5t125 213.5q-44 -7 -88 -7q-119 0 -199.5 65.5t-80.5 184.5q0 105 68.5 178.5t160.5 73.5q60 0 108 -32.5t76.5 -86t43 -115t14.5 -125.5q0 -115 -31 -208q-36 -119 -103 -199t-141 -113t-157 -33q-59 0 -118 18t-96 55z M285 354q0 -40 19 -69.5t50.5 -44.5t65.5 -22t72 -7q57 0 84 8q-2 125 -54.5 192t-116.5 67q-57 0 -88.5 -39t-31.5 -85zM487 727l9 69q32 17 67 17q-52 39 -52 91q0 58 43.5 91t105.5 33q86 0 126 -38l-24 -67q-42 32 -105 32q-34 0 -54.5 -16t-20.5 -36q0 -35 36 -55.5 t93 -20.5h96l-29 -75h-95q-134 0 -196 -25z" />
<glyph unicode="&#x677;" horiz-adv-x="844" d="M20 -252l18 87q75 -40 183 -40q124 0 217 83.5t125 213.5q-44 -7 -88 -7q-119 0 -199.5 65.5t-80.5 184.5q0 105 68.5 178.5t160.5 73.5q60 0 108 -32.5t76.5 -86t43 -115t14.5 -125.5q0 -115 -31 -208q-36 -119 -103 -199t-141 -113t-157 -33q-59 0 -118 18t-96 55z M102 685v57q33 -9 78 -9q41 0 84 17t61 46q-72 -5 -119 28.5t-47 97.5q0 56 39 94.5t96 38.5q47 0 88 -40.5t41 -117.5q0 -107 -70 -170t-157 -63q-66 0 -94 21zM219 930q0 -33 34 -55.5t104 -17.5q8 55 -12.5 92t-66.5 37q-24 0 -41.5 -16t-17.5 -40zM285 354 q0 -40 19 -69.5t50.5 -44.5t65.5 -22t72 -7q57 0 84 8q-2 125 -54.5 192t-116.5 67q-57 0 -88.5 -39t-31.5 -85zM487 727l9 69q32 17 67 17q-52 39 -52 91q0 58 43.5 91t105.5 33q86 0 126 -38l-24 -67q-42 32 -105 32q-34 0 -54.5 -16t-20.5 -36q0 -35 36 -55.5t93 -20.5 h96l-29 -75h-95q-134 0 -196 -25z" />
<glyph unicode="&#x678;" horiz-adv-x="1277" d="M73 86q0 130 54 250l81 -10q-31 -105 -31 -190q0 -67 19 -119.5t49.5 -85.5t73 -54.5t85.5 -30t90 -8.5q206 0 312 109q50 55 50 92q0 23 -29 44t-119 49l-73 23q-90 28 -123.5 65.5t-33.5 105.5q0 55 25.5 118.5t78.5 118.5q49 49 111 78.5t122 29.5q135 0 168 -136 l-70 -80q-17 47 -51 74t-75 27q-88 0 -150 -67t-62 -131q0 -26 20.5 -44t83.5 -38l105 -33q88 -29 130.5 -64t42.5 -101q0 -108 -84 -201q-74 -81 -178.5 -121.5t-221.5 -40.5q-188 0 -294 99.5t-106 271.5zM945 791l9 69q33 18 67 18q-53 40 -53 90q0 58 44 91.5t106 33.5 q85 0 125 -38l-23 -68q-43 33 -105 33q-34 0 -54.5 -16.5t-20.5 -36.5q0 -35 36 -55.5t93 -20.5h96l-29 -75h-95q-135 0 -196 -25z" />
<glyph unicode="&#x679;" horiz-adv-x="1293" d="M72 358q0 102 32 182l79 -16q-16 -66 -16 -123q0 -302 425 -302q328 0 515 75q2 24 2 29q-5 157 -104 338l105 30q100 -183 100 -379q0 -49 -15 -109q-261 -114 -610 -114q-513 0 -513 389zM434 683l85 -6q20 38 15 116l-18 240l66 6l10 -169q2 -62 -1 -83q61 92 146 92 q46 0 73 -30.5t27 -74.5q0 -88 -75.5 -129t-185.5 -41h-101zM581 679q191 0 191 83q0 18 -13 31t-36 13q-70 0 -142 -127z" />
<glyph unicode="&#x67e;" horiz-adv-x="1293" d="M72 358q0 102 32 182l79 -16q-16 -66 -16 -123q0 -302 425 -302q328 0 515 75q2 24 2 29q-5 157 -104 338l105 30q100 -183 100 -379q0 -49 -15 -109q-261 -114 -610 -114q-513 0 -513 389zM499 -290q0 35 20.5 57t51.5 22q32 0 53 -22t21 -57q0 -32 -21 -54t-53 -22 q-31 0 -51.5 22t-20.5 54zM592 -465q0 35 21.5 56t55.5 21q30 0 50.5 -21t20.5 -56q0 -34 -21 -56t-52 -22q-33 0 -54 22t-21 56zM692 -290q0 36 21 57.5t54 21.5q32 0 51 -21.5t19 -57.5q0 -32 -20 -54t-52 -22q-31 0 -52 22t-21 54z" />
<glyph unicode="&#x686;" horiz-adv-x="949" d="M75 -111q0 83 34 156t88 124t125 91t141 63t140 35q-1 0 -71.5 27.5t-132 42.5t-120.5 15q-117 0 -197 -38l25 126q69 32 183 32q39 0 79.5 -6t87 -20.5t73 -23.5t81 -30.5t69.5 -27.5q98 -40 144 -40l74 -1l-31 -129q-40 5 -106 5q-69 0 -174 -22q-80 -19 -148.5 -51.5 t-123.5 -77.5t-86.5 -106t-31.5 -132q0 -111 70.5 -190t183 -116t254.5 -37q74 0 192 21l-49 -114q-81 -25 -191 -25q-123 0 -228.5 29.5t-184.5 85t-124 141.5t-45 193zM434 -20q0 32 18.5 51.5t47.5 19.5t49 -19.5t20 -51.5q0 -29 -20 -49t-49 -20q-28 0 -47 20t-19 49z M522 -186q0 31 19.5 50.5t50.5 19.5q28 0 46.5 -19.5t18.5 -50.5t-19 -50.5t-48 -19.5q-30 0 -49 19.5t-19 50.5zM614 -20q0 33 19 52t50 19q29 0 47 -19t18 -52q0 -30 -18.5 -49.5t-49.5 -19.5q-28 0 -47 20t-19 49z" />
<glyph unicode="&#x688;" horiz-adv-x="700" d="M61 162q76 -29 229 -29q159 0 232 54q0 42 -16.5 92t-52 108t-102 119t-155.5 113l92 79q145 -82 240 -219.5t95 -285.5q0 -61 -9 -85q-106 -108 -339 -108q-123 0 -193 31zM89 952l85 -6q20 38 15 116l-18 240l66 6l10 -168q2 -63 -1 -84q61 92 146 92q46 0 73 -30.5 t27 -74.5q0 -88 -75.5 -129t-185.5 -41h-101zM236 948q191 0 191 83q0 18 -13.5 31t-36.5 13q-35 0 -68.5 -29.5t-72.5 -97.5z" />
<glyph unicode="&#x691;" horiz-adv-x="671" d="M31 -250l19 91q74 -41 168 -41q26 0 54.5 7.5t61.5 24t65 50.5t57 81q15 29 25.5 65.5t10.5 53.5q0 154 -138 431l108 47q51 -99 89.5 -230t38.5 -229q0 -82 -33 -164q-48 -122 -139 -191t-190 -69q-65 0 -118 21.5t-79 51.5zM162 796l85 -6q20 38 15 116l-18 239l66 6 l10 -168q2 -62 -1 -83q61 92 146 92q46 0 73 -30.5t27 -75.5q0 -46 -22 -80t-60 -52.5t-82.5 -27.5t-96.5 -9h-101zM307 791q193 0 193 84q0 18 -13 31t-36 13q-70 0 -144 -128z" />
<glyph unicode="&#x698;" horiz-adv-x="671" d="M31 -250l19 91q74 -41 168 -41q26 0 54.5 7.5t61.5 24t65 50.5t57 81q15 29 25.5 65.5t10.5 53.5q0 154 -138 431l108 47q51 -99 89.5 -230t38.5 -229q0 -82 -33 -164q-48 -122 -139 -191t-190 -69q-65 0 -118 21.5t-79 51.5zM187 809q0 32 21 54t52 22q33 0 54 -22 t21 -54q0 -36 -21 -57.5t-54 -21.5q-32 0 -52.5 21t-20.5 58zM288 985q0 34 19.5 55.5t50.5 21.5q34 0 54.5 -21.5t20.5 -55.5q0 -36 -20.5 -57t-54.5 -21q-32 0 -51 20.5t-19 57.5zM382 809q0 32 20.5 54t52.5 22t52 -22t20 -54q0 -36 -19.5 -57.5t-52.5 -21.5t-53 21 t-20 58z" />
<glyph unicode="&#x6a1;" horiz-adv-x="1318" d="M73 353q0 109 40 215l79 -17q-24 -98 -24 -153q0 -153 112.5 -226t309.5 -73q172 0 320 26.5t219 57.5q4 19 9 50q-104 -6 -181 11.5t-118.5 53t-60.5 76t-19 87.5q0 102 76 184q37 39 83 59t86 20q94 0 164.5 -103.5t70.5 -297.5q0 -126 -37 -221q-80 -53 -258 -93 t-365 -40q-121 0 -213.5 24.5t-147 62t-88.5 90.5t-45.5 102.5t-11.5 104.5zM850 475q0 -67 79.5 -102t215.5 -28q-5 114 -45 189t-114 75q-56 0 -96 -40.5t-40 -93.5z" />
<glyph unicode="&#x6a4;" horiz-adv-x="1318" d="M73 353q0 109 40 215l79 -17q-24 -98 -24 -153q0 -153 112.5 -226t309.5 -73q172 0 320 26.5t219 57.5q4 19 9 50q-104 -6 -181 11.5t-118.5 53t-60.5 76t-19 87.5q0 102 76 184q37 39 83 59t86 20q94 0 164.5 -103.5t70.5 -297.5q0 -126 -37 -221q-80 -53 -258 -93 t-365 -40q-121 0 -213.5 24.5t-147 62t-88.5 90.5t-45.5 102.5t-11.5 104.5zM791 986q0 32 21.5 54t52.5 22t52 -22t21 -54q0 -36 -20.5 -57.5t-52.5 -21.5q-34 0 -54 21t-20 58zM850 475q0 -67 79.5 -102t215.5 -28q-5 114 -45 189t-114 75q-56 0 -96 -40.5t-40 -93.5z M891 1162q0 34 20 55.5t52 21.5q33 0 53 -21.5t20 -55.5q0 -36 -19.5 -57t-53.5 -21q-32 0 -52 20.5t-20 57.5zM985 986q0 32 21 54t52 22q32 0 51.5 -22t19.5 -54q0 -36 -19 -57.5t-52 -21.5q-32 0 -52.5 21t-20.5 58z" />
<glyph unicode="&#x6a9;" horiz-adv-x="1335" d="M73 313q0 68 21 123l77 -15q-7 -33 -7 -80q0 -85 57.5 -141t148 -79.5t212.5 -23.5q131 0 242.5 17t179.5 42.5t106 53.5t38 53q0 58 -86 144q-45 44 -111 91t-111 74t-135 78q2 88 16 117q4 12 69 51q91 53 254 123t306 118l-25 -127q-110 -35 -274 -104.5t-242 -116.5 q66 -36 117.5 -67.5t114 -78.5t103.5 -90.5t69 -99t28 -109.5q0 -70 -58.5 -128t-155.5 -94t-215.5 -55.5t-243.5 -19.5q-113 0 -201 19.5t-142.5 52t-89.5 78t-48.5 93t-13.5 101.5z" />
<glyph unicode="&#x6aa;" horiz-adv-x="1582" d="M44 165q126 -35 354 -35q165 0 324.5 7.5t400 25.5t284.5 21q5 100 -65 146t-197 46q-123 0 -308 -15q-252 -14 -344 -14q-41 0 -72 2.5t-67 11.5t-59.5 25.5t-39 46t-15.5 70.5q0 118 171 255q136 109 372 219l-27 -136q-76 -29 -175.5 -86.5t-166.5 -118.5 q-72 -69 -72 -111q0 -63 157 -63q74 0 145.5 3t163.5 9t108 7q142 9 237 9q181 -1 265.5 -76t85.5 -233q0 -43 -18 -118q-2 0 -221 -19t-451 -33t-397 -14q-255 0 -320 19z" />
<glyph unicode="&#x6ad;" horiz-adv-x="1161" d="M73 313q0 66 19 123l79 -15q-6 -52 -6 -80q0 -74 47 -123.5t122 -70t177 -20.5q213 0 408 40q5 32 0 134l-30 752l110 9l31 -800q5 -135 -5 -187q-223 -75 -526 -75q-100 0 -176.5 19.5t-123 49.5t-75.5 72.5t-40 84t-11 87.5zM354 1071q0 32 20 52.5t50 20.5 q31 0 51.5 -20t20.5 -53t-20.5 -53t-51.5 -20q-32 0 -51 19t-19 54zM410 473q41 1 77.5 6.5t62.5 14t45 18.5t28.5 19t9.5 16q0 19 -86 24q-55 3 -77 21t-22 52q0 67 60 128t153 74v-93q-71 -11 -107 -34.5t-36 -49.5q0 -17 72 -22q67 -6 89.5 -25t22.5 -54q0 -48 -35.5 -87 t-84.5 -58t-98 -19q-38 0 -50 4zM449 1239q0 33 19 53t50 20q32 0 52 -20t20 -53t-20 -52.5t-52 -19.5t-50.5 18.5t-18.5 53.5zM540 1071q0 33 19 53t50 20q32 0 51 -20t19 -53q0 -34 -19 -53.5t-51 -19.5q-31 0 -50 19t-19 54z" />
<glyph unicode="&#x6af;" horiz-adv-x="1335" d="M73 313q0 68 21 123l77 -15q-7 -33 -7 -80q0 -85 57.5 -141t148 -79.5t212.5 -23.5q131 0 242.5 17t179.5 42.5t106 53.5t38 53q0 58 -86 144q-45 44 -111 91t-111 74t-135 78q2 88 16 117q4 12 69 51q91 53 254 123t306 118l-25 -127q-110 -35 -274 -104.5t-242 -116.5 q66 -36 117.5 -67.5t114 -78.5t103.5 -90.5t69 -99t28 -109.5q0 -70 -58.5 -128t-155.5 -94t-215.5 -55.5t-243.5 -19.5q-113 0 -201 19.5t-142.5 52t-89.5 78t-48.5 93t-13.5 101.5zM759 951l18 95q96 53 250.5 119.5t299.5 114.5l-21 -98q-299 -99 -547 -231z" />
<glyph unicode="&#x6ba;" horiz-adv-x="943" d="M69 123q0 54 14 119t37 113l83 -14q-29 -95 -29 -182q0 -120 76.5 -187t198.5 -67q222 0 297 152q18 30 18 63q0 150 -128 405l113 37q43 -85 77 -199t34 -224q0 -33 -10 -76t-23 -69q-53 -108 -157 -165t-238 -57q-164 0 -263.5 97t-99.5 254z" />
<glyph unicode="&#x6be;" horiz-adv-x="1021" d="M16 88q198 2 320 36q-100 98 -100 217q0 94 55 169.5t148 117.5l-62 49l60 97q19 -13 71.5 -49.5t100 -70.5t83.5 -62q122 -90 190.5 -179.5t68.5 -187.5q0 -104 -78.5 -171t-201.5 -67q-116 0 -222 57q-165 -87 -393 -91zM334 360q0 -113 122 -189q141 81 141 239 q0 70 -29.5 107t-65.5 37q-51 0 -109.5 -56t-58.5 -138zM565 124q61 -16 112 -16q88 0 133.5 29.5t45.5 84.5q0 116 -171 252q8 -35 8 -83q0 -151 -128 -267z" />
<glyph unicode="&#x6c0;" horiz-adv-x="650" d="M67 257q0 90 43 173.5t121 175.5q-22 17 -29 22l67 89q137 -99 234 -221q81 -110 81 -227q0 -68 -24.5 -123.5t-64 -89t-86 -51t-94.5 -17.5q-112 0 -180 79.5t-68 189.5zM121 828l9 69q32 17 67 17q-52 39 -52 91q0 58 43.5 91t105.5 33q86 0 126 -38l-24 -67 q-42 32 -105 32q-34 0 -54 -16t-20 -36q0 -35 35.5 -56t92.5 -21h97l-29 -74h-96q-135 0 -196 -25zM161 287q0 -73 48 -118t117 -45q78 0 121 48t43 103q0 65 -44.5 130t-138.5 142q-64 -64 -105 -133.5t-41 -126.5z" />
<glyph unicode="&#x6c1;" horiz-adv-x="650" d="M67 257q0 90 43 173.5t121 175.5q-22 17 -29 22l67 89q137 -99 234 -221q81 -110 81 -227q0 -68 -24.5 -123.5t-64 -89t-86 -51t-94.5 -17.5q-112 0 -180 79.5t-68 189.5zM161 287q0 -73 48 -118t117 -45q78 0 121 48t43 103q0 65 -44.5 130t-138.5 142 q-64 -64 -105 -133.5t-41 -126.5z" />
<glyph unicode="&#x6c2;" horiz-adv-x="650" d="M67 257q0 90 43 173.5t121 175.5q-22 17 -29 22l67 89q137 -99 234 -221q81 -110 81 -227q0 -68 -24.5 -123.5t-64 -89t-86 -51t-94.5 -17.5q-112 0 -180 79.5t-68 189.5zM121 828l9 69q32 17 67 17q-52 39 -52 91q0 58 43.5 91t105.5 33q86 0 126 -38l-24 -67 q-42 32 -105 32q-34 0 -54 -16t-20 -36q0 -35 35.5 -56t92.5 -21h97l-29 -74h-96q-135 0 -196 -25zM161 287q0 -73 48 -118t117 -45q78 0 121 48t43 103q0 65 -44.5 130t-138.5 142q-64 -64 -105 -133.5t-41 -126.5z" />
<glyph unicode="&#x6c3;" horiz-adv-x="650" d="M67 257q0 90 43 173.5t121 175.5q-22 17 -29 22l67 89q137 -99 234 -221q81 -110 81 -227q0 -68 -24.5 -123.5t-64 -89t-86 -51t-94.5 -17.5q-112 0 -180 79.5t-68 189.5zM111 917q0 35 21.5 56.5t53.5 21.5q33 0 53.5 -21.5t20.5 -56.5q0 -36 -20.5 -56.5t-53.5 -20.5 q-32 0 -53.5 21t-21.5 56zM161 287q0 -73 48 -118t117 -45q78 0 121 48t43 103q0 65 -44.5 130t-138.5 142q-64 -64 -105 -133.5t-41 -126.5zM310 917q0 35 20 56.5t52 21.5q34 0 54 -21.5t20 -56.5q0 -36 -20 -56.5t-54 -20.5q-32 0 -52 21t-20 56z" />
<glyph unicode="&#x6c5;" horiz-adv-x="738" d="M20 -274l21 87q75 -40 180 -40q161 0 266 148l-329 -1v74h372q16 32 33 98q-44 -7 -88 -7q-118 0 -198.5 65.5t-80.5 184.5q0 106 67.5 179t165.5 73q57 0 104 -32.5t76.5 -85.5t45 -118t15.5 -132q0 -118 -31 -212q-55 -180 -165.5 -267t-239.5 -87q-58 0 -117.5 18.5 t-96.5 54.5zM288 354q0 -40 18.5 -69t49.5 -44.5t65 -22.5t72 -7q47 0 82 7q-3 124 -52.5 192t-112.5 68q-62 0 -92 -38t-30 -86z" />
<glyph unicode="&#x6c6;" horiz-adv-x="734" d="M20 -252l18 87q75 -40 183 -40q124 0 217 83.5t125 213.5q-44 -7 -88 -7q-119 0 -199.5 65.5t-80.5 184.5q0 105 68.5 178.5t160.5 73.5q60 0 108 -32.5t76.5 -86t43 -115t14.5 -125.5q0 -115 -31 -208q-36 -119 -103 -199t-141 -113t-157 -33q-59 0 -118 18t-96 55z M186 1001l64 49q72 -80 130 -184q54 93 133 189l59 -46q-106 -137 -158 -242h-76q-45 104 -152 234zM285 354q0 -40 19 -69.5t50.5 -44.5t65.5 -22t72 -7q57 0 84 8q-2 125 -54.5 192t-116.5 67q-57 0 -88.5 -39t-31.5 -85z" />
<glyph unicode="&#x6c7;" horiz-adv-x="734" d="M20 -252l18 87q75 -40 183 -40q124 0 217 83.5t125 213.5q-44 -7 -88 -7q-119 0 -199.5 65.5t-80.5 184.5q0 105 68.5 178.5t160.5 73.5q60 0 108 -32.5t76.5 -86t43 -115t14.5 -125.5q0 -115 -31 -208q-36 -119 -103 -199t-141 -113t-157 -33q-59 0 -118 18t-96 55z M200 769v58q32 -9 78 -9q41 0 84 17t61 46q-72 -5 -119 28t-47 97q0 56 38.5 95t95.5 39q48 0 88.5 -40.5t41.5 -117.5q0 -107 -70 -170t-158 -63q-66 0 -93 20zM285 354q0 -40 19 -69.5t50.5 -44.5t65.5 -22t72 -7q57 0 84 8q-2 125 -54.5 192t-116.5 67q-57 0 -88.5 -39 t-31.5 -85zM317 1015q0 -33 34 -55.5t102 -17.5q8 55 -12.5 92t-64.5 37q-24 0 -41.5 -16t-17.5 -40z" />
<glyph unicode="&#x6c8;" horiz-adv-x="734" d="M20 -252l18 87q75 -40 183 -40q124 0 217 83.5t125 213.5q-44 -7 -88 -7q-119 0 -199.5 65.5t-80.5 184.5q0 105 68.5 178.5t160.5 73.5q60 0 108 -32.5t76.5 -86t43 -115t14.5 -125.5q0 -115 -31 -208q-36 -119 -103 -199t-141 -113t-157 -33q-59 0 -118 18t-96 55z M285 354q0 -40 19 -69.5t50.5 -44.5t65.5 -22t72 -7q57 0 84 8q-2 125 -54.5 192t-116.5 67q-57 0 -88.5 -39t-31.5 -85zM310 1122l100 7l13 -354l-88 -6z" />
<glyph unicode="&#x6c9;" horiz-adv-x="734" d="M20 -252l18 87q75 -40 183 -40q124 0 217 83.5t125 213.5q-44 -7 -88 -7q-119 0 -199.5 65.5t-80.5 184.5q0 105 68.5 178.5t160.5 73.5q60 0 108 -32.5t76.5 -86t43 -115t14.5 -125.5q0 -115 -31 -208q-36 -119 -103 -199t-141 -113t-157 -33q-59 0 -118 18t-96 55z M186 793q103 132 159 243h75q45 -104 152 -234l-64 -50q-69 77 -129 184q-54 -89 -135 -188zM285 354q0 -40 19 -69.5t50.5 -44.5t65.5 -22t72 -7q57 0 84 8q-2 125 -54.5 192t-116.5 67q-57 0 -88.5 -39t-31.5 -85z" />
<glyph unicode="&#x6cb;" horiz-adv-x="734" d="M20 -252l18 87q75 -40 183 -40q124 0 217 83.5t125 213.5q-44 -7 -88 -7q-119 0 -199.5 65.5t-80.5 184.5q0 105 68.5 178.5t160.5 73.5q60 0 108 -32.5t76.5 -86t43 -115t14.5 -125.5q0 -115 -31 -208q-36 -119 -103 -199t-141 -113t-157 -33q-59 0 -118 18t-96 55z M209 853q0 32 21 54t52 22t52 -22t21 -54q0 -36 -20.5 -57.5t-52.5 -21.5q-33 0 -53 21t-20 58zM285 354q0 -40 19 -69.5t50.5 -44.5t65.5 -22t72 -7q57 0 84 8q-2 125 -54.5 192t-116.5 67q-57 0 -88.5 -39t-31.5 -85zM309 1028q0 34 20 56t51 22q33 0 53 -22t20 -56 q0 -36 -19.5 -56.5t-53.5 -20.5q-32 0 -51.5 20t-19.5 57zM402 853q0 32 21 54t52 22q32 0 52 -22t20 -54q0 -36 -19.5 -57.5t-52.5 -21.5q-32 0 -52.5 21t-20.5 58z" />
<glyph unicode="&#x6cc;" horiz-adv-x="1045" d="M73 86q0 130 54 250l81 -10q-31 -105 -31 -190q0 -67 19 -119.5t49.5 -85.5t73 -54.5t85.5 -30t90 -8.5q206 0 312 109q50 55 50 92q0 23 -29 44t-119 49l-73 23q-90 28 -123.5 65.5t-33.5 105.5q0 55 25.5 118.5t78.5 118.5q49 49 111 78.5t122 29.5q135 0 168 -136 l-70 -80q-17 47 -51 74t-75 27q-88 0 -150 -67t-62 -131q0 -26 20.5 -44t83.5 -38l105 -33q88 -29 130.5 -64t42.5 -101q0 -108 -84 -201q-74 -81 -178.5 -121.5t-221.5 -40.5q-188 0 -294 99.5t-106 271.5z" />
<glyph unicode="&#x6d0;" horiz-adv-x="1045" d="M73 86q0 130 54 250l81 -10q-31 -105 -31 -190q0 -67 19 -119.5t49.5 -85.5t73 -54.5t85.5 -30t90 -8.5q206 0 312 109q50 55 50 92q0 23 -29 44t-119 49l-73 23q-90 28 -123.5 65.5t-33.5 105.5q0 55 25.5 118.5t78.5 118.5q49 49 111 78.5t122 29.5q135 0 168 -136 l-70 -80q-17 47 -51 74t-75 27q-88 0 -150 -67t-62 -131q0 -26 20.5 -44t83.5 -38l105 -33q88 -29 130.5 -64t42.5 -101q0 -108 -84 -201q-74 -81 -178.5 -121.5t-221.5 -40.5q-188 0 -294 99.5t-106 271.5zM456 -489q0 35 21.5 57t53.5 22q33 0 54 -22t21 -57t-22 -56 t-56 -21q-30 0 -51 21.5t-21 55.5zM456 -688q0 35 21.5 57t53.5 22q33 0 54 -22t21 -57q0 -34 -21 -55t-54 -21q-32 0 -53.5 21t-21.5 55z" />
<glyph unicode="&#x6d2;" horiz-adv-x="1607" d="M76 208q0 146 149 243q19 13 78 49.5t89 59.5q71 52 143 154q39 57 66 76t63 19q61 0 106.5 -72t61.5 -172l-86 -60q-40 168 -95 168q-21 0 -44 -32q-7 -10 -22 -33t-29.5 -42t-31.5 -38q-63 -72 -215 -152q-141 -77 -141 -149q0 -31 24 -50.5t85.5 -30t168.5 -10.5 q121 0 244.5 2.5t266.5 8.5t214 9.5t233 12t177 9.5l-41 -130q-643 -47 -1126 -47q-180 0 -259 53.5t-79 153.5z" />
<glyph unicode="&#x6d3;" horiz-adv-x="1607" d="M76 208q0 146 149 243q19 13 78 49.5t89 59.5q71 52 143 154q39 57 66 76t63 19q61 0 106.5 -72t61.5 -172l-86 -60q-40 168 -95 168q-21 0 -44 -32q-7 -10 -22 -33t-29.5 -42t-31.5 -38q-63 -72 -215 -152q-141 -77 -141 -149q0 -31 24 -50.5t85.5 -30t168.5 -10.5 q121 0 244.5 2.5t266.5 8.5t214 9.5t233 12t177 9.5l-41 -130q-643 -47 -1126 -47q-180 0 -259 53.5t-79 153.5zM205 854l9 69q33 18 67 18q-53 40 -53 90q0 58 43.5 91.5t105.5 33.5q86 0 126 -38l-23 -68q-43 33 -106 33q-34 0 -54 -16.5t-20 -36.5q0 -35 36 -55.5 t93 -20.5h96l-29 -75h-95q-135 0 -196 -25z" />
<glyph unicode="&#x6d4;" horiz-adv-x="610" d="M48 50l16 83h180q219 0 318 26l-28 -130q-55 -29 -195 -29q-214 0 -291 50z" />
<glyph unicode="&#x6d5;" horiz-adv-x="650" d="M67 257q0 90 43 173.5t121 175.5q-22 17 -29 22l67 89q137 -99 234 -221q81 -110 81 -227q0 -68 -24.5 -123.5t-64 -89t-86 -51t-94.5 -17.5q-112 0 -180 79.5t-68 189.5zM161 287q0 -73 48 -118t117 -45q78 0 121 48t43 103q0 65 -44.5 130t-138.5 142 q-64 -64 -105 -133.5t-41 -126.5z" />
<glyph unicode="&#x6f0;" horiz-adv-x="383" d="M70 451q0 57 34 92t89 35q52 0 86 -35.5t34 -91.5t-34 -90.5t-86 -34.5h-1q-54 0 -88 34t-34 91z" />
<glyph unicode="&#x6f1;" horiz-adv-x="416" d="M44 952l124 13q87 -182 142 -447t63 -518h-116q-23 553 -213 952z" />
<glyph unicode="&#x6f2;" horiz-adv-x="709" d="M44 952l123 11q6 -14 19 -47t24.5 -59t19.5 -36q51 -79 165 -79q72 0 118.5 48.5t49.5 161.5l95 8q2 -18 2 -38q0 -134 -72.5 -215.5t-182.5 -81.5q-83 0 -137 41q37 -123 68 -307.5t36 -358.5h-116q-19 543 -212 952z" />
<glyph unicode="&#x6f3;" horiz-adv-x="779" d="M44 952l123 13q22 -42 57 -140q18 -43 41.5 -60t57.5 -17q92 0 92 112q0 42 -8 92l85 6q9 -96 31.5 -131.5t57.5 -35.5q32 0 47.5 25.5t15.5 89.5q0 19 -5 46l84 8q7 -49 7 -90q0 -96 -39 -146.5t-94 -50.5q-67 0 -107 63q-16 -56 -52 -84.5t-81 -28.5q-56 0 -86 38 q38 -124 66 -299t35 -362h-115q-19 548 -213 952z" />
<glyph unicode="&#x6f4;" horiz-adv-x="781" d="M44 952l126 8q29 -49 63 -164q25 70 87.5 121t143.5 51q69 0 117.5 -26t72.5 -60l-43 -96q-33 33 -76 50.5t-76 17.5q-47 0 -84.5 -18t-57.5 -43.5t-30.5 -49t-10.5 -39.5q0 -41 52 -83t131 -42q71 0 125 23t109 74l44 -92q-93 -122 -267 -122q-37 0 -82 14t-76 42 q32 -110 57.5 -271t26.5 -247h-115q-9 205 -68 466t-169 486z" />
<glyph unicode="&#x6f5;" horiz-adv-x="778" d="M82 301q0 252 257 651l87 9q82 -119 135.5 -212t94 -212.5t40.5 -227.5q0 -133 -50.5 -221t-132.5 -88q-85 0 -122 102q-44 -102 -123 -102q-64 0 -107.5 44.5t-61 109.5t-17.5 147zM186 310q0 -88 24.5 -128t63.5 -40q35 0 56 36t25 144h84q0 -180 82 -180q34 0 54 42 t20 120q0 247 -218 518q-78 -120 -134.5 -264.5t-56.5 -247.5z" />
<glyph unicode="&#x6f6;" horiz-adv-x="744" d="M51 0q41 113 115 242t146 198q-86 32 -135 93t-50 147q-2 98 60 180q38 49 98 78.5t122 29.5q126 0 184 -67l-28 -108q-62 60 -162 60q-87 0 -130.5 -48t-43.5 -103q0 -38 17 -69t44 -49t55.5 -27.5t54.5 -9.5q15 0 45.5 11.5t59.5 26t82.5 41.5t88.5 43l35 -118 q-29 -13 -80 -35.5l-68 -30t-47.5 -22.5t-44 -23.5t-30.5 -20.5t-32 -25q-56 -51 -121 -160t-112 -234h-123z" />
<glyph unicode="&#x6f7;" horiz-adv-x="784" d="M32 952l138 8q73 -153 146.5 -398t97.5 -411h4q21 145 83 389.5t127 419.5l124 -8q-64 -149 -146 -437.5t-126 -514.5h-133q-47 234 -127.5 493t-187.5 459z" />
<glyph unicode="&#x6f8;" horiz-adv-x="784" d="M32 0q66 154 149.5 442.5t125.5 508.5l135 9q141 -637 310 -960h-136q-71 147 -144 387.5t-98 396.5h-4q-22 -143 -84 -374.5t-128 -409.5h-126z" />
<glyph unicode="&#x6f9;" horiz-adv-x="696" d="M61 696q0 113 75.5 192.5t173.5 79.5q199 0 241 -346q3 -30 12 -109t11.5 -103.5t10 -83.5t12.5 -87.5t13.5 -74.5t18 -84t21.5 -80h-118q-37 146 -73 452q-43 -10 -115 -10q-120 0 -201.5 67t-81.5 187zM161 709q0 -75 56.5 -111t152.5 -36q56 0 79 7q-9 110 -32.5 174 t-53 84.5t-70.5 20.5q-55 0 -93.5 -42.5t-38.5 -96.5z" />
<glyph unicode="&#x1e0c;" horiz-adv-x="974" d="M110 3v970q132 20 272 20q267 0 399 -123q139 -126 139 -354q0 -241 -142 -383t-436 -142q-119 0 -232 12zM238 101q37 -7 129 -7q203 0 311.5 109t108.5 309q1 179 -100 279.5t-299 100.5q-76 0 -150 -13v-778zM385 -193q0 32 21.5 54t52.5 22t51.5 -22t20.5 -54 q0 -30 -21 -52.5t-54 -22.5q-30 0 -50.5 22.5t-20.5 52.5z" />
<glyph unicode="&#x1e0d;" horiz-adv-x="825" d="M56 344q-1 172 91 276t226 104q76 0 132 -31t82 -77h3v423h127v-858q0 -85 6 -181h-114l-6 121h-5q-30 -61 -92.5 -99t-145.5 -38q-131 0 -217.5 100.5t-86.5 259.5zM186 350q0 -113 54.5 -188.5t154.5 -75.5q66 0 118.5 42t70.5 113q6 27 6 56v123q0 26 -6 55 q-15 63 -65.5 105t-120.5 42q-98 0 -155 -76.5t-57 -195.5zM320 -193q0 31 22 53.5t53 22.5t51.5 -22t20.5 -54q0 -30 -21 -52.5t-54 -22.5q-30 0 -51 22.5t-21 52.5z" />
<glyph unicode="&#x1e0e;" horiz-adv-x="974" d="M110 3v970q132 20 272 20q267 0 399 -123q139 -126 139 -354q0 -241 -142 -383t-436 -142q-119 0 -232 12zM238 101q37 -7 129 -7q203 0 311.5 109t108.5 309q1 179 -100 279.5t-299 100.5q-76 0 -150 -13v-778zM288 -151h342v-87h-342v87z" />
<glyph unicode="&#x1e0f;" horiz-adv-x="825" d="M56 344q-1 172 91 276t226 104q76 0 132 -31t82 -77h3v423h127v-858q0 -85 6 -181h-114l-6 121h-5q-30 -61 -92.5 -99t-145.5 -38q-131 0 -217.5 100.5t-86.5 259.5zM186 350q0 -113 54.5 -188.5t154.5 -75.5q66 0 118.5 42t70.5 113q6 27 6 56v123q0 26 -6 55 q-15 63 -65.5 105t-120.5 42q-98 0 -155 -76.5t-57 -195.5zM224 -151h342v-87h-342v87z" />
<glyph unicode="&#x1e10;" horiz-adv-x="974" d="M110 3v970q132 20 272 20q267 0 399 -123q139 -126 139 -354q0 -241 -142 -383q-105 -105 -303 -133l-43 -73q45 -10 74 -38.5t29 -71.5q0 -60 -43.5 -89t-106.5 -29q-62 0 -104 25l20 65q35 -19 81 -19q28 0 45.5 11t17.5 33q0 51 -114 63l61 116q-32 -2 -50 -2 q-119 0 -232 12zM238 101q37 -7 129 -7q203 0 311.5 109t108.5 309q1 179 -100 279.5t-299 100.5q-76 0 -150 -13v-778z" />
<glyph unicode="&#x1e11;" horiz-adv-x="825" d="M56 344q-1 172 91 276t226 104q76 0 132 -31t82 -77h3v423h127v-858q0 -85 6 -181h-114l-6 121h-5q-22 -47 -65.5 -81t-100.5 -47l-40 -66q43 -8 72.5 -36t29.5 -71q0 -62 -43 -91.5t-109 -29.5q-60 0 -101 25l21 65q32 -19 80 -19q63 0 63 46q-1 50 -114 61l57 107 q-127 5 -209.5 104.5t-82.5 255.5zM186 350q0 -113 54.5 -188.5t154.5 -75.5q66 0 118.5 42t70.5 113q6 27 6 56v123q0 26 -6 55q-15 63 -65.5 105t-120.5 42q-98 0 -155 -76.5t-57 -195.5z" />
<glyph unicode="&#x1e20;" horiz-adv-x="945" d="M53 487q0 224 145 366.5t389 142.5q146 0 245 -45l-30 -104q-97 42 -218 42q-181 0 -289 -106t-108 -290q0 -186 103 -292t278 -106q118 0 168 26v294h-199v103h325v-474q-140 -54 -303 -54q-232 0 -369 130q-65 62 -101 157.5t-36 209.5zM379 1080v89h366v-89h-366z" />
<glyph unicode="&#x1e21;" horiz-adv-x="817" d="M56 348q0 172 94.5 274t223.5 102q84 0 139 -35.5t82 -87.5h3l6 107h113q-6 -102 -6 -195v-411q0 -234 -101 -323q-92 -85 -257 -85q-146 0 -237 57l32 100q94 -57 209 -57q105 0 166.5 60.5t61.5 187.5v79h-3q-30 -52 -88.5 -85t-136.5 -33q-132 0 -216.5 98.5 t-84.5 246.5zM186 355q0 -110 54.5 -183t154.5 -73q60 0 108.5 36.5t69.5 97.5q11 35 11 68v128q0 22 -8 58q-18 60 -65.5 98t-115.5 38q-92 0 -150.5 -73.5t-58.5 -194.5zM225 859v89h359v-89h-359z" />
<glyph unicode="&#x1e24;" horiz-adv-x="953" d="M110 0v986h128v-414h477v414h128v-986h-128v462h-477v-462h-128zM402 -193q0 31 22 53.5t53 22.5t51.5 -22t20.5 -54q0 -30 -20.5 -52.5t-53.5 -22.5q-30 0 -51.5 22.5t-21.5 52.5z" />
<glyph unicode="&#x1e25;" horiz-adv-x="811" d="M107 0v1039h127v-442h3q34 57 94 91q62 36 130 36q32 0 63 -7.5t65.5 -29t60 -54t42 -87.5t16.5 -126v-420h-127v407q0 95 -39.5 152.5t-124.5 57.5q-61 0 -108 -37t-65 -91q-10 -27 -10 -62v-427h-127zM338 -193q0 31 22 53.5t53 22.5q30 0 50.5 -22t20.5 -54 q0 -30 -20.5 -52.5t-53.5 -22.5q-30 0 -51 22.5t-21 52.5z" />
<glyph unicode="&#x1e28;" horiz-adv-x="953" d="M25 -276l20 65q35 -19 81 -19q61 0 61 44q0 51 -112 63l65 123h-30v986h128v-414h477v414h128v-986h-128v462h-477v-462h-19l-43 -73q45 -10 74 -38.5t29 -71.5q0 -59 -44 -88.5t-108 -29.5q-60 0 -102 25z" />
<glyph unicode="&#x1e29;" horiz-adv-x="811" d="M18 -276l21 65q32 -19 79 -19q29 0 46.5 11t16.5 35q0 49 -114 61l68 123h-28v1039h127v-442h3q34 57 94 91q62 36 130 36q32 0 63 -7.5t65.5 -29t60 -54t42 -87.5t16.5 -126v-420h-127v407q0 95 -39.5 152.5t-124.5 57.5q-61 0 -108 -37t-65 -91q-10 -27 -10 -62v-427 h-23l-43 -73q44 -8 73.5 -36t29.5 -71q0 -62 -43.5 -91.5t-109.5 -29.5q-59 0 -100 25z" />
<glyph unicode="&#x1e2a;" horiz-adv-x="953" d="M110 0v986h128v-414h477v414h128v-986h-128v462h-477v-462h-128zM295 -120h77q7 -45 34.5 -73t70.5 -28q49 0 75.5 29.5t29.5 71.5h76q0 -83 -49.5 -133t-131.5 -50q-90 0 -136 53.5t-46 129.5z" />
</font>
</defs>
</svg>
