<?xml version="1.0" standalone="no"?>
<!DOCTYPE svg PUBLIC "-//W3C//DTD SVG 1.1//EN" "http://www.w3.org/Graphics/SVG/1.1/DTD/svg11.dtd" >
<svg xmlns="http://www.w3.org/2000/svg" xmlns:xlink="http://www.w3.org/1999/xlink" version="1.1">
<metadata></metadata>
<defs>
<font id="myriad_arabicitalic" horiz-adv-x="0" >
<font-face units-per-em="2048" ascent="1390" descent="-658" />
<missing-glyph horiz-adv-x="392" />
<glyph unicode="&#x622;" horiz-adv-x="384" arabic-form="final" d="M-171 1181q-10 58 12.5 94t78.5 36q36 0 98.5 -19t91.5 -19q48 0 92 48l26 -63q-12 -31 -42.5 -49t-72.5 -18q-34 0 -93.5 18t-82.5 18q-42 0 -38 -68zM18 1053l100 8l175 -723q29 -115 81.5 -164t131.5 -51q39 0 60.5 -17.5t21.5 -48.5q0 -21 -14 -39t-42 -18 q-138 0 -215.5 67.5t-116.5 230.5z" />
<glyph unicode="&#x623;" horiz-adv-x="384" arabic-form="final" d="M-117 1346q0 49 39.5 80t93.5 31q78 0 123 -39l-7 -66q-50 33 -116 33q-31 0 -46 -13.5t-15 -32.5q0 -35 42 -61t104 -26h94l-14 -71h-93q-134 0 -192 -25l-3 67q21 16 63 16q-73 40 -73 107zM18 1053l100 8l175 -723q29 -115 81.5 -164t131.5 -51q39 0 60.5 -17.5 t21.5 -48.5q0 -21 -14 -39t-42 -18q-138 0 -215.5 67.5t-116.5 230.5z" />
<glyph unicode="&#x624;" horiz-adv-x="770" arabic-form="final" d="M221 872q0 49 39 80t93 31q75 0 124 -39l-9 -66q-50 33 -114 33q-31 0 -47 -14t-16 -32q0 -35 42.5 -61t105.5 -26h93l-14 -71h-92q-134 0 -192 -25l-4 67q23 16 63 16q-72 41 -72 107zM234 -336l3 87q90 -44 196 -44q116 0 188.5 82.5t82.5 210.5h-53q-192 0 -284.5 80 t-92.5 201q0 91 62 156t151 65q46 0 93.5 -22t92 -65.5t77 -119.5t41.5 -172h101q39 0 60.5 -17.5t21.5 -48.5q0 -21 -15 -39t-45 -18h-120q-11 -180 -106.5 -292.5t-242.5 -112.5q-124 0 -211 69zM364 281q0 -75 70.5 -116.5t216.5 -41.5h48q-17 125 -79 200t-142 75 q-49 0 -81.5 -34t-32.5 -83z" />
<glyph unicode="&#x625;" horiz-adv-x="384" arabic-form="final" d="M18 1053l100 8l175 -723q29 -115 81.5 -164t131.5 -51q39 0 60.5 -17.5t21.5 -48.5q0 -21 -14 -39t-42 -18q-138 0 -215.5 67.5t-116.5 230.5zM300 -214q0 49 39.5 79.5t93.5 30.5q77 0 123 -38l-7 -67q-54 33 -116 33q-31 0 -46 -13.5t-15 -32.5q0 -35 42 -61t104 -26 h93l-13 -71h-93q-134 0 -192 -25l-3 67q21 16 62 18q-72 39 -72 106z" />
<glyph unicode="&#x626;" horiz-adv-x="471" arabic-form="initial" d="M-56 922q0 49 39 80t93 31q74 0 124 -40l-8 -66q-52 34 -114 34q-31 0 -47 -14t-16 -33q0 -35 42 -60.5t105 -25.5h94l-15 -72h-92q-133 0 -191 -25l-5 68q23 16 63 16q-72 41 -72 107zM63 66q0 23 13.5 40t44.5 17h19q176 0 224 34q-25 160 -186 373l91 41 q71 -95 132 -224.5t61 -232.5q0 -29 -3 -42q-66 -72 -298 -72h-15q-45 0 -64 19.5t-19 46.5z" />
<glyph unicode="&#x626;" horiz-adv-x="457" arabic-form="medial" d="M64 66q0 21 15 39t47 18q55 0 90.5 20t48.5 52.5t17.5 75.5t-1.5 89l80 6q4 -40 9 -69q8 -36 21 -64.5t36.5 -54t61.5 -40t89 -15.5q40 0 61 -17.5t21 -48.5q0 -21 -15 -39t-45 -18q-182 0 -255 148q-15 -72 -68 -110t-131 -38q-39 0 -60.5 17.5t-21.5 48.5zM95 767 q0 49 39 80t93 31q74 0 124 -40l-9 -66q-52 34 -114 34q-31 0 -47 -14t-16 -33q0 -35 42.5 -60.5t105.5 -25.5h94l-15 -72h-92q-134 0 -192 -25l-4 68q23 16 63 16q-72 41 -72 107z" />
<glyph unicode="&#x626;" horiz-adv-x="974" arabic-form="final" d="M208 105q0 76 17 142l79 -11q-6 -38 -6 -91q0 -94 24.5 -168t64 -120.5t94 -77t110 -42.5t116.5 -12q233 0 329 124q27 36 27 71q0 19 -5.5 31t-23.5 24.5t-59 18.5t-105 6h-17l25 123h218q39 0 60.5 -17.5t21.5 -48.5q0 -21 -15 -39t-45 -18h-12q48 -27 48 -92 q0 -52 -28 -101q-47 -90 -157.5 -145.5t-256.5 -55.5q-129 0 -227.5 40t-158 109.5t-89 158t-29.5 191.5zM355 756q0 49 39 80t93 31q78 0 123 -39l-7 -66q-52 34 -114 34q-31 0 -47 -14t-16 -33q0 -35 42 -60.5t105 -25.5h94l-15 -72h-92q-133 0 -191 -25l-5 67 q24 17 63 17q-72 41 -72 106z" />
<glyph unicode="&#x627;" horiz-adv-x="384" arabic-form="final" d="M18 1053l100 8l175 -723q29 -115 81.5 -164t131.5 -51q39 0 60.5 -17.5t21.5 -48.5q0 -21 -14 -39t-42 -18q-138 0 -215.5 67.5t-116.5 230.5z" />
<glyph unicode="&#x628;" horiz-adv-x="418" arabic-form="initial" d="M63 66q0 23 13.5 40t44.5 17h19q176 0 224 34q-25 160 -186 373l91 41q71 -95 132 -224.5t61 -232.5q0 -29 -3 -42q-66 -72 -298 -72h-15q-45 0 -64 19.5t-19 46.5zM315 -276q0 28 17.5 46.5t44.5 18.5q39 0 63 -25.5t24 -63.5q0 -27 -18.5 -45.5t-46.5 -18.5 q-37 0 -60.5 25t-23.5 63z" />
<glyph unicode="&#x628;" horiz-adv-x="457" arabic-form="medial" d="M64 66q0 21 15 39t47 18q55 0 90.5 20t48.5 52.5t17.5 75.5t-1.5 89l80 6q4 -40 9 -69q8 -36 21 -64.5t36.5 -54t61.5 -40t89 -15.5q40 0 61 -17.5t21 -48.5q0 -21 -15 -39t-45 -18q-182 0 -255 148q-15 -72 -68 -110t-131 -38q-39 0 -60.5 17.5t-21.5 48.5zM361 -276 q0 28 17.5 46.5t45.5 18.5q39 0 63 -25.5t24 -63.5q0 -27 -18.5 -45.5t-46.5 -18.5q-37 0 -61 25t-24 63z" />
<glyph unicode="&#x628;" horiz-adv-x="1341" arabic-form="final" d="M138 446q0 55 8 84l79 -12q-1 -12 -1 -40q0 -102 36.5 -177.5t102.5 -120.5t152 -66.5t193 -21.5q173 0 297 34.5t180 76.5q-25 50 -25 125q0 17 2 41l80 8q0 -37 7 -83q31 -163 214 -171q39 0 60.5 -17.5t21.5 -48.5q0 -21 -14.5 -39t-42.5 -18q-166 0 -253 111 q-83 -64 -221.5 -103.5t-298.5 -39.5q-276 0 -426.5 119.5t-150.5 358.5zM797 -276q0 28 17.5 46.5t45.5 18.5q39 0 62.5 -25.5t23.5 -63.5q0 -27 -18 -45.5t-46 -18.5q-37 0 -61 25t-24 63z" />
<glyph unicode="&#x629;" horiz-adv-x="696" arabic-form="final" d="M157 307q0 111 100 206q54 57 189 126l-31 119l91 9l114 -460q26 -105 76.5 -144.5t121.5 -39.5q39 0 60.5 -17.5t21.5 -48.5q0 -21 -14 -39t-43 -18q-174 0 -253 130q-31 -20 -80.5 -31t-89.5 -11q-115 0 -189 60.5t-74 158.5zM247 307q0 -50 44.5 -76t118.5 -26t134 26 q-1 5 -4.5 18t-5.5 20l-63 265q-118 -50 -171 -111t-53 -116zM250 992q0 28 17 45.5t43 17.5q39 0 62 -24.5t23 -62.5q0 -26 -17.5 -43.5t-45.5 -17.5q-36 -1 -59 23t-23 62zM437 992q0 28 17.5 45.5t44.5 17.5q38 0 60.5 -24.5t22.5 -62.5q0 -26 -17 -43.5t-44 -17.5 q-36 -1 -60 23.5t-24 61.5z" />
<glyph unicode="&#x62a;" horiz-adv-x="418" arabic-form="initial" d="M-61 831q0 28 17 46t43 18q39 0 61.5 -24.5t22.5 -61.5q0 -27 -17.5 -45t-45.5 -18q-36 0 -58.5 23.5t-22.5 61.5zM63 66q0 23 13.5 40t44.5 17h19q176 0 224 34q-25 160 -186 373l91 41q71 -95 132 -224.5t61 -232.5q0 -29 -3 -42q-66 -72 -298 -72h-15q-45 0 -64 19.5 t-19 46.5zM126 831q0 28 17.5 46t43.5 18q38 0 61 -24.5t23 -61.5q0 -27 -17.5 -45t-44.5 -18q-36 0 -59.5 24t-23.5 61z" />
<glyph unicode="&#x62a;" horiz-adv-x="457" arabic-form="medial" d="M64 66q0 21 15 39t47 18q55 0 90.5 20t48.5 52.5t17.5 75.5t-1.5 89l80 6q4 -40 9 -69q8 -36 21 -64.5t36.5 -54t61.5 -40t89 -15.5q40 0 61 -17.5t21 -48.5q0 -21 -15 -39t-45 -18q-182 0 -255 148q-15 -72 -68 -110t-131 -38q-39 0 -60.5 17.5t-21.5 48.5zM80 676 q0 28 17 46t43 18q39 0 61.5 -24.5t22.5 -61.5q0 -27 -17 -45t-45 -18q-36 0 -59 24t-23 61zM268 676q0 28 17.5 46t43.5 18q38 0 61 -24.5t23 -61.5q0 -27 -17.5 -45t-44.5 -18q-36 0 -59.5 24t-23.5 61z" />
<glyph unicode="&#x62a;" horiz-adv-x="1341" arabic-form="final" d="M138 446q0 55 8 84l79 -12q-1 -12 -1 -40q0 -102 36.5 -177.5t102.5 -120.5t152 -66.5t193 -21.5q173 0 297 34.5t180 76.5q-25 50 -25 125q0 17 2 41l80 8q0 -37 7 -83q31 -163 214 -171q39 0 60.5 -17.5t21.5 -48.5q0 -21 -14.5 -39t-42.5 -18q-166 0 -253 111 q-83 -64 -221.5 -103.5t-298.5 -39.5q-276 0 -426.5 119.5t-150.5 358.5zM471 702q0 28 17 46.5t43 18.5q39 0 62 -25t23 -62q0 -27 -17.5 -45t-45.5 -18q-36 0 -59 24t-23 61zM660 702q0 28 17 46.5t43 18.5q39 0 62 -25t23 -62q0 -27 -17.5 -45t-45.5 -18q-36 0 -59 24 t-23 61z" />
<glyph unicode="&#x62b;" horiz-adv-x="418" arabic-form="initial" d="M-61 831q0 28 17 46t43 18q39 0 61.5 -24.5t22.5 -61.5q0 -27 -17.5 -45t-45.5 -18q-36 0 -58.5 23.5t-22.5 61.5zM0 1005q0 28 17 45.5t43 17.5q39 0 62 -24t23 -62q0 -26 -17.5 -44t-45.5 -18q-36 0 -59 24t-23 61zM63 66q0 23 13.5 40t44.5 17h19q176 0 224 34 q-25 160 -186 373l91 41q71 -95 132 -224.5t61 -232.5q0 -29 -3 -42q-66 -72 -298 -72h-15q-45 0 -64 19.5t-19 46.5zM126 831q0 28 17.5 46t43.5 18q38 0 61 -24.5t23 -61.5q0 -27 -17.5 -45t-44.5 -18q-36 0 -59.5 24t-23.5 61z" />
<glyph unicode="&#x62b;" horiz-adv-x="457" arabic-form="medial" d="M64 66q0 21 15 39t47 18q55 0 90.5 20t48.5 52.5t17.5 75.5t-1.5 89l80 6q4 -40 9 -69q8 -36 21 -64.5t36.5 -54t61.5 -40t89 -15.5q40 0 61 -17.5t21 -48.5q0 -21 -15 -39t-45 -18q-182 0 -255 148q-15 -72 -68 -110t-131 -38q-39 0 -60.5 17.5t-21.5 48.5zM80 676 q0 28 17 46t43 18q39 0 61.5 -24.5t22.5 -61.5q0 -27 -17 -45t-45 -18q-36 0 -59 24t-23 61zM142 850q0 28 17 45.5t43 17.5q39 0 62 -24t23 -62q0 -26 -17.5 -44t-45.5 -18q-36 0 -59 24t-23 61zM268 676q0 28 17.5 46t43.5 18q38 0 61 -24.5t23 -61.5q0 -27 -17.5 -45 t-44.5 -18q-36 0 -59.5 24t-23.5 61z" />
<glyph unicode="&#x62b;" horiz-adv-x="1341" arabic-form="final" d="M138 446q0 55 8 84l79 -12q-1 -12 -1 -40q0 -102 36.5 -177.5t102.5 -120.5t152 -66.5t193 -21.5q173 0 297 34.5t180 76.5q-25 50 -25 125q0 17 2 41l80 8q0 -37 7 -83q31 -163 214 -171q39 0 60.5 -17.5t21.5 -48.5q0 -21 -14.5 -39t-42.5 -18q-166 0 -253 111 q-83 -64 -221.5 -103.5t-298.5 -39.5q-276 0 -426.5 119.5t-150.5 358.5zM471 702q0 28 17 46.5t43 18.5q39 0 62 -25t23 -62q0 -27 -17.5 -45t-45.5 -18q-36 0 -59 24t-23 61zM532 876q0 28 18 45.5t44 17.5q39 0 61 -24t22 -62q0 -26 -17 -44t-44 -18q-36 0 -60 24t-24 61 zM660 702q0 28 17 46.5t43 18.5q39 0 62 -25t23 -62q0 -27 -17.5 -45t-45.5 -18q-36 0 -59 24t-23 61z" />
<glyph unicode="&#x62c;" horiz-adv-x="949" arabic-form="initial" d="M64 64q0 22 16 40.5t49 18.5h11q300 0 477 96q132 66 145 71q-30 10 -129 50.5t-172 62t-132 21.5q-120 0 -191 -35l14 111q61 34 161 34q27 0 54.5 -2.5t60.5 -11t52.5 -13.5t60.5 -20.5t52.5 -19.5t60.5 -24.5t55 -22.5q138 -57 223 -57h66l-22 -111h-24 q-44 0 -99.5 -23.5t-145.5 -79.5q-149 -88 -266 -118.5t-279 -30.5h-19q-38 0 -58.5 17t-20.5 47zM584 -219q0 28 17.5 46.5t43.5 18.5q40 0 63 -25t23 -64q0 -27 -17 -45.5t-45 -18.5q-37 0 -61 25t-24 63z" />
<glyph unicode="&#x62c;" horiz-adv-x="994" arabic-form="medial" d="M64 64q0 23 15.5 41t47.5 18h12q284 0 451 88q45 23 93 50.5t66 35.5q-38 11 -121.5 46.5t-159.5 58t-149 22.5q-117 0 -183 -36l15 112q59 34 152 34q88 0 175.5 -25.5t207.5 -76.5q133 -59 240 -59h61l-24 -110h-41l-30 -3q34 -137 223 -137q39 0 60.5 -17.5 t21.5 -48.5q0 -21 -14 -39t-42 -18q-281 2 -325 233q-29 -15 -104 -65q-142 -97 -262.5 -132.5t-287.5 -35.5h-19q-38 0 -58.5 17t-20.5 47zM584 -219q0 28 17.5 46.5t43.5 18.5q40 0 63 -25t23 -64q0 -27 -17 -45.5t-45 -18.5q-37 0 -61 25t-24 63z" />
<glyph unicode="&#x62c;" horiz-adv-x="978" arabic-form="final" d="M138 408l16 116q68 32 162 32q71 0 137.5 -15t166 -51t114.5 -41q83 -32 147 -32h79l-15 -119q-75 3 -88 3q48 -183 245 -178q39 0 60 -17.5t21 -48.5q0 -21 -14.5 -39t-42.5 -18q-310 0 -357 295q-20 -2 -93 -16q-142 -38 -231.5 -126.5t-89.5 -216.5q0 -97 44 -172.5 t120.5 -122t173.5 -70.5t208 -24q138 0 225 21l-26 -103q-64 -27 -224 -27q-180 0 -324 57t-229.5 170.5t-85.5 265.5q0 75 28 141t73.5 113.5t104 84.5t116.5 59t115 32q-14 4 -82 28t-133.5 40t-123.5 16q-128 0 -197 -37zM630 -66q0 28 18.5 47t44.5 19q39 0 63 -25 t24 -64q0 -27 -18.5 -45t-46.5 -18q-37 -1 -61 23.5t-24 62.5z" />
<glyph unicode="&#x62d;" horiz-adv-x="949" arabic-form="initial" d="M64 64q0 22 16 40.5t49 18.5h11q300 0 477 96q132 66 145 71q-30 10 -129 50.5t-172 62t-132 21.5q-120 0 -191 -35l14 111q61 34 161 34q27 0 54.5 -2.5t60.5 -11t52.5 -13.5t60.5 -20.5t52.5 -19.5t60.5 -24.5t55 -22.5q138 -57 223 -57h66l-22 -111h-24 q-44 0 -99.5 -23.5t-145.5 -79.5q-149 -88 -266 -118.5t-279 -30.5h-19q-38 0 -58.5 17t-20.5 47z" />
<glyph unicode="&#x62d;" horiz-adv-x="994" arabic-form="medial" d="M64 64q0 23 15.5 41t47.5 18h12q284 0 451 88q45 23 93 50.5t66 35.5q-38 11 -121.5 46.5t-159.5 58t-149 22.5q-117 0 -183 -36l15 112q59 34 152 34q88 0 175.5 -25.5t207.5 -76.5q133 -59 240 -59h61l-24 -110h-41l-30 -3q34 -137 223 -137q39 0 60.5 -17.5 t21.5 -48.5q0 -21 -14 -39t-42 -18q-281 2 -325 233q-29 -15 -104 -65q-142 -97 -262.5 -132.5t-287.5 -35.5h-19q-38 0 -58.5 17t-20.5 47z" />
<glyph unicode="&#x62d;" horiz-adv-x="978" arabic-form="final" d="M138 408l16 116q68 32 162 32q71 0 137.5 -15t166 -51t114.5 -41q83 -32 147 -32h79l-15 -119q-75 3 -88 3q48 -183 245 -178q39 0 60 -17.5t21 -48.5q0 -21 -14.5 -39t-42.5 -18q-310 0 -357 295q-20 -2 -93 -16q-142 -38 -231.5 -126.5t-89.5 -216.5q0 -97 44 -172.5 t120.5 -122t173.5 -70.5t208 -24q138 0 225 21l-26 -103q-64 -27 -224 -27q-180 0 -324 57t-229.5 170.5t-85.5 265.5q0 75 28 141t73.5 113.5t104 84.5t116.5 59t115 32q-14 4 -82 28t-133.5 40t-123.5 16q-128 0 -197 -37z" />
<glyph unicode="&#x62e;" horiz-adv-x="949" arabic-form="initial" d="M64 64q0 22 16 40.5t49 18.5h11q300 0 477 96q132 66 145 71q-30 10 -129 50.5t-172 62t-132 21.5q-120 0 -191 -35l14 111q61 34 161 34q27 0 54.5 -2.5t60.5 -11t52.5 -13.5t60.5 -20.5t52.5 -19.5t60.5 -24.5t55 -22.5q138 -57 223 -57h66l-22 -111h-24 q-44 0 -99.5 -23.5t-145.5 -79.5q-149 -88 -266 -118.5t-279 -30.5h-19q-38 0 -58.5 17t-20.5 47zM426 810q0 28 17.5 46.5t43.5 18.5q40 0 63 -25t23 -64q0 -26 -18 -44.5t-46 -18.5q-36 -1 -59.5 23.5t-23.5 63.5z" />
<glyph unicode="&#x62e;" horiz-adv-x="994" arabic-form="medial" d="M64 64q0 23 15.5 41t47.5 18h12q284 0 451 88q45 23 93 50.5t66 35.5q-38 11 -121.5 46.5t-159.5 58t-149 22.5q-117 0 -183 -36l15 112q59 34 152 34q88 0 175.5 -25.5t207.5 -76.5q133 -59 240 -59h61l-24 -110h-41l-30 -3q34 -137 223 -137q39 0 60.5 -17.5 t21.5 -48.5q0 -21 -14 -39t-42 -18q-281 2 -325 233q-29 -15 -104 -65q-142 -97 -262.5 -132.5t-287.5 -35.5h-19q-38 0 -58.5 17t-20.5 47zM426 810q0 28 17.5 46.5t43.5 18.5q40 0 63 -25t23 -64q0 -26 -18 -44.5t-46 -18.5q-36 -1 -59.5 23.5t-23.5 63.5z" />
<glyph unicode="&#x62e;" horiz-adv-x="978" arabic-form="final" d="M138 408l16 116q68 32 162 32q71 0 137.5 -15t166 -51t114.5 -41q83 -32 147 -32h79l-15 -119q-75 3 -88 3q48 -183 245 -178q39 0 60 -17.5t21 -48.5q0 -21 -14.5 -39t-42.5 -18q-310 0 -357 295q-20 -2 -93 -16q-142 -38 -231.5 -126.5t-89.5 -216.5q0 -97 44 -172.5 t120.5 -122t173.5 -70.5t208 -24q138 0 225 21l-26 -103q-64 -27 -224 -27q-180 0 -324 57t-229.5 170.5t-85.5 265.5q0 75 28 141t73.5 113.5t104 84.5t116.5 59t115 32q-14 4 -82 28t-133.5 40t-123.5 16q-128 0 -197 -37zM430 831q0 28 18 46t44 18q40 0 63.5 -25 t23.5 -64q0 -26 -18 -44.5t-46 -18.5q-38 -1 -61.5 23.5t-23.5 64.5z" />
<glyph unicode="&#x62f;" horiz-adv-x="844" arabic-form="final" d="M176 231l81 15q26 -69 71.5 -95.5t126.5 -26.5q120 0 177 63q36 40 25 68q-73 176 -208 444l100 37q28 -62 98 -216.5t115 -247.5q43 -87 88 -118t115 -31q39 0 60.5 -17.5t21.5 -48.5q0 -21 -14 -39t-43 -18q-101 0 -161 36t-114 118q-17 -68 -87 -111t-170 -43 q-124 0 -189 50.5t-93 180.5z" />
<glyph unicode="&#x630;" horiz-adv-x="844" arabic-form="final" d="M176 231l81 15q26 -69 71.5 -95.5t126.5 -26.5q120 0 177 63q36 40 25 68q-73 176 -208 444l100 37q28 -62 98 -216.5t115 -247.5q43 -87 88 -118t115 -31q39 0 60.5 -17.5t21.5 -48.5q0 -21 -14 -39t-43 -18q-101 0 -161 36t-114 118q-17 -68 -87 -111t-170 -43 q-124 0 -189 50.5t-93 180.5zM373 974q0 28 17.5 46.5t43.5 18.5q40 0 64 -25.5t24 -64.5q0 -26 -18 -44.5t-46 -18.5q-38 -1 -61.5 23.5t-23.5 64.5z" />
<glyph unicode="&#x631;" horiz-adv-x="687" arabic-form="final" d="M221 -196q92 -51 206 -51q78 0 137.5 52.5t73.5 131.5q3 10 3 38q0 54 -66.5 167.5t-142.5 212.5l89 53q71 -94 124 -193q36 -50 75 -71t89 -21q39 0 60.5 -17.5t21.5 -48.5q0 -21 -14 -39t-43 -18q-68 0 -111 26q8 -25 8 -64q-1 -148 -87.5 -237t-198.5 -89 q-139 0 -220 77z" />
<glyph unicode="&#x632;" horiz-adv-x="687" arabic-form="final" d="M221 -196q92 -51 206 -51q78 0 137.5 52.5t73.5 131.5q3 10 3 38q0 54 -66.5 167.5t-142.5 212.5l89 53q71 -94 124 -193q36 -50 75 -71t89 -21q39 0 60.5 -17.5t21.5 -48.5q0 -21 -14 -39t-43 -18q-68 0 -111 26q8 -25 8 -64q-1 -148 -87.5 -237t-198.5 -89 q-139 0 -220 77zM301 666q0 28 18 46t44 18q40 0 63 -25t23 -64q0 -26 -18 -44.5t-46 -18.5q-36 -1 -60 24t-24 64z" />
<glyph unicode="&#x633;" horiz-adv-x="975" arabic-form="initial" d="M64 64q0 22 15 40.5t44 18.5q102 0 137 50.5t34 157.5l86 4v-56q8 -162 107 -162q62 0 91 45.5t23 150.5l85 4q-1 -15 -1 -29q0 -170 122 -170q45 0 72 28t27 73q0 80 -85 196l95 31q82 -122 82 -244q0 -89 -52 -145.5t-130 -56.5q-65 0 -102.5 26t-63.5 76 q-41 -102 -161 -102q-104 0 -154 107q-19 -49 -70 -78t-122 -29q-38 0 -58.5 17t-20.5 47z" />
<glyph unicode="&#x633;" horiz-adv-x="1062" arabic-form="medial" d="M64 64q0 22 16 40.5t49 18.5q100 0 134 52t31 156l86 4q0 -6 2 -67q3 -62 27.5 -106.5t80.5 -44.5q129 0 110 196l83 4q2 -21 3 -38q5 -84 32 -122.5t78 -38.5q30 0 50 19t29 44t12 64.5t2 64.5t-3 60l81 7q4 -50 7 -65q13 -90 60 -139t149 -50q39 0 60.5 -17.5 t21.5 -48.5q0 -21 -14.5 -39t-42.5 -18q-191 0 -259 132q-14 -64 -54 -98t-96 -34q-60 0 -92 27.5t-57 76.5q-16 -45 -56.5 -74.5t-97.5 -29.5q-116 0 -160 108q-15 -46 -69 -77t-124 -31q-38 0 -58.5 17t-20.5 47z" />
<glyph unicode="&#x633;" horiz-adv-x="1579" arabic-form="final" d="M208 133q0 98 19 157l79 -14q-6 -37 -8 -98q0 -94 26 -167t70 -116.5t98 -65.5t114 -22q111 0 177 50.5t76 135.5q1 11 -2 46q-24 120 -153 319l90 37q60 -90 117 -221q25 -57 97 -57q127 0 110 196l83 4q0 -20 1 -38q9 -84 35.5 -122.5t76.5 -38.5q30 0 50 19t28.5 43.5 t11.5 64.5t2.5 64.5t-3.5 60.5l82 7q0 -21 6 -65q13 -90 60 -139t149 -50q39 0 60.5 -17.5t21.5 -48.5q0 -21 -14 -39t-42 -18q-195 0 -259 132q-15 -65 -54.5 -98.5t-95.5 -33.5q-60 0 -91.5 27.5t-56.5 76.5q-16 -46 -55 -75t-97 -29q-45 0 -72 22q5 -20 1 -59 q-15 -128 -110.5 -203t-228.5 -75q-184 0 -291.5 126t-107.5 322z" />
<glyph unicode="&#x634;" horiz-adv-x="975" arabic-form="initial" d="M64 64q0 22 15 40.5t44 18.5q102 0 137 50.5t34 157.5l86 4v-56q8 -162 107 -162q62 0 91 45.5t23 150.5l85 4q-1 -15 -1 -29q0 -170 122 -170q45 0 72 28t27 73q0 80 -85 196l95 31q82 -122 82 -244q0 -89 -52 -145.5t-130 -56.5q-65 0 -102.5 26t-63.5 76 q-41 -102 -161 -102q-104 0 -154 107q-19 -49 -70 -78t-122 -29q-38 0 -58.5 17t-20.5 47zM386 652q0 28 17 46.5t43 18.5q39 0 62 -25t23 -62q0 -27 -17.5 -44.5t-45.5 -17.5q-36 0 -59 23.5t-23 60.5zM448 827q0 27 17 44.5t44 17.5q38 0 60.5 -24t22.5 -62 q0 -26 -17 -43.5t-45 -17.5q-36 0 -59 24t-23 61zM573 652q0 28 18 46.5t44 18.5q37 0 60 -25t23 -62q0 -27 -17 -44.5t-44 -17.5q-36 0 -60 23.5t-24 60.5z" />
<glyph unicode="&#x634;" horiz-adv-x="1062" arabic-form="medial" d="M64 64q0 22 16 40.5t49 18.5q100 0 134 52t31 156l86 4q0 -6 2 -67q3 -62 27.5 -106.5t80.5 -44.5q129 0 110 196l83 4q2 -21 3 -38q5 -84 32 -122.5t78 -38.5q30 0 50 19t29 44t12 64.5t2 64.5t-3 60l81 7q4 -50 7 -65q13 -90 60 -139t149 -50q39 0 60.5 -17.5 t21.5 -48.5q0 -21 -14.5 -39t-42.5 -18q-191 0 -259 132q-14 -64 -54 -98t-96 -34q-60 0 -92 27.5t-57 76.5q-16 -45 -56.5 -74.5t-97.5 -29.5q-116 0 -160 108q-15 -46 -69 -77t-124 -31q-38 0 -58.5 17t-20.5 47zM386 652q0 28 17 46.5t43 18.5q39 0 62 -25t23 -62 q0 -27 -17.5 -44.5t-45.5 -17.5q-36 0 -59 23.5t-23 60.5zM448 827q0 27 17 44.5t44 17.5q38 0 60.5 -24t22.5 -62q0 -26 -17 -43.5t-45 -17.5q-36 0 -59 24t-23 61zM573 652q0 28 18 46.5t44 18.5q37 0 60 -25t23 -62q0 -27 -17 -44.5t-44 -17.5q-36 0 -60 23.5t-24 60.5z " />
<glyph unicode="&#x634;" horiz-adv-x="1579" arabic-form="final" d="M208 133q0 98 19 157l79 -14q-6 -37 -8 -98q0 -94 26 -167t70 -116.5t98 -65.5t114 -22q111 0 177 50.5t76 135.5q1 11 -2 46q-24 120 -153 319l90 37q60 -90 117 -221q25 -57 97 -57q127 0 110 196l83 4q0 -20 1 -38q9 -84 35.5 -122.5t76.5 -38.5q30 0 50 19t28.5 43.5 t11.5 64.5t2.5 64.5t-3.5 60.5l82 7q0 -21 6 -65q13 -90 60 -139t149 -50q39 0 60.5 -17.5t21.5 -48.5q0 -21 -14 -39t-42 -18q-195 0 -259 132q-15 -65 -54.5 -98.5t-95.5 -33.5q-60 0 -91.5 27.5t-56.5 76.5q-16 -46 -55 -75t-97 -29q-45 0 -72 22q5 -20 1 -59 q-15 -128 -110.5 -203t-228.5 -75q-184 0 -291.5 126t-107.5 322zM898 652q0 28 17 46.5t43 18.5q39 0 62 -25t23 -62q0 -27 -17.5 -44.5t-45.5 -17.5q-36 0 -59 23.5t-23 60.5zM961 827q0 28 17 45t43 17q39 0 62 -24t23 -62q0 -26 -17.5 -43.5t-45.5 -17.5q-36 0 -59 24 t-23 61zM1087 652q0 28 17 46.5t43 18.5q39 0 62 -25t23 -62q0 -27 -17.5 -44.5t-45.5 -17.5q-36 0 -59 23.5t-23 60.5z" />
<glyph unicode="&#x635;" horiz-adv-x="1253" arabic-form="initial" d="M64 66q0 21 16.5 39t48.5 18q58 0 92 22.5t44.5 61t12 89t-5.5 106.5l85 6q2 -55 10 -99q23 -118 119 -154q185 404 456 404q77 0 143 -26.5t108.5 -69.5t66.5 -97t24 -110q0 -152 -161 -219q-105 -47 -326 -47q-211 0 -312.5 36t-146.5 116q-15 -64 -66.5 -103 t-128.5 -39q-38 0 -58.5 17.5t-20.5 48.5zM573 133q85 -25 218 -25q180 0 274 28q127 35 127 123q0 77 -70 134.5t-183 57.5q-61 0 -121.5 -29t-127 -103t-117.5 -186z" />
<glyph unicode="&#x635;" horiz-adv-x="1296" arabic-form="medial" d="M64 66q0 21 16.5 39t48.5 18q58 0 92 22.5t44.5 61t12 89t-5.5 106.5l85 6q2 -55 10 -99q23 -118 119 -154q185 404 456 404q77 0 143 -26.5t108.5 -69.5t66.5 -97t24 -110q0 -66 -29 -113q67 -20 163 -20q39 0 60 -17.5t21 -48.5q0 -21 -14 -39t-43 -18h-22 q-150 0 -257 57q-22 -13 -40 -20q-105 -47 -326 -47q-211 0 -312.5 36t-146.5 116q-15 -64 -66.5 -103t-128.5 -39q-38 0 -58.5 17.5t-20.5 48.5zM573 133q85 -25 218 -25q180 0 274 28q127 35 127 123q0 77 -70 134.5t-183 57.5q-61 0 -121.5 -29t-127 -103t-117.5 -186z " />
<glyph unicode="&#x635;" horiz-adv-x="1794" arabic-form="final" d="M203 113q0 71 15 127l79 -15q-4 -39 -4 -83q0 -171 87.5 -258t220.5 -87q110 0 178 54.5t75 133.5q0 45 -4 65q-23 102 -142 294l95 39q71 -126 102 -164.5t78 -61.5q24 53 53 103t73 106.5t92 97.5t112 68t131 27q144 0 239.5 -90.5t95.5 -219.5q0 -59 -25 -103 q68 -23 162 -23q39 0 60.5 -17.5t21.5 -48.5q0 -21 -14 -39t-43 -18h-20q-151 0 -252 61q-1 -1 -2 -1t-2 -1q-117 -69 -347 -69q-267 0 -380 74q10 -82 6 -112q-12 -119 -111 -198t-227 -79q-187 0 -295 121.5t-108 316.5zM1072 133q81 -25 239 -25q161 0 267 32 q109 34 109 113t-66.5 138.5t-176.5 59.5q-100 0 -198 -77.5t-174 -240.5z" />
<glyph unicode="&#x636;" horiz-adv-x="1253" arabic-form="initial" d="M64 66q0 21 16.5 39t48.5 18q58 0 92 22.5t44.5 61t12 89t-5.5 106.5l85 6q2 -55 10 -99q23 -118 119 -154q185 404 456 404q77 0 143 -26.5t108.5 -69.5t66.5 -97t24 -110q0 -152 -161 -219q-105 -47 -326 -47q-211 0 -312.5 36t-146.5 116q-15 -64 -66.5 -103 t-128.5 -39q-38 0 -58.5 17.5t-20.5 48.5zM573 133q85 -25 218 -25q180 0 274 28q127 35 127 123q0 77 -70 134.5t-183 57.5q-61 0 -121.5 -29t-127 -103t-117.5 -186zM616 838q0 28 17.5 46.5t43.5 18.5q40 0 63.5 -25.5t23.5 -64.5q0 -26 -18 -44.5t-47 -18.5 q-36 -1 -59.5 23.5t-23.5 64.5z" />
<glyph unicode="&#x636;" horiz-adv-x="1296" arabic-form="medial" d="M64 66q0 21 16.5 39t48.5 18q58 0 92 22.5t44.5 61t12 89t-5.5 106.5l85 6q2 -55 10 -99q23 -118 119 -154q185 404 456 404q77 0 143 -26.5t108.5 -69.5t66.5 -97t24 -110q0 -66 -29 -113q67 -20 163 -20q39 0 60 -17.5t21 -48.5q0 -21 -14 -39t-43 -18h-22 q-150 0 -257 57q-22 -13 -40 -20q-105 -47 -326 -47q-211 0 -312.5 36t-146.5 116q-15 -64 -66.5 -103t-128.5 -39q-38 0 -58.5 17.5t-20.5 48.5zM573 133q85 -25 218 -25q180 0 274 28q127 35 127 123q0 77 -70 134.5t-183 57.5q-61 0 -121.5 -29t-127 -103t-117.5 -186z M616 838q0 28 17.5 46.5t43.5 18.5q40 0 63.5 -25.5t23.5 -64.5q0 -26 -18 -44.5t-47 -18.5q-36 -1 -59.5 23.5t-23.5 64.5z" />
<glyph unicode="&#x636;" horiz-adv-x="1794" arabic-form="final" d="M203 113q0 71 15 127l79 -15q-4 -39 -4 -83q0 -171 87.5 -258t220.5 -87q110 0 178 54.5t75 133.5q0 45 -4 65q-23 102 -142 294l95 39q71 -126 102 -164.5t78 -61.5q24 53 53 103t73 106.5t92 97.5t112 68t131 27q144 0 239.5 -90.5t95.5 -219.5q0 -59 -25 -103 q68 -23 162 -23q39 0 60.5 -17.5t21.5 -48.5q0 -21 -14 -39t-43 -18h-20q-151 0 -252 61q-1 -1 -2 -1t-2 -1q-117 -69 -347 -69q-267 0 -380 74q10 -82 6 -112q-12 -119 -111 -198t-227 -79q-187 0 -295 121.5t-108 316.5zM1072 133q81 -25 239 -25q161 0 267 32 q109 34 109 113t-66.5 138.5t-176.5 59.5q-100 0 -198 -77.5t-174 -240.5zM1097 838q0 28 18 46.5t44 18.5q40 0 63.5 -25.5t23.5 -64.5q0 -26 -18 -44.5t-46 -18.5q-38 -1 -61.5 23.5t-23.5 64.5z" />
<glyph unicode="&#x637;" horiz-adv-x="996" arabic-form="initial" d="M56 1053l101 8l131 -540q36 -148 43 -212q67 113 159.5 181.5t201.5 68.5q143 0 242 -92t99 -212q0 -59 -35 -112t-109 -86q-117 -57 -523 -57h-223q-38 0 -58.5 17.5t-20.5 48.5q0 21 16.5 39t48.5 18h90q2 6 12.5 33t14.5 40q5 38 1.5 60t-16.5 72q-1 3 -1.5 5.5 t-1.5 5.5zM322 123h45q362 0 458 32q57 19 85.5 43.5t28.5 64.5q0 70 -70 129t-170 59q-235 0 -377 -328z" />
<glyph unicode="&#x637;" horiz-adv-x="1029" arabic-form="medial" d="M56 1053l101 8l131 -540q36 -148 43 -212q67 113 159.5 181.5t201.5 68.5q143 0 242 -92t99 -212q0 -63 -35 -112q59 -20 153 -20q39 0 60.5 -17.5t21.5 -48.5q0 -21 -14.5 -39t-42.5 -18h-23q-150 0 -252 63q-6 -5 -12 -6q-117 -57 -523 -57h-223q-38 0 -58.5 17.5 t-20.5 48.5q0 21 16.5 39t48.5 18h90q2 6 12.5 33t14.5 40q5 38 1.5 60t-16.5 72q-1 3 -1.5 5.5t-1.5 5.5zM322 123h45q362 0 458 32q57 19 85.5 43.5t28.5 64.5q0 70 -70 129t-170 59q-235 0 -377 -328z" />
<glyph unicode="&#x637;" horiz-adv-x="1135" arabic-form="final" d="M138 143q70 -20 184 -20q19 48 26 73q1 7 2 13.5t1 14.5v13t-2 15t-2.5 14.5t-3.5 16.5t-4 16.5t-5 19.5t-5 20l-171 714l99 8l131 -540q40 -163 44 -212q64 110 158.5 180t205.5 70q142 0 240 -91.5t98 -212.5q0 -61 -32 -110q65 -22 155 -22q39 0 60.5 -17.5 t21.5 -48.5q0 -21 -15 -39t-43 -18h-21q-155 0 -259 63q-2 -2 -8 -4t-8 -3q-121 -56 -510 -56q-169 0 -269 19zM423 123h45q359 0 461 34q57 18 85 42t28 64q0 69 -69.5 128.5t-172.5 59.5q-232 0 -377 -328z" />
<glyph unicode="&#x638;" horiz-adv-x="996" arabic-form="initial" d="M56 1053l101 8l131 -540q36 -148 43 -212q67 113 159.5 181.5t201.5 68.5q143 0 242 -92t99 -212q0 -59 -35 -112t-109 -86q-117 -57 -523 -57h-223q-38 0 -58.5 17.5t-20.5 48.5q0 21 16.5 39t48.5 18h90q2 6 12.5 33t14.5 40q5 38 1.5 60t-16.5 72q-1 3 -1.5 5.5 t-1.5 5.5zM322 123h45q362 0 458 32q57 19 85.5 43.5t28.5 64.5q0 70 -70 129t-170 59q-235 0 -377 -328zM480 838q0 28 17.5 46.5t43.5 18.5q40 0 64 -25.5t24 -64.5q0 -26 -18 -44.5t-46 -18.5q-38 -1 -61.5 23.5t-23.5 64.5z" />
<glyph unicode="&#x638;" horiz-adv-x="1029" arabic-form="medial" d="M56 1053l101 8l131 -540q36 -148 43 -212q67 113 159.5 181.5t201.5 68.5q143 0 242 -92t99 -212q0 -63 -35 -112q59 -20 153 -20q39 0 60.5 -17.5t21.5 -48.5q0 -21 -14.5 -39t-42.5 -18h-23q-150 0 -252 63q-6 -5 -12 -6q-117 -57 -523 -57h-223q-38 0 -58.5 17.5 t-20.5 48.5q0 21 16.5 39t48.5 18h90q2 6 12.5 33t14.5 40q5 38 1.5 60t-16.5 72q-1 3 -1.5 5.5t-1.5 5.5zM322 123h45q362 0 458 32q57 19 85.5 43.5t28.5 64.5q0 70 -70 129t-170 59q-235 0 -377 -328zM480 838q0 28 17.5 46.5t43.5 18.5q40 0 64 -25.5t24 -64.5 q0 -26 -18 -44.5t-46 -18.5q-38 -1 -61.5 23.5t-23.5 64.5z" />
<glyph unicode="&#x638;" horiz-adv-x="1135" arabic-form="final" d="M138 143q70 -20 184 -20q19 48 26 73q1 7 2 13.5t1 14.5v13t-2 15t-2.5 14.5t-3.5 16.5t-4 16.5t-5 19.5t-5 20l-171 714l99 8l131 -540q40 -163 44 -212q64 110 158.5 180t205.5 70q142 0 240 -91.5t98 -212.5q0 -61 -32 -110q65 -22 155 -22q39 0 60.5 -17.5 t21.5 -48.5q0 -21 -15 -39t-43 -18h-21q-155 0 -259 63q-2 -2 -8 -4t-8 -3q-121 -56 -510 -56q-169 0 -269 19zM423 123h45q359 0 461 34q57 18 85 42t28 64q0 69 -69.5 128.5t-172.5 59.5q-232 0 -377 -328zM584 838q0 28 17.5 46.5t43.5 18.5q40 0 64 -25.5t24 -64.5 q0 -26 -18 -44.5t-46 -18.5q-38 -1 -61.5 23.5t-23.5 64.5z" />
<glyph unicode="&#x639;" horiz-adv-x="725" arabic-form="initial" d="M64 66q0 21 15.5 39t49.5 18l226 10q-31 16 -61 38.5t-61.5 55.5t-51 78t-19.5 94q0 100 73.5 165t179.5 65q116 0 179 -48l38 -113q-88 53 -202 53q-77 0 -124 -38t-47 -95q0 -59 53 -114.5t140 -92.5q49 -23 92 -23q46 0 116.5 16.5t123.5 42.5l6 -122 q-80 -42 -249 -68.5t-374 -26.5h-24q-38 0 -58.5 17.5t-20.5 48.5z" />
<glyph unicode="&#x639;" horiz-adv-x="885" arabic-form="medial" d="M64 66q0 21 16.5 39t49.5 18h40q172 0 311 42q-143 103 -253 250q-42 -16 -73 -33l-34 99q35 19 80 37t131.5 36t176.5 18q41 0 81 -4t89 -17t85.5 -34t61 -59.5t24.5 -88.5q0 -48 -37 -102t-105 -103q125 -41 265 -41h33q39 0 60.5 -17.5t21.5 -48.5q0 -21 -14.5 -39 t-42.5 -18h-44q-211 0 -393 97q-201 -97 -451 -97q-38 0 -58.5 17.5t-20.5 48.5zM316 443q116 -151 282 -234q76 35 118.5 77.5t42.5 77.5q0 18 -9 34t-32.5 34t-77 28.5t-131.5 10.5q-95 0 -193 -28z" />
<glyph unicode="&#x639;" horiz-adv-x="918" arabic-form="final" d="M143 478q53 33 155.5 63.5t223.5 30.5q178 0 264.5 -52.5t86.5 -133.5q0 -50 -43 -97t-156 -113q128 -53 287 -53h79q39 0 60.5 -17.5t21.5 -48.5q0 -21 -14.5 -39t-42.5 -18h-82q-228 0 -420 114q-122 -67 -166 -126t-44 -131q0 -131 141 -218t375 -87q157 0 252 27 l-27 -104q-86 -32 -246 -32q-89 0 -174 15.5t-162.5 49t-135.5 82t-92.5 118.5t-34.5 153q0 85 51.5 160.5t177.5 151.5q-123 96 -229 242q-41 -16 -72 -36zM339 445q103 -141 234 -220q83 44 131.5 76.5t62.5 49.5t14 32q0 10 -5 20t-21.5 23t-42.5 22.5t-73 16t-108 6.5 q-88 0 -192 -26z" />
<glyph unicode="&#x63a;" horiz-adv-x="725" arabic-form="initial" d="M64 66q0 21 15.5 39t49.5 18l226 10q-31 16 -61 38.5t-61.5 55.5t-51 78t-19.5 94q0 100 73.5 165t179.5 65q116 0 179 -48l38 -113q-88 53 -202 53q-77 0 -124 -38t-47 -95q0 -59 53 -114.5t140 -92.5q49 -23 92 -23q46 0 116.5 16.5t123.5 42.5l6 -122 q-80 -42 -249 -68.5t-374 -26.5h-24q-38 0 -58.5 17.5t-20.5 48.5zM211 901q0 28 17.5 47t43.5 19q40 0 64 -25.5t24 -63.5q0 -27 -18.5 -46t-46.5 -19q-37 0 -60.5 25t-23.5 63z" />
<glyph unicode="&#x63a;" horiz-adv-x="885" arabic-form="medial" d="M64 66q0 21 16.5 39t49.5 18h40q172 0 311 42q-143 103 -253 250q-42 -16 -73 -33l-34 99q35 19 80 37t131.5 36t176.5 18q41 0 81 -4t89 -17t85.5 -34t61 -59.5t24.5 -88.5q0 -48 -37 -102t-105 -103q125 -41 265 -41h33q39 0 60.5 -17.5t21.5 -48.5q0 -21 -14.5 -39 t-42.5 -18h-44q-211 0 -393 97q-201 -97 -451 -97q-38 0 -58.5 17.5t-20.5 48.5zM316 443q116 -151 282 -234q76 35 118.5 77.5t42.5 77.5q0 18 -9 34t-32.5 34t-77 28.5t-131.5 10.5q-95 0 -193 -28zM361 886q0 28 18 46.5t44 18.5q40 0 64 -25t24 -64q0 -26 -18.5 -44.5 t-46.5 -18.5q-38 -1 -61.5 23t-23.5 64z" />
<glyph unicode="&#x63a;" horiz-adv-x="918" arabic-form="final" d="M143 478q53 33 155.5 63.5t223.5 30.5q178 0 264.5 -52.5t86.5 -133.5q0 -50 -43 -97t-156 -113q128 -53 287 -53h79q39 0 60.5 -17.5t21.5 -48.5q0 -21 -14.5 -39t-42.5 -18h-82q-228 0 -420 114q-122 -67 -166 -126t-44 -131q0 -131 141 -218t375 -87q157 0 252 27 l-27 -104q-86 -32 -246 -32q-89 0 -174 15.5t-162.5 49t-135.5 82t-92.5 118.5t-34.5 153q0 85 51.5 160.5t177.5 151.5q-123 96 -229 242q-41 -16 -72 -36zM339 445q103 -141 234 -220q83 44 131.5 76.5t62.5 49.5t14 32q0 10 -5 20t-21.5 23t-42.5 22.5t-73 16t-108 6.5 q-88 0 -192 -26zM383 886q0 28 18 46.5t44 18.5q40 0 63.5 -25t23.5 -64q0 -26 -18 -44.5t-46 -18.5q-38 -1 -61.5 23t-23.5 64z" />
<glyph unicode="&#x641;" horiz-adv-x="630" arabic-form="initial" d="M61 69q0 23 15.5 38.5t44.5 15.5h100q111 0 210 14.5t126 30.5q0 44 -1 62q-113 -5 -199 15.5t-134.5 60t-72 87.5t-23.5 103q0 77 46 137q59 81 155 81q55 0 110.5 -34.5t103 -98t77 -167t29.5 -227.5q0 -69 -4 -93q-113 -94 -413 -94h-85q-41 0 -63 20.5t-22 48.5z M162 995q0 28 18 46t44 18q40 0 64 -25t24 -64q0 -26 -18.5 -44.5t-46.5 -18.5q-38 -1 -61.5 23.5t-23.5 64.5zM218 492q0 -75 89 -118.5t239 -38.5q-16 104 -75.5 186.5t-139.5 82.5q-50 0 -81.5 -31t-31.5 -81z" />
<glyph unicode="&#x641;" horiz-adv-x="664" arabic-form="medial" d="M63 70q0 19 13.5 36t44.5 17h50q72 0 139 9q-136 101 -136 244q0 99 63 170t140 71q95 0 178 -86.5t83 -211.5q0 -100 -73 -181q84 -15 180 -15h41q39 0 60 -17.5t21 -48.5q0 -21 -14 -39t-43 -18h-49q-162 0 -309 56q-115 -56 -253 -56h-53q-40 0 -61.5 18.5t-21.5 51.5 zM206 894q0 28 18 46t44 18q40 0 63.5 -25t23.5 -64q0 -26 -18 -44.5t-46 -18.5q-38 -1 -61.5 23.5t-23.5 64.5zM265 372q0 -137 177 -202q105 48 105 149q0 76 -50 132.5t-111 56.5q-57 0 -89 -41.5t-32 -94.5z" />
<glyph unicode="&#x641;" horiz-adv-x="1338" arabic-form="final" d="M136 443q0 53 9 116l82 -12q-5 -30 -5 -63q0 -395 492 -395q174 0 291 31q-157 105 -157 260q0 96 63.5 166.5t138.5 70.5q61 0 120.5 -36.5t100.5 -106.5t41 -155q0 -101 -73 -181q90 -15 186 -15h35q39 0 60.5 -17.5t21.5 -48.5q0 -21 -14.5 -39t-42.5 -18h-35 q-168 0 -318 56q-165 -87 -431 -87q-125 0 -223 26t-161.5 69.5t-105 105t-58.5 129t-17 144.5zM895 894q0 28 18 46t44 18q40 0 63.5 -25t23.5 -64q0 -26 -18 -44.5t-46 -18.5q-38 -1 -61.5 23.5t-23.5 64.5zM942 377q0 -145 180 -210q97 60 97 153q0 76 -47 132t-114 56 q-51 0 -83.5 -40t-32.5 -91z" />
<glyph unicode="&#x642;" horiz-adv-x="633" arabic-form="initial" d="M61 69q0 23 15.5 38.5t44.5 15.5h100q111 0 210 14.5t126 30.5q0 44 -1 62q-113 -5 -199 15.5t-134.5 60t-72 87.5t-23.5 103q0 77 46 137q59 81 155 81q55 0 110.5 -34.5t103 -98t77 -167t29.5 -227.5q0 -69 -4 -93q-113 -94 -413 -94h-85q-41 0 -63 20.5t-22 48.5z M70 992q0 28 17 46t43 18q39 0 62 -24.5t23 -61.5q0 -27 -17.5 -45t-45.5 -18q-36 0 -59 24t-23 61zM218 492q0 -75 89 -118.5t239 -38.5q-16 104 -75.5 186.5t-139.5 82.5q-50 0 -81.5 -31t-31.5 -81zM257 992q0 28 18 46t44 18q37 0 60 -24.5t23 -61.5q0 -27 -17 -45 t-44 -18q-36 0 -60 24t-24 61z" />
<glyph unicode="&#x642;" horiz-adv-x="664" arabic-form="medial" d="M63 70q0 19 13.5 36t44.5 17h50q72 0 139 9q-136 101 -136 244q0 99 63 170t140 71q95 0 178 -86.5t83 -211.5q0 -100 -73 -181q84 -15 180 -15h41q39 0 60 -17.5t21 -48.5q0 -21 -14 -39t-43 -18h-49q-162 0 -309 56q-115 -56 -253 -56h-53q-40 0 -61.5 18.5t-21.5 51.5 zM114 891q0 28 17 46t43 18q39 0 62 -24.5t23 -61.5q0 -27 -17.5 -45t-45.5 -18q-36 0 -59 24t-23 61zM265 372q0 -137 177 -202q105 48 105 149q0 76 -50 132.5t-111 56.5q-57 0 -89 -41.5t-32 -94.5zM301 891q0 28 18 46t44 18q37 0 60 -24.5t23 -61.5q0 -27 -17 -45 t-44 -18q-36 0 -60 24t-24 61z" />
<glyph unicode="&#x642;" horiz-adv-x="1040" arabic-form="final" d="M197 151q0 82 14 140l82 -12q0 -4 -2.5 -31t-2.5 -45q0 -115 30.5 -202t85 -137.5t122 -75.5t147.5 -25q127 0 208.5 48.5t100.5 110.5q4 12 4 71v10h-41q-90 0 -161 17t-114.5 44t-72.5 64t-40 75t-11 79q0 86 60.5 153t149.5 67q42 0 87.5 -20.5t91 -62.5t81 -119 t50.5 -177h97q39 0 60.5 -17.5t21.5 -48.5q0 -21 -14.5 -39t-42.5 -18l-111 1v-19q0 -51 -6 -87q-30 -99 -133.5 -174.5t-263.5 -75.5q-101 0 -188 33.5t-151.5 96t-101 159.5t-36.5 217zM481 778q0 28 17 46.5t43 18.5q39 0 61.5 -25t22.5 -62q0 -27 -17 -45t-45 -18 q-36 0 -59 24t-23 61zM636 287q0 -73 70.5 -118.5t232.5 -45.5h35q-13 67 -39 121.5t-58 87t-65.5 49.5t-65.5 17q-49 0 -79.5 -34.5t-30.5 -76.5zM669 778q0 28 17.5 46.5t43.5 18.5q37 0 60 -25t23 -62q0 -27 -17 -45t-44 -18q-36 0 -59.5 24t-23.5 61z" />
<glyph unicode="&#x643;" horiz-adv-x="576" arabic-form="initial" d="M13 774q1 10 50 44q86 57 221 124.5t259 113.5l-22 -126q-105 -39 -229 -97.5t-188 -103.5q68 -44 105.5 -69t97 -68t93.5 -72.5t75.5 -71.5t63.5 -78t37.5 -79t15.5 -85q0 -48 -19.5 -88t-51.5 -62q-45 -32 -109.5 -44t-164.5 -12h-102q-38 0 -59.5 17.5t-21.5 48.5 q0 21 15 39t47 18h139q94 0 147.5 14t70 34t16.5 51q0 67 -107 175t-373 263q-11 85 -6 114z" />
<glyph unicode="&#x643;" horiz-adv-x="648" arabic-form="medial" d="M10 765q5 12 62 48q85 53 246 125t296 117l-22 -125q-116 -40 -273 -108t-218 -110q137 -114 227 -205.5t234 -256.5q30 -35 56.5 -59t43.5 -36.5t39.5 -20t32.5 -9.5t35 -4q39 0 60.5 -17t21.5 -47q0 -22 -14 -40t-43 -18q-81 1 -146.5 35.5t-166.5 151.5 q-16 -186 -292 -186h-43q-82 0 -82 64q0 23 15 41t48 18h37q134 0 189 25.5t55 76.5q0 23 -10.5 46t-24.5 40.5t-53 62.5q-101 116 -302 283q-1 11 -4.5 57.5t-3.5 50.5z" />
<glyph unicode="&#x643;" horiz-adv-x="1250" arabic-form="final" d="M152 383q0 28 6 54l80 -11q-12 -335 431 -335q154 0 264.5 40t137.5 96q4 29 -8 83l-179 743l101 8l171 -714q33 -128 83.5 -175t132.5 -49q39 0 60.5 -17.5t21.5 -48.5q0 -20 -15 -38.5t-42 -18.5q-201 0 -272 154q-35 -73 -155 -126.5t-310 -53.5q-121 0 -212.5 24.5 t-146.5 63t-89.5 94t-47 110t-12.5 117.5zM477 465q70 1 124 17t76 33t22 28q0 12 -19 17.5t-74 8.5q-67 4 -90.5 24t-23.5 65q0 59 45.5 114t120.5 71l24 -76q-61 -11 -94.5 -40t-33.5 -56q0 -13 15 -20t57 -9q74 -5 104.5 -24.5t30.5 -63.5q0 -63 -61.5 -107.5 t-143.5 -44.5q-32 0 -44 3z" />
<glyph unicode="&#x644;" horiz-adv-x="412" arabic-form="initial" d="M64 66q0 21 15 39t47 18q88 0 121.5 45.5t7.5 144.5l-186 740l99 8l189 -746q40 -159 -21.5 -237t-189.5 -78q-39 0 -60.5 17.5t-21.5 48.5z" />
<glyph unicode="&#x644;" horiz-adv-x="441" arabic-form="medial" d="M64 66q0 21 15 39t47 18q88 0 115.5 57t-3.5 193l-163 680l101 8l163 -681q35 -141 85 -197.5t139 -59.5q39 0 60 -17.5t21 -48.5q0 -21 -14 -39t-42 -18q-179 0 -252 142q-18 -66 -72 -104t-118 -38q-39 0 -60.5 17.5t-21.5 48.5z" />
<glyph unicode="&#x644;" horiz-adv-x="1000" arabic-form="final" d="M211 102q0 80 14 144l84 -15q-8 -50 -8 -101q0 -97 28.5 -169.5t76.5 -111.5t102 -57.5t114 -18.5q100 0 175.5 42t96.5 112q6 28 -12 115l-250 1011l104 8l213 -878q28 -28 75 -44t98 -16q39 0 60.5 -17.5t21.5 -48.5q0 -21 -14.5 -39t-42.5 -18q-93 0 -164 42 q9 -47 12 -105q0 -34 -16 -69q-35 -93 -134 -151.5t-222 -58.5q-196 0 -304 119t-108 325z" />
<glyph unicode="&#x645;" horiz-adv-x="680" arabic-form="initial" d="M64 66q0 21 14.5 39t42.5 18h9q45 1 67 36t37 120q23 123 70 176.5t122 53.5q58 0 113.5 -36t94.5 -91t63 -119t24 -120q0 -68 -37.5 -105.5t-102.5 -37.5q-134 0 -288 108q-42 -108 -147 -108q-39 0 -60.5 17.5t-21.5 48.5zM322 218q48 -40 117.5 -69t125.5 -29 q63 0 63 47q0 40 -28 94.5t-74 97t-89 42.5q-46 0 -74 -41t-41 -142z" />
<glyph unicode="&#x645;" horiz-adv-x="731" arabic-form="medial" d="M64 66q0 21 14.5 39t42.5 18h9q46 1 67.5 31t36.5 108q23 122 70.5 176t121.5 54q80 0 150.5 -65t111.5 -158q25 -48 48 -79t44.5 -45t37 -18t35.5 -4q39 0 60.5 -17.5t21.5 -48.5q0 -21 -15 -39t-45 -18h-3q-100 0 -158 73q-29 -91 -133 -91q-135 0 -288 109 q-35 -91 -147 -91q-39 0 -60.5 17.5t-21.5 48.5zM322 200q48 -40 117.5 -69t125.5 -29q64 0 64 46q0 40 -28 95t-74.5 97.5t-90.5 42.5q-46 0 -73.5 -41t-40.5 -142z" />
<glyph unicode="&#x645;" horiz-adv-x="1189" arabic-form="final" d="M228 -236q164 74 275.5 153t147.5 143q15 27 42 195q21 125 66 181t123 56q84 0 157 -68.5t111 -164.5q45 -87 80 -111.5t81 -24.5q80 0 80 -66q0 -21 -15 -39t-45 -18h-3q-100 0 -158 73q-14 -43 -49 -67t-84 -24q-126 0 -278 104q-10 -85 -32 -121q-45 -79 -174.5 -160 t-254.5 -111zM778 200q48 -40 117.5 -69t125.5 -29q66 0 66 47q0 64 -64.5 149t-130.5 85q-46 0 -73 -41.5t-41 -141.5z" />
<glyph unicode="&#x646;" horiz-adv-x="484" arabic-form="initial" d="M26 834q0 28 18 46t44 18q40 0 63 -25t23 -64q0 -26 -18 -44.5t-46 -18.5q-36 -1 -60 24t-24 64zM63 66q0 23 13.5 40t44.5 17h19q176 0 224 34q-25 160 -186 373l91 41q71 -95 132 -224.5t61 -232.5q0 -29 -3 -42q-66 -72 -298 -72h-15q-45 0 -64 19.5t-19 46.5z" />
<glyph unicode="&#x646;" horiz-adv-x="457" arabic-form="medial" d="M64 66q0 21 15 39t47 18q55 0 90.5 20t48.5 52.5t17.5 75.5t-1.5 89l80 6q4 -40 9 -69q8 -36 21 -64.5t36.5 -54t61.5 -40t89 -15.5q40 0 61 -17.5t21 -48.5q0 -21 -15 -39t-45 -18q-182 0 -255 148q-15 -72 -68 -110t-131 -38q-39 0 -60.5 17.5t-21.5 48.5zM177 679 q0 28 17.5 46t43.5 18q40 0 64 -25t24 -64q0 -26 -18 -44.5t-46 -18.5q-38 -1 -61.5 23.5t-23.5 64.5z" />
<glyph unicode="&#x646;" horiz-adv-x="930" arabic-form="final" d="M202 126q0 85 17 149l88 -13q-7 -67 -7 -114q0 -154 85 -247.5t225 -93.5q92 0 162 39.5t95 116.5q12 22 12 44q-2 57 -36 126q-57 131 -145 255l93 42q33 -48 78 -129.5t72 -158.5q47 -19 111 -19q39 0 60.5 -17.5t21.5 -48.5q0 -21 -14 -39t-43 -18q-77 0 -110 16 q6 -59 -18 -120q-36 -93 -122 -152t-214 -59q-189 0 -300 123t-111 318zM367 628q0 28 18 46t44 18q40 0 63.5 -25t23.5 -64q0 -26 -18 -44.5t-46 -18.5q-38 -1 -61.5 23.5t-23.5 64.5z" />
<glyph unicode="&#x647;" horiz-adv-x="915" arabic-form="initial" d="M66 66q0 22 14.5 39.5t46.5 17.5h27q96 0 180 15q-123 113 -123 247q0 156 155 238l-81 54l50 85q27 -17 122 -74t143 -87q74 -45 128.5 -85t109.5 -92.5t84.5 -111t29.5 -119.5q0 -95 -62.5 -150t-174.5 -55q-128 0 -256 63q-121 -51 -295 -51h-16q-39 0 -60.5 17.5 t-21.5 48.5zM301 391q0 -60 41.5 -116.5t110.5 -98.5q118 61 118 187q0 92 -46 144.5t-83 52.5q-43 0 -92 -49.5t-49 -119.5zM572 121q65 -20 129 -20q84 0 122.5 27t38.5 71q0 62 -63.5 135t-169.5 140q35 -54 35 -140q0 -127 -92 -213z" />
<glyph unicode="&#x647;" horiz-adv-x="699" arabic-form="medial" d="M66 66q0 22 16 39.5t50 17.5h101q-2 24 -2 34q0 111 30 235t74 218h37q46 -42 71 -65t71.5 -72.5t72 -86t46.5 -84t21 -88.5q0 -50 -19 -91h186q39 0 60.5 -17.5t21.5 -48.5q0 -21 -14 -39t-43 -18h-156q60 -31 93 -79t33 -102q0 -81 -56 -129t-131 -48q-74 0 -138 30 t-110 82t-78.5 114t-50.5 132h-104q-39 0 -60.5 17.5t-21.5 48.5zM323 164q0 -15 2 -41h86q87 0 122 21t35 62q0 57 -58 134t-131 133q-56 -151 -56 -309zM348 0q36 -112 110 -183.5t162 -71.5q46 0 75 22t29 59q0 26 -16.5 54.5t-48.5 56t-89.5 45.5t-129.5 18h-1h-91z" />
<glyph unicode="&#x647;" horiz-adv-x="696" arabic-form="final" d="M157 307q0 111 100 206q54 57 189 126l-31 119l91 9l114 -460q26 -105 76.5 -144.5t121.5 -39.5q39 0 60.5 -17.5t21.5 -48.5q0 -21 -14 -39t-43 -18q-174 0 -253 130q-31 -20 -80.5 -31t-89.5 -11q-115 0 -189 60.5t-74 158.5zM247 307q0 -50 44.5 -76t118.5 -26t134 26 q-1 5 -4.5 18t-5.5 20l-63 265q-118 -50 -171 -111t-53 -116z" />
<glyph unicode="&#x648;" horiz-adv-x="770" arabic-form="final" d="M234 -336l3 87q90 -44 196 -44q116 0 188.5 82.5t82.5 210.5h-53q-192 0 -284.5 80t-92.5 201q0 91 62 156t151 65q46 0 93.5 -22t92 -65.5t77 -119.5t41.5 -172h101q39 0 60.5 -17.5t21.5 -48.5q0 -21 -15 -39t-45 -18h-120q-11 -180 -106.5 -292.5t-242.5 -112.5 q-124 0 -211 69zM364 281q0 -75 70.5 -116.5t216.5 -41.5h48q-17 125 -79 200t-142 75q-49 0 -81.5 -34t-32.5 -83z" />
<glyph unicode="&#x649;" horiz-adv-x="418" d="M63 66q0 23 13.5 40t44.5 17h19q176 0 224 34q-25 160 -186 373l91 41q71 -95 132 -224.5t61 -232.5q0 -29 -3 -42q-66 -72 -298 -72h-15q-45 0 -64 19.5t-19 46.5z" />
<glyph unicode="&#x649;" horiz-adv-x="462" d="M69 66q0 22 14.5 39.5t46.5 17.5q55 0 90.5 20t48.5 52.5t17.5 75.5t-1.5 89l81 6q6 -55 8 -69q17 -77 64.5 -124.5t145.5 -49.5q80 0 80 -66q0 -21 -15 -39t-45 -18q-181 0 -254 148q-15 -72 -68 -110t-131 -38q-39 0 -60.5 17.5t-21.5 48.5z" />
<glyph unicode="&#x649;" horiz-adv-x="974" arabic-form="final" d="M208 105q0 76 17 142l79 -11q-6 -38 -6 -91q0 -94 24.5 -168t64 -120.5t94 -77t110 -42.5t116.5 -12q233 0 329 124q27 36 27 71q0 19 -5.5 31t-23.5 24.5t-59 18.5t-105 6h-17l25 123h218q39 0 60.5 -17.5t21.5 -48.5q0 -21 -15 -39t-45 -18h-12q48 -27 48 -92 q0 -52 -28 -101q-47 -90 -157.5 -145.5t-256.5 -55.5q-129 0 -227.5 40t-158 109.5t-89 158t-29.5 191.5z" />
<glyph unicode="&#x64a;" horiz-adv-x="418" arabic-form="initial" d="M63 66q0 23 13.5 40t44.5 17h19q176 0 224 34q-25 160 -186 373l91 41q71 -95 132 -224.5t61 -232.5q0 -29 -3 -42q-66 -72 -298 -72h-15q-45 0 -64 19.5t-19 46.5zM222 -275q0 28 17 46t43 18q39 0 62 -24.5t23 -62.5q0 -26 -17.5 -44t-45.5 -18q-36 -1 -59 23t-23 62z M411 -275q0 28 17 46t43 18q39 0 62 -24.5t23 -62.5q0 -26 -17.5 -44t-45.5 -18q-36 -1 -59 23t-23 62z" />
<glyph unicode="&#x64a;" horiz-adv-x="457" arabic-form="medial" d="M64 66q0 21 15 39t47 18q55 0 90.5 20t48.5 52.5t17.5 75.5t-1.5 89l80 6q4 -40 9 -69q8 -36 21 -64.5t36.5 -54t61.5 -40t89 -15.5q40 0 61 -17.5t21 -48.5q0 -21 -15 -39t-45 -18q-182 0 -255 148q-15 -72 -68 -110t-131 -38q-39 0 -60.5 17.5t-21.5 48.5zM265 -275 q0 28 17.5 46t43.5 18q39 0 61.5 -24.5t22.5 -62.5q0 -26 -17 -44t-45 -18q-36 -1 -59.5 23t-23.5 62zM453 -275q0 28 18 46t44 18q38 0 60.5 -24.5t22.5 -62.5q0 -26 -17.5 -44t-45.5 -18q-35 -1 -58.5 23.5t-23.5 61.5z" />
<glyph unicode="&#x64a;" horiz-adv-x="974" arabic-form="final" d="M208 105q0 76 17 142l79 -11q-6 -38 -6 -91q0 -94 24.5 -168t64 -120.5t94 -77t110 -42.5t116.5 -12q233 0 329 124q27 36 27 71q0 19 -5.5 31t-23.5 24.5t-59 18.5t-105 6h-17l25 123h218q39 0 60.5 -17.5t21.5 -48.5q0 -21 -15 -39t-45 -18h-12q48 -27 48 -92 q0 -52 -28 -101q-47 -90 -157.5 -145.5t-256.5 -55.5q-129 0 -227.5 40t-158 109.5t-89 158t-29.5 191.5zM626 -597q0 28 18 46.5t44 18.5q39 0 61 -24.5t22 -63.5q0 -26 -17 -44t-45 -18q-36 -1 -59.5 23t-23.5 62zM815 -597q0 28 17.5 46.5t43.5 18.5q38 0 61 -25t23 -63 q0 -26 -17.5 -44t-45.5 -18q-35 -1 -58.5 23.5t-23.5 61.5z" />
<glyph unicode="&#x66e;" horiz-adv-x="1341" d="M138 446q0 55 8 84l79 -12q-1 -12 -1 -40q0 -102 36.5 -177.5t102.5 -120.5t152 -66.5t193 -21.5q173 0 297 34.5t180 76.5q-25 50 -25 125q0 17 2 41l80 8q0 -37 7 -83q31 -163 214 -171q39 0 60.5 -17.5t21.5 -48.5q0 -21 -14.5 -39t-42.5 -18q-166 0 -253 111 q-83 -64 -221.5 -103.5t-298.5 -39.5q-276 0 -426.5 119.5t-150.5 358.5z" />
<glyph unicode="&#x66f;" horiz-adv-x="630" d="M61 69q0 23 15.5 38.5t44.5 15.5h100q111 0 210 14.5t126 30.5q0 44 -1 62q-113 -5 -199 15.5t-134.5 60t-72 87.5t-23.5 103q0 77 46 137q59 81 155 81q55 0 110.5 -34.5t103 -98t77 -167t29.5 -227.5q0 -69 -4 -93q-113 -94 -413 -94h-85q-41 0 -63 20.5t-22 48.5z M218 492q0 -75 89 -118.5t239 -38.5q-16 104 -75.5 186.5t-139.5 82.5q-50 0 -81.5 -31t-31.5 -81z" />
<glyph unicode="&#x66f;" horiz-adv-x="664" d="M63 70q0 19 13.5 36t44.5 17h50q72 0 139 9q-136 101 -136 244q0 99 63 170t140 71q95 0 178 -86.5t83 -211.5q0 -100 -73 -181q84 -15 180 -15h41q39 0 60 -17.5t21 -48.5q0 -21 -14 -39t-43 -18h-49q-162 0 -309 56q-115 -56 -253 -56h-53q-40 0 -61.5 18.5t-21.5 51.5 zM265 372q0 -137 177 -202q105 48 105 149q0 76 -50 132.5t-111 56.5q-57 0 -89 -41.5t-32 -94.5z" />
<glyph unicode="&#x66f;" horiz-adv-x="1040" d="M197 151q0 82 14 140l82 -12q0 -4 -2.5 -31t-2.5 -45q0 -115 30.5 -202t85 -137.5t122 -75.5t147.5 -25q127 0 208.5 48.5t100.5 110.5q4 12 4 71v10h-41q-90 0 -161 17t-114.5 44t-72.5 64t-40 75t-11 79q0 86 60.5 153t149.5 67q42 0 87.5 -20.5t91 -62.5t81 -119 t50.5 -177h97q39 0 60.5 -17.5t21.5 -48.5q0 -21 -14.5 -39t-42.5 -18l-111 1v-19q0 -51 -6 -87q-30 -99 -133.5 -174.5t-263.5 -75.5q-101 0 -188 33.5t-151.5 96t-101 159.5t-36.5 217zM636 287q0 -73 70.5 -118.5t232.5 -45.5h35q-13 67 -39 121.5t-58 87t-65.5 49.5 t-65.5 17q-49 0 -79.5 -34.5t-30.5 -76.5z" />
<glyph unicode="&#x671;" horiz-adv-x="384" arabic-form="final" d="M-192 1268q17 38 59 38q19 0 31 -6q61 137 149 137q59 0 99.5 -45.5t40.5 -105.5q0 -51 -34 -82t-87 -31q-44 0 -107 25.5t-79 25.5q-36 0 -56 -33zM-42 1274q44 -23 101 -23q28 0 46 12.5t18 31.5q0 22 -19.5 43t-50.5 21q-58 1 -95 -85zM18 1053l100 8l175 -723 q29 -115 81.5 -164t131.5 -51q39 0 60.5 -17.5t21.5 -48.5q0 -21 -14 -39t-42 -18q-138 0 -215.5 67.5t-116.5 230.5z" />
<glyph unicode="&#x675;" horiz-adv-x="571" d="M16 1053l101 8l178 -736q27 -109 78.5 -155.5t161.5 -46.5h158q39 0 60 -17.5t21 -48.5q0 -21 -15 -39t-45 -18h-135q-83 0 -140.5 13.5t-105.5 48.5t-80.5 94.5t-56.5 150.5zM158 1258q0 49 39 80t93 31q75 0 124 -39l-9 -66q-52 34 -114 34q-31 0 -47 -14t-16 -33 q0 -35 42.5 -61t105.5 -26h94l-15 -71h-92q-134 0 -192 -25l-4 67q23 16 63 16q-72 41 -72 107z" />
<glyph unicode="&#x676;" horiz-adv-x="899" d="M234 -336l3 87q90 -44 196 -44q115 0 188 84t83 209h-53q-192 0 -284.5 80t-92.5 201q0 91 62 156t151 65q46 0 93.5 -22t92 -65.5t77 -119.5t41.5 -172h230q39 0 60.5 -17.5t21.5 -48.5q0 -21 -15 -39t-46 -18h-248q-11 -180 -106.5 -292.5t-242.5 -112.5 q-124 0 -211 69zM363 282q0 -76 71 -117.5t217 -41.5h48q-17 124 -79 199.5t-145 75.5q-49 0 -80.5 -33.5t-31.5 -82.5zM487 837q0 49 39 80t93 31q74 0 124 -40l-9 -65q-50 33 -114 33q-31 0 -47 -14t-16 -33q0 -35 42.5 -60.5t105.5 -25.5h94l-15 -72h-92q-137 0 -192 -24 l-4 67q23 16 63 16q-72 41 -72 107z" />
<glyph unicode="&#x677;" horiz-adv-x="899" d="M123 663q37 -8 79 -8q40 0 77 16.5t50 46.5q-84 -7 -140 29t-56 109q0 49 35.5 84.5t86.5 35.5q54 0 103 -50t50 -145q1 -90 -57 -142t-133 -52q-55 0 -89 19zM192 853q0 -34 38.5 -58t114.5 -18q1 51 -25 91t-71 40q-28 0 -42.5 -16.5t-14.5 -38.5zM234 -336l3 87 q90 -44 196 -44q115 0 188 84t83 209h-53q-192 0 -284.5 80t-92.5 201q0 91 62 156t151 65q46 0 93.5 -22t92 -65.5t77 -119.5t41.5 -172h230q39 0 60.5 -17.5t21.5 -48.5q0 -21 -15 -39t-46 -18h-248q-11 -180 -106.5 -292.5t-242.5 -112.5q-124 0 -211 69zM363 282 q0 -76 71 -117.5t217 -41.5h48q-17 124 -79 199.5t-145 75.5q-49 0 -80.5 -33.5t-31.5 -82.5zM487 837q0 49 39 80t93 31q74 0 124 -40l-9 -65q-50 33 -114 33q-31 0 -47 -14t-16 -33q0 -35 42.5 -60.5t105.5 -25.5h94l-15 -72h-92q-137 0 -192 -24l-4 67q23 16 63 16 q-72 41 -72 107z" />
<glyph unicode="&#x678;" horiz-adv-x="614" d="M63 66q0 23 13.5 40t44.5 17h19q176 0 224 34q-25 160 -186 373l91 41q71 -95 132 -224.5t61 -232.5q0 -29 -3 -42q-66 -72 -298 -72h-15q-45 0 -64 19.5t-19 46.5zM310 922q0 49 39 80t93 31q74 0 124 -40l-9 -66q-52 34 -114 34q-31 0 -47 -14t-16 -33 q0 -35 42.5 -60.5t105.5 -25.5h94l-15 -72h-92q-134 0 -192 -25l-4 68q23 16 63 16q-72 41 -72 107z" />
<glyph unicode="&#x678;" horiz-adv-x="678" d="M59 69q0 23 14 38.5t45 15.5q58 0 95 20.5t50.5 54.5t17.5 78.5t-3 93.5l82 6q1 -20 9 -70q8 -39 21.5 -68t37.5 -57t65 -43t98 -15h209q39 0 60.5 -17.5t21.5 -48.5q0 -21 -15 -39t-46 -18h-205q-107 0 -170 37t-98 114q-15 -73 -68.5 -112t-137.5 -39q-45 0 -64 20.5 t-19 48.5zM329 767q0 49 39 80t93 31q74 0 124 -40l-9 -66q-52 34 -114 34q-31 0 -47 -14t-16 -33q0 -35 42.5 -60.5t105.5 -25.5h94l-15 -72h-92q-134 0 -192 -25l-4 68q23 16 63 16q-72 41 -72 107z" />
<glyph unicode="&#x678;" horiz-adv-x="1369" d="M208 105q0 76 17 142l79 -11q-6 -38 -6 -91q0 -94 24.5 -168t64 -120.5t94 -77t110 -42.5t116.5 -12q233 0 329 124q27 36 27 71q0 19 -5.5 31t-23.5 24.5t-59 18.5t-105 6h-17l25 123h613q39 0 60.5 -17.5t21.5 -48.5q0 -21 -15 -39t-47 -18h-405q48 -27 48 -92 q0 -52 -28 -101q-47 -90 -157.5 -145.5t-256.5 -55.5q-129 0 -227.5 40t-158 109.5t-89 158t-29.5 191.5zM922 767q0 49 38.5 80t92.5 31q77 0 123 -40l-7 -66q-52 34 -114 34q-31 0 -47 -14t-16 -33q0 -35 42.5 -60.5t105.5 -25.5h93l-14 -72h-93q-133 0 -191 -25l-5 68 q23 16 63 16q-71 41 -71 107z" />
<glyph unicode="&#x679;" horiz-adv-x="418" arabic-form="initial" d="M-79 812l83 -6q10 42 -8 114l-65 231l65 5l42 -158q14 -50 15 -87q46 94 121 94q52 0 86 -35.5t34 -88.5q0 -70 -65 -107t-159 -37h-95zM59 807q92 0 133 21t41 53q0 21 -16 37.5t-41 16.5q-70 0 -117 -128zM63 66q0 23 13.5 40t44.5 17h19q176 0 224 34 q-25 160 -186 373l91 41q71 -95 132 -224.5t61 -232.5q0 -29 -3 -42q-66 -72 -298 -72h-15q-45 0 -64 19.5t-19 46.5z" />
<glyph unicode="&#x679;" horiz-adv-x="457" arabic-form="medial" d="M63 657l83 -6q10 42 -8 114l-65 231l65 5l42 -158q14 -50 15 -87q46 94 121 94q52 0 86 -35.5t34 -88.5q0 -70 -65 -107t-159 -37h-95zM64 66q0 21 15 39t47 18q55 0 90.5 20t48.5 52.5t17.5 75.5t-1.5 89l80 6q4 -40 9 -69q8 -36 21 -64.5t36.5 -54t61.5 -40t89 -15.5 q40 0 61 -17.5t21 -48.5q0 -21 -15 -39t-45 -18q-182 0 -255 148q-15 -72 -68 -110t-131 -38q-39 0 -60.5 17.5t-21.5 48.5zM200 652q92 0 133 21t41 53q0 21 -16 37.5t-42 16.5q-69 0 -116 -128z" />
<glyph unicode="&#x679;" horiz-adv-x="1341" arabic-form="final" d="M138 446q0 55 8 84l79 -12q-1 -12 -1 -40q0 -102 36.5 -177.5t102.5 -120.5t152 -66.5t193 -21.5q173 0 297 34.5t180 76.5q-25 50 -25 125q0 17 2 41l80 8q0 -37 7 -83q31 -163 214 -171q39 0 60.5 -17.5t21.5 -48.5q0 -21 -14.5 -39t-42.5 -18q-166 0 -253 111 q-83 -64 -221.5 -103.5t-298.5 -39.5q-276 0 -426.5 119.5t-150.5 358.5zM453 683l84 -6q10 40 -9 114l-63 232l63 4l43 -158q14 -40 14 -86q45 93 122 93q52 0 86 -35.5t34 -88.5q0 -70 -65 -106.5t-159 -36.5h-95zM592 679q92 0 132.5 20.5t40.5 52.5q0 21 -16 37.5 t-41 16.5q-72 0 -116 -127z" />
<glyph unicode="&#x67e;" horiz-adv-x="418" arabic-form="initial" d="M63 66q0 23 13.5 40t44.5 17h19q176 0 224 34q-25 160 -186 373l91 41q71 -95 132 -224.5t61 -232.5q0 -29 -3 -42q-66 -72 -298 -72h-15q-45 0 -64 19.5t-19 46.5zM224 -274q0 26 17 44t44 18q36 0 60 -24t24 -61q0 -28 -18 -46t-44 -18q-39 0 -61 24t-22 63zM350 -448 q0 27 17.5 45t45.5 18q35 0 58 -24t23 -62q0 -26 -17.5 -44.5t-43.5 -18.5q-37 0 -60 24.5t-23 61.5zM411 -274q0 26 17.5 44t45.5 18q36 0 59 -24t23 -61q0 -28 -17 -46t-43 -18q-39 0 -62 24.5t-23 62.5z" />
<glyph unicode="&#x67e;" horiz-adv-x="457" arabic-form="medial" d="M64 66q0 21 15 39t47 18q55 0 90.5 20t48.5 52.5t17.5 75.5t-1.5 89l80 6q4 -40 9 -69q8 -36 21 -64.5t36.5 -54t61.5 -40t89 -15.5q40 0 61 -17.5t21 -48.5q0 -21 -15 -39t-45 -18q-182 0 -255 148q-15 -72 -68 -110t-131 -38q-39 0 -60.5 17.5t-21.5 48.5zM271 -274 q0 26 17 44t44 18q36 0 59.5 -24t23.5 -61q0 -28 -17.5 -46t-43.5 -18q-39 0 -61 24t-22 63zM396 -448q0 27 17.5 45t45.5 18q36 0 59 -24t23 -62q0 -26 -17.5 -44.5t-43.5 -18.5q-38 0 -61 24.5t-23 61.5zM458 -274q0 26 17.5 44t45.5 18q36 0 59 -24t23 -61q0 -28 -17 -46 t-43 -18q-39 0 -62 24.5t-23 62.5z" />
<glyph unicode="&#x67e;" horiz-adv-x="1341" arabic-form="final" d="M138 446q0 55 8 84l79 -12q-1 -12 -1 -40q0 -102 36.5 -177.5t102.5 -120.5t152 -66.5t193 -21.5q173 0 297 34.5t180 76.5q-25 50 -25 125q0 17 2 41l80 8q0 -37 7 -83q31 -163 214 -171q39 0 60.5 -17.5t21.5 -48.5q0 -21 -14.5 -39t-42.5 -18q-166 0 -253 111 q-83 -64 -221.5 -103.5t-298.5 -39.5q-276 0 -426.5 119.5t-150.5 358.5zM707 -274q0 26 17 44t44 18q36 0 59.5 -24t23.5 -61q0 -28 -17.5 -46t-43.5 -18q-39 0 -61 24t-22 63zM832 -448q0 27 17.5 45t45.5 18q36 0 59 -24t23 -62q0 -26 -17.5 -44.5t-43.5 -18.5 q-38 0 -61 24.5t-23 61.5zM894 -274q0 26 17.5 44t45.5 18q36 0 59 -24t23 -61q0 -28 -17 -46t-43 -18q-39 0 -62 24.5t-23 62.5z" />
<glyph unicode="&#x686;" horiz-adv-x="949" arabic-form="initial" d="M64 64q0 22 16 40.5t49 18.5h11q300 0 477 96q132 66 145 71q-30 10 -129 50.5t-172 62t-132 21.5q-120 0 -191 -35l14 111q61 34 161 34q27 0 54.5 -2.5t60.5 -11t52.5 -13.5t60.5 -20.5t52.5 -19.5t60.5 -24.5t55 -22.5q138 -57 223 -57h66l-22 -111h-24 q-44 0 -99.5 -23.5t-145.5 -79.5q-149 -88 -266 -118.5t-279 -30.5h-19q-38 0 -58.5 17t-20.5 47zM492 -217q0 26 17 44t45 18q36 0 59 -24t23 -61q0 -28 -17 -46t-43 -18q-39 0 -61.5 24.5t-22.5 62.5zM617 -391q0 27 17.5 45t45.5 18q36 0 59 -24t23 -62q0 -27 -17 -45 t-43 -18q-39 0 -62 24.5t-23 61.5zM680 -217q0 26 17.5 44t45.5 18q36 0 59 -24t23 -61q0 -28 -17 -46t-43 -18q-39 0 -62 24.5t-23 62.5z" />
<glyph unicode="&#x686;" horiz-adv-x="994" arabic-form="medial" d="M64 64q0 23 15.5 41t47.5 18h12q284 0 451 88q45 23 93 50.5t66 35.5q-38 11 -121.5 46.5t-159.5 58t-149 22.5q-117 0 -183 -36l15 112q59 34 152 34q88 0 175.5 -25.5t207.5 -76.5q133 -59 240 -59h61l-24 -110h-41l-30 -3q34 -137 223 -137q39 0 60.5 -17.5 t21.5 -48.5q0 -21 -14 -39t-42 -18q-281 2 -325 233q-29 -15 -104 -65q-142 -97 -262.5 -132.5t-287.5 -35.5h-19q-38 0 -58.5 17t-20.5 47zM492 -217q0 26 17 44t45 18q36 0 59 -24t23 -61q0 -28 -17 -46t-43 -18q-39 0 -61.5 24.5t-22.5 62.5zM617 -391q0 27 17.5 45 t45.5 18q36 0 59 -24t23 -62q0 -27 -17 -45t-43 -18q-39 0 -62 24.5t-23 61.5zM680 -217q0 26 17.5 44t45.5 18q36 0 59 -24t23 -61q0 -28 -17 -46t-43 -18q-39 0 -62 24.5t-23 62.5z" />
<glyph unicode="&#x686;" horiz-adv-x="978" arabic-form="final" d="M138 408l16 116q68 32 162 32q71 0 137.5 -15t166 -51t114.5 -41q83 -32 147 -32h79l-15 -119q-75 3 -88 3q48 -183 245 -178q39 0 60 -17.5t21 -48.5q0 -21 -14.5 -39t-42.5 -18q-310 0 -357 295q-20 -2 -93 -16q-142 -38 -231.5 -126.5t-89.5 -216.5q0 -97 44 -172.5 t120.5 -122t173.5 -70.5t208 -24q138 0 225 21l-26 -103q-64 -27 -224 -27q-180 0 -324 57t-229.5 170.5t-85.5 265.5q0 75 28 141t73.5 113.5t104 84.5t116.5 59t115 32q-14 4 -82 28t-133.5 40t-123.5 16q-128 0 -197 -37zM546 -19q0 22 14 38t35 16q33 0 52.5 -21 t19.5 -53q0 -22 -15 -37.5t-38 -15.5q-31 0 -49.5 20t-18.5 53zM647 -174q0 23 14.5 38.5t36.5 15.5q32 0 51.5 -20.5t19.5 -52.5q0 -22 -14.5 -37.5t-37.5 -15.5q-31 0 -50.5 20t-19.5 52zM711 -19q0 22 15 38t36 16q32 0 52 -21t20 -53q0 -22 -15 -37.5t-38 -15.5 q-31 0 -50.5 20t-19.5 53z" />
<glyph unicode="&#x688;" horiz-adv-x="844" arabic-form="final" d="M176 231l81 15q26 -69 71.5 -95.5t126.5 -26.5q120 0 177 63q36 40 25 68q-73 176 -208 444l100 37q28 -62 98 -216.5t115 -247.5q43 -87 88 -118t115 -31q39 0 60.5 -17.5t21.5 -48.5q0 -21 -14 -39t-43 -18q-101 0 -161 36t-114 118q-17 -68 -87 -111t-170 -43 q-124 0 -189 50.5t-93 180.5zM263 952l84 -6q10 40 -9 115l-64 231l64 4l42 -158q14 -50 15 -86q45 93 121 93q52 0 86 -35.5t34 -88.5q0 -70 -64.5 -106.5t-158.5 -36.5h-96zM401 948q92 0 133 20.5t41 52.5q0 21 -16 37.5t-41 16.5q-70 0 -117 -127z" />
<glyph unicode="&#x691;" horiz-adv-x="687" arabic-form="final" d="M190 644l84 -6q12 38 -9 114l-63 231l63 4l42 -158q15 -43 15 -86q46 94 121 94q52 0 86 -36t34 -89q0 -70 -65 -106.5t-159 -36.5h-93zM221 -196q92 -51 206 -51q78 0 137.5 52.5t73.5 131.5q3 10 3 38q0 54 -66.5 167.5t-142.5 212.5l89 53q71 -94 124 -193 q36 -50 75 -71t89 -21q39 0 60.5 -17.5t21.5 -48.5q0 -21 -14 -39t-43 -18q-68 0 -111 26q8 -25 8 -64q-1 -148 -87.5 -237t-198.5 -89q-139 0 -220 77zM329 639q92 0 132.5 20.5t40.5 52.5q0 21 -15.5 38t-41.5 17q-71 0 -116 -128z" />
<glyph unicode="&#x698;" horiz-adv-x="687" arabic-form="final" d="M208 663q0 28 17 46t43 18q39 0 62 -24.5t23 -61.5q0 -27 -17.5 -45t-45.5 -18q-36 0 -59 24t-23 61zM221 -196q92 -51 206 -51q78 0 137.5 52.5t73.5 131.5q3 10 3 38q0 54 -66.5 167.5t-142.5 212.5l89 53q71 -94 124 -193q36 -50 75 -71t89 -21q39 0 60.5 -17.5 t21.5 -48.5q0 -21 -14 -39t-43 -18q-68 0 -111 26q8 -25 8 -64q-1 -148 -87.5 -237t-198.5 -89q-139 0 -220 77zM271 837q0 28 17 45.5t43 17.5q39 0 61.5 -24.5t22.5 -62.5q0 -26 -17 -43.5t-45 -17.5q-36 0 -59 24t-23 61zM396 663q0 28 17 46t43 18q39 0 62 -24.5 t23 -61.5q0 -27 -17.5 -45t-45.5 -18q-36 0 -59 24t-23 61z" />
<glyph unicode="&#x6a1;" horiz-adv-x="1338" d="M136 443q0 53 9 116l82 -12q-5 -30 -5 -63q0 -395 492 -395q174 0 291 31q-157 105 -157 260q0 96 63.5 166.5t138.5 70.5q61 0 120.5 -36.5t100.5 -106.5t41 -155q0 -101 -73 -181q90 -15 186 -15h35q80 0 80 -66q0 -21 -13.5 -39t-41.5 -18h-35q-168 0 -318 56 q-165 -87 -431 -87q-125 0 -223 26t-161.5 69.5t-105 105t-58.5 129t-17 144.5zM942 377q0 -145 180 -210q97 60 97 153q0 76 -47 132t-114 56q-51 0 -83.5 -40t-32.5 -91z" />
<glyph unicode="&#x6a4;" horiz-adv-x="630" arabic-form="initial" d="M61 69q0 23 15.5 38.5t44.5 15.5h100q111 0 210 14.5t126 30.5q0 44 -1 62q-113 -5 -199 15.5t-134.5 60t-72 87.5t-23.5 103q0 77 46 137q59 81 155 81q55 0 110.5 -34.5t103 -98t77 -167t29.5 -227.5q0 -69 -4 -93q-113 -94 -413 -94h-85q-41 0 -63 20.5t-22 48.5z M70 992q0 28 17 46t43 18q39 0 62 -24.5t23 -61.5q0 -27 -17.5 -45t-45.5 -18q-36 0 -59 24t-23 61zM132 1166q0 28 17 45.5t43 17.5q39 0 61.5 -24.5t22.5 -62.5q0 -26 -17 -43.5t-45 -17.5q-36 0 -59 24t-23 61zM218 492q0 -75 89 -118.5t239 -38.5q-16 104 -75.5 186.5 t-139.5 82.5q-50 0 -81.5 -31t-31.5 -81zM257 992q0 28 18 46t44 18q37 0 60 -24.5t23 -61.5q0 -27 -17 -45t-44 -18q-36 0 -60 24t-24 61z" />
<glyph unicode="&#x6a4;" horiz-adv-x="664" arabic-form="medial" d="M63 70q0 19 13.5 36t44.5 17h50q72 0 139 9q-136 101 -136 244q0 99 63 170t140 71q95 0 178 -86.5t83 -211.5q0 -100 -73 -181q84 -15 180 -15h41q39 0 60 -17.5t21 -48.5q0 -21 -14 -39t-43 -18h-49q-162 0 -309 56q-115 -56 -253 -56h-53q-40 0 -61.5 18.5t-21.5 51.5 zM114 891q0 28 17 46t43 18q39 0 62 -24.5t23 -61.5q0 -27 -17.5 -45t-45.5 -18q-36 0 -59 24t-23 61zM176 1065q0 28 17 45.5t43 17.5q39 0 61.5 -24t22.5 -62q0 -26 -17.5 -44t-45.5 -18q-36 0 -58.5 23.5t-22.5 61.5zM265 372q0 -137 177 -202q105 48 105 149 q0 76 -50 132.5t-111 56.5q-57 0 -89 -41.5t-32 -94.5zM301 891q0 28 18 46t44 18q37 0 60 -24.5t23 -61.5q0 -27 -17 -45t-44 -18q-36 0 -60 24t-24 61z" />
<glyph unicode="&#x6a4;" horiz-adv-x="1338" arabic-form="final" d="M136 443q0 53 9 116l82 -12q-5 -30 -5 -63q0 -395 492 -395q174 0 291 31q-157 105 -157 260q0 96 63.5 166.5t138.5 70.5q61 0 120.5 -36.5t100.5 -106.5t41 -155q0 -101 -73 -181q90 -15 186 -15h35q39 0 60.5 -17.5t21.5 -48.5q0 -21 -14.5 -39t-42.5 -18h-35 q-168 0 -318 56q-165 -87 -431 -87q-125 0 -223 26t-161.5 69.5t-105 105t-58.5 129t-17 144.5zM803 891q0 28 17 46t43 18q39 0 62 -24.5t23 -61.5q0 -27 -17.5 -45t-45.5 -18q-36 0 -59 24t-23 61zM865 1065q0 28 17.5 45.5t43.5 17.5q38 0 60.5 -24t22.5 -62 q0 -26 -17.5 -44t-45.5 -18q-35 0 -58 24t-23 61zM942 377q0 -145 180 -210q97 60 97 153q0 76 -47 132t-114 56q-51 0 -83.5 -40t-32.5 -91zM990 891q0 28 18 46t44 18q39 0 61 -24.5t22 -61.5q0 -27 -17 -45t-44 -18q-36 0 -60 24t-24 61z" />
<glyph unicode="&#x6a9;" horiz-adv-x="1405" arabic-form="final" d="M148 440l83 -14q-1 -183 120.5 -259t397.5 -76q91 0 164 9t116.5 23t72.5 32t40 33.5t11 30.5q0 34 -28.5 78.5t-104.5 128.5q-107 116 -242 229q-1 8 -3.5 31.5t-3.5 33t-2 29t2 20.5q4 12 61 47q196 124 536 240l-22 -126q-113 -34 -267.5 -100t-221.5 -113 q189 -165 411 -432q82 -101 135.5 -131.5t123.5 -30.5q39 0 60.5 -17.5t21.5 -48.5q0 -21 -14 -39t-43 -18h-12q-86 0 -157 35t-156 142q-9 -92 -138.5 -153t-343.5 -61q-229 0 -364.5 53t-189 156t-43.5 268z" />
<glyph unicode="&#x6aa;" horiz-adv-x="1430" d="M64 66q0 21 15.5 39t46.5 18h137q202 0 374.5 7.5t384.5 22.5t343 21q-16 200 -300 200q-87 0 -307 -14q-229 -15 -344 -15q-45 0 -80 3t-75.5 14t-67 30t-44.5 53.5t-18 81.5q0 56 35 117t88 111q49 47 116 93.5t112.5 72.5t116.5 64l-21 -135q-69 -31 -158 -90.5 t-143 -121.5q-51 -60 -51 -104q0 -82 175 -82q68 0 137.5 3t170 9.5t108.5 6.5q153 10 234 10q212 -1 309.5 -89.5t107.5 -251.5q4 -23 1 -77q-60 -2 -499 -32.5t-661 -30.5h-161q-39 0 -60.5 17.5t-21.5 48.5z" />
<glyph unicode="&#x6aa;" horiz-adv-x="1442" d="M61 73q0 18 14 34t46 16h142q202 0 374.5 7.5t384.5 22.5t343 21q-16 200 -300 200q-87 0 -307 -14q-229 -15 -344 -15q-45 0 -80 3t-75.5 14t-67 30t-44.5 53.5t-18 81.5q0 56 35 117t88 111q49 47 116 93.5t112.5 72.5t116.5 64l-21 -135q-69 -31 -158 -90.5 t-143 -121.5q-51 -60 -51 -104q0 -82 175 -82q68 0 137.5 3t170 9.5t108.5 6.5q153 10 234 10q107 0 186 -23.5t127 -68.5t73 -104t31 -136q34 -26 96 -26q40 0 61 -17.5t21 -48.5q0 -21 -13.5 -39t-41.5 -18q-106 0 -177 60q-10 0 -452 -30t-653 -30h-161q-45 0 -65 24 t-20 49z" />
<glyph unicode="&#x6aa;" horiz-adv-x="1593" d="M158 155q134 -35 363 -35q163 0 322.5 8t386 25t288.5 21q-5 101 -87 150.5t-218 49.5q-134 0 -305 -14q-267 -15 -342 -15q-45 0 -80 3t-75.5 14t-67 30t-44.5 53.5t-18 81.5q0 56 35 117t88 111q49 47 116 93.5t112.5 72.5t116.5 64l-20 -135q-69 -31 -158.5 -90.5 t-143.5 -121.5q-51 -60 -51 -104q0 -82 175 -82q74 0 145.5 3t163 9t107.5 7q153 10 233 10q210 -1 308 -87t110 -245q34 -26 96 -26q39 0 60.5 -17.5t21.5 -48.5q0 -21 -14 -39t-43 -18q-107 0 -172 59q-697 -62 -1004 -62q-259 0 -326 19z" />
<glyph unicode="&#x6ad;" horiz-adv-x="576" arabic-form="initial" d="M-79 1144q0 25 16.5 42.5t40.5 17.5q37 0 59 -23t22 -59q0 -25 -16.5 -42t-43.5 -17q-34 0 -56 22.5t-22 58.5zM-20 1309q0 26 16.5 43t41.5 17q37 0 58 -23t21 -59q0 -25 -15.5 -42.5t-42.5 -17.5q-34 0 -56.5 23t-22.5 59zM13 774q1 10 50 44q86 57 221 124.5 t259 113.5l-22 -126q-105 -39 -229 -97.5t-188 -103.5q68 -44 105.5 -69t97 -68t93.5 -72.5t75.5 -71.5t63.5 -78t37.5 -79t15.5 -85q0 -48 -19.5 -88t-51.5 -62q-45 -32 -109.5 -44t-164.5 -12h-102q-38 0 -59.5 17.5t-21.5 48.5q0 21 15 39t47 18h139q94 0 147.5 14t70 34 t16.5 51q0 67 -107 175t-373 263q-11 85 -6 114zM101 1144q0 26 16 43t41 17q37 0 58 -23t21 -59q0 -25 -16.5 -42t-42.5 -17q-34 0 -55.5 22.5t-21.5 58.5z" />
<glyph unicode="&#x6ad;" horiz-adv-x="648" arabic-form="medial" d="M-79 1144q0 25 16.5 42.5t40.5 17.5q37 0 59 -23t22 -59q0 -25 -16.5 -42t-43.5 -17q-34 0 -56 22.5t-22 58.5zM-20 1309q0 26 16.5 43t41.5 17q37 0 58 -23t21 -59q0 -25 -15.5 -42.5t-42.5 -17.5q-34 0 -56.5 23t-22.5 59zM10 765q5 12 62 48q85 53 246 125t296 117 l-22 -125q-116 -40 -273 -108t-218 -110q137 -114 227 -205.5t234 -256.5q30 -35 56.5 -59t43.5 -36.5t39.5 -20t32.5 -9.5t35 -4q39 0 60.5 -17t21.5 -47q0 -22 -14 -40t-43 -18q-81 1 -146.5 35.5t-166.5 151.5q-16 -186 -292 -186h-43q-82 0 -82 64q0 23 15 41t48 18h37 q134 0 189 25.5t55 76.5q0 23 -10.5 46t-24.5 40.5t-53 62.5q-101 116 -302 283q-1 11 -4.5 57.5t-3.5 50.5zM101 1144q0 26 16 43t41 17q37 0 58 -23t21 -59q0 -25 -16.5 -42t-42.5 -17q-34 0 -55.5 22.5t-21.5 58.5z" />
<glyph unicode="&#x6ad;" horiz-adv-x="1250" arabic-form="final" d="M152 383q0 28 6 54l80 -11q-12 -335 431 -335q154 0 264.5 40t137.5 96q4 29 -8 83l-179 743l101 8l171 -714q33 -128 83.5 -175t132.5 -49q39 0 60.5 -17.5t21.5 -48.5q0 -20 -15 -38.5t-42 -18.5q-201 0 -272 154q-35 -73 -155 -126.5t-310 -53.5q-121 0 -212.5 24.5 t-146.5 63t-89.5 94t-47 110t-12.5 117.5zM313 1078q0 25 16.5 42.5t40.5 17.5q37 0 59 -23t22 -59q0 -24 -16.5 -41t-42.5 -17q-35 0 -57 22t-22 58zM373 1243q0 25 16.5 42.5t40.5 17.5q37 0 59 -23t22 -59q0 -25 -16.5 -42t-43.5 -17q-34 0 -56 22.5t-22 58.5zM477 465 q70 1 124 17t76 33t22 28q0 12 -19 17.5t-74 8.5q-67 4 -90.5 24t-23.5 65q0 59 45.5 114t120.5 71l24 -76q-61 -11 -94.5 -40t-33.5 -56q0 -13 15 -20t57 -9q74 -5 104.5 -24.5t30.5 -63.5q0 -63 -61.5 -107.5t-143.5 -44.5q-32 0 -44 3zM493 1078q0 25 16.5 42.5 t40.5 17.5q37 0 58.5 -23t21.5 -59q0 -25 -16 -41.5t-43 -16.5q-34 0 -56 22t-22 58z" />
<glyph unicode="&#x6af;" horiz-adv-x="576" arabic-form="initial" d="M6 1043q85 53 224.5 120t275.5 116l-1 -96q-284 -101 -496 -231zM13 774q1 10 50 44q86 57 221 124.5t259 113.5l-22 -126q-105 -39 -229 -97.5t-188 -103.5q68 -44 105.5 -69t97 -68t93.5 -72.5t75.5 -71.5t63.5 -78t37.5 -79t15.5 -85q0 -48 -19.5 -88t-51.5 -62 q-45 -32 -109.5 -44t-164.5 -12h-102q-38 0 -59.5 17.5t-21.5 48.5q0 21 15 39t47 18h139q94 0 147.5 14t70 34t16.5 51q0 67 -107 175t-373 263q-11 85 -6 114z" />
<glyph unicode="&#x6af;" horiz-adv-x="648" arabic-form="medial" d="M10 765q5 12 62 48q85 53 246 125t296 117l-22 -125q-116 -40 -273 -108t-218 -110q137 -114 227 -205.5t234 -256.5q30 -35 56.5 -59t43.5 -36.5t39.5 -20t32.5 -9.5t35 -4q39 0 60.5 -17t21.5 -47q0 -22 -14 -40t-43 -18q-81 1 -146.5 35.5t-166.5 151.5 q-16 -186 -292 -186h-43q-82 0 -82 64q0 23 15 41t48 18h37q134 0 189 25.5t55 76.5q0 23 -10.5 46t-24.5 40.5t-53 62.5q-101 116 -302 283q-1 11 -4.5 57.5t-3.5 50.5zM22 1043q85 53 224.5 120t275.5 116l-1 -96q-284 -101 -496 -231z" />
<glyph unicode="&#x6af;" horiz-adv-x="1405" arabic-form="final" d="M148 440l83 -14q-1 -183 120.5 -259t397.5 -76q91 0 164 9t116.5 23t72.5 32t40 33.5t11 30.5q0 34 -28.5 78.5t-104.5 128.5q-107 116 -242 229q-1 8 -3.5 31.5t-3.5 33t-2 29t2 20.5q4 12 61 47q196 124 536 240l-22 -126q-113 -34 -267.5 -100t-221.5 -113 q189 -165 411 -432q82 -101 135.5 -131.5t123.5 -30.5q39 0 60.5 -17.5t21.5 -48.5q0 -21 -14 -39t-43 -18h-12q-86 0 -157 35t-156 142q-9 -92 -138.5 -153t-343.5 -61q-229 0 -364.5 53t-189 156t-43.5 268zM780 1043q85 53 224.5 120t275.5 116l-1 -96 q-284 -101 -496 -231z" />
<glyph unicode="&#x6ba;" horiz-adv-x="930" arabic-form="final" d="M202 126q0 85 17 149l88 -13q-7 -67 -7 -114q0 -154 85 -247.5t225 -93.5q92 0 162 39.5t95 116.5q12 22 12 44q-2 57 -36 126q-57 131 -145 255l93 42q33 -48 78 -129.5t72 -158.5q47 -19 111 -19q39 0 60.5 -17.5t21.5 -48.5q0 -21 -14 -39t-43 -18q-77 0 -110 16 q6 -59 -18 -120q-36 -93 -122 -152t-214 -59q-189 0 -300 123t-111 318z" />
<glyph unicode="&#x6be;" horiz-adv-x="756" arabic-form="final" d="M146 88q56 -1 145 1q-4 31 -4 68q0 111 29.5 235t72.5 218h38q49 -44 69.5 -63t69.5 -71t73.5 -87t46.5 -84t22 -91q0 -50 -25 -91h193q39 0 60.5 -17.5t21.5 -48.5q0 -21 -15 -39t-45 -18h-150q64 -39 94 -83t30 -106q0 -75 -54.5 -122t-128.5 -47q-139 0 -234 93 t-139 234q-49 -4 -114 -4zM379 165q0 -39 4 -68q239 25 239 121q0 48 -54.5 118.5t-133.5 137.5q-55 -148 -55 -309zM410 -19q38 -106 110 -171t159 -65q47 0 74.5 21.5t27.5 59.5q0 60 -72.5 116.5t-212.5 57.5q-65 -16 -86 -19z" />
<glyph unicode="&#x6c0;" horiz-adv-x="696" arabic-form="final" d="M157 307q0 111 100 206q54 57 189 126l-31 119l91 9l114 -460q26 -105 76.5 -144.5t121.5 -39.5q39 0 60.5 -17.5t21.5 -48.5q0 -21 -14 -39t-43 -18q-174 0 -253 130q-31 -20 -80.5 -31t-89.5 -11q-115 0 -189 60.5t-74 158.5zM247 307q0 -50 44.5 -76t118.5 -26t134 26 q-1 5 -4.5 18t-5.5 20l-63 265q-118 -50 -171 -111t-53 -116zM256 1083q0 49 38.5 79t93.5 30q74 0 124 -38l-9 -66q-53 33 -114 33q-31 0 -47 -14t-16 -33q0 -35 42.5 -60t105.5 -25h94l-15 -73h-92q-134 0 -192 -24l-4 68q27 16 63 16q-72 39 -72 107z" />
<glyph unicode="&#x6c1;" horiz-adv-x="671" arabic-form="initial" d="M64 64q0 22 15 40.5t44 18.5q102 0 137 48.5t34 148.5l86 5v-56q7 -151 117 -151q50 0 76.5 27.5t26.5 73.5q0 81 -84 196l95 31q82 -122 82 -244q-1 -91 -53 -146.5t-135 -55.5q-62 0 -105 30t-65 77q-19 -49 -70 -78t-122 -29q-38 0 -58.5 17t-20.5 47zM500 -274 q0 84 51 160l85 -34q-36 -68 -36 -130q0 -93 101 -184l-75 -44q-47 36 -86.5 99.5t-39.5 132.5z" />
<glyph unicode="&#x6c1;" horiz-adv-x="709" arabic-form="medial" d="M64 66q0 22 16 39.5t50 17.5h51q48 0 85 13.5t61 34t42 54t28 63.5t20 73l94 -17q-49 -174 -49 -277q0 -219 182 -367l4 5q-64 147 -64 238q0 90 49 135t138 45h60q39 0 60.5 -17.5t21.5 -48.5q0 -21 -15.5 -39t-46.5 -18h-55q-64 0 -91.5 -23t-27.5 -75q0 -56 30 -142 t67 -155l-81 -69q-148 88 -231 214.5t-90 277.5q-2 2 -2 32q-58 -60 -184 -60h-40q-39 0 -60.5 17.5t-21.5 48.5z" />
<glyph unicode="&#x6c1;" horiz-adv-x="696" arabic-form="final" d="M157 307q0 111 100 206q54 57 189 126l-31 119l91 9l114 -460q26 -105 76.5 -144.5t121.5 -39.5q39 0 60.5 -17.5t21.5 -48.5q0 -21 -14 -39t-43 -18q-174 0 -253 130q-31 -20 -80.5 -31t-89.5 -11q-115 0 -189 60.5t-74 158.5zM247 307q0 -50 44.5 -76t118.5 -26t134 26 q-1 5 -4.5 18t-5.5 20l-63 265q-118 -50 -171 -111t-53 -116z" />
<glyph unicode="&#x6c2;" horiz-adv-x="696" d="M157 307q0 111 100 206q54 57 189 126l-31 119l91 9l114 -460q26 -105 76.5 -144.5t121.5 -39.5q39 0 60.5 -17.5t21.5 -48.5q0 -21 -14 -39t-43 -18q-174 0 -253 130q-31 -20 -80.5 -31t-89.5 -11q-115 0 -189 60.5t-74 158.5zM247 307q0 -50 44.5 -76t118.5 -26t134 26 q-1 5 -4.5 18t-5.5 20l-63 265q-118 -50 -171 -111t-53 -116zM256 1083q0 49 38.5 79t93.5 30q74 0 124 -38l-9 -66q-53 33 -114 33q-31 0 -47 -14t-16 -33q0 -35 42.5 -60t105.5 -25h94l-15 -73h-92q-134 0 -192 -24l-4 68q27 16 63 16q-72 39 -72 107z" />
<glyph unicode="&#x6c3;" horiz-adv-x="696" d="M157 307q0 111 100 206q54 57 189 126l-31 119l91 9l114 -460q26 -105 76.5 -144.5t121.5 -39.5q39 0 60.5 -17.5t21.5 -48.5q0 -21 -14 -39t-43 -18q-174 0 -253 130q-31 -20 -80.5 -31t-89.5 -11q-115 0 -189 60.5t-74 158.5zM247 307q0 -50 44.5 -76t118.5 -26t134 26 q-1 5 -4.5 18t-5.5 20l-63 265q-118 -50 -171 -111t-53 -116zM250 992q0 28 17 45.5t43 17.5q39 0 62 -24.5t23 -62.5q0 -26 -17.5 -43.5t-45.5 -17.5q-36 -1 -59 23t-23 62zM437 992q0 28 17.5 45.5t44.5 17.5q38 0 60.5 -24.5t22.5 -62.5q0 -26 -17 -43.5t-44 -17.5 q-36 -1 -60 23.5t-24 61.5z" />
<glyph unicode="&#x6c5;" horiz-adv-x="776" arabic-form="final" d="M247 -361l3 87q85 -43 196 -43q81 0 141 41t92 115h-322l-13 72h358q10 42 12 89h-62q-192 0 -282.5 80t-90.5 201q0 91 62 156t152 65q48 0 96.5 -23t93 -67.5t77 -119.5t42.5 -169h96q39 0 60.5 -17.5t21.5 -48.5q0 -21 -15 -39t-46 -18h-114q-10 -193 -105 -312.5 t-242 -119.5q-123 0 -211 71zM369 281q0 -74 69.5 -116t213.5 -42h57q-19 126 -81 200.5t-144 74.5q-48 0 -81.5 -34.5t-33.5 -82.5z" />
<glyph unicode="&#x6c6;" horiz-adv-x="770" arabic-form="final" d="M151 919l58 46q94 -88 167 -184q40 96 92 186l63 -40q-73 -129 -108 -238h-73q-55 86 -199 230zM234 -336l3 87q90 -44 196 -44q116 0 188.5 82.5t82.5 210.5h-53q-192 0 -284.5 80t-92.5 201q0 91 62 156t151 65q46 0 93.5 -22t92 -65.5t77 -119.5t41.5 -172h101 q39 0 60.5 -17.5t21.5 -48.5q0 -21 -15 -39t-45 -18h-120q-11 -180 -106.5 -292.5t-242.5 -112.5q-124 0 -211 69zM364 281q0 -75 70.5 -116.5t216.5 -41.5h48q-17 125 -79 200t-142 75q-49 0 -81.5 -34t-32.5 -83z" />
<glyph unicode="&#x6c7;" horiz-adv-x="770" arabic-form="final" d="M208 748q37 -8 79 -8q40 0 77 16.5t50 46.5q-84 -7 -140 29t-56 109q0 49 35 84.5t86 35.5q54 0 103.5 -50t50.5 -145q1 -90 -57 -142.5t-133 -52.5q-55 0 -89 19zM234 -336l3 87q90 -44 196 -44q116 0 188.5 82.5t82.5 210.5h-53q-192 0 -284.5 80t-92.5 201 q0 91 62 156t151 65q46 0 93.5 -22t92 -65.5t77 -119.5t41.5 -172h101q39 0 60.5 -17.5t21.5 -48.5q0 -21 -15 -39t-45 -18h-120q-11 -180 -106.5 -292.5t-242.5 -112.5q-124 0 -211 69zM276 938q0 -34 39 -58t115 -18q1 51 -25 91t-71 40q-29 0 -43.5 -16.5t-14.5 -38.5z M364 281q0 -75 70.5 -116.5t216.5 -41.5h48q-17 125 -79 200t-142 75q-49 0 -81.5 -34t-32.5 -83z" />
<glyph unicode="&#x6c8;" horiz-adv-x="770" arabic-form="final" d="M234 -336l3 87q90 -44 196 -44q116 0 188.5 82.5t82.5 210.5h-53q-192 0 -284.5 80t-92.5 201q0 91 62 156t151 65q46 0 93.5 -22t92 -65.5t77 -119.5t41.5 -172h101q39 0 60.5 -17.5t21.5 -48.5q0 -21 -15 -39t-45 -18h-120q-11 -180 -106.5 -292.5t-242.5 -112.5 q-124 0 -211 69zM253 1043l92 7l87 -352l-84 -6zM364 281q0 -75 70.5 -116.5t216.5 -41.5h48q-17 125 -79 200t-142 75q-49 0 -81.5 -34t-32.5 -83z" />
<glyph unicode="&#x6c9;" horiz-adv-x="770" arabic-form="final" d="M196 711q77 136 108 238h73q54 -84 199 -229l-57 -47q-94 87 -168 184q-38 -97 -92 -186zM234 -336l3 87q90 -44 196 -44q116 0 188.5 82.5t82.5 210.5h-53q-192 0 -284.5 80t-92.5 201q0 91 62 156t151 65q46 0 93.5 -22t92 -65.5t77 -119.5t41.5 -172h101 q39 0 60.5 -17.5t21.5 -48.5q0 -21 -15 -39t-45 -18h-120q-11 -180 -106.5 -292.5t-242.5 -112.5q-124 0 -211 69zM364 281q0 -75 70.5 -116.5t216.5 -41.5h48q-17 125 -79 200t-142 75q-49 0 -81.5 -34t-32.5 -83z" />
<glyph unicode="&#x6cb;" horiz-adv-x="770" arabic-form="final" d="M211 781q0 28 17 46.5t43 18.5q39 0 61.5 -25t22.5 -62q0 -27 -17 -45t-45 -18q-36 0 -59 24t-23 61zM234 -336l3 87q90 -44 196 -44q116 0 188.5 82.5t82.5 210.5h-53q-192 0 -284.5 80t-92.5 201q0 91 62 156t151 65q46 0 93.5 -22t92 -65.5t77 -119.5t41.5 -172h101 q39 0 60.5 -17.5t21.5 -48.5q0 -21 -15 -39t-45 -18h-120q-11 -180 -106.5 -292.5t-242.5 -112.5q-124 0 -211 69zM272 955q0 27 18 45t44 18q38 0 60.5 -24t22.5 -62q0 -26 -17.5 -44t-45.5 -18q-36 0 -59 24t-23 61zM364 281q0 -75 70.5 -116.5t216.5 -41.5h48 q-17 125 -79 200t-142 75q-49 0 -81.5 -34t-32.5 -83zM398 781q0 28 17.5 46.5t43.5 18.5q37 0 60.5 -25t23.5 -62q0 -27 -17.5 -45t-44.5 -18q-36 0 -59.5 24t-23.5 61z" />
<glyph unicode="&#x6d0;" horiz-adv-x="419" arabic-form="initial" d="M63 66q0 23 13.5 40t44.5 17h19q176 0 224 34q-25 160 -186 373l91 41q71 -95 132 -224.5t61 -232.5q0 -29 -3 -42q-66 -72 -298 -72h-15q-45 0 -64 19.5t-19 46.5zM312 -260q0 28 17.5 46t43.5 18q39 0 61 -24.5t22 -63.5q0 -26 -16.5 -43.5t-44.5 -17.5q-36 0 -59.5 24 t-23.5 61zM353 -452q0 26 17.5 44.5t42.5 18.5q39 0 61.5 -24t22.5 -62q0 -26 -17.5 -44.5t-45.5 -18.5q-36 0 -58.5 24t-22.5 62z" />
<glyph unicode="&#x6d0;" horiz-adv-x="457" arabic-form="medial" d="M64 66q0 21 15 39t47 18q55 0 90.5 20t48.5 52.5t17.5 75.5t-1.5 89l80 6q4 -40 9 -69q8 -36 21 -64.5t36.5 -54t61.5 -40t89 -15.5q40 0 61 -17.5t21 -48.5q0 -21 -15 -39t-45 -18q-182 0 -255 148q-15 -72 -68 -110t-131 -38q-39 0 -60.5 17.5t-21.5 48.5zM355 -260 q0 28 17 46t43 18q39 0 62 -25t23 -63q0 -26 -17.5 -43.5t-45.5 -17.5q-36 0 -59 24t-23 61zM396 -452q0 27 17 45t43 18q39 0 61.5 -24t22.5 -62q0 -26 -17 -44.5t-45 -18.5q-36 0 -59 24t-23 62z" />
<glyph unicode="&#x6d0;" horiz-adv-x="974" arabic-form="final" d="M208 105q0 76 17 142l79 -11q-6 -38 -6 -91q0 -94 24.5 -168t64 -120.5t94 -77t110 -42.5t116.5 -12q233 0 329 124q27 36 27 71q0 19 -5.5 31t-23.5 24.5t-59 18.5t-105 6h-17l25 123h218q39 0 60.5 -17.5t21.5 -48.5q0 -21 -15 -39t-45 -18h-12q48 -27 48 -92 q0 -52 -28 -101q-47 -90 -157.5 -145.5t-256.5 -55.5q-129 0 -227.5 40t-158 109.5t-89 158t-29.5 191.5zM717 -582q0 28 17 46t43 18q39 0 62 -25t23 -63q0 -26 -17.5 -43.5t-45.5 -17.5q-36 0 -59 24t-23 61zM756 -774q0 26 18 44.5t44 18.5q39 0 61 -24t22 -62 q0 -26 -16.5 -44.5t-44.5 -18.5q-36 0 -60 24t-24 62z" />
<glyph unicode="&#x6d2;" horiz-adv-x="405" arabic-form="final" d="M200 -132q0 55 24 101q32 64 109.5 108t193.5 46q39 0 60.5 -17.5t21.5 -48.5q0 -21 -14.5 -38.5t-43.5 -18.5q-127 -4 -192.5 -40t-65.5 -96q0 -27 16 -46.5t38.5 -30t60 -16t69 -7t76.5 -1.5q389 0 731 32l-30 -120q-113 -13 -313.5 -24t-367.5 -11q-59 0 -105 4 t-98.5 17.5t-87.5 37.5t-58.5 67t-23.5 102z" />
<glyph unicode="&#x6d3;" horiz-adv-x="405" arabic-form="final" d="M181 511q0 49 38.5 79t93.5 30q74 0 124 -38l-8 -66q-53 33 -114 33q-31 0 -47 -14t-16 -33q0 -35 42 -60t105 -25h94l-15 -73h-92q-133 0 -191 -24l-5 68q27 16 63 16q-72 39 -72 107zM200 -132q0 55 24 101q32 64 109.5 108t193.5 46q39 0 60.5 -17.5t21.5 -48.5 q0 -21 -14.5 -38.5t-43.5 -18.5q-127 -4 -192.5 -40t-65.5 -96q0 -27 16 -46.5t38.5 -30t60 -16t69 -7t76.5 -1.5q389 0 731 32l-30 -120q-113 -13 -313.5 -24t-367.5 -11q-59 0 -105 4t-98.5 17.5t-87.5 37.5t-58.5 67t-23.5 102z" />
<glyph unicode="&#x6d5;" horiz-adv-x="696" d="M157 307q0 111 100 206q54 57 189 126l-31 119l91 9l114 -460q26 -105 76.5 -144.5t121.5 -39.5q39 0 60.5 -17.5t21.5 -48.5q0 -21 -14 -39t-43 -18q-174 0 -253 130q-31 -20 -80.5 -31t-89.5 -11q-115 0 -189 60.5t-74 158.5zM247 307q0 -50 44.5 -76t118.5 -26t134 26 q-1 5 -4.5 18t-5.5 20l-63 265q-118 -50 -171 -111t-53 -116z" />
<glyph unicode=" "  horiz-adv-x="392" />
<glyph unicode="&#x09;" horiz-adv-x="392" />
<glyph unicode="&#xa0;" horiz-adv-x="392" />
<glyph unicode="!" horiz-adv-x="435" d="M41 986h137l150 -702h-97zM241 79q-1 38 21.5 63t59.5 25q39 0 65.5 -28.5t27.5 -69.5q1 -36 -21.5 -60.5t-57.5 -24.5q-40 0 -67 27.5t-28 67.5z" />
<glyph unicode="&#x22;" horiz-adv-x="492" d="M-15 1039h126l57 -351h-79zM202 1039h127l57 -351h-77z" />
<glyph unicode="#" horiz-adv-x="719" d="M70 670h120l-89 281h85l88 -281h133l-87 281h84l89 -281h137l14 -85h-126l67 -213h133l15 -85h-122l90 -287h-85l-89 288h-133l90 -288h-86l-89 288h-139l-15 84h127l-67 213h-132zM301 585l66 -213h132l-66 213h-132z" />
<glyph unicode="$" horiz-adv-x="744" d="M101 740q-1 68 46.5 120.5t120.5 66.5l-34 147h92l32 -141q62 -1 119.5 -17.5t93.5 -39.5l-27 -95q-98 56 -197 56q-66 0 -97.5 -29t-31.5 -71q0 -29 12.5 -54t29 -42t51 -37t59 -31t73.5 -32q47 -19 83 -37t77 -46.5t68 -58.5t45 -72t18 -89q1 -80 -45 -136t-132 -74 l35 -154h-90l-34 148q-64 1 -134.5 23.5t-118.5 52.5l23 99q47 -31 114.5 -54t124.5 -23q69 0 103 30t34 84q0 68 -57 114.5t-155 88.5q-44 20 -62.5 28t-58.5 28.5t-58.5 34.5t-46.5 39t-41 48.5t-23.5 56t-10.5 68.5z" />
<glyph unicode="%" horiz-adv-x="1247" d="M82 746q0 102 53 161.5t137 59.5q68 0 123 -33t88 -87t50.5 -116.5t17.5 -126.5q1 -108 -54.5 -164.5t-135.5 -56.5q-57 0 -104.5 22t-79 58.5t-53.5 84t-32 97.5t-10 101zM181 753q0 -69 20 -134.5t61 -111.5t93 -46q97 0 97 134q0 45 -10.5 94t-30 95t-54.5 75.5 t-79 29.5q-97 0 -97 -136zM471 -18l331 986h82l-331 -986h-82zM803 353q0 102 53 161t137 59q68 0 123 -33t88 -86.5t51 -116t18 -126.5q1 -108 -54.5 -164.5t-135.5 -56.5q-57 0 -104.5 22t-79.5 58.5t-54 84t-32 97.5t-10 101zM903 360q0 -69 20 -135t60.5 -112t91.5 -46 q98 0 98 135q0 46 -10.5 95t-30 95t-54.5 75t-79 29q-96 0 -96 -136z" />
<glyph unicode="&#x26;" horiz-adv-x="860" d="M25 230q0 107 70 187.5t174 129.5v6q-54 100 -54 180q0 111 75 190t187 79q95 0 147 -56t52 -139q0 -87 -62.5 -157.5t-190.5 -130.5v-3q72 -123 177 -273q85 106 149 295h114q-89 -251 -208 -374q60 -87 125 -164h-144q-31 38 -67 91q-122 -107 -278 -107 q-124 0 -195 70t-71 176zM148 249q0 -74 46.5 -122t128.5 -48q112 0 195 88q-6 9 -51.5 75t-83 123.5t-70.5 112.5q-31 -19 -54 -36.5t-51.5 -46.5t-44 -66.5t-15.5 -79.5zM328 746q0 -83 46 -156q94 44 141.5 95t47.5 120q0 48 -24 79.5t-74 31.5q-57 0 -97 -49t-40 -121z " />
<glyph unicode="'" horiz-adv-x="275" d="M-15 1039h126l57 -351h-79z" />
<glyph unicode="(" horiz-adv-x="456" d="M102 607q0 96 22.5 209.5t56.5 194.5h87q-60 -195 -60 -391q0 -225 85.5 -416.5t255.5 -376.5h-107q-154 145 -247 344t-93 436z" />
<glyph unicode=")" horiz-adv-x="456" d="M16 1011h107q154 -144 246.5 -343.5t92.5 -436.5q0 -96 -22 -209.5t-55 -194.5h-88q61 193 61 391q0 224 -86 416t-256 377z" />
<glyph unicode="*" horiz-adv-x="605" d="M19 796l219 -28v3l-158 178l78 53l116 -206h2l71 205l93 -52l-120 -177v-3l211 27l20 -100l-223 28v-3l161 -180l-84 -51l-111 203h-3l-69 -203l-95 51l117 180v3l-206 -28z" />
<glyph unicode="+" horiz-adv-x="871" d="M80 347v87h321v344h89v-344h322v-87h-322v-347h-89v347h-321z" />
<glyph unicode="," horiz-adv-x="308" d="M-63 -181q95 186 143 351l145 14q-39 -91 -97 -196.5t-97 -158.5z" />
<glyph unicode="-" horiz-adv-x="478" d="M107 443h349l24 -95h-350z" />
<glyph unicode="." horiz-adv-x="308" d="M31 70q0 41 25.5 70.5t64.5 29.5q38 0 61 -25.5t23 -64.5q0 -40 -27 -68t-67 -28q-35 0 -57.5 24.5t-22.5 61.5z" />
<glyph unicode="/" horiz-adv-x="478" d="M-79 -59l588 1061h100l-590 -1061h-98z" />
<glyph unicode="0" horiz-adv-x="744" d="M99 630q0 153 67.5 245t186.5 92q74 0 138.5 -35.5t110.5 -97t79.5 -143t50 -175.5t17.5 -193q1 -163 -67 -251t-186 -88q-98 0 -176.5 57.5t-125.5 152.5t-71 206.5t-24 229.5zM217 639q0 -131 31.5 -255.5t96.5 -211.5t149 -87q138 0 138 225q0 82 -16.5 173.5 t-48 179.5t-88 145.5t-126.5 57.5q-65 0 -100.5 -57.5t-35.5 -169.5z" />
<glyph unicode="1" horiz-adv-x="744" d="M114 829l180 122h107l193 -846h186l25 -105h-520l-23 105h213l-168 729h-3l-146 -100z" />
<glyph unicode="2" horiz-adv-x="744" d="M70 854q40 47 112 80t157 33q78 0 137.5 -27t93 -72.5t50 -97.5t16.5 -109t-15.5 -114t-49.5 -120.5t-66.5 -113t-87.5 -127.5l-57 -78v-3h414l26 -105h-575l-20 76q81 100 82 101q123 167 177 271.5t54 198.5q0 40 -10.5 77t-32 69.5t-60.5 52t-90 19.5 q-63 0 -118.5 -29.5t-89.5 -64.5z" />
<glyph unicode="3" horiz-adv-x="744" d="M64 873q35 34 105.5 64t149.5 30q137 0 210.5 -70t73.5 -171q0 -66 -37.5 -116t-92.5 -76v-3q119 -26 193 -97.5t74 -187.5q0 -113 -81.5 -187.5t-221.5 -74.5q-158 0 -260 70l19 101q118 -70 233 -70q55 0 94.5 17t58.5 43.5t27 52t8 51.5q0 57 -26.5 100.5t-70.5 67 t-92 34.5t-99 11h-61l-21 97h51q81 0 134.5 40t53.5 110q0 67 -43.5 111.5t-135.5 44.5q-55 0 -107.5 -22t-88.5 -55z" />
<glyph unicode="4" horiz-adv-x="744" d="M118 344l255 607h132l136 -593h127l22 -96h-126l60 -262h-115l-60 262h-411zM231 361l2 -3h294l-74 319q-9 38 -30 154h-3q-14 -42 -50 -141z" />
<glyph unicode="5" horiz-adv-x="744" d="M113 951h443l20 -108h-355l23 -248q48 8 97 8q122 0 209 -40q86 -40 136 -114.5t50 -176.5q0 -123 -84.5 -205.5t-231.5 -82.5q-140 0 -234 58l25 101q104 -57 212 -57q83 0 138 48.5t55 134.5q0 117 -83.5 176.5t-210.5 59.5q-96 0 -164 -19z" />
<glyph unicode="6" horiz-adv-x="744" d="M118 478q0 185 98 318.5t274 161.5q48 8 78 7l23 -100q-32 0 -88 -8q-139 -25 -206 -124t-67 -239q31 48 92.5 82.5t138.5 34.5q138 0 223 -93t85 -236q0 -130 -79.5 -214t-209.5 -84q-169 0 -265.5 137.5t-96.5 356.5zM246 361q0 -34 14 -78t40 -90.5t73 -78.5t105 -32 q82 0 127 51.5t45 142.5q0 107 -58.5 173t-151.5 66q-57 0 -107 -29.5t-80 -86.5q-8 -14 -7 -38z" />
<glyph unicode="7" horiz-adv-x="744" d="M51 951h577l19 -84l-199 -867h-117l203 846h-458z" />
<glyph unicode="8" horiz-adv-x="744" d="M99 750q0 92 73.5 154.5t178.5 62.5q74 0 132.5 -23t93.5 -61t53 -81.5t18 -89.5q0 -61 -37 -112t-90 -87q128 -57 188 -120t60 -168q0 -103 -81.5 -172t-200.5 -69q-158 0 -249.5 79t-91.5 205q0 70 45.5 126.5t121.5 94.5q-214 99 -214 261zM212 752q0 -71 54.5 -119 t163.5 -86q53 35 78.5 73t25.5 89q0 62 -46.5 114t-130.5 52q-67 0 -106 -36.5t-39 -86.5zM268 274q0 -84 62 -139.5t153 -55.5q75 0 121 41t46 104q0 83 -60 133.5t-183 94.5q-56 -26 -98 -72.5t-41 -105.5z" />
<glyph unicode="9" horiz-adv-x="744" d="M75 673q0 121 80 207.5t203 86.5q173 0 273 -136t100 -380q0 -98 -28 -182t-67 -134q-111 -152 -335 -150l-25 103q180 0 267 109q36 44 54.5 115.5t15.5 148.5q-34 -49 -94 -77.5t-131 -28.5q-143 0 -228 89.5t-85 228.5zM197 682q0 -106 59 -167.5t155 -61.5 q64 0 116 32t67 75q5 11 3 30q0 29 -8 64t-26.5 73.5t-45 69.5t-67 51.5t-89.5 20.5q-68 0 -116 -49.5t-48 -137.5z" />
<glyph unicode=":" horiz-adv-x="308" d="M31 69q0 41 25.5 69.5t64.5 28.5q37 0 59.5 -24.5t22.5 -63.5q0 -40 -26 -67.5t-66 -27.5q-35 0 -57.5 24.5t-22.5 60.5zM129 585q0 41 26 69.5t66 28.5q36 0 59 -24t23 -62q0 -40 -27 -68.5t-67 -28.5q-35 0 -57.5 24.5t-22.5 60.5z" />
<glyph unicode=";" horiz-adv-x="308" d="M-63 -181q95 186 143 351l144 14q-39 -90 -97 -195.5t-98 -159.5zM136 585q0 41 26 69.5t66 28.5q37 0 59.5 -24t22.5 -62q0 -41 -26 -69t-67 -28q-35 0 -58 24.5t-23 60.5z" />
<glyph unicode="&#x3c;" horiz-adv-x="871" d="M114 350v79l657 349v-99l-549 -288v-3l549 -289v-99z" />
<glyph unicode="=" horiz-adv-x="871" d="M82 206v87h731v-87h-731zM82 496v85h731v-85h-731z" />
<glyph unicode="&#x3e;" horiz-adv-x="871" d="M135 0v99l554 289v3l-554 288v99l656 -348v-82z" />
<glyph unicode="?" horiz-adv-x="561" d="M118 69q0 41 26.5 69.5t66.5 28.5q36 0 59 -25t23 -63q0 -40 -27 -67.5t-67 -27.5q-35 0 -58 24.5t-23 60.5zM178 949q96 55 201 55q100 0 153 -54.5t53 -128.5q0 -79 -39.5 -143.5t-119.5 -146.5q-103 -103 -117 -211q-1 -20 -6 -39h-117q0 4 1 12t1.5 14t0.5 12 q11 129 143 266q76 83 97 118q30 49 30 96q0 44 -26 72.5t-86 29.5q-80 0 -145 -41z" />
<glyph unicode="@" horiz-adv-x="1053" d="M108 410q0 125 50 227.5t150.5 166t234.5 63.5q150 0 270.5 -69t186.5 -186t66 -259q0 -113 -46 -185.5t-125 -72.5q-116 0 -150 133h-2q-15 -57 -58.5 -95t-106.5 -38q-75 0 -131 43t-82 105.5t-26 133.5q0 105 64 177t176 72q95 0 167 -35l51 -260q14 -84 37 -123 t61 -40q41 -1 66.5 45t25.5 134q0 90 -30.5 171.5t-85.5 144t-139.5 99.5t-185.5 37q-156 0 -257.5 -108t-99.5 -278q2 -138 56 -249t161 -178.5t251 -67.5q57 0 124 16t105 40l28 -63q-102 -65 -259 -65q-247 0 -397 160t-150 404zM434 383q0 -49 14.5 -94.5t51 -80 t88.5 -34.5q65 0 94.5 62.5t15.5 140.5l-29 155q-34 17 -82 17q-70 0 -111.5 -42.5t-41.5 -123.5z" />
<glyph unicode="A" horiz-adv-x="830" d="M-39 0l510 986h143l136 -986h-124l-41 312h-339l-157 -312h-128zM290 408h286l-38 285q-2 21 -8.5 85.5t-8.5 96.5h-3q-57 -132 -82 -180z" />
<glyph unicode="B" horiz-adv-x="757" d="M47 7l183 966q95 19 212 19q151 0 227 -67q70 -58 70 -154q0 -89 -61.5 -156t-150.5 -90v-3q71 -21 116.5 -78t45.5 -141q0 -71 -33 -130t-85 -98q-108 -82 -319 -82q-132 0 -205 14zM183 98q54 -7 101 -7q75 0 135.5 20.5t101.5 71.5t41 126q0 82 -59.5 124t-148.5 42 h-99zM274 568h90q108 0 179 52.5t71 140.5q0 69 -47 102.5t-131 33.5q-58 0 -101 -9z" />
<glyph unicode="C" horiz-adv-x="811" d="M70 394q0 141 55.5 266t156.5 209q155 132 370 132q75 0 133.5 -14.5t81.5 -32.5l-39 -98q-69 41 -195 41q-77 0 -151.5 -29t-130.5 -82q-70 -65 -110.5 -164.5t-40.5 -210.5q0 -144 72.5 -233t227.5 -89q126 0 211 41l16 -98q-108 -48 -256 -48q-186 0 -293.5 111 t-107.5 299z" />
<glyph unicode="D" horiz-adv-x="946" d="M47 7l183 966q111 19 245 19q249 0 363 -130q92 -97 92 -268q0 -136 -51.5 -259.5t-145.5 -202.5q-162 -139 -446 -139q-140 0 -240 14zM186 101q52 -7 127 -7q228 0 354 131q65 67 100 163t35 202q0 141 -78.5 222.5t-253.5 81.5q-85 0 -134 -10z" />
<glyph unicode="E" horiz-adv-x="687" d="M45 0l188 986h501l-19 -104h-380l-61 -316h358l-19 -102h-358l-69 -360h404l-19 -104h-526z" />
<glyph unicode="F" horiz-adv-x="680" d="M45 0l188 986h500l-19 -104h-379l-64 -332h349l-20 -104h-350l-83 -446h-122z" />
<glyph unicode="G" horiz-adv-x="911" d="M72 401q0 125 49.5 245.5t141.5 203.5q170 146 407 146q82 0 143 -14t90 -31l-41 -103q-83 43 -208 43q-175 0 -304 -120q-68 -64 -108 -162t-40 -199q0 -148 77.5 -232t236.5 -84q91 0 150 27l57 294h-201l19 100h319l-89 -473q-129 -52 -278 -52q-211 0 -322 123 q-99 107 -99 288z" />
<glyph unicode="H" horiz-adv-x="917" d="M45 0l188 986h121l-79 -417h454l78 417h122l-187 -986h-122l88 462h-455l-86 -462h-122z" />
<glyph unicode="I" horiz-adv-x="340" d="M44 0l187 986h122l-188 -986h-121z" />
<glyph unicode="J" horiz-adv-x="532" d="M-45 9l26 104q52 -21 124 -21q82 0 130 51t71 177l127 666h121l-128 -679q-33 -172 -109.5 -247.5t-215.5 -75.5q-94 0 -146 25z" />
<glyph unicode="K" horiz-adv-x="753" d="M45 0l188 986h120l-91 -480h7q20 24 54 62t43 49l346 369h153l-416 -424l253 -562h-131l-217 484l-117 -110l-72 -374h-120z" />
<glyph unicode="L" horiz-adv-x="646" d="M45 0l188 986h121l-168 -881h398l-19 -105h-520z" />
<glyph unicode="M" horiz-adv-x="1139" d="M19 0l256 986h155l78 -566q20 -163 23 -247h6q34 87 114 244l304 569h160l-126 -986h-117l70 532q27 195 53 334h-5q-94 -206 -153 -317l-294 -543h-92l-74 531q-19 148 -32 329h-3q-70 -318 -74 -335l-135 -531h-114z" />
<glyph unicode="N" horiz-adv-x="924" d="M45 0l188 986h133l225 -559q48 -122 88 -275l3 2q5 107 41 308l99 524h116l-189 -986h-120l-225 557q-61 158 -91 286l-4 -3q-12 -112 -52 -324l-98 -516h-114z" />
<glyph unicode="O" horiz-adv-x="977" d="M70 385q0 133 50 264.5t137 217.5q64 63 151.5 99t179.5 36q96 0 170 -33t117 -90.5t64.5 -128t21.5 -152.5q0 -132 -46.5 -262t-131.5 -215q-140 -137 -338 -137q-93 0 -166 33t-118 89.5t-68 127.5t-23 151zM197 395q0 -133 65 -221t200 -88q129 0 226 100 q67 67 106.5 182.5t39.5 223.5q0 46 -6 86t-24 82t-46 72t-75.5 49t-109.5 19q-126 0 -226 -98q-68 -71 -109 -185.5t-41 -221.5z" />
<glyph unicode="P" horiz-adv-x="741" d="M45 0l186 971q90 21 209 21q168 0 248 -76q68 -66 68 -177q0 -78 -32.5 -146.5t-85.5 -112.5q-113 -92 -304 -92q-58 0 -94 7l-75 -395h-120zM259 497q39 -8 92 -8q137 0 210.5 69.5t73.5 171.5q0 164 -202 164q-59 0 -101 -10z" />
<glyph unicode="Q" horiz-adv-x="977" d="M70 386q0 129 48.5 259.5t133.5 216.5q66 66 155 103t183 37q97 0 170.5 -34t116 -92.5t63.5 -128.5t21 -149q0 -125 -46 -254.5t-128 -211.5q-81 -84 -187 -114v-5q160 -35 260 -50l-44 -102q-239 59 -343 104q-50 20 -68 20q-145 8 -240 115t-95 286zM197 392 q0 -62 14 -115t43 -97t81 -69.5t121 -25.5q131 0 229 96q69 69 109 187t40 227q0 43 -6 82t-23.5 81t-45.5 72.5t-76 50t-110 19.5q-126 0 -223 -97q-70 -70 -111.5 -187t-41.5 -224z" />
<glyph unicode="R" horiz-adv-x="763" d="M45 0l185 971q99 21 216 21q156 0 236 -72q71 -60 71 -162q0 -103 -67.5 -180t-166.5 -105v-3q95 -32 110 -198q17 -232 29 -272h-124q-11 35 -23 238q-7 101 -44.5 146.5t-111.5 45.5h-108l-80 -430h-122zM266 524h108q113 0 183.5 63.5t70.5 154.5q0 76 -52 114.5 t-139 38.5q-64 0 -102 -10z" />
<glyph unicode="S" horiz-adv-x="680" d="M18 53l42 99q92 -63 211 -63q88 0 150.5 50t62.5 135q0 55 -34.5 98.5t-110.5 86.5q-196 104 -196 252q0 130 96 210t236 80q125 0 204 -52l-44 -98q-81 47 -171 47q-87 0 -141 -48.5t-54 -113.5q0 -57 35.5 -97.5t116.5 -85.5q95 -52 142 -114t47 -149 q0 -132 -96.5 -219t-258.5 -87q-71 1 -138 21t-99 48z" />
<glyph unicode="T" horiz-adv-x="693" d="M95 881l22 105h698l-22 -105h-288l-167 -881h-121l166 881h-288z" />
<glyph unicode="U" horiz-adv-x="906" d="M108 275q0 68 13 136l110 575h122l-112 -585q-11 -61 -11 -123q0 -92 49 -141t134 -49q217 0 275 311l112 587h122l-113 -590q-80 -412 -413 -412h-3q-127 0 -205 72q-80 73 -80 219z" />
<glyph unicode="V" horiz-adv-x="788" d="M121 986h125l71 -632q18 -151 19 -222h3q53 129 109 237l314 617h135l-520 -986h-134z" />
<glyph unicode="W" horiz-adv-x="1212" d="M142 986h123l20 -591q2 -44 1.5 -108t-1.5 -148h3q46 125 103 249l272 598h130l20 -569q4 -115 4 -191q0 -51 -2 -86h3q52 150 98 254l265 592h127l-458 -986h-129l-25 560q-3 53 -3 111q0 83 6 175h-3q-77 -209 -101 -261l-275 -585h-130z" />
<glyph unicode="X" horiz-adv-x="762" d="M-45 0l386 502l-184 484h127l93 -253q48 -145 50 -151h5q52 84 99 151l189 253h145l-382 -483l199 -503h-129l-94 244q-38 94 -63 173h-4q-78 -118 -114 -170l-177 -247h-146z" />
<glyph unicode="Y" horiz-adv-x="754" d="M123 986h129l96 -319q30 -106 41 -165h3q26 46 105 169l214 315h142l-420 -576l-78 -410h-119l77 410z" />
<glyph unicode="Z" horiz-adv-x="765" d="M-29 0l14 75l669 801l-2 6h-468l21 104h632l-16 -79l-663 -799v-4h519l-20 -104h-686z" />
<glyph unicode="[" horiz-adv-x="456" d="M10 1004h256l19 -79h-156l240 -1010h156l19 -77h-256z" />
<glyph unicode="\" horiz-adv-x="481" d="M89 1002h94l269 -1061h-95z" />
<glyph unicode="]" horiz-adv-x="456" d="M18 1004h256l277 -1166h-256l-19 77h157l-240 1010h-156z" />
<glyph unicode="^" horiz-adv-x="871" d="M102 276l294 675h90l295 -675h-99l-239 568h-4l-239 -568h-98z" />
<glyph unicode="_" horiz-adv-x="731" d="M-101 -183l15 73h731l-15 -73h-731z" />
<glyph unicode="`" horiz-adv-x="560" d="M211 1004h137l97 -210h-87z" />
<glyph unicode="a" horiz-adv-x="763" d="M45 218q0 93 34 183t94.5 162t155 116.5t206.5 44.5q103 0 191 -28l-72 -368q-32 -169 -32 -294q0 -17 1 -34h-112v5q0 47 16 178h-5q-104 -199 -272 -199q-94 0 -149.5 64.5t-55.5 169.5zM171 238q0 -67 28.5 -111t93.5 -44q78 0 153 92t101 229l43 213q-33 11 -85 11 q-89 0 -167 -56.5t-122.5 -146.5t-44.5 -187z" />
<glyph unicode="b" horiz-adv-x="768" d="M67 167q0 41 12 109l152 763h122l-94 -460h3q98 145 250 145q74 0 124 -38.5t70 -93.5t20 -122q0 -66 -18 -134t-55.5 -131t-89 -112.5t-124 -79t-154.5 -29.5q-100 0 -159 45t-59 138zM190 184q2 -105 116 -105q53 0 100.5 23.5t82 63t60.5 88t38.5 100t12.5 99.5 q0 73 -33.5 121.5t-101.5 48.5q-81 0 -152 -76.5t-96 -198.5l-18 -74q-9 -56 -9 -90z" />
<glyph unicode="c" horiz-adv-x="618" d="M50 257q0 122 54.5 228t155 172t224.5 66q91 0 148 -31l-35 -98q-52 28 -122 28q-88 0 -158 -52.5t-105.5 -131.5t-35.5 -164q0 -88 45.5 -138.5t131.5 -50.5q83 0 163 39l12 -96q-90 -44 -205 -44q-131 0 -202 77.5t-71 195.5z" />
<glyph unicode="d" horiz-adv-x="768" d="M47 241q0 126 56.5 236.5t158.5 178.5t224 68q72 0 124 -25l63 340h120l-154 -814q-24 -119 -30 -225h-112l19 140h-3q-99 -156 -254 -156q-100 0 -156 72t-56 185zM173 257q0 -34 6.5 -63.5t21 -55t41.5 -40.5t64 -15q73 0 144 75t93 190l48 249q-48 31 -117 31 q-82 0 -152.5 -53.5t-109.5 -138.5t-39 -179z" />
<glyph unicode="e" horiz-adv-x="661" d="M48 269q0 108 48 212t138.5 173.5t199.5 69.5q98 0 153 -51.5t55 -131.5q0 -67 -35.5 -114t-102.5 -72t-148 -35q-68 -8 -151 -8h-34q-3 -12 -3 -29q0 -15 2 -35q4 -42 16 -70q42 -95 158 -95q100 0 190 47l17 -91q-102 -55 -234 -55q-134 0 -201.5 79.5t-67.5 205.5z M186 407h25q61 0 109 4q58 5 106 19.5t73.5 42t25.5 67.5q0 42 -30 65.5t-78 23.5q-81 0 -144.5 -66.5t-86.5 -155.5z" />
<glyph unicode="f" horiz-adv-x="413" d="M59 0l115 611h-94l18 97h95l7 37q27 168 116 247q68 63 167 63q64 0 98 -19l-27 -97q-27 13 -71 13q-128 0 -164 -210l-6 -34h158l-19 -97h-158l-116 -611h-119z" />
<glyph unicode="g" horiz-adv-x="766" d="M15 -256l33 95q70 -47 188 -47q96 0 160 57.5t94 195.5l23 106h-4q-91 -151 -246 -151q-101 0 -158 72.5t-58 173.5q0 91 32.5 176.5t89.5 152.5t142.5 108t185.5 41q115 0 227 -50l-108 -585q-22 -117 -55.5 -194t-87.5 -122q-91 -79 -248 -79q-142 0 -210 50zM174 265 q0 -44 10.5 -79.5t42.5 -62t83 -26.5q77 0 147 82t89 187l46 235q-44 25 -118 25q-127 0 -213.5 -112t-86.5 -249z" />
<glyph unicode="h" horiz-adv-x="781" d="M41 0l197 1039h122l-88 -457h3q99 142 253 142q69 0 122.5 -47t53.5 -143q0 -57 -12 -120l-79 -414h-120l76 408q10 65 10 98q0 53 -26.5 84.5t-82.5 31.5q-74 0 -147.5 -76.5t-94.5 -191.5l-66 -354h-121z" />
<glyph unicode="i" horiz-adv-x="333" d="M41 0l136 708h121l-136 -708h-121zM199 906q0 33 23.5 57t55.5 24q33 0 53 -21.5t20 -54.5q-1 -36 -24.5 -59.5t-57.5 -23.5q-31 0 -51 22.5t-19 55.5z" />
<glyph unicode="j" horiz-adv-x="332" d="M-162 -297l14 95q24 -6 56 -6q49 0 82.5 41t54.5 144l138 731h121l-134 -707q-32 -172 -90 -238q-63 -69 -163 -69q-49 0 -79 9zM200 906q0 34 23 57.5t56 23.5t52.5 -21.5t19.5 -54.5q0 -36 -23.5 -59.5t-58.5 -23.5q-31 0 -50.5 22.5t-18.5 55.5z" />
<glyph unicode="k" horiz-adv-x="665" d="M41 0l197 1039h122l-124 -651h2q12 15 37 40.5t29 30.5l250 249h150l-309 -291l211 -417h-132l-173 350l-87 -81l-52 -269h-121z" />
<glyph unicode="l" horiz-adv-x="334" d="M42 0l198 1039h121l-199 -1039h-120z" />
<glyph unicode="m" horiz-adv-x="1180" d="M41 0l94 502q21 101 33 206h107l-19 -133h3q102 149 250 149q77 0 118.5 -43.5t46.5 -114.5q95 153 261 158q69 0 120 -46.5t51 -139.5q0 -51 -12 -121l-79 -417h-118l76 407q10 70 10 93q0 123 -107 123q-69 0 -135 -73t-86 -187l-68 -363h-117l77 415q10 52 10 87 q0 121 -105 121q-68 0 -137.5 -79t-89.5 -189l-66 -355h-118z" />
<glyph unicode="n" horiz-adv-x="781" d="M41 0l95 502q12 56 34 206h108l-18 -140h3q47 74 115.5 115t146.5 41q74 0 127 -47t53 -150q0 -43 -13 -114l-79 -413h-120l76 410q10 65 10 89q0 123 -111 123q-71 0 -145 -77t-98 -201l-63 -344h-121z" />
<glyph unicode="o" horiz-adv-x="765" d="M51 274q0 117 49 219.5t140 166.5t203 64q134 0 206 -86t72 -209q0 -110 -48 -211.5t-140.5 -167.5t-206.5 -66q-128 0 -201.5 83t-73.5 207zM177 279q0 -89 45 -144.5t122 -55.5q69 0 128 53.5t91 133.5t32 163q0 34 -8.5 66.5t-26 63.5t-51.5 50t-79 19 q-73 0 -132.5 -54t-90.5 -134q-30 -77 -30 -156v-5z" />
<glyph unicode="p" horiz-adv-x="768" d="M-23 -290l143 746q19 101 38 253h111l-19 -134h3q49 70 115.5 109.5t139.5 39.5q107 0 162.5 -75t55.5 -181q0 -124 -53.5 -235t-149.5 -180t-211 -69q-96 0 -154 31h-3l-57 -305h-121zM177 118q48 -39 135 -39q76 0 143 56t105 143.5t38 180.5q0 65 -32 114.5t-102 49.5 q-78 0 -152 -82.5t-100 -224.5z" />
<glyph unicode="q" horiz-adv-x="768" d="M47 241q0 120 54 229.5t159 181.5t237 72q129 0 227 -48l-183 -966h-120l85 419h-3q-44 -69 -110.5 -107t-135.5 -38q-93 0 -151.5 68t-58.5 189zM173 255q0 -81 33 -126.5t89 -45.5q85 0 156 81t93 193l46 244q-42 25 -117 25q-120 0 -210 -111.5t-90 -259.5z" />
<glyph unicode="r" horiz-adv-x="466" d="M41 0l86 455q23 116 37 253h107q-12 -100 -19 -154h3q38 78 93.5 124t124.5 46q6 0 33 -3l-23 -120q-27 3 -34 3q-77 0 -140.5 -83t-87.5 -209l-59 -312h-121z" />
<glyph unicode="s" horiz-adv-x="544" d="M12 32l35 91q75 -44 152 -44q61 0 98 33.5t37 82.5q0 41 -22 70.5t-76 59.5q-128 70 -128 181q0 93 72.5 155.5t183.5 62.5q97 0 148 -35l-35 -92q-49 32 -122 32q-56 0 -91.5 -30.5t-35.5 -76.5q0 -36 23.5 -63t74.5 -55q133 -76 133 -186q0 -108 -77 -171t-193 -63 q-53 1 -101 15t-76 33z" />
<glyph unicode="t" horiz-adv-x="457" d="M82 613l19 95h101l31 159l125 31l-36 -190h168l-19 -95h-168l-66 -344q-13 -76 -13 -114q0 -67 67 -67q41 0 57 4l-7 -95q-29 -13 -94 -13q-75 0 -111.5 39t-36.5 98q0 57 15 134l70 358h-102z" />
<glyph unicode="u" horiz-adv-x="769" d="M75 189q0 57 13 118l76 401h121l-74 -395q-14 -61 -14 -104q0 -123 113 -123q71 0 140.5 73t90.5 186l69 363h121l-95 -503q-18 -89 -32 -205h-110l19 133h-2q-48 -69 -114.5 -109t-136.5 -40q-79 0 -132 47t-53 158z" />
<glyph unicode="v" horiz-adv-x="664" d="M75 708h124l61 -404q4 -30 9 -69t8.5 -63.5t4.5 -41.5h5q32 81 74 165l217 413h133l-395 -708h-119z" />
<glyph unicode="w" horiz-adv-x="1034" d="M89 708h120l25 -399q4 -70 4 -137q0 -27 -1 -54h3q30 78 79 179l209 411h107l44 -404q11 -125 11 -178v-8h3q24 75 68 180l190 410h124l-349 -708h-113l-47 385q-10 94 -10 187h-3q-66 -153 -82 -184l-203 -388h-113z" />
<glyph unicode="x" horiz-adv-x="643" d="M-54 0l310 364l-165 344h131l71 -155q9 -21 23.5 -58.5t22.5 -55.5h5q41 61 77 108l130 161h141l-298 -345l166 -363h-131l-71 159q-11 22 -52 126h-3q-4 -5 -29.5 -44.5t-43.5 -63.5l-144 -177h-140z" />
<glyph unicode="y" horiz-adv-x="645" d="M-59 -221q74 24 131 69q85 67 136 162q6 11 4 32l-143 666h127l69 -382q26 -134 33 -186h3q2 5 28 66.5t47 108.5l181 393h129l-265 -538q-64 -129 -120 -218t-124 -155q-53 -53 -109.5 -83t-96.5 -39z" />
<glyph unicode="z" horiz-adv-x="607" d="M-31 0l13 75l344 381q51 56 147 148l1 5h-363l19 99h509l-16 -80l-339 -378q-74 -82 -146 -146v-6h392l-19 -98h-542z" />
<glyph unicode="{" horiz-adv-x="456" d="M79 456q31 0 51.5 8t28.5 23t10 25.5t2 25.5q-1 12 -3.5 25t-8 29t-9.5 27.5t-12 32.5t-12 31q-44 106 -47 173q-3 68 40.5 108t124.5 40h22l21 -79h-27q-83 -1 -83 -78q1 -52 45 -159q40 -108 43 -157q5 -81 -70 -107v-1q117 -25 141 -161q6 -35 16 -111t17 -113 q12 -66 47 -93.5t102 -27.5h12l20 -79h-19q-113 0 -174.5 40t-81.5 151q-4 22 -15.5 109t-21.5 133q-11 54 -42 83.5t-99 28.5z" />
<glyph unicode="|" horiz-adv-x="315" d="M139 -366v1463h91v-1463h-91z" />
<glyph unicode="}" horiz-adv-x="456" d="M3 1004h19q55 0 94.5 -8t73.5 -28.5t55.5 -59t32.5 -96.5q3 -21 15 -108.5t22 -134.5q11 -54 41.5 -83t99.5 -28l18 -73q-31 0 -51.5 -8.5t-28.5 -23.5t-10 -26t-2 -26q1 -14 6 -32.5t9.5 -32t14.5 -40t15 -39.5q44 -106 47 -173q3 -68 -41 -107t-126 -39h-20l-21 79h27 q83 0 83 77q-1 56 -45 158q-3 7 -10 27t-10 28.5t-8.5 25.5t-7.5 27t-4.5 23.5t-2.5 25.5q-5 82 70 108l-1 1q-119 26 -140 161q-6 35 -16 111t-17 113q-12 66 -47.5 94t-101.5 28h-13z" />
<glyph unicode="~" horiz-adv-x="871" d="M92 310q-3 103 46.5 159t126.5 56t196 -61q119 -63 180 -63q79 0 79 121h87q5 -113 -43 -164.5t-125 -51.5q-88 0 -205 64q-97 49 -139 57q-18 3 -33 3q-36 0 -58.5 -32.5t-23.5 -87.5h-88z" />
<glyph unicode="&#xa1;" horiz-adv-x="345" d="M-16 -285l154 698h98l-115 -698h-137zM139 617q0 40 27 68.5t67 28.5q35 0 57.5 -24.5t22.5 -60.5q0 -41 -26 -69.5t-66 -28.5q-36 0 -59 24t-23 62z" />
<glyph unicode="&#xa2;" horiz-adv-x="744" d="M142 543q-2 110 57.5 191.5t163.5 102.5l-34 148h91l35 -144q105 0 186 -47l-15 -99q-87 47 -173 47q-85 0 -134 -57t-50 -144q0 -126 84 -221t212 -95q40 0 75 8t46.5 13.5t37.5 18.5l38 -88q-67 -43 -145 -47l35 -150h-92l-33 147q-149 16 -246 98q-139 122 -139 318z " />
<glyph unicode="&#xa3;" horiz-adv-x="744" d="M123 524h134q-20 48 -31 78t-20.5 76t-9.5 87q2 92 62 147t160 55q101 0 169 -37l-9 -101q-67 37 -139 37q-121 0 -123 -117q0 -84 63 -225h211l20 -94h-199q28 -89 28 -159q0 -91 -62 -164h439l25 -107h-608l-16 72q112 69 112 190q0 62 -36 168h-150z" />
<glyph unicode="&#xa4;" horiz-adv-x="744" d="M85 764l64 67l100 -108q66 58 168 58q105 0 168 -58l105 108l65 -66l-114 -104q51 -71 51 -171q0 -112 -51 -181l108 -107l-63 -64l-101 111q-67 -62 -171 -62q-46 0 -91.5 16t-73.5 43l-98 -108l-63 64l104 104q-54 71 -54 178q0 104 55 179zM241 487q0 -98 54 -153 t119 -55q70 0 122 52.5t52 157.5q0 81 -46.5 140.5t-127.5 59.5q-79 0 -126 -56.5t-47 -145.5z" />
<glyph unicode="&#xa5;" horiz-adv-x="744" d="M-25 951h145l208 -293q19 -28 48.5 -76t41.5 -66h5q17 81 32 142l88 293h126l-156 -443h186l16 -74h-223l24 -105h224l18 -73h-224l58 -256h-119l-59 256h-224l-16 73h222l-24 105h-221l-18 74h186z" />
<glyph unicode="&#xa6;" horiz-adv-x="315" d="M139 255h91v-512h-91v512zM139 474v512h91v-512h-91z" />
<glyph unicode="&#xa7;" horiz-adv-x="759" d="M135 522q0 83 80 147q-79 60 -79 144t67.5 135t173.5 51q120 0 207 -48l-19 -88q-84 51 -182 51q-60 0 -98.5 -26.5t-38.5 -69.5q0 -31 14.5 -54.5t50.5 -42.5t57.5 -27t74.5 -25q3 -1 5 -1.5t5 -1.5t5 -2q58 -18 98.5 -35t87 -47.5t71.5 -76t25 -103.5q-1 -84 -67 -145 q82 -65 82 -152q1 -90 -68 -143t-174 -53q-137 0 -242 65l19 89q100 -69 215 -69q62 0 101 28t38 79q0 27 -13.5 50t-30.5 38t-47.5 30.5t-52 23t-55.5 19.5q-8 3 -12 4q-33 11 -53.5 18t-55.5 21.5t-57.5 27.5t-50 34t-43.5 42.5t-27 50.5t-11 62zM234 532q0 -26 12 -48 t27.5 -37t44 -30t48 -23t52.5 -20q140 -45 185 -71q37 34 35 93q0 101 -158 155q-14 5 -48.5 17.5t-55 20t-48 18.5t-46.5 21q-48 -39 -48 -96z" />
<glyph unicode="&#xa8;" horiz-adv-x="560" d="M181 906q0 33 23 55t55 22q31 0 50 -21t19 -51q0 -33 -21.5 -55t-56.5 -22q-29 0 -49 20.5t-20 51.5zM451 906q0 33 22 55t54 22q30 0 48.5 -21t18.5 -51q0 -33 -21.5 -55t-54.5 -22q-29 0 -48 20.5t-19 51.5z" />
<glyph unicode="&#xa9;" horiz-adv-x="1028" d="M121 497q0 187 129.5 319t315.5 132q122 0 223.5 -60.5t159 -164t57.5 -226.5q0 -190 -127 -321.5t-313 -131.5t-315.5 132t-129.5 321zM195 493q0 -164 106.5 -276.5t264.5 -112.5q155 0 261 113.5t106 279.5q0 164 -106.5 276.5t-260.5 112.5q-158 0 -264.5 -113 t-106.5 -280zM322 489q0 121 82.5 196.5t196.5 75.5q53 0 99 -12.5t62 -27.5l-17 -58q-55 35 -144 35q-98 0 -150 -56.5t-52 -148.5q0 -89 54 -147.5t150 -58.5q91 0 150 39l18 -55q-68 -47 -181 -47q-124 0 -196 75t-72 190z" />
<glyph unicode="&#xaa;" horiz-adv-x="512" d="M86 550q0 127 83 221t227 94q84 0 144 -25l-53 -302q-12 -75 -12 -147h-86q0 42 6 93l-3 -1q-63 -101 -168 -101q-63 0 -100.5 46t-37.5 122zM181 566q0 -47 19.5 -77.5t61.5 -30.5q48 0 92 47.5t56 111.5l29 164q-26 10 -67 10q-77 0 -133.5 -65.5t-57.5 -159.5z" />
<glyph unicode="&#xab;" horiz-adv-x="681" d="M135 369l128 269h95l-125 -264l251 -275h-110zM374 369l128 269h96l-127 -264l252 -275h-110z" />
<glyph unicode="&#xac;" horiz-adv-x="871" d="M59 497v85h754v-406h-92v321h-662z" />
<glyph unicode="&#xad;" horiz-adv-x="478" d="M107 443h349l24 -95h-350z" />
<glyph unicode="&#xae;" horiz-adv-x="577" d="M10 759q0 100 72 170t175 70t174 -70t71 -170q0 -102 -70.5 -171.5t-174.5 -69.5t-175.5 69.5t-71.5 171.5zM72 759q0 -81 52.5 -136t132.5 -55q78 -1 130.5 54.5t52.5 135.5q0 81 -52.5 136t-130.5 55q-79 0 -132 -55t-53 -135zM162 633v240q44 8 93 8q54 0 83 -18 q25 -17 25 -53q0 -39 -50 -55v-3q32 -10 42 -60q7 -34 18 -59h-58q-10 13 -20 59q-9 38 -49 38h-27v-97h-57zM219 769h28q24 0 39 9.5t15 26.5q0 36 -51 36q-10 0 -31 -3v-69z" />
<glyph unicode="&#xaf;" horiz-adv-x="560" d="M221 857l16 85h322l-15 -85h-323z" />
<glyph unicode="&#xb0;" horiz-adv-x="463" d="M54 777q0 82 54.5 136.5t135.5 54.5q89 0 143.5 -56t54.5 -134q0 -89 -57.5 -142.5t-135.5 -53.5q-85 0 -140 56.5t-55 138.5zM133 777q0 -52 34 -89t82 -37q51 0 82.5 34t31.5 90q0 50 -30.5 87.5t-88.5 37.5q-54 0 -82.5 -34.5t-28.5 -88.5z" />
<glyph unicode="&#xb1;" horiz-adv-x="871" d="M59 0v86h754v-86h-754zM59 464v87h330v286h94v-286h330v-87h-330v-293h-94v293h-330z" />
<glyph unicode="&#xb2;" horiz-adv-x="463" d="M7 898q77 65 183 65q90 0 146 -51t56 -145q0 -64 -32 -122t-100 -136l-38 -42h251l20 -82h-392l-13 54l79 86q67 75 97 128t31 102q1 57 -30 90t-87 33q-75 0 -134 -51z" />
<glyph unicode="&#xb3;" horiz-adv-x="444" d="M16 913q76 54 174 54q86 0 136.5 -40.5t50.5 -105.5q0 -37 -23 -68t-60 -46q74 -16 119.5 -59t45.5 -107q1 -66 -53 -112.5t-147 -46.5q-109 0 -177 45l15 73q76 -44 147 -44q57 0 82 26t25 64q0 60 -51.5 86t-125.5 26h-39l-17 68h39q119 0 119 83q-1 37 -25 60t-71 23 q-39 0 -73.5 -14.5t-52.5 -31.5z" />
<glyph unicode="&#xb4;" horiz-adv-x="560" d="M295 794l144 210h146l-194 -210h-96z" />
<glyph unicode="&#xb5;" horiz-adv-x="768" d="M1 -290q-12 69 25 262l139 736h120l-77 -420q-18 -96 10.5 -149.5t107.5 -53.5q52 0 100.5 44.5t81.5 106.5q21 42 30 86l73 386h122l-95 -503q-12 -69 -2.5 -95t43.5 -28l-27 -92q-22 -6 -39 -6q-99 0 -94 146h-3q-36 -63 -91 -103t-122 -40q-49 0 -87.5 21.5 t-56.5 63.5l-17 -95q-35 -181 -29 -267h-112z" />
<glyph unicode="&#xb6;" horiz-adv-x="778" d="M63 720q0 50 18 95t56.5 85.5t109 64.5t164.5 24q93 0 164 -13l243 -1048h-91l-224 970q-61 7 -104 2l224 -972h-91l-106 458h-12q-142 0 -246.5 94t-104.5 240z" />
<glyph unicode="&#xb7;" horiz-adv-x="308" d="M118 392q0 40 25.5 66t67.5 26q46 0 77.5 -32t31.5 -78q0 -42 -25 -69t-67 -27q-46 0 -78 32t-32 82z" />
<glyph unicode="&#xb8;" horiz-adv-x="560" d="M38 -269l26 63q36 -21 76 -21q27 0 46 14.5t19 38.5q0 46 -97 57l85 120h78l-56 -78q35 -8 57 -33t22 -60q0 -59 -47.5 -92.5t-113.5 -33.5q-63 0 -95 25z" />
<glyph unicode="&#xb9;" horiz-adv-x="356" d="M-7 894l117 66h83l132 -571h-97l-111 481h-3l-89 -52z" />
<glyph unicode="&#xba;" horiz-adv-x="503" d="M76 576q0 122 77 205.5t183 83.5q97 0 149 -56.5t52 -141.5q0 -122 -76 -203.5t-189 -81.5q-91 0 -143.5 57.5t-52.5 136.5zM174 579q0 -59 30 -92.5t77 -33.5q63 0 109.5 62.5t46.5 155.5q0 50 -24.5 86t-84.5 36q-65 0 -109.5 -64.5t-44.5 -149.5z" />
<glyph unicode="&#xbb;" horiz-adv-x="681" d="M82 638h108l240 -269l-129 -270h-95l126 264zM319 638h110l240 -269l-129 -270h-95l127 264z" />
<glyph unicode="&#xbc;" horiz-adv-x="1110" d="M0 894l117 66h83l132 -571h-96l-112 481h-3l-89 -52zM339 -16l328 983h83l-329 -983h-82zM688 209l174 362h105l79 -349h82l17 -73h-82l36 -149h-93l-35 149h-270zM778 225l2 -3h174l-38 170q-16 82 -18 97q-36 -89 -38 -94z" />
<glyph unicode="&#xbd;" horiz-adv-x="1110" d="M-6 894l117 66h85l132 -571h-98l-112 481h-1l-89 -52zM332 -16l329 983h82l-328 -983h-83zM696 512q31 28 79.5 47t102.5 19q91 0 147 -51t56 -145q0 -64 -32.5 -123t-100.5 -135l-37 -44h251l20 -80h-392l-13 54l79 86q68 74 98 127.5t31 102.5q1 57 -30.5 90t-88.5 33 q-71 0 -133 -51z" />
<glyph unicode="&#xbe;" horiz-adv-x="1161" d="M73 913q76 54 174 54q86 0 136 -40.5t50 -105.5q0 -37 -22.5 -68t-60.5 -46q74 -16 119.5 -59t45.5 -107q2 -66 -51.5 -112.5t-147.5 -46.5q-109 0 -177 45l15 73q71 -44 147 -44q57 0 82 26t25 64q0 60 -52 86t-126 26h-38l-16 68h38q55 0 87 20.5t31 62.5 q0 37 -24.5 60t-70.5 23q-39 0 -73.5 -14.5t-52.5 -31.5zM461 -16l329 983h82l-328 -983h-83zM764 209l174 362h105l80 -349h81l17 -73h-81l35 -149h-92l-36 149h-270zM856 225l1 -3h174l-38 170q-14 62 -19 97q-5 -13 -13 -33t-14 -34.5t-11 -26.5z" />
<glyph unicode="&#xbf;" horiz-adv-x="561" d="M-1 -116q0 71 40.5 138.5t115.5 144.5q55 55 82.5 104t34.5 105l7 41h117q0 -12 -2 -38q-9 -125 -145 -266q-60 -61 -92.5 -111t-32.5 -103q0 -43 26.5 -72t85.5 -30q83 0 146 39l23 -91q-98 -51 -197 -51q-103 0 -156 56.5t-53 133.5zM288 617q0 41 26.5 69t67.5 28 q35 0 57 -24.5t22 -60.5q0 -41 -25.5 -69.5t-65.5 -28.5q-37 0 -59.5 24t-22.5 62z" />
<glyph unicode="&#xc0;" horiz-adv-x="830" d="M-39 0l510 986h143l136 -986h-124l-41 312h-339l-157 -312h-128zM290 408h286l-38 285q-2 21 -8.5 85.5t-8.5 96.5h-3q-57 -132 -82 -180zM341 1210h151l109 -170h-99z" />
<glyph unicode="&#xc1;" horiz-adv-x="830" d="M-39 0l510 986h143l136 -986h-124l-41 312h-339l-157 -312h-128zM290 408h286l-38 285q-2 21 -8.5 85.5t-8.5 96.5h-3q-57 -132 -82 -180zM470 1039l149 171h159l-200 -171h-108z" />
<glyph unicode="&#xc2;" horiz-adv-x="830" d="M-39 0l510 986h143l136 -986h-124l-41 312h-339l-157 -312h-128zM290 408h286l-38 285q-2 21 -8.5 85.5t-8.5 96.5h-3q-57 -132 -82 -180zM347 1039l177 171h93l117 -171h-99l-72 103h-3l-105 -103h-108z" />
<glyph unicode="&#xc3;" horiz-adv-x="830" d="M-39 0l510 986h143l136 -986h-124l-41 312h-339l-157 -312h-128zM290 408h286l-38 285q-2 21 -8.5 85.5t-8.5 96.5h-3q-57 -132 -82 -180zM351 1046q12 69 45 110.5t79 41.5q43 0 91 -31q37 -27 66 -27q33 0 51 60h70q-25 -147 -125 -147q-39 0 -91 30q-3 2 -10 6.5 t-9.5 6t-8 5t-9 4.5t-8 2.5t-9 2t-9.5 0.5q-35 -2 -51 -64h-72z" />
<glyph unicode="&#xc4;" horiz-adv-x="830" d="M-39 0l510 986h143l136 -986h-124l-41 312h-339l-157 -312h-128zM290 408h286l-38 285q-2 21 -8.5 85.5t-8.5 96.5h-3q-57 -132 -82 -180zM347 1125q0 31 22.5 54t53.5 23q30 0 49.5 -21t19.5 -50q0 -32 -22 -54t-55 -22q-28 0 -48 20.5t-20 49.5zM617 1125q0 31 22.5 54 t53.5 23q30 0 49.5 -21t19.5 -50q0 -31 -22 -53.5t-54 -22.5q-29 0 -49 20.5t-20 49.5z" />
<glyph unicode="&#xc5;" horiz-adv-x="830" d="M-39 0l510 986h143l136 -986h-124l-41 312h-339l-157 -312h-128zM290 408h286l-38 285q-2 21 -8.5 85.5t-8.5 96.5h-3q-57 -132 -82 -180zM414 1140q0 60 41.5 98.5t107.5 38.5q62 0 100.5 -35t38.5 -92q-1 -60 -44 -96.5t-105 -36.5q-60 0 -99 34.5t-40 88.5zM489 1142 q0 -30 18.5 -51.5t48.5 -21.5t50 23t20 56q0 32 -18 54t-48 22q-31 0 -51 -23t-20 -59z" />
<glyph unicode="&#xc6;" horiz-adv-x="1129" d="M-75 0l654 986h558l-21 -104h-367l-35 -319h349l-19 -104h-336l-38 -355h376l-21 -104h-481l35 348h-294l-231 -348h-129zM347 449h243l29 285q4 27 11 87.5t8 72.5h-6q-24 -44 -94 -155z" />
<glyph unicode="&#xc7;" horiz-adv-x="811" d="M70 394q0 141 55.5 266t156.5 209q155 132 370 132q75 0 133.5 -14.5t81.5 -32.5l-39 -98q-69 41 -195 41q-77 0 -151.5 -29t-130.5 -82q-70 -65 -110.5 -164.5t-40.5 -210.5q0 -144 72.5 -233t227.5 -89q126 0 211 41l16 -98q-97 -43 -224 -48l-44 -59q36 -7 57 -32.5 t21 -60.5q0 -60 -46.5 -93t-110.5 -33q-66 0 -98 26l27 63q32 -22 74 -22q26 0 45.5 13.5t19.5 37.5q0 49 -95 58l73 103q-166 14 -261 123.5t-95 285.5z" />
<glyph unicode="&#xc8;" horiz-adv-x="687" d="M45 0l188 986h501l-19 -104h-380l-61 -316h358l-19 -102h-358l-69 -360h404l-19 -104h-526zM312 1210h150l110 -170h-99z" />
<glyph unicode="&#xc9;" horiz-adv-x="687" d="M45 0l188 986h501l-19 -104h-380l-61 -316h358l-19 -102h-358l-69 -360h404l-19 -104h-526zM417 1039l149 171h160l-201 -171h-108z" />
<glyph unicode="&#xca;" horiz-adv-x="687" d="M45 0l188 986h501l-19 -104h-380l-61 -316h358l-19 -102h-358l-69 -360h404l-19 -104h-526zM295 1039l178 171h95l117 -171h-100l-72 103h-2l-107 -103h-109z" />
<glyph unicode="&#xcb;" horiz-adv-x="687" d="M45 0l188 986h501l-19 -104h-380l-61 -316h358l-19 -102h-358l-69 -360h404l-19 -104h-526zM301 1125q0 31 22.5 54t53.5 23q30 0 49.5 -21t19.5 -50q0 -31 -22 -53.5t-54 -22.5q-29 0 -49 20.5t-20 49.5zM572 1125q0 31 22 54t53 23q30 0 49 -21t19 -50q0 -32 -21.5 -54 t-54.5 -22q-28 0 -47.5 20.5t-19.5 49.5z" />
<glyph unicode="&#xcc;" horiz-adv-x="340" d="M44 0l187 986h122l-188 -986h-121zM117 1210h151l109 -170h-99z" />
<glyph unicode="&#xcd;" horiz-adv-x="340" d="M44 0l187 986h122l-188 -986h-121zM219 1039l151 171h158l-199 -171h-110z" />
<glyph unicode="&#xce;" horiz-adv-x="340" d="M44 0l187 986h122l-188 -986h-121zM97 1039l175 171h95l117 -171h-99l-72 103h-3l-105 -103h-108z" />
<glyph unicode="&#xcf;" horiz-adv-x="340" d="M44 0l187 986h122l-188 -986h-121zM108 1125q0 31 22.5 54t53.5 23q30 0 49.5 -21t19.5 -50q0 -31 -22.5 -53.5t-53.5 -22.5q-29 0 -49 20.5t-20 49.5zM379 1125q0 31 22.5 54t53.5 23q30 0 48.5 -21t18.5 -50q0 -32 -21.5 -54t-54.5 -22q-28 0 -47.5 20.5t-19.5 49.5z " />
<glyph unicode="&#xd0;" horiz-adv-x="956" d="M20 464l21 102h121l78 405q115 21 252 21q243 0 355 -129q93 -96 94 -268q0 -134 -54.5 -258.5t-150.5 -203.5q-166 -139 -441 -139q-120 0 -239 13l87 457h-123zM196 102q44 -7 133 -7q213 0 342 132q66 66 102.5 163t36.5 200q0 141 -77.5 222.5t-251.5 81.5 q-82 0 -136 -9l-60 -319h243l-20 -102h-242z" />
<glyph unicode="&#xd1;" horiz-adv-x="924" d="M45 0l188 986h133l225 -559q48 -122 88 -275l3 2q5 107 41 308l99 524h116l-189 -986h-120l-225 557q-61 158 -91 286l-4 -3q-12 -112 -52 -324l-98 -516h-114zM410 1047q12 68 45 110.5t79 42.5q43 0 91 -31q38 -28 65 -28q34 0 52 60h70q-25 -146 -126 -146 q-41 0 -91 29q-4 3 -11.5 8t-11 7t-9.5 5.5t-10 4.5t-9.5 2t-11.5 1q-35 -2 -51 -65h-71z" />
<glyph unicode="&#xd2;" horiz-adv-x="977" d="M70 385q0 133 50 264.5t137 217.5q64 63 151.5 99t179.5 36q96 0 170 -33t117 -90.5t64.5 -128t21.5 -152.5q0 -132 -46.5 -262t-131.5 -215q-140 -137 -338 -137q-93 0 -166 33t-118 89.5t-68 127.5t-23 151zM197 395q0 -133 65 -221t200 -88q129 0 226 100 q67 67 106.5 182.5t39.5 223.5q0 46 -6 86t-24 82t-46 72t-75.5 49t-109.5 19q-126 0 -226 -98q-68 -71 -109 -185.5t-41 -221.5zM420 1210h151l109 -170h-101z" />
<glyph unicode="&#xd3;" horiz-adv-x="977" d="M70 385q0 133 50 264.5t137 217.5q64 63 151.5 99t179.5 36q96 0 170 -33t117 -90.5t64.5 -128t21.5 -152.5q0 -132 -46.5 -262t-131.5 -215q-140 -137 -338 -137q-93 0 -166 33t-118 89.5t-68 127.5t-23 151zM197 395q0 -133 65 -221t200 -88q129 0 226 100 q67 67 106.5 182.5t39.5 223.5q0 46 -6 86t-24 82t-46 72t-75.5 49t-109.5 19q-126 0 -226 -98q-68 -71 -109 -185.5t-41 -221.5zM537 1040l149 173h160l-199 -173h-110z" />
<glyph unicode="&#xd4;" horiz-adv-x="977" d="M70 385q0 133 50 264.5t137 217.5q64 63 151.5 99t179.5 36q96 0 170 -33t117 -90.5t64.5 -128t21.5 -152.5q0 -132 -46.5 -262t-131.5 -215q-140 -137 -338 -137q-93 0 -166 33t-118 89.5t-68 127.5t-23 151zM197 395q0 -133 65 -221t200 -88q129 0 226 100 q67 67 106.5 182.5t39.5 223.5q0 46 -6 86t-24 82t-46 72t-75.5 49t-109.5 19q-126 0 -226 -98q-68 -71 -109 -185.5t-41 -221.5zM413 1039l177 171h93l117 -171h-99l-72 103h-3l-105 -103h-108z" />
<glyph unicode="&#xd5;" horiz-adv-x="977" d="M70 385q0 133 50 264.5t137 217.5q64 63 151.5 99t179.5 36q96 0 170 -33t117 -90.5t64.5 -128t21.5 -152.5q0 -132 -46.5 -262t-131.5 -215q-140 -137 -338 -137q-93 0 -166 33t-118 89.5t-68 127.5t-23 151zM197 395q0 -133 65 -221t200 -88q129 0 226 100 q67 67 106.5 182.5t39.5 223.5q0 46 -6 86t-24 82t-46 72t-75.5 49t-109.5 19q-126 0 -226 -98q-68 -71 -109 -185.5t-41 -221.5zM427 1047q12 69 45 111t79 42q43 0 91 -31q39 -28 66 -28q18 0 30 14t21 46h70q-25 -146 -124 -146q-44 0 -91 29q-4 2 -13.5 8.5t-13 8.5 t-10.5 5.5t-13.5 4.5t-13.5 1q-35 -2 -50 -65h-73z" />
<glyph unicode="&#xd6;" horiz-adv-x="977" d="M70 385q0 133 50 264.5t137 217.5q64 63 151.5 99t179.5 36q96 0 170 -33t117 -90.5t64.5 -128t21.5 -152.5q0 -132 -46.5 -262t-131.5 -215q-140 -137 -338 -137q-93 0 -166 33t-118 89.5t-68 127.5t-23 151zM197 395q0 -133 65 -221t200 -88q129 0 226 100 q67 67 106.5 182.5t39.5 223.5q0 46 -6 86t-24 82t-46 72t-75.5 49t-109.5 19q-126 0 -226 -98q-68 -71 -109 -185.5t-41 -221.5zM421 1125q0 31 22.5 54t53.5 23q30 0 49.5 -21t19.5 -50q0 -31 -22 -53.5t-54 -22.5q-29 0 -49 20.5t-20 49.5zM692 1125q0 31 22.5 54 t53.5 23q30 0 48.5 -21t18.5 -50q0 -32 -21.5 -54t-52.5 -22q-29 0 -49 20.5t-20 49.5z" />
<glyph unicode="&#xd7;" horiz-adv-x="871" d="M92 66l300 319l-300 320l63 64l298 -324l300 324l63 -62l-303 -322l303 -321l-63 -64l-301 325l-300 -325z" />
<glyph unicode="&#xd8;" horiz-adv-x="975" d="M32 -4l113 128q-76 111 -76 268q0 130 47 253.5t130 210.5q68 69 158 107.5t183 38.5q153 0 242 -85l112 126l65 -53l-118 -134q73 -100 73 -256q0 -131 -46.5 -259t-128.5 -212q-65 -68 -154 -106.5t-184 -38.5q-150 0 -240 83l-116 -130zM221 581q-59 -193 9 -354h3 l523 602q-63 71 -183 71t-216.5 -90.5t-135.5 -228.5zM282 154q66 -69 183 -69q110 0 203.5 84.5t136.5 219.5q63 199 -2 360h-4z" />
<glyph unicode="&#xd9;" horiz-adv-x="906" d="M108 275q0 68 13 136l110 575h122l-112 -585q-11 -61 -11 -123q0 -92 49 -141t134 -49q217 0 275 311l112 587h122l-113 -590q-80 -412 -413 -412q-129 -1 -208.5 72t-79.5 219zM399 1210h150l111 -170h-101z" />
<glyph unicode="&#xda;" horiz-adv-x="906" d="M108 275q0 68 13 136l110 575h122l-112 -585q-11 -61 -11 -123q0 -92 49 -141t134 -49q217 0 275 311l112 587h122l-113 -590q-80 -412 -413 -412q-129 -1 -208.5 72t-79.5 219zM490 1039l149 171h160l-199 -171h-110z" />
<glyph unicode="&#xdb;" horiz-adv-x="906" d="M108 275q0 68 13 136l110 575h122l-112 -585q-11 -61 -11 -123q0 -92 49 -141t134 -49q217 0 275 311l112 587h122l-113 -590q-80 -412 -413 -412q-129 -1 -208.5 72t-79.5 219zM395 1039l177 171h94l117 -171h-100l-72 103h-2l-106 -103h-108z" />
<glyph unicode="&#xdc;" horiz-adv-x="906" d="M108 275q0 68 13 136l110 575h122l-112 -585q-11 -61 -11 -123q0 -92 49 -141t134 -49q217 0 275 311l112 587h122l-113 -590q-80 -412 -413 -412q-129 -1 -208.5 72t-79.5 219zM388 1125q0 31 22.5 54t53.5 23q30 0 49 -21t19 -50q0 -32 -22 -54t-55 -22 q-28 0 -47.5 20.5t-19.5 49.5zM657 1125q0 31 22.5 54t53.5 23q30 0 49.5 -21t19.5 -50q0 -32 -21.5 -54t-54.5 -22q-29 0 -49 20.5t-20 49.5z" />
<glyph unicode="&#xdd;" horiz-adv-x="754" d="M123 986h129l96 -319q30 -106 41 -165h3q26 46 105 169l214 315h142l-420 -576l-78 -410h-119l77 410zM414 1039l151 171h158l-199 -171h-110z" />
<glyph unicode="&#xde;" horiz-adv-x="741" d="M45 0l188 986h120l-38 -193q58 12 117 12q149 0 225 -76q64 -64 64 -166q0 -108 -57.5 -187t-148 -117t-198.5 -38q-51 0 -111 7l-42 -228h-119zM227 331q44 -9 102 -9q111 0 191 63t80 162q0 80 -52.5 119t-142.5 39q-70 0 -110 -12z" />
<glyph unicode="&#xdf;" horiz-adv-x="788" d="M41 0l129 673q70 382 360 382q104 0 166.5 -59t62.5 -149q0 -45 -18 -88.5t-42 -69.5q-55 -19 -91 -54t-36 -82q0 -33 12.5 -58t41.5 -63q73 -99 73 -191q0 -118 -82.5 -187.5t-205.5 -69.5q-89 0 -143 34l32 92q54 -30 113 -30q71 0 117 41.5t46 108.5q0 63 -54 134 q-74 95 -74 164t44 122t114 84q32 32 32 101q0 50 -31 85t-95 35q-80 0 -136.5 -67t-81.5 -196l-132 -692h-121z" />
<glyph unicode="&#xe0;" horiz-adv-x="763" d="M45 218q0 93 34 183t94.5 162t155 116.5t206.5 44.5q103 0 191 -28l-72 -368q-36 -193 -31 -328h-112q-1 45 16 183h-5q-104 -199 -272 -199q-94 0 -149.5 64.5t-55.5 169.5zM171 238q0 -67 28.5 -111t93.5 -44q78 0 153 92t101 229l43 213q-33 11 -85 11 q-89 0 -167 -56.5t-122.5 -146.5t-44.5 -187zM331 1004h137l97 -210h-87z" />
<glyph unicode="&#xe1;" horiz-adv-x="763" d="M45 218q0 93 34 183t94.5 162t155 116.5t206.5 44.5q103 0 191 -28l-72 -368q-36 -193 -31 -328h-112q-1 45 16 183h-5q-104 -199 -272 -199q-94 0 -149.5 64.5t-55.5 169.5zM171 238q0 -67 28.5 -111t93.5 -44q78 0 153 92t101 229l43 213q-33 11 -85 11 q-89 0 -167 -56.5t-122.5 -146.5t-44.5 -187zM434 794l144 210h146l-194 -210h-96z" />
<glyph unicode="&#xe2;" horiz-adv-x="763" d="M45 218q0 93 34 183t94.5 162t155 116.5t206.5 44.5q103 0 191 -28l-72 -368q-36 -193 -31 -328h-112q-1 45 16 183h-5q-104 -199 -272 -199q-94 0 -149.5 64.5t-55.5 169.5zM171 238q0 -67 28.5 -111t93.5 -44q78 0 153 92t101 229l43 213q-33 11 -85 11 q-89 0 -167 -56.5t-122.5 -146.5t-44.5 -187zM312 794l168 210h88l101 -210h-91l-63 133h-3l-102 -133h-98z" />
<glyph unicode="&#xe3;" horiz-adv-x="763" d="M45 218q0 93 34 183t94.5 162t155 116.5t206.5 44.5q103 0 191 -28l-72 -368q-36 -193 -31 -328h-112q-1 45 16 183h-5q-104 -199 -272 -199q-94 0 -149.5 64.5t-55.5 169.5zM171 238q0 -67 28.5 -111t93.5 -44q78 0 153 92t101 229l43 213q-33 11 -85 11 q-89 0 -167 -56.5t-122.5 -146.5t-44.5 -187zM303 831q8 68 38.5 110t78.5 42q7 0 14 -1t12 -1.5t12 -3.5t10 -4t11 -5t10 -5.5t11.5 -7t11.5 -6.5q44 -24 61 -24q18 0 27.5 13t16.5 49h72q-19 -147 -116 -147q-49 0 -90 32q-40 26 -63 26q-32 0 -44 -67h-73z" />
<glyph unicode="&#xe4;" horiz-adv-x="763" d="M45 218q0 93 34 183t94.5 162t155 116.5t206.5 44.5q103 0 191 -28l-72 -368q-36 -193 -31 -328h-112q-1 45 16 183h-5q-104 -199 -272 -199q-94 0 -149.5 64.5t-55.5 169.5zM171 238q0 -67 28.5 -111t93.5 -44q78 0 153 92t101 229l43 213q-33 11 -85 11 q-89 0 -167 -56.5t-122.5 -146.5t-44.5 -187zM288 906q0 33 23 55t55 22q31 0 49.5 -21t18.5 -51q0 -34 -21 -55.5t-56 -21.5q-29 0 -49 20.5t-20 51.5zM557 906q0 33 22 55t54 22q30 0 49 -21t19 -51q0 -33 -21.5 -55t-54.5 -22q-29 0 -48.5 20.5t-19.5 51.5z" />
<glyph unicode="&#xe5;" horiz-adv-x="763" d="M45 218q0 93 34 183t94.5 162t155 116.5t206.5 44.5q103 0 191 -28l-72 -368q-36 -193 -31 -328h-112q-1 45 16 183h-5q-104 -199 -272 -199q-94 0 -149.5 64.5t-55.5 169.5zM171 238q0 -67 28.5 -111t93.5 -44q78 0 153 92t101 229l43 213q-33 11 -85 11 q-89 0 -167 -56.5t-122.5 -146.5t-44.5 -187zM350 910q-1 62 43 102.5t110 40.5q60 0 99.5 -36.5t39.5 -96.5q-1 -62 -45.5 -100.5t-106.5 -38.5q-59 0 -99 36.5t-41 92.5zM423 913q0 -30 20 -53t50 -23q33 0 54 24t21 62q0 32 -19.5 54t-51.5 22q-33 0 -53.5 -24t-20.5 -62 z" />
<glyph unicode="&#xe6;" horiz-adv-x="1050" d="M7 165q0 137 129.5 211t331.5 66l6 28q7 25 1 53.5t-19 52.5t-43.5 40t-73.5 16q-93 0 -184 -59l-26 82q107 69 225 69q85 0 136.5 -38.5t65.5 -110.5h3q44 72 117 110.5t152 38.5q97 0 150 -50t53 -120q0 -57 -25 -98.5t-69 -64t-103.5 -36t-128.5 -14.5t-145 0 q-17 -97 9 -164q19 -46 62 -70.5t99 -24.5q44 0 83.5 8.5t58.5 16.5t50 23l16 -86q-99 -60 -233 -60q-85 0 -146.5 41t-84.5 115h-3q-42 -74 -112.5 -115t-155.5 -41q-91 0 -143 52t-53 129zM132 180q0 -46 28.5 -73t75.5 -27q70 0 128 52t76 144l15 79q-52 3 -103.5 -3.5 t-103.5 -24t-84 -55.5t-32 -92zM578 430h102t91 6.5t73.5 18t49 34.5t17.5 55q0 36 -28 61t-76 25q-86 0 -147.5 -63t-81.5 -137z" />
<glyph unicode="&#xe7;" horiz-adv-x="618" d="M50 257q0 122 54.5 228t155 172t224.5 66q91 0 148 -31l-35 -98q-52 28 -122 28q-88 0 -158 -52.5t-105.5 -131.5t-35.5 -164q0 -88 45.5 -138.5t131.5 -50.5q83 0 163 39l12 -96q-71 -35 -158 -43l-44 -60q35 -8 57 -33t22 -60q0 -59 -47.5 -92.5t-113.5 -33.5 q-63 0 -95 25l27 63q36 -21 76 -21q27 0 45.5 14t18.5 39q0 46 -97 57l72 102q-116 9 -178.5 85.5t-62.5 186.5z" />
<glyph unicode="&#xe8;" horiz-adv-x="661" d="M48 269q0 108 48 212t138.5 173.5t199.5 69.5q98 0 153 -51.5t55 -131.5q0 -67 -35.5 -114t-102.5 -72t-148 -35t-185 -8q-5 -22 -0.5 -64.5t15.5 -69.5q42 -95 158 -95q100 0 190 47l17 -91q-102 -55 -234 -55q-134 0 -201.5 79.5t-67.5 205.5zM186 407q76 -1 134 4 t106 19.5t73.5 42t25.5 67.5q0 42 -30 65.5t-78 23.5q-81 0 -144.5 -66.5t-86.5 -155.5zM278 1004h137l97 -210h-86z" />
<glyph unicode="&#xe9;" horiz-adv-x="661" d="M48 269q0 108 48 212t138.5 173.5t199.5 69.5q98 0 153 -51.5t55 -131.5q0 -67 -35.5 -114t-102.5 -72t-148 -35t-185 -8q-5 -22 -0.5 -64.5t15.5 -69.5q42 -95 158 -95q100 0 190 47l17 -91q-102 -55 -234 -55q-134 0 -201.5 79.5t-67.5 205.5zM186 407q76 -1 134 4 t106 19.5t73.5 42t25.5 67.5q0 42 -30 65.5t-78 23.5q-81 0 -144.5 -66.5t-86.5 -155.5zM369 794l143 210h146l-194 -210h-95z" />
<glyph unicode="&#xea;" horiz-adv-x="661" d="M48 269q0 108 48 212t138.5 173.5t199.5 69.5q98 0 153 -51.5t55 -131.5q0 -67 -35.5 -114t-102.5 -72t-148 -35t-185 -8q-5 -22 -0.5 -64.5t15.5 -69.5q42 -95 158 -95q100 0 190 47l17 -91q-102 -55 -234 -55q-134 0 -201.5 79.5t-67.5 205.5zM186 407q76 -1 134 4 t106 19.5t73.5 42t25.5 67.5q0 42 -30 65.5t-78 23.5q-81 0 -144.5 -66.5t-86.5 -155.5zM263 794l169 210h87l101 -210h-90l-63 133h-3l-103 -133h-98z" />
<glyph unicode="&#xeb;" horiz-adv-x="661" d="M48 269q0 108 48 212t138.5 173.5t199.5 69.5q98 0 153 -51.5t55 -131.5q0 -67 -35.5 -114t-102.5 -72t-148 -35t-185 -8q-5 -22 -0.5 -64.5t15.5 -69.5q42 -95 158 -95q100 0 190 47l17 -91q-102 -55 -234 -55q-134 0 -201.5 79.5t-67.5 205.5zM186 407q76 -1 134 4 t106 19.5t73.5 42t25.5 67.5q0 42 -30 65.5t-78 23.5q-81 0 -144.5 -66.5t-86.5 -155.5zM253 906q0 33 23 55t55 22q31 0 49.5 -21t18.5 -51q0 -33 -21.5 -55t-54.5 -22q-31 0 -50.5 20.5t-19.5 51.5zM522 906q0 33 22 55t54 22q31 0 49.5 -21t18.5 -51q0 -34 -20.5 -55.5 t-55.5 -21.5q-29 0 -48.5 20.5t-19.5 51.5z" />
<glyph unicode="&#xec;" horiz-adv-x="333" d="M41 0l136 708h121l-136 -708h-121zM75 1004h137l97 -210h-87z" />
<glyph unicode="&#xed;" horiz-adv-x="333" d="M41 0l136 708h121l-136 -708h-121zM183 794l143 210h147l-195 -210h-95z" />
<glyph unicode="&#xee;" horiz-adv-x="333" d="M41 0l136 708h121l-136 -708h-121zM67 794l169 210h87l101 -210h-90l-63 133h-3l-103 -133h-98z" />
<glyph unicode="&#xef;" horiz-adv-x="333" d="M41 0l136 708h121l-136 -708h-121zM61 906q0 33 22.5 55t54.5 22q31 0 50.5 -21t19.5 -51q0 -33 -22 -55t-56 -22q-29 0 -49 20.5t-20 51.5zM331 906q0 33 21 55t53 22q31 0 50 -21t19 -51q0 -33 -21.5 -55t-54.5 -22q-29 0 -48 20.5t-19 51.5z" />
<glyph unicode="&#xf0;" horiz-adv-x="754" d="M48 269q0 176 109 306.5t264 132.5q104 0 154 -70l4 1q-38 116 -124 202l-215 -99l-23 61l185 86q-50 50 -128 90l57 73q85 -39 175 -117l192 86l26 -61l-165 -75q152 -163 152 -393q0 -226 -114 -367t-272 -141q-136 0 -206.5 83t-70.5 202zM174 271q0 -82 41.5 -137 t116.5 -55q106 0 178 108t74 249q2 70 -24 110q-41 68 -133 68q-73 0 -132 -52t-90 -130t-31 -161z" />
<glyph unicode="&#xf1;" horiz-adv-x="781" d="M19 0l95 502q12 56 34 206h108l-18 -140h3q47 74 115.5 115t146.5 41q74 0 127 -47t53 -150q0 -43 -13 -114l-79 -413h-120l76 410q10 65 10 89q0 123 -111 123q-72 0 -145.5 -77t-97.5 -201l-63 -344h-121zM293 831q8 68 38.5 110t78.5 42q7 0 14 -1t12 -1.5t12 -3.5 t10 -4t11 -5t10 -5.5t11.5 -7t11.5 -6.5q44 -24 61 -24q18 0 27.5 13t16.5 49h72q-19 -147 -116 -147q-49 0 -90 32q-40 26 -63 26q-32 0 -44 -67h-73z" />
<glyph unicode="&#xf2;" horiz-adv-x="765" d="M51 274q0 117 49 219.5t140 166.5t203 64q134 0 206 -86t72 -209q0 -110 -48 -211.5t-140.5 -167.5t-206.5 -66q-128 0 -201.5 83t-73.5 207zM177 279q0 -89 45 -144.5t122 -55.5q69 0 128 53.5t91 133.5t32 163q0 34 -8.5 66.5t-26 63.5t-51.5 50t-79 19 q-73 0 -132.5 -54t-90.5 -133.5t-30 -161.5zM285 1004h138l96 -210h-86z" />
<glyph unicode="&#xf3;" horiz-adv-x="765" d="M51 274q0 117 49 219.5t140 166.5t203 64q134 0 206 -86t72 -209q0 -110 -48 -211.5t-140.5 -167.5t-206.5 -66q-128 0 -201.5 83t-73.5 207zM177 279q0 -89 45 -144.5t122 -55.5q69 0 128 53.5t91 133.5t32 163q0 34 -8.5 66.5t-26 63.5t-51.5 50t-79 19 q-73 0 -132.5 -54t-90.5 -133.5t-30 -161.5zM391 794l143 210h146l-194 -210h-95z" />
<glyph unicode="&#xf4;" horiz-adv-x="765" d="M51 274q0 117 49 219.5t140 166.5t203 64q134 0 206 -86t72 -209q0 -110 -48 -211.5t-140.5 -167.5t-206.5 -66q-128 0 -201.5 83t-73.5 207zM177 279q0 -89 45 -144.5t122 -55.5q69 0 128 53.5t91 133.5t32 163q0 34 -8.5 66.5t-26 63.5t-51.5 50t-79 19 q-73 0 -132.5 -54t-90.5 -133.5t-30 -161.5zM287 794l168 210h88l101 -210h-91l-63 133h-3l-102 -133h-98z" />
<glyph unicode="&#xf5;" horiz-adv-x="765" d="M51 274q0 117 49 219.5t140 166.5t203 64q134 0 206 -86t72 -209q0 -110 -48 -211.5t-140.5 -167.5t-206.5 -66q-128 0 -201.5 83t-73.5 207zM177 279q0 -89 45 -144.5t122 -55.5q69 0 128 53.5t91 133.5t32 163q0 34 -8.5 66.5t-26 63.5t-51.5 50t-79 19 q-73 0 -132.5 -54t-90.5 -133.5t-30 -161.5zM271 831q8 68 38.5 110t78.5 42q6 0 11.5 -0.5t10 -1t10 -2.5t8.5 -2.5t9 -3.5t8.5 -4t9 -4.5t8 -4.5t9.5 -5.5t9 -5.5q40 -24 60 -24q19 0 29 12.5t17 49.5h70q-9 -73 -37 -110t-79 -37q-46 0 -90 32q-38 26 -62 26 q-34 0 -44 -67h-74z" />
<glyph unicode="&#xf6;" horiz-adv-x="765" d="M51 274q0 117 49 219.5t140 166.5t203 64q134 0 206 -86t72 -209q0 -110 -48 -211.5t-140.5 -167.5t-206.5 -66q-128 0 -201.5 83t-73.5 207zM177 279q0 -89 45 -144.5t122 -55.5q69 0 128 53.5t91 133.5t32 163q0 34 -8.5 66.5t-26 63.5t-51.5 50t-79 19 q-73 0 -132.5 -54t-90.5 -133.5t-30 -161.5zM278 906q0 33 22.5 55t54.5 22q31 0 50 -21t19 -51q0 -34 -21 -55.5t-56 -21.5q-29 0 -49 20.5t-20 51.5zM547 906q0 33 22 55t54 22q30 0 48.5 -21t18.5 -51q0 -33 -21.5 -55t-54.5 -22q-29 0 -48 20.5t-19 51.5z" />
<glyph unicode="&#xf7;" horiz-adv-x="871" d="M80 347v87h733v-87h-733zM369 133q0 36 22 59t57 23t56 -23t21 -59q0 -34 -22 -57t-57 -23q-33 0 -55 23t-22 57zM369 647q0 36 22 59t57 23t56 -23t21 -59q0 -35 -22 -58t-57 -23q-33 0 -55 23.5t-22 57.5z" />
<glyph unicode="&#xf8;" horiz-adv-x="765" d="M31 -12l82 95q-62 79 -62 201q0 114 49 214.5t139.5 163t200.5 62.5q103 0 170 -53l79 90l50 -41l-82 -94q64 -80 64 -193q0 -185 -113.5 -317t-269.5 -132q-111 0 -180 55l-83 -95zM174 298q0 -70 25 -117l3 2l336 405q-38 41 -112 41q-73 0 -132.5 -53.5t-89.5 -128.5 t-30 -149zM231 123q45 -47 117 -47q96 0 172 104.5t77 230.5q0 61 -24 114h-2z" />
<glyph unicode="&#xf9;" horiz-adv-x="769" d="M75 189q0 57 13 118l76 401h121l-74 -395q-14 -61 -14 -104q0 -123 113 -123q71 0 140.5 73t90.5 186l69 363h121l-95 -503q-18 -89 -32 -205h-110l19 133h-2q-48 -69 -114.5 -109t-136.5 -40q-79 0 -132 47t-53 158zM284 1004h137l97 -210h-86z" />
<glyph unicode="&#xfa;" horiz-adv-x="769" d="M75 189q0 57 13 118l76 401h121l-74 -395q-14 -61 -14 -104q0 -123 113 -123q71 0 140.5 73t90.5 186l69 363h121l-95 -503q-18 -89 -32 -205h-110l19 133h-2q-48 -69 -114.5 -109t-136.5 -40q-79 0 -132 47t-53 158zM383 794l144 210h146l-195 -210h-95z" />
<glyph unicode="&#xfb;" horiz-adv-x="769" d="M75 189q0 57 13 118l76 401h121l-74 -395q-14 -61 -14 -104q0 -123 113 -123q71 0 140.5 73t90.5 186l69 363h121l-95 -503q-18 -89 -32 -205h-110l19 133h-2q-48 -69 -114.5 -109t-136.5 -40q-79 0 -132 47t-53 158zM291 794l168 210h88l101 -210h-91l-63 133h-2 l-103 -133h-98z" />
<glyph unicode="&#xfc;" horiz-adv-x="769" d="M75 189q0 57 13 118l76 401h121l-74 -395q-14 -61 -14 -104q0 -123 113 -123q71 0 140.5 73t90.5 186l69 363h121l-95 -503q-18 -89 -32 -205h-110l19 133h-2q-48 -69 -114.5 -109t-136.5 -40q-79 0 -132 47t-53 158zM275 906q0 33 23 55t55 22q31 0 49.5 -21t18.5 -51 q0 -34 -21 -55.5t-56 -21.5q-29 0 -49 20.5t-20 51.5zM544 906q0 33 22 55t54 22q30 0 49 -21t19 -51q0 -33 -21.5 -55t-55.5 -22q-29 0 -48 20.5t-19 51.5z" />
<glyph unicode="&#xfd;" horiz-adv-x="645" d="M-59 -221q74 24 131 69q85 67 136 162q6 11 4 32l-143 666h127l69 -382q26 -134 33 -186h3q2 5 28 66.5t47 108.5l181 393h129l-265 -538q-64 -129 -120 -218t-124 -155q-53 -53 -109.5 -83t-96.5 -39zM325 794l143 210h146l-194 -210h-95z" />
<glyph unicode="&#xfe;" horiz-adv-x="769" d="M-23 -290l241 1270h120l-76 -399h3q43 67 106.5 105t136.5 38q107 0 162.5 -73.5t55.5 -183.5q0 -126 -55.5 -237.5t-151.5 -178.5t-207 -67q-94 0 -151 31h-6l-57 -305h-121zM176 117q44 -38 136 -38q115 0 200.5 117.5t85.5 259.5q0 68 -31.5 117.5t-99.5 49.5 q-77 0 -152.5 -82t-102.5 -225z" />
<glyph unicode="&#xff;" horiz-adv-x="645" d="M-59 -221q74 24 131 69q85 67 136 162q6 11 4 32l-143 666h127l69 -382q26 -134 33 -186h3q2 5 28 66.5t47 108.5l181 393h129l-265 -538q-64 -129 -120 -218t-124 -155q-53 -53 -109.5 -83t-96.5 -39zM206 906q0 33 22 55t54 22q31 0 51 -21t20 -51q0 -33 -22 -55 t-56 -22q-29 0 -49 20.5t-20 51.5zM475 906q0 33 21.5 55t53.5 22q31 0 50 -21t19 -51q0 -33 -21.5 -55t-54.5 -22q-30 0 -49 20.5t-19 51.5z" />
<glyph unicode="&#x100;" horiz-adv-x="830" d="M-39 0l510 986h143l136 -986h-124l-41 312h-339l-157 -312h-128zM290 408h286l-38 285q-2 21 -8.5 85.5t-8.5 96.5h-3q-57 -132 -82 -180zM379 1072l16 87h345l-16 -87h-345z" />
<glyph unicode="&#x101;" horiz-adv-x="763" d="M45 218q0 93 34 183t94.5 162t155 116.5t206.5 44.5q103 0 191 -28l-72 -368q-36 -193 -31 -328h-112q-1 45 16 183h-5q-104 -199 -272 -199q-94 0 -149.5 64.5t-55.5 169.5zM171 238q0 -67 28.5 -111t93.5 -44q78 0 153 92t101 229l43 213q-33 11 -85 11 q-89 0 -167 -56.5t-122.5 -146.5t-44.5 -187zM328 857l16 85h322l-15 -85h-323z" />
<glyph unicode="&#x10c;" horiz-adv-x="811" d="M70 394q0 141 55.5 266t156.5 209q155 132 370 132q75 0 133.5 -14.5t81.5 -32.5l-39 -98q-69 41 -195 41q-77 0 -151.5 -29t-130.5 -82q-70 -65 -110.5 -164.5t-40.5 -210.5q0 -144 72.5 -233t227.5 -89q126 0 211 41l16 -98q-108 -48 -256 -48q-186 0 -293.5 111 t-107.5 299zM445 1216h101l68 -104h6l104 104h108l-175 -172h-95z" />
<glyph unicode="&#x10d;" horiz-adv-x="618" d="M50 257q0 122 54.5 228t155 172t224.5 66q91 0 148 -31l-35 -98q-52 28 -122 28q-88 0 -158 -52.5t-105.5 -131.5t-35.5 -164q0 -88 45.5 -138.5t131.5 -50.5q83 0 163 39l12 -96q-90 -44 -205 -44q-131 0 -202 77.5t-71 195.5zM293 1004h92l61 -135h5l105 135h98 l-171 -210h-88z" />
<glyph unicode="&#x110;" horiz-adv-x="956" d="M20 464l21 102h121l78 405q115 21 252 21q243 0 355 -129q93 -96 94 -268q0 -134 -54.5 -258.5t-150.5 -203.5q-166 -139 -441 -139q-120 0 -239 13l87 457h-123zM196 102q44 -7 133 -7q213 0 342 132q66 66 102.5 163t36.5 200q0 141 -77.5 222.5t-251.5 81.5 q-82 0 -136 -9l-60 -319h243l-20 -102h-242z" />
<glyph unicode="&#x111;" horiz-adv-x="768" d="M47 241q0 126 56.5 236.5t158.5 178.5t224 68q72 0 124 -25l25 132h-287l16 79h286l23 129h120l-25 -129h117l-15 -79h-117l-114 -606q-24 -119 -30 -225h-112l19 140h-3q-99 -156 -254 -156q-100 0 -156 72t-56 185zM173 257q0 -34 6.5 -63.5t21 -55t41.5 -40.5t64 -15 q73 0 144 75t93 190l48 249q-48 31 -117 31q-82 0 -152.5 -53.5t-109.5 -138.5t-39 -179z" />
<glyph unicode="&#x112;" horiz-adv-x="687" d="M45 0l188 986h501l-19 -104h-380l-61 -316h358l-19 -102h-358l-69 -360h404l-19 -104h-526zM319 1072l16 87h345l-16 -87h-345z" />
<glyph unicode="&#x113;" horiz-adv-x="661" d="M48 269q0 108 48 212t138.5 173.5t199.5 69.5q98 0 153 -51.5t55 -131.5q0 -67 -35.5 -114t-102.5 -72t-148 -35t-185 -8q-5 -22 -0.5 -64.5t15.5 -69.5q42 -95 158 -95q100 0 190 47l17 -91q-102 -55 -234 -55q-134 0 -201.5 79.5t-67.5 205.5zM186 407q76 -1 134 4 t106 19.5t73.5 42t25.5 67.5q0 42 -30 65.5t-78 23.5q-81 0 -144.5 -66.5t-86.5 -155.5zM272 857l16 85h322l-15 -85h-323z" />
<glyph unicode="&#x11e;" horiz-adv-x="911" d="M72 401q0 125 49.5 245.5t141.5 203.5q170 146 407 146q82 0 143 -14t90 -31l-41 -103q-83 43 -208 43q-175 0 -304 -120q-68 -64 -108 -162t-40 -199q0 -148 77.5 -232t236.5 -84q91 0 150 27l57 294h-201l19 100h319l-89 -473q-129 -52 -278 -52q-211 0 -322 123 q-99 107 -99 288zM461 1214h76q-2 -79 89 -79q92 0 110 79h79q-11 -67 -60.5 -111t-134.5 -44q-90 0 -129.5 44t-29.5 111z" />
<glyph unicode="&#x11f;" horiz-adv-x="766" d="M15 -256l33 95q70 -47 188 -47q96 0 160 57.5t94 195.5l23 106h-4q-91 -151 -246 -151q-101 0 -158 72.5t-58 173.5q0 91 32.5 176.5t89.5 152.5t142.5 108t185.5 41q115 0 227 -50l-108 -585q-22 -117 -55.5 -194t-87.5 -122q-91 -79 -248 -79q-142 0 -210 50zM174 265 q0 -44 10.5 -79.5t42.5 -62t83 -26.5q77 0 147 82t89 187l46 235q-44 25 -118 25q-127 0 -213.5 -112t-86.5 -249zM334 999h74q-2 -44 19 -72.5t62 -28.5q48 0 76 29.5t39 71.5h78q-14 -81 -67.5 -129t-128.5 -48q-90 0 -126 51t-26 126z" />
<glyph unicode="&#x120;" horiz-adv-x="911" d="M72 401q0 125 49.5 245.5t141.5 203.5q170 146 407 146q82 0 143 -14t90 -31l-41 -103q-83 43 -208 43q-175 0 -304 -120q-68 -64 -108 -162t-40 -199q0 -148 77.5 -232t236.5 -84q91 0 150 27l57 294h-201l19 100h319l-89 -473q-129 -52 -278 -52q-211 0 -322 123 q-99 107 -99 288zM579 1125q0 31 22.5 54t53.5 23q30 0 49.5 -21t19.5 -50q0 -32 -22 -54t-55 -22q-28 0 -48 20.5t-20 49.5z" />
<glyph unicode="&#x121;" horiz-adv-x="766" d="M15 -256l33 95q70 -47 188 -47q96 0 160 57.5t94 195.5l23 106h-4q-91 -151 -246 -151q-101 0 -158 72.5t-58 173.5q0 91 32.5 176.5t89.5 152.5t142.5 108t185.5 41q115 0 227 -50l-108 -585q-22 -117 -55.5 -194t-87.5 -122q-91 -79 -248 -79q-142 0 -210 50zM174 265 q0 -44 10.5 -79.5t42.5 -62t83 -26.5q77 0 147 82t89 187l46 235q-44 25 -118 25q-127 0 -213.5 -112t-86.5 -249zM421 904q0 34 22.5 56.5t55.5 22.5q30 0 49.5 -20.5t19.5 -51.5q0 -34 -21.5 -56.5t-56.5 -22.5q-29 0 -49 20.5t-20 51.5z" />
<glyph unicode="&#x124;" horiz-adv-x="917" d="M45 0l188 986h121l-79 -417h454l78 417h122l-187 -986h-122l88 462h-455l-86 -462h-122zM396 1039l177 171h96l117 -171h-100l-72 103h-3l-106 -103h-109z" />
<glyph unicode="&#x125;" horiz-adv-x="781" d="M41 0l197 1039h122l-88 -457h3q99 142 253 142q69 0 122.5 -47t53.5 -143q0 -57 -12 -120l-79 -414h-120l76 408q10 65 10 98q0 53 -26.5 84.5t-82.5 31.5q-74 0 -147.5 -76.5t-94.5 -191.5l-66 -354h-121zM107 1075l177 171h93l117 -171h-99l-72 104h-3l-105 -104h-108z " />
<glyph unicode="&#x126;" horiz-adv-x="917" d="M45 0l138 718h-105l17 82h102l36 186h121l-35 -186h453l35 186h122l-35 -186h99l-16 -82h-99l-136 -718h-122l84 445h-454l-83 -445h-122zM272 551h452l32 167h-453z" />
<glyph unicode="&#x127;" horiz-adv-x="781" d="M41 0l158 831h-113l15 79h113l24 129h122l-25 -129h238l-14 -79h-239l-48 -249h3q99 142 253 142q69 0 122.5 -47t53.5 -143q0 -57 -12 -120l-79 -414h-120l76 408q10 65 10 98q0 53 -26.5 84.5t-82.5 31.5q-74 0 -147.5 -76.5t-94.5 -191.5l-66 -354h-121z" />
<glyph unicode="&#x12a;" horiz-adv-x="340" d="M44 0l187 986h122l-188 -986h-121zM138 1072l17 87h344l-15 -87h-346z" />
<glyph unicode="&#x12b;" horiz-adv-x="333" d="M41 0l136 708h121l-136 -708h-121zM108 857l16 85h322l-14 -85h-324z" />
<glyph unicode="&#x131;" horiz-adv-x="333" d="M41 0l136 708h121l-136 -708h-121z" />
<glyph unicode="&#x141;" horiz-adv-x="655" d="M-7 319l19 98l139 91l90 478h122l-78 -407l208 136l-18 -101l-207 -134l-72 -375h396l-19 -105h-519l78 410z" />
<glyph unicode="&#x142;" horiz-adv-x="346" d="M16 338l19 98l111 79l101 524h120l-82 -429l116 83l-19 -99l-116 -83l-98 -511h-120l79 415z" />
<glyph unicode="&#x14b;" horiz-adv-x="781" d="M41 0l95 502q14 73 34 206h108l-18 -140h3q47 74 115.5 115t146.5 41q73 0 126.5 -47.5t53.5 -149.5q0 -43 -13 -114l-64 -338q-32 -169 -113.5 -244.5t-210.5 -87.5l-13 100q43 7 74 19t60.5 37.5t50 70t32.5 110.5l61 330q10 65 10 89q0 123 -111 123q-71 0 -145 -77 t-98 -201l-63 -344h-121z" />
<glyph unicode="&#x14c;" horiz-adv-x="977" d="M70 385q0 133 50 264.5t137 217.5q64 63 151.5 99t179.5 36q96 0 170 -33t117 -90.5t64.5 -128t21.5 -152.5q0 -132 -46.5 -262t-131.5 -215q-140 -137 -338 -137q-93 0 -166 33t-118 89.5t-68 127.5t-23 151zM197 395q0 -133 65 -221t200 -88q129 0 226 100 q67 67 106.5 182.5t39.5 223.5q0 46 -6 86t-24 82t-46 72t-75.5 49t-109.5 19q-126 0 -226 -98q-68 -71 -109 -185.5t-41 -221.5zM449 1072l16 87h345l-16 -87h-345z" />
<glyph unicode="&#x14d;" horiz-adv-x="765" d="M51 274q0 117 49 219.5t140 166.5t203 64q134 0 206 -86t72 -209q0 -110 -48 -211.5t-140.5 -167.5t-206.5 -66q-128 0 -201.5 83t-73.5 207zM177 279q0 -89 45 -144.5t122 -55.5q69 0 128 53.5t91 133.5t32 163q0 34 -8.5 66.5t-26 63.5t-51.5 50t-79 19 q-73 0 -132.5 -54t-90.5 -133.5t-30 -161.5zM323 857l16 85h322l-14 -85h-324z" />
<glyph unicode="&#x152;" horiz-adv-x="1269" d="M70 410q0 110 37 212.5t107.5 187.5t188 136.5t264.5 51.5q42 0 108 -6t103 -6h439l-19 -104h-394l-60 -317h370l-19 -104h-371l-68 -357h416l-19 -104h-474q-27 0 -90 -6t-105 -6q-109 0 -191 35t-129.5 95.5t-70.5 133.5t-23 158zM199 415q0 -150 78.5 -237t246.5 -87 q57 0 112 13l145 778q-44 12 -115 12q-112 0 -202 -39t-147 -106t-87.5 -152.5t-30.5 -181.5z" />
<glyph unicode="&#x153;" horiz-adv-x="1170" d="M50 276q0 118 48 220t136 165t196 63q90 0 150.5 -47t82.5 -126h3q47 81 124.5 127t158.5 46q102 0 152 -53t50 -121q0 -49 -18 -87t-53 -62.5t-76 -41t-98 -24.5t-108 -11.5t-115 -3.5q-15 -76 15 -143q40 -94 159 -94q97 0 186 49l18 -90q-40 -25 -101.5 -41.5 t-125.5 -16.5q-88 0 -151 42.5t-86 124.5h-3q-47 -82 -120.5 -124.5t-157.5 -42.5q-121 0 -193.5 83t-72.5 209zM176 282q0 -89 44.5 -145.5t117.5 -56.5q72 0 130.5 58.5t87.5 138t29 155.5q0 84 -37 140t-121 56q-74 0 -133 -53.5t-88.5 -131.5t-29.5 -161zM698 413 q59 1 99.5 3.5t89 10t78 21t49.5 37t20 56.5q0 39 -29 63.5t-78 24.5q-82 0 -143.5 -64.5t-85.5 -151.5z" />
<glyph unicode="&#x15a;" horiz-adv-x="680" d="M18 53l42 99q92 -63 211 -63q88 0 150.5 50t62.5 135q0 55 -34.5 98.5t-110.5 86.5q-196 104 -196 252q0 130 96 210t236 80q125 0 204 -52l-44 -98q-81 47 -171 47q-87 0 -141 -48.5t-54 -113.5q0 -57 35.5 -97.5t116.5 -85.5q95 -52 142 -114t47 -149 q0 -132 -96.5 -219t-258.5 -87q-71 1 -138 21t-99 48zM386 1040l149 171h158l-199 -171h-108z" />
<glyph unicode="&#x15b;" horiz-adv-x="544" d="M12 32l35 91q75 -44 152 -44q61 0 98 33.5t37 82.5q0 41 -22 70.5t-76 59.5q-128 70 -128 181q0 93 72.5 155.5t183.5 62.5q97 0 148 -35l-35 -92q-49 32 -122 32q-56 0 -91.5 -30.5t-35.5 -76.5q0 -36 23.5 -63t74.5 -55q133 -76 133 -186q0 -108 -77 -171t-193 -63 q-53 1 -101 15t-76 33zM279 794l144 210h146l-195 -210h-95z" />
<glyph unicode="&#x15e;" horiz-adv-x="680" d="M18 53l42 99q92 -63 211 -63q88 0 150.5 50t62.5 135q0 55 -34.5 98.5t-110.5 86.5q-196 104 -196 252q0 130 96 210t236 80q125 0 204 -52l-44 -98q-81 47 -171 47q-87 0 -141 -48.5t-54 -113.5q0 -57 35.5 -97.5t116.5 -85.5q95 -52 142 -114t47 -149q0 -110 -69 -191 t-191 -106l-50 -68q36 -8 57.5 -33t21.5 -60q0 -60 -47 -93t-111 -33q-66 0 -97 26l27 63q29 -22 73 -22q26 0 45 13.5t19 37.5q0 49 -95 58l73 102h-11q-71 1 -138 21t-99 48z" />
<glyph unicode="&#x15f;" horiz-adv-x="544" d="M12 32l35 91q75 -44 152 -44q61 0 98 33.5t37 82.5q0 41 -22 70.5t-76 59.5q-128 70 -128 181q0 93 72.5 155.5t183.5 62.5q97 0 148 -35l-35 -92q-49 32 -122 32q-56 0 -91.5 -30.5t-35.5 -76.5q0 -36 23.5 -63t74.5 -55q133 -76 133 -186q0 -87 -51.5 -146t-136.5 -79 l-50 -68q36 -8 57.5 -32.5t21.5 -60.5q0 -59 -47 -92.5t-113 -33.5q-65 0 -95 25l27 63q36 -21 76 -21q27 0 45.5 14t18.5 39q0 46 -96 57l71 101q-106 1 -175 48z" />
<glyph unicode="&#x160;" horiz-adv-x="680" d="M18 53l42 99q92 -63 211 -63q88 0 150.5 50t62.5 135q0 55 -34.5 98.5t-110.5 86.5q-196 104 -196 252q0 130 96 210t236 80q125 0 204 -52l-44 -98q-81 47 -171 47q-87 0 -141 -48.5t-54 -113.5q0 -57 35.5 -97.5t116.5 -85.5q95 -52 142 -114t47 -149 q0 -132 -96.5 -219t-258.5 -87q-71 1 -138 21t-99 48zM298 1210h103l67 -104h6l104 104h108l-175 -171h-96z" />
<glyph unicode="&#x161;" horiz-adv-x="544" d="M12 32l35 91q75 -44 152 -44q61 0 98 33.5t37 82.5q0 41 -22 70.5t-76 59.5q-128 70 -128 181q0 93 72.5 155.5t183.5 62.5q97 0 148 -35l-35 -92q-49 32 -122 32q-56 0 -91.5 -30.5t-35.5 -76.5q0 -36 23.5 -63t74.5 -55q133 -76 133 -186q0 -108 -77 -171t-193 -63 q-53 1 -101 15t-76 33zM211 1004h92l61 -135h5l105 135h98l-171 -210h-88z" />
<glyph unicode="&#x162;" horiz-adv-x="693" d="M86 -268l27 63q32 -22 74 -22q26 0 44.5 13.5t18.5 37.5q0 49 -95 58l85 118h-23l166 881h-288l22 105h698l-22 -105h-288l-167 -881h-19l-56 -75q36 -7 57 -32.5t21 -60.5q0 -60 -47 -93t-111 -33q-65 0 -97 26z" />
<glyph unicode="&#x163;" horiz-adv-x="457" d="M26 -269l27 63q36 -21 76 -21q27 0 45.5 14t18.5 39q0 46 -96 57l80 113q-78 32 -78 125q0 57 15 134l70 358h-102l19 95h101l31 159l125 31l-36 -190h168l-19 -95h-168l-66 -344q-13 -76 -13 -114q0 -67 67 -67q41 0 57 4l-7 -95q-29 -13 -94 -13h-1l-43 -59 q35 -8 57 -33t22 -60q0 -59 -47.5 -92.5t-113.5 -33.5q-63 0 -95 25z" />
<glyph unicode="&#x166;" horiz-adv-x="693" d="M95 881l22 105h698l-22 -105h-288l-65 -341h193l-19 -89h-191l-85 -451h-121l84 451h-183l18 89h183l64 341h-288z" />
<glyph unicode="&#x167;" horiz-adv-x="457" d="M48 366l15 77h88l33 170h-102l19 95h101l31 159l125 31l-36 -190h168l-19 -95h-168l-32 -170h134l-14 -77h-135l-20 -109q-12 -65 -12 -102q0 -67 67 -67q41 0 57 4l-7 -95q-29 -13 -94 -13q-75 0 -111.5 39t-36.5 98q0 57 15 134l22 111h-88z" />
<glyph unicode="&#x16a;" horiz-adv-x="906" d="M108 275q0 68 13 136l110 575h122l-112 -585q-11 -61 -11 -123q0 -92 49 -141t134 -49q217 0 275 311l112 587h122l-113 -590q-80 -412 -413 -412q-129 -1 -208.5 72t-79.5 219zM418 1072l16 87h346l-16 -87h-346z" />
<glyph unicode="&#x16b;" horiz-adv-x="769" d="M75 189q0 57 13 118l76 401h121l-74 -395q-14 -61 -14 -104q0 -123 113 -123q71 0 140.5 73t90.5 186l69 363h121l-95 -503q-18 -89 -32 -205h-110l19 133h-2q-48 -69 -114.5 -109t-136.5 -40q-79 0 -132 47t-53 158zM313 857l16 85h322l-15 -85h-323z" />
<glyph unicode="&#x176;" horiz-adv-x="754" d="M123 986h129l96 -319q30 -106 41 -165h3q26 46 105 169l214 315h142l-420 -576l-78 -410h-119l77 410zM294 1039l177 171h94l117 -171h-100l-71 103h-3l-106 -103h-108z" />
<glyph unicode="&#x177;" horiz-adv-x="645" d="M-59 -221q74 24 131 69q85 67 136 162q6 11 4 32l-143 666h127l69 -382q26 -134 33 -186h3q2 5 28 66.5t47 108.5l181 393h129l-265 -538q-64 -129 -120 -218t-124 -155q-53 -53 -109.5 -83t-96.5 -39zM215 794l168 210h88l101 -210h-91l-63 133h-3l-102 -133h-98z" />
<glyph unicode="&#x178;" horiz-adv-x="754" d="M123 986h129l96 -319q30 -106 41 -165h3q26 46 105 169l214 315h142l-420 -576l-78 -410h-119l77 410zM297 1125q0 31 22.5 54t54.5 23q30 0 49.5 -21t19.5 -50q0 -32 -22 -54t-55 -22q-29 0 -49 20.5t-20 49.5zM568 1125q0 31 22.5 54t53.5 23q30 0 49 -21t19 -50 q0 -32 -21.5 -54t-54.5 -22q-28 0 -48 20.5t-20 49.5z" />
<glyph unicode="&#x17b;" horiz-adv-x="765" d="M-29 0l14 75l669 801l-2 6h-468l21 104h632l-16 -79l-663 -799v-4h519l-20 -104h-686zM455 1125q0 31 22.5 54t54.5 23q30 0 49.5 -21t19.5 -50q0 -32 -22 -54t-55 -22q-29 0 -49 20.5t-20 49.5z" />
<glyph unicode="&#x17c;" horiz-adv-x="607" d="M-31 0l13 75l344 381q51 56 147 148l1 5h-363l19 99h509l-16 -80l-339 -378q-74 -82 -146 -146v-6h392l-19 -98h-542zM336 904q0 33 22.5 56t54.5 23q31 0 49.5 -20.5t18.5 -51.5q0 -34 -21 -56.5t-55 -22.5q-29 0 -49 20.5t-20 51.5z" />
<glyph unicode="&#x17d;" horiz-adv-x="765" d="M-29 0l14 75l669 801l-2 6h-468l21 104h632l-16 -79l-663 -799v-4h519l-20 -104h-686zM360 1210h101l69 -104h5l104 104h109l-176 -171h-95z" />
<glyph unicode="&#x17e;" horiz-adv-x="607" d="M-31 0l13 75l344 381q51 56 147 148l1 5h-363l19 99h509l-16 -80l-339 -378q-74 -82 -146 -146v-6h392l-19 -98h-542zM252 1004h92l61 -135h5l105 135h98l-171 -210h-88z" />
<glyph unicode="&#x192;" horiz-adv-x="744" d="M164 590h140l-22 92q-14 59 -15 111t13.5 99.5t56.5 75.5t109 28q65 0 107 -20l6 -97q-42 16 -79 16q-47 0 -70.5 -29t-22.5 -74t14 -100l25 -102h180l19 -93h-174l79 -321q81 -318 -144 -318q-66 0 -115 22l-5 94q44 -18 84 -18q64 1 76 59.5t-18 170.5l-79 311h-146z " />
<glyph unicode="&#x1e6;" horiz-adv-x="911" d="M72 401q0 125 49.5 245.5t141.5 203.5q170 146 407 146q82 0 143 -14t90 -31l-41 -103q-83 43 -208 43q-175 0 -304 -120q-68 -64 -108 -162t-40 -199q0 -148 77.5 -232t236.5 -84q91 0 150 27l57 294h-201l19 100h319l-89 -473q-129 -52 -278 -52q-211 0 -322 123 q-99 107 -99 288zM487 1210h101l69 -104h4l104 104h110l-177 -171h-94z" />
<glyph unicode="&#x1e7;" horiz-adv-x="766" d="M15 -256l33 95q70 -47 188 -47q96 0 160 57.5t94 195.5l23 106h-4q-91 -151 -246 -151q-101 0 -158 72.5t-58 173.5q0 91 32.5 176.5t89.5 152.5t142.5 108t185.5 41q115 0 227 -50l-108 -585q-22 -117 -55.5 -194t-87.5 -122q-91 -79 -248 -79q-142 0 -210 50zM174 265 q0 -44 10.5 -79.5t42.5 -62t83 -26.5q77 0 147 82t89 187l46 235q-44 25 -118 25q-127 0 -213.5 -112t-86.5 -249zM351 1004h91l63 -135h4l104 135h98l-171 -210h-88z" />
<glyph unicode="&#x251;" horiz-adv-x="763" d="M45 218q0 93 34 183t94.5 162t155 116.5t206.5 44.5q103 0 191 -28l-72 -368q-36 -193 -31 -328h-112q-1 45 16 183h-5q-104 -199 -272 -199q-94 0 -149.5 64.5t-55.5 169.5zM171 238q0 -67 28.5 -111t93.5 -44q78 0 153 92t101 229l43 213q-33 11 -85 11 q-89 0 -167 -56.5t-122.5 -146.5t-44.5 -187z" />
<glyph unicode="&#x252;" horiz-adv-x="763" d="M41 10l73 369q34 184 29 329h114q0 -61 -17 -183h4q104 199 275 199q92 0 147 -64.5t55 -169.5q0 -94 -34 -183.5t-94.5 -162t-154.5 -116.5t-205 -44q-105 0 -192 26zM178 91q33 -11 84 -11q89 0 167 56t123 145.5t45 186.5q0 67 -29 111t-93 44q-79 0 -154.5 -91 t-101.5 -228z" />
<glyph unicode="&#x254;" horiz-adv-x="618" d="M-3 18l35 95q58 -27 122 -27q89 0 158.5 49.5t104.5 124.5t35 158q0 92 -46 148.5t-131 56.5q-86 0 -162 -39l-14 95q86 44 205 44q131 0 202.5 -83t71.5 -208q0 -119 -52 -221t-151 -164.5t-223 -62.5q-97 0 -155 34z" />
<glyph unicode="&#x256;" horiz-adv-x="768" d="M47 241q0 126 56.5 236.5t158.5 178.5t224 68q72 0 124 -25l63 340h120l-201 -1062q-8 -47 -8 -85q0 -94 86 -94q36 0 79 15l1 -98q-49 -19 -117 -19q-79 0 -125.5 41t-46.5 131q0 39 14 109l30 144h-3q-101 -137 -243 -137q-100 0 -156 72t-56 185zM173 257 q0 -34 6.5 -63.5t21 -55t41.5 -40.5t64 -15q73 0 144 75t93 190l48 249q-48 31 -117 31q-82 0 -152.5 -53.5t-109.5 -138.5t-39 -179z" />
<glyph unicode="&#x259;" horiz-adv-x="649" d="M15 165q0 238 469 231q6 21 2 64t-15 70q-42 96 -156 96q-96 0 -189 -50l-22 90q99 58 234 58t203 -80t68 -207q0 -108 -48 -211.5t-138 -172.5t-199 -69q-99 0 -154 51t-55 130zM132 170q0 -44 29.5 -67.5t79.5 -23.5q81 0 143.5 67t86.5 157q-77 0 -134 -5.5 t-105.5 -19.5t-74 -41t-25.5 -67z" />
<glyph unicode="&#x25b;" horiz-adv-x="595" d="M26 170q0 81 58.5 139t139.5 70v7q-57 14 -87 50t-30 85q0 80 81 141.5t214 61.5q60 0 112 -14t78 -36l-32 -80q-56 38 -159 38q-78 0 -125.5 -33.5t-47.5 -82.5q0 -48 49 -73t131 -25h75l-15 -86h-92q-94 0 -157.5 -36.5t-63.5 -106.5q0 -51 46 -80.5t119 -29.5 q55 0 113.5 15.5t91.5 34.5l12 -90q-40 -24 -110 -39.5t-137 -15.5q-114 0 -189 46.5t-75 139.5z" />
<glyph unicode="&#x261;" horiz-adv-x="766" d="M15 -256l33 95q70 -47 188 -47q96 0 160 57.5t94 195.5l23 106h-4q-91 -151 -246 -151q-101 0 -158 72.5t-58 173.5q0 91 32.5 176.5t89.5 152.5t142.5 108t185.5 41q115 0 227 -50l-108 -585q-22 -117 -55.5 -194t-87.5 -122q-91 -79 -248 -79q-142 0 -210 50zM174 265 q0 -44 10.5 -79.5t42.5 -62t83 -26.5q77 0 147 82t89 187l46 235q-44 25 -118 25q-127 0 -213.5 -112t-86.5 -249z" />
<glyph unicode="&#x262;" horiz-adv-x="751" d="M51 294q0 97 39 179.5t109 140.5q123 104 322 104q119 0 193 -35l-37 -96q-74 32 -169 32q-128 0 -218 -73q-53 -43 -82.5 -107.5t-29.5 -132.5q0 -110 63.5 -164t176.5 -54q69 0 106 17l35 186h-145l18 89h260l-67 -352q-108 -38 -227 -38q-169 0 -258 85 q-89 82 -89 219z" />
<glyph unicode="&#x263;" horiz-adv-x="664" d="M50 -168q0 41 22 92.5t43.5 84.5t68.5 98l-109 601h122l62 -374q24 -162 25 -169h3q26 62 77 155l214 388h131l-355 -611q38 -140 38 -195q0 -90 -52.5 -149t-140.5 -59q-72 0 -110.5 38.5t-38.5 99.5zM158 -151q0 -23 13.5 -37.5t36.5 -14.5q28 0 49 25t21 68 q0 49 -26 136h-5q-28 -41 -41 -60.5t-30.5 -56.5t-17.5 -60z" />
<glyph unicode="&#x26a;" horiz-adv-x="384" d="M-19 0l18 94h84l101 519h-87l19 95h294l-19 -95h-87l-99 -519h86l-16 -94h-294z" />
<glyph unicode="&#x274;" horiz-adv-x="784" d="M41 0l135 708h136l159 -351q57 -139 70 -211h3q5 87 31 228l63 334h112l-134 -708h-119l-159 345q-57 130 -81 226h-4q-8 -88 -38 -248l-60 -323h-114z" />
<glyph unicode="&#x278;" horiz-adv-x="904" d="M51 284q0 192 120 309.5t300 130.5l61 315h112l-60 -316q126 -14 201 -94t75 -208q0 -127 -57.5 -225.5t-151.5 -152t-209 -61.5l-53 -272h-114l53 275q-123 10 -200 90.5t-77 208.5zM176 290q0 -89 45 -146.5t124 -67.5l108 559q-127 -13 -202 -110.5t-75 -234.5z M459 73q121 11 198 108t77 239q0 90 -45 146.5t-123 66.5z" />
<glyph unicode="&#x27d;" horiz-adv-x="466" d="M23 -132q0 16 14 107l90 480q23 116 37 253h107q-12 -100 -19 -154h3q38 78 93.5 124t124.5 46q6 0 33 -3l-23 -120q-27 3 -34 3q-77 0 -140.5 -83t-87.5 -209l-63 -337q-9 -45 -9 -83q0 -94 87 -94q36 0 79 15l1 -98q-46 -19 -116 -19q-177 0 -177 172z" />
<glyph unicode="&#x27e;" horiz-adv-x="466" d="M41 0l86 461q25 133 98.5 197.5t182.5 64.5q59 0 100 -16l-25 -107q-35 11 -73 11q-61 0 -104 -39.5t-59 -123.5l-85 -448h-121z" />
<glyph unicode="&#x281;" horiz-adv-x="656" d="M42 3l132 705h120l-57 -301h75q59 0 100 30t71 103q56 136 82 168h121q-21 -29 -95 -196q-54 -123 -140 -149v-3q50 -14 82 -54t32 -91q0 -107 -92 -171q-85 -59 -240 -59q-101 0 -191 18zM176 82q32 -7 81 -7q97 0 142.5 37t45.5 100q0 50 -35 78.5t-104 28.5h-85z" />
<glyph unicode="&#x283;" horiz-adv-x="377" d="M-199 -278l29 100q46 -14 73 -14q50 0 86 38.5t50 118.5l158 828q48 262 258 262q62 0 102 -21l-32 -99q-31 14 -70 14q-50 0 -87 -39t-51 -119l-156 -829q-50 -260 -258 -260q-56 0 -102 20z" />
<glyph unicode="&#x288;" horiz-adv-x="457" d="M51 -132q0 37 13 109l120 636h-102l19 95h101l31 159l125 31l-36 -190h168l-19 -95h-168l-119 -636q-10 -58 -10 -85q0 -94 86 -94q39 0 78 15l3 -98q-46 -19 -116 -19q-80 0 -127 41t-47 131z" />
<glyph unicode="&#x28a;" horiz-adv-x="770" d="M50 260q0 91 45.5 187t134.5 163v4h-144l15 94h275l-10 -75q-89 -59 -139.5 -157.5t-50.5 -196.5q0 -93 48 -146t126 -53t136.5 51.5t85 121t26.5 141.5q0 82 -29 144.5t-72 94.5l12 75h277l-15 -94h-154l2 -4q39 -36 70.5 -99t31.5 -142q0 -68 -26.5 -136t-73.5 -124 t-120.5 -90.5t-159.5 -34.5q-132 0 -211.5 73.5t-79.5 202.5z" />
<glyph unicode="&#x28b;" horiz-adv-x="785" d="M76 205q0 43 15 121l73 382h121l-74 -392q-12 -65 -12 -102q0 -59 35 -95t97 -36q79 0 146.5 62t103 149t35.5 171q0 67 -28 111t-85 44q-21 0 -51 -6l-1 97q48 10 89 10q100 0 151 -68.5t51 -177.5q0 -85 -31 -171.5t-85 -158t-135.5 -116.5t-174.5 -45 q-105 0 -172.5 54.5t-67.5 166.5z" />
<glyph unicode="&#x292;" horiz-adv-x="696" d="M-95 -246l38 95q30 -22 85.5 -38.5t120.5 -16.5q124 0 210 69t86 178q0 87 -60.5 135.5t-188.5 48.5h-35l13 63l310 321h-392l19 99h544l-16 -78l-311 -321q106 -16 175 -79.5t69 -176.5q0 -154 -119 -257t-305 -103q-78 0 -143.5 18t-99.5 43z" />
<glyph unicode="&#x294;" horiz-adv-x="615" d="M113 0l99 521q152 36 237 108t85 170q0 73 -46.5 114t-127.5 41q-101 0 -201 -50l-24 91q112 60 247 60q129 0 205.5 -65t76.5 -178q0 -127 -95 -221.5t-247 -139.5l-86 -451h-123z" />
<glyph unicode="&#x295;" horiz-adv-x="615" d="M99 724q0 145 112.5 238t277.5 93q126 0 206 -47l-38 -95q-27 16 -75.5 28.5t-100.5 12.5q-113 0 -184.5 -62.5t-71.5 -157.5q0 -82 58 -132.5t172 -80.5l-107 -521h-123l94 453q-220 75 -220 271z" />
<glyph unicode="&#x2a4;" horiz-adv-x="1297" d="M47 241q0 126 56.5 236.5t158.5 178.5t224 68q72 0 124 -25l63 340h120l-63 -331h525l-14 -78l-314 -321q107 -16 176.5 -79.5t69.5 -176.5q0 -154 -119 -257t-306 -103q-78 0 -143.5 18t-98.5 43l38 95q30 -22 85.5 -38.5t120.5 -16.5q124 0 210 69t86 178 q0 87 -60.5 135.5t-188.5 48.5h-35l13 63l310 321h-374l-72 -384q-24 -119 -30 -225h-112l19 140h-3q-99 -156 -254 -156q-100 0 -156 72t-56 185zM173 257q0 -34 6.5 -63.5t21 -55t41.5 -40.5t64 -15q73 0 144 75t93 190l48 249q-48 31 -117 31q-82 0 -152.5 -53.5 t-109.5 -138.5t-39 -179z" />
<glyph unicode="&#x2a7;" horiz-adv-x="769" d="M82 613l19 95h101l31 159l125 31l-36 -190h251l17 85q50 262 257 262q62 0 102 -21l-30 -99q-34 14 -73 14q-49 0 -85 -39t-52 -119l-156 -829q-50 -260 -258 -260q-56 0 -102 20l31 100q44 -14 71 -14q50 0 86.5 38.5t50.5 118.5l124 648h-253l-66 -344 q-13 -76 -13 -114q0 -67 63 -67q37 0 52 4l-7 -96q-34 -12 -85 -12q-75 0 -111.5 39t-36.5 98q0 57 15 134l70 358h-102z" />
<glyph unicode="&#x2b1;" horiz-adv-x="536" d="M83 389l95 508q35 184 196 184q41 0 82 -15l-24 -71q-20 10 -50 10q-90 0 -113 -114l-20 -116h1q65 90 165 90q57 0 91 -33t34 -96q0 -32 -9 -76l-50 -271h-93l49 266q6 44 6 60q0 75 -70 75q-50 0 -95.5 -48.5t-59.5 -122.5l-41 -230h-94z" />
<glyph unicode="&#x2b9;" horiz-adv-x="242" d="M104 658l132 354h125l-178 -354h-79z" />
<glyph unicode="&#x2be;" horiz-adv-x="301" d="M135 717l14 76q53 1 84.5 32.5t31.5 75.5q0 35 -20 56.5t-59 21.5l13 74q75 0 118.5 -40t43.5 -105q0 -83 -63.5 -137t-162.5 -54z" />
<glyph unicode="&#x2bf;" horiz-adv-x="301" d="M157 862q0 83 63.5 137t162.5 54l-14 -76q-52 -1 -84 -32.5t-32 -75.5q0 -35 20 -56.5t59 -21.5l-13 -74q-75 0 -118.5 40t-43.5 105z" />
<glyph unicode="&#x2c6;" horiz-adv-x="560" d="M189 794l168 210h88l101 -210h-91l-63 133h-3l-102 -133h-98z" />
<glyph unicode="&#x2c7;" horiz-adv-x="560" d="M225 1004h92l62 -135h4l106 135h98l-172 -210h-87z" />
<glyph unicode="&#x2c8;" horiz-adv-x="438" d="M260 832l37 211h91l-38 -211h-90z" />
<glyph unicode="&#x2cc;" horiz-adv-x="438" d="M54 -347l37 215h92l-38 -215h-91z" />
<glyph unicode="&#x2d0;" horiz-adv-x="323" d="M-22 0l152 192h6l81 -192h-239zM116 708h238l-155 -193h-4z" />
<glyph unicode="&#x2d8;" horiz-adv-x="560" d="M231 999h75q-2 -44 18.5 -72.5t61.5 -28.5q48 0 76.5 29.5t39.5 71.5h77q-14 -81 -67.5 -129t-128.5 -48q-90 0 -126 51t-26 126z" />
<glyph unicode="&#x2d9;" horiz-adv-x="560" d="M315 904q0 34 22 56.5t54 22.5q31 0 49.5 -20.5t18.5 -51.5q0 -34 -21 -56.5t-55 -22.5q-29 0 -48.5 20.5t-19.5 51.5z" />
<glyph unicode="&#x2da;" horiz-adv-x="561" d="M244 910q-1 62 43.5 102.5t110.5 40.5q60 0 99.5 -36.5t39.5 -96.5q-1 -62 -45.5 -100.5t-106.5 -38.5q-60 0 -100 36.5t-41 92.5zM317 913q0 -30 20 -53t51 -23q33 0 53.5 24t20.5 62q0 32 -19 54t-51 22q-33 0 -54 -24t-21 -62z" />
<glyph unicode="&#x2db;" horiz-adv-x="560" d="M83 -195q0 90 117 198h91q-43 -34 -75 -80t-32 -84q0 -54 54 -54q34 0 66 15l13 -66q-52 -35 -120 -35q-52 0 -83 29t-31 77z" />
<glyph unicode="&#x2dc;" horiz-adv-x="560" d="M197 831q8 68 39 110t79 42q7 0 14 -1t12 -1.5t12 -3.5t10 -4t11 -5t10 -5.5t11.5 -7t11.5 -6.5q44 -24 60 -24q19 0 28.5 12.5t16.5 49.5h72q-20 -147 -116 -147q-50 0 -91 32q-40 26 -62 26q-32 0 -44 -67h-74z" />
<glyph unicode="&#x2dd;" horiz-adv-x="560" d="M218 793l136 209h129l-185 -209h-80zM430 793l136 209h129l-184 -209h-81z" />
<glyph unicode="&#x2e4;" horiz-adv-x="427" d="M123 865q0 96 78 156t191 60q83 0 145 -31l-28 -71q-48 27 -121 27q-74 0 -120.5 -38.5t-46.5 -98.5q0 -98 156 -138l-68 -342h-94l60 294q-152 48 -152 182z" />
<glyph unicode="&#x300;" d="M-97 1004h138l97 -210h-87z" />
<glyph unicode="&#x301;" d="M10 794l145 210h146l-194 -210h-97z" />
<glyph unicode="&#x302;" d="M-98 794l168 210h87l100 -210h-90l-62 133h-3l-102 -133h-98z" />
<glyph unicode="&#x303;" d="M-98 831q8 68 38.5 110t78.5 42q18 0 35.5 -5.5t26 -10t30.5 -18.5q44 -24 60 -24q19 0 29.5 13t17.5 49h70q-9 -74 -36.5 -110.5t-78.5 -36.5q-47 0 -93 32q-38 26 -60 26q-33 0 -45 -67h-73z" />
<glyph unicode="&#x304;" d="M-70 857l16 85h322l-16 -85h-322z" />
<glyph unicode="&#x306;" d="M-57 999h75q-2 -44 18.5 -72.5t61.5 -28.5q48 0 76.5 29.5t39.5 71.5h77q-14 -80 -67 -128.5t-129 -48.5q-91 0 -126.5 51t-25.5 126z" />
<glyph unicode="&#x307;" d="M26 904q0 33 23 56t55 23q31 0 50 -20.5t19 -51.5q0 -34 -21.5 -56.5t-56.5 -22.5q-29 0 -49 20.5t-20 51.5z" />
<glyph unicode="&#x308;" d="M-111 906q0 33 22 55t54 22q31 0 50 -21t19 -51q0 -33 -21.5 -55t-54.5 -22q-30 0 -49.5 20.5t-19.5 51.5zM157 906q0 33 21.5 55t54.5 22q31 0 49.5 -21t18.5 -51q0 -34 -21 -55.5t-56 -21.5q-29 0 -48 20.5t-19 51.5z" />
<glyph unicode="&#x30a;" d="M-42 910q-1 62 42 102.5t110 40.5q60 0 99.5 -36.5t39.5 -96.5q0 -61 -45.5 -100t-106.5 -39q-59 0 -99 36.5t-40 92.5zM29 913q0 -30 20 -53t50 -23q33 0 55 24.5t22 61.5q0 32 -20 54t-52 22q-33 0 -54 -24t-21 -62z" />
<glyph unicode="&#x30b;" d="M-85 793l136 209h129l-184 -209h-81zM126 793l137 209h128l-183 -209h-82z" />
<glyph unicode="&#x30c;" d="M-63 1004h91l63 -135h4l104 135h98l-171 -210h-88z" />
<glyph unicode="&#x323;" d="M-170 -196q0 33 22.5 56t53.5 23q32 0 51.5 -21t19.5 -51q0 -34 -22 -56.5t-56 -22.5q-29 0 -49 20.5t-20 51.5z" />
<glyph unicode="&#x324;" d="M-306 -196q0 33 22 56t54 23q31 0 51 -21t20 -51q0 -33 -22 -55t-56 -22q-29 0 -49 20t-20 50zM-37 -196q0 33 21.5 56t54.5 23q31 0 49.5 -21t18.5 -51q0 -34 -20.5 -55.5t-55.5 -21.5q-29 0 -48.5 19.5t-19.5 50.5z" />
<glyph unicode="&#x327;" d="M-247 -268l28 63q32 -22 76 -22q27 0 45.5 14t18.5 39q0 46 -98 57l92 132h78l-63 -88q36 -9 57.5 -34t21.5 -60q0 -58 -47 -92t-113 -34q-59 0 -96 25z" />
<glyph unicode="&#x32a;" d="M-290 -309l31 179h345l-32 -179h-76l19 104h-193l-19 -104h-75z" />
<glyph unicode="&#x32e;" d="M-256 -120h73q-2 -42 19.5 -70.5t62.5 -28.5q47 0 76 29t40 70h76q-13 -80 -66 -127.5t-129 -47.5q-91 0 -127 50.5t-25 124.5z" />
<glyph unicode="&#x330;" d="M-276 -279q9 69 39 110.5t78 41.5q6 0 12 -0.5t12 -1.5t10 -2t10 -3.5t9 -3.5t10 -4.5t9 -5t10 -6t10 -5.5q40 -27 61 -27q19 0 28 13t16 50h73q-10 -74 -38 -111t-80 -37q-44 0 -90 33q-40 26 -62 26q-34 0 -44 -67h-73z" />
<glyph unicode="&#x331;" d="M-260 -236l16 85h322l-18 -85h-320z" />
<glyph unicode="&#x35f;" d="M-274 -237l17 86h1092l-14 -86h-1095z" />
<glyph unicode="&#x361;" d="M-102 824q83 91 238.5 156.5t363.5 65.5q206 0 336 -65t185 -157h-111q-141 137 -426 137q-167 0 -278 -37.5t-199 -99.5h-109z" />
<glyph unicode="&#x3b8;" horiz-adv-x="753" d="M64 331q0 120 31 256q21 97 56 180t84 148.5t115.5 102.5t143.5 37q118 0 185 -91.5t67 -239.5q0 -112 -22 -215q-22 -115 -56 -208t-82.5 -165.5t-115 -112t-145.5 -39.5q-122 0 -191.5 89.5t-69.5 257.5zM183 317q0 -114 41.5 -178t110.5 -64q186 0 262 415h-398 q-16 -107 -16 -173zM217 582h397q12 68 12 151q0 104 -37 167t-109 63q-97 0 -164.5 -107.5t-98.5 -273.5z" />
<glyph unicode="&#x3c0;" horiz-adv-x="772" d="M9 0q45 72 92.5 198t81.5 261q20 66 38 151q-103 0 -149 -15l-3 74q48 39 200 39h533l-24 -98h-99l-72 -395q-27 -148 -20 -215h-116q-17 42 13 203l75 407h-221q-15 -68 -35 -146q-93 -350 -176 -464h-118z" />
<glyph unicode="&#x3c7;" horiz-adv-x="618" d="M-110 -272q262 396 335 505l-156 475h127l69 -230q35 -124 44 -161h7q52 89 97 160q27 45 77.5 125.5t65.5 105.5h126q-72 -109 -328 -491l162 -499l-115 -31l-73 234q-52 174 -60 203h-6q-14 -22 -43 -70.5t-46 -75.5l-180 -291z" />
<glyph unicode="&#x60c;" horiz-adv-x="532" d="M246 180q0 96 54.5 180t125.5 123l73 -57q-78 -41 -120 -105t-40 -128q67 17 115.5 -13.5t48.5 -91.5q0 -43 -33 -75.5t-78 -32.5q-64 0 -105 53t-41 147z" />
<glyph unicode="&#x615;" d="M-139 1232l85 -5q10 40 -10 113l-63 231l64 4l41 -157q15 -43 15 -85q47 92 121 92q52 0 86 -36t34 -89q0 -70 -65 -106.5t-159 -36.5h-93zM0 1227q92 0 133 21.5t41 51.5q0 22 -16 38.5t-42 16.5q-72 0 -116 -128z" />
<glyph unicode="&#x61b;" horiz-adv-x="552" d="M193 609q0 83 48 154t117 104l66 -52q-71 -37 -107.5 -85.5t-35.5 -96.5q61 15 106 -13t45 -86q0 -40 -31 -70t-75 -30q-57 0 -95 46t-38 129zM290 111q0 46 28.5 75t75.5 29q52 0 87 -36t35 -88q0 -48 -28 -78.5t-75 -30.5q-52 0 -87.5 36.5t-35.5 92.5z" />
<glyph unicode="&#x61f;" horiz-adv-x="671" d="M70 825q0 74 51 125.5t155 51.5q125 0 214 -53l-15 -95q-81 50 -168 50q-55 0 -84.5 -28t-29.5 -74q0 -54 35 -102t119 -131q133 -127 143 -287h-107q-6 131 -130 252q-51 50 -74.5 74.5t-54 64t-42.5 75.5t-12 77zM392 79q-1 38 21.5 63t59.5 25q40 0 66 -28.5t27 -69.5 q1 -36 -21.5 -60.5t-57.5 -24.5q-40 0 -67 27.5t-28 67.5z" />
<glyph unicode="&#x621;" horiz-adv-x="691" d="M217 347q0 75 58 123t146 48q102 0 160 -44l6 -98q-70 45 -153 45q-60 0 -92 -24t-32 -63q0 -61 76 -95.5t183 -33.5h114l2 -97h-119q-128 0 -200.5 -9.5t-131.5 -44.5v88q40 26 100 39q-117 60 -117 166z" />
<glyph unicode="&#x622;" horiz-adv-x="362" d="M-161 1181q-10 58 11.5 94t77.5 36q36 0 99.5 -19t92.5 -19q48 0 91 48l27 -63q-12 -31 -43 -49t-72 -18q-35 0 -94 18t-82 18q-42 0 -39 -68zM28 1053l101 8l257 -1061h-104z" />
<glyph unicode="&#x623;" horiz-adv-x="362" d="M-111 1346q0 49 38.5 80t92.5 31q76 0 125 -39l-9 -66q-50 33 -114 33q-31 0 -47 -14t-16 -32q0 -35 42.5 -61t105.5 -26h93l-14 -71h-92q-134 0 -192 -25l-4 67q23 16 63 16q-72 41 -72 107zM28 1053l101 8l257 -1061h-104z" />
<glyph unicode="&#x624;" horiz-adv-x="727" d="M196 949q0 49 39 80.5t93 31.5q74 0 124 -40l-9 -66q-52 34 -114 34q-31 0 -47 -14t-16 -33q0 -35 42.5 -60.5t105.5 -25.5h94l-15 -72h-92q-134 0 -192 -25l-4 68q23 16 63 16q-72 41 -72 106zM218 -253l1 82q86 -41 188 -41q124 0 195 89t81 218q-43 -9 -105 -9 q-135 0 -225 70.5t-90 197.5q0 93 59.5 160t142.5 67q95 0 167.5 -65.5t107.5 -165t35 -212.5q0 -202 -96 -332.5t-253 -130.5q-127 0 -208 72zM354 360q0 -79 64.5 -118t153.5 -39q71 0 108 11q-9 69 -33 122.5t-55.5 83.5t-63 45t-60.5 15q-54 0 -84 -35.5t-30 -84.5z" />
<glyph unicode="&#x625;" horiz-adv-x="362" d="M28 1053l101 8l257 -1061h-104zM262 -214q0 49 39.5 79.5t93.5 30.5q77 0 123 -38l-7 -67q-54 33 -116 33q-31 0 -46 -13.5t-15 -32.5q0 -35 42 -61t104 -26h93l-13 -71h-93q-134 0 -192 -25l-3 67q21 16 62 18q-72 39 -72 106z" />
<glyph unicode="&#x626;" horiz-adv-x="1043" d="M99 726q0 49 39 80t93 31q74 0 124 -40l-8 -66q-52 34 -114 34q-31 0 -47 -14t-16 -33q0 -35 42 -60.5t105 -25.5h94l-15 -72h-92q-133 0 -191 -25l-5 68q23 16 63 16q-72 41 -72 107zM192 181q0 84 16 151l79 -10q-6 -101 -5 -120q3 -84 29.5 -150.5t66.5 -107.5 t92 -68.5t102 -38t101 -10.5q100 0 178.5 32.5t119.5 87.5q33 48 33 78q0 36 -32.5 59t-136.5 56l-86 28q-109 34 -153.5 74.5t-44.5 130.5q0 97 69 184q37 49 93.5 79.5t114.5 30.5q57 0 108.5 -32t78.5 -101l-52 -78q-54 103 -147 103q-72 0 -123.5 -57.5t-51.5 -121.5 q0 -36 25.5 -55t101.5 -44l114 -38q37 -12 58.5 -19.5t50 -20.5t44.5 -26t32 -31.5t22.5 -42t6.5 -53.5q0 -77 -53 -158q-55 -80 -155 -128.5t-212 -48.5q-223 0 -353.5 124t-130.5 342z" />
<glyph unicode="&#x627;" horiz-adv-x="362" d="M28 1053l101 8l257 -1061h-104z" />
<glyph unicode="&#x628;" horiz-adv-x="1291" d="M136 430q0 44 9 100l80 -12q0 -6 -1.5 -25.5t-1.5 -28.5q0 -190 122 -283t377 -93q332 0 506 77q-12 140 -181 370l95 30q75 -96 129.5 -216t54.5 -228q0 -24 -3 -39q-236 -113 -585 -113q-136 0 -240.5 23t-172 62.5t-110.5 98.5t-60.5 126.5t-17.5 150.5zM797 -276 q0 28 17.5 46.5t45.5 18.5q39 0 62.5 -25.5t23.5 -63.5q0 -27 -18 -45.5t-46 -18.5q-37 0 -61 25t-24 63z" />
<glyph unicode="&#x629;" horiz-adv-x="646" d="M85 925q0 28 17 46t43 18q39 0 62 -24.5t23 -61.5q0 -27 -17.5 -45t-45.5 -18q-36 0 -59 24t-23 61zM155 301q0 125 104 302q-6 3 -18.5 11t-19.5 11l50 84q181 -111 280 -212q126 -131 126 -272q0 -109 -68 -173t-163 -64q-132 0 -211.5 92.5t-79.5 220.5zM246 309 q0 -85 58 -140.5t135 -55.5q72 0 109 43t37 88q0 136 -249 307q-40 -61 -65 -127t-25 -115zM272 925q0 28 18 46t44 18q37 0 60 -24.5t23 -61.5q0 -27 -17.5 -45t-44.5 -18q-36 0 -59.5 24t-23.5 61z" />
<glyph unicode="&#x62a;" horiz-adv-x="1291" d="M136 430q0 44 9 100l80 -12q0 -6 -1.5 -25.5t-1.5 -28.5q0 -190 122 -283t377 -93q332 0 506 77q-12 140 -181 370l95 30q75 -96 129.5 -216t54.5 -228q0 -24 -3 -39q-236 -113 -585 -113q-136 0 -240.5 23t-172 62.5t-110.5 98.5t-60.5 126.5t-17.5 150.5zM471 702 q0 28 17 46.5t43 18.5q39 0 62 -25t23 -62q0 -27 -17.5 -45t-45.5 -18q-36 0 -59 24t-23 61zM660 702q0 28 17 46.5t43 18.5q39 0 62 -25t23 -62q0 -27 -17.5 -45t-45.5 -18q-36 0 -59 24t-23 61z" />
<glyph unicode="&#x62b;" horiz-adv-x="1291" d="M136 430q0 44 9 100l80 -12q0 -6 -1.5 -25.5t-1.5 -28.5q0 -190 122 -283t377 -93q332 0 506 77q-12 140 -181 370l95 30q75 -96 129.5 -216t54.5 -228q0 -24 -3 -39q-236 -113 -585 -113q-136 0 -240.5 23t-172 62.5t-110.5 98.5t-60.5 126.5t-17.5 150.5zM471 702 q0 28 17 46.5t43 18.5q39 0 62 -25t23 -62q0 -27 -17.5 -45t-45.5 -18q-36 0 -59 24t-23 61zM532 876q0 28 18 45.5t44 17.5q39 0 61 -24t22 -62q0 -26 -17 -44t-44 -18q-36 0 -60 24t-24 61zM660 702q0 28 17 46.5t43 18.5q39 0 62 -25t23 -62q0 -27 -17.5 -45t-45.5 -18 q-36 0 -59 24t-23 61z" />
<glyph unicode="&#x62c;" horiz-adv-x="943" d="M138 408l16 116q68 32 168 32q55 0 118.5 -13t99 -25t109 -40t91.5 -35q100 -35 149 -35l78 -1l-25 -120q-28 4 -94 4q-77 0 -172 -22q-147 -38 -234 -123.5t-87 -211.5q0 -96 44 -171.5t120.5 -122t173.5 -70t208 -23.5q138 0 225 21l-30 -105q-59 -25 -220 -25 q-181 0 -324.5 57t-229 170t-85.5 265q0 76 28.5 142.5t74 113t105.5 83t119 57.5t118 31q-6 2 -80.5 29t-139 43t-121.5 16q-132 0 -203 -37zM674 -61q0 28 18 46.5t44 18.5q40 0 63 -25t23 -64q0 -27 -18 -45t-46 -18q-36 -1 -60 24t-24 63z" />
<glyph unicode="&#x62d;" horiz-adv-x="943" d="M138 408l16 116q68 32 168 32q55 0 118.5 -13t99 -25t109 -40t91.5 -35q100 -35 149 -35l78 -1l-25 -120q-28 4 -94 4q-77 0 -172 -22q-147 -38 -234 -123.5t-87 -211.5q0 -96 44 -171.5t120.5 -122t173.5 -70t208 -23.5q138 0 225 21l-30 -105q-59 -25 -220 -25 q-181 0 -324.5 57t-229 170t-85.5 265q0 76 28.5 142.5t74 113t105.5 83t119 57.5t118 31q-6 2 -80.5 29t-139 43t-121.5 16q-132 0 -203 -37z" />
<glyph unicode="&#x62e;" horiz-adv-x="943" d="M138 408l16 116q68 32 168 32q55 0 118.5 -13t99 -25t109 -40t91.5 -35q100 -35 149 -35l78 -1l-25 -120q-28 4 -94 4q-77 0 -172 -22q-147 -38 -234 -123.5t-87 -211.5q0 -96 44 -171.5t120.5 -122t173.5 -70t208 -23.5q138 0 225 21l-30 -105q-59 -25 -220 -25 q-181 0 -324.5 57t-229 170t-85.5 265q0 76 28.5 142.5t74 113t105.5 83t119 57.5t118 31q-6 2 -80.5 29t-139 43t-121.5 16q-132 0 -203 -37zM430 831q0 28 18 46t44 18q40 0 63.5 -25t23.5 -64q0 -26 -18 -44.5t-46 -18.5q-38 -1 -61.5 23.5t-23.5 64.5z" />
<glyph unicode="&#x62f;" horiz-adv-x="702" d="M184 151q86 -27 231 -27q80 0 141 14.5t86 37.5q-7 44 -31.5 94t-70.5 110t-126 123t-183 114l75 81q163 -80 283.5 -218t149.5 -287q10 -57 9 -85q-90 -108 -315 -108q-129 0 -202 31z" />
<glyph unicode="&#x630;" horiz-adv-x="702" d="M164 974q0 28 17.5 46.5t43.5 18.5q40 0 64 -25.5t24 -64.5q0 -26 -18 -44.5t-46 -18.5q-38 -1 -61.5 23.5t-23.5 64.5zM184 151q86 -27 231 -27q80 0 141 14.5t86 37.5q-7 44 -31.5 94t-70.5 110t-126 123t-183 114l75 81q163 -80 283.5 -218t149.5 -287q10 -57 9 -85 q-90 -108 -315 -108q-129 0 -202 31z" />
<glyph unicode="&#x631;" horiz-adv-x="669" d="M230 -165q77 -44 178 -44q39 0 77.5 15t77.5 57t57 106q10 29 10 63q0 154 -231 479l97 45q90 -125 158.5 -269t68.5 -256q0 -44 -8 -82q-24 -123 -103 -197.5t-179 -74.5q-133 0 -203 68v90z" />
<glyph unicode="&#x632;" horiz-adv-x="669" d="M231 -165q77 -44 179 -44q39 0 77.5 15t77.5 57t57 106q10 37 10 63q0 154 -231 479l96 45q89 -124 157.5 -268.5t68.5 -256.5q0 -57 -8 -82q-23 -123 -102 -197.5t-179 -74.5q-135 0 -203 68v90zM274 818q0 28 17.5 46t43.5 18q39 0 62.5 -25t23.5 -64q0 -26 -18 -44.5 t-46 -18.5q-37 -1 -60 23.5t-23 64.5z" />
<glyph unicode="&#x633;" horiz-adv-x="1492" d="M208 133q0 93 19 148l80 -13q-9 -38 -9 -90q0 -94 26 -167t70 -116.5t98 -65.5t114 -22q112 0 179.5 53t74.5 140q2 22 -4 50q-37 130 -152 308l90 37q60 -90 117 -221q25 -57 90 -57q62 0 92 44t26 152l85 4q-2 -30 -2 -35q1 -164 125 -164q42 0 68.5 26t26.5 70 q0 89 -85 201l95 31q33 -47 57.5 -115t24.5 -128q0 -92 -52 -147.5t-129 -55.5q-66 0 -102.5 27.5t-66.5 76.5q-16 -48 -53.5 -76t-95.5 -28q-38 0 -67 19q2 -21 -2 -58q-15 -127 -111.5 -201.5t-227.5 -74.5q-184 0 -291.5 126t-107.5 322z" />
<glyph unicode="&#x634;" horiz-adv-x="1468" d="M208 133q0 93 19 148l80 -13q-9 -38 -9 -90q0 -94 26 -167t70 -116.5t98 -65.5t114 -22q112 0 179.5 53t74.5 140q2 22 -4 50q-37 130 -152 308l90 37q60 -90 117 -221q25 -57 90 -57q62 0 92 44t26 152l85 4q-2 -30 -2 -35q1 -164 125 -164q42 0 68.5 26t26.5 70 q0 89 -85 201l95 31q33 -47 57.5 -115t24.5 -128q0 -92 -52 -147.5t-129 -55.5q-66 0 -102.5 27.5t-66.5 76.5q-16 -48 -53.5 -76t-95.5 -28q-38 0 -67 19q2 -21 -2 -58q-15 -127 -111.5 -201.5t-227.5 -74.5q-184 0 -291.5 126t-107.5 322zM898 652q0 28 17 46.5t43 18.5 q39 0 62 -25t23 -62q0 -27 -17.5 -44.5t-45.5 -17.5q-36 0 -59 23.5t-23 60.5zM961 827q0 28 17 45t43 17q39 0 62 -24t23 -62q0 -26 -17.5 -43.5t-45.5 -17.5q-36 0 -59 24t-23 61zM1087 652q0 28 17 46.5t43 18.5q39 0 62 -25t23 -62q0 -27 -17.5 -44.5t-45.5 -17.5 q-36 0 -59 23.5t-23 60.5z" />
<glyph unicode="&#x635;" horiz-adv-x="1752" d="M203 113q0 71 15 127l79 -15q-4 -39 -4 -83q0 -171 87.5 -258t220.5 -87q110 0 178 54.5t75 133.5q0 45 -4 65q-23 102 -142 294l95 39q71 -126 102 -164.5t78 -61.5q24 53 53 103t73 106.5t92 97.5t112 68t131 27q144 0 239.5 -90.5t95.5 -219.5q0 -57 -28.5 -107.5 t-85.5 -82.5q-117 -69 -347 -69q-267 0 -380 74q10 -82 6 -112q-12 -119 -111 -198t-227 -79q-187 0 -295 121.5t-108 316.5zM1072 133q81 -25 239 -25q161 0 267 32q109 34 109 113t-66.5 138.5t-176.5 59.5q-100 0 -198 -77.5t-174 -240.5z" />
<glyph unicode="&#x636;" horiz-adv-x="1752" d="M203 113q0 71 15 127l79 -15q-4 -39 -4 -83q0 -171 87.5 -258t220.5 -87q110 0 178 54.5t75 133.5q0 45 -4 65q-23 102 -142 294l95 39q71 -126 102 -164.5t78 -61.5q24 53 53 103t73 106.5t92 97.5t112 68t131 27q144 0 239.5 -90.5t95.5 -219.5q0 -57 -28.5 -107.5 t-85.5 -82.5q-117 -69 -347 -69q-267 0 -380 74q10 -82 6 -112q-12 -119 -111 -198t-227 -79q-187 0 -295 121.5t-108 316.5zM1072 133q81 -25 239 -25q161 0 267 32q109 34 109 113t-66.5 138.5t-176.5 59.5q-100 0 -198 -77.5t-174 -240.5zM1097 838q0 28 18 46.5t44 18.5 q40 0 63.5 -25.5t23.5 -64.5q0 -26 -18 -44.5t-46 -18.5q-38 -1 -61.5 23.5t-23.5 64.5z" />
<glyph unicode="&#x637;" horiz-adv-x="1097" d="M138 143q70 -20 184 -20q19 48 26 73q1 7 2 13.5t1 14.5v13t-2 15t-2.5 14.5t-3.5 16.5t-4 16.5t-5 19.5t-5 20l-171 714l99 8l131 -540q40 -163 44 -212q64 110 158.5 180t205.5 70q142 0 240 -91.5t98 -212.5q0 -62 -35.5 -114.5t-111.5 -84.5q-126 -56 -512 -56 q-169 0 -269 19zM423 123h45q359 0 461 34q57 18 85 42t28 64q0 69 -69.5 128.5t-172.5 59.5q-232 0 -377 -328z" />
<glyph unicode="&#x638;" horiz-adv-x="1097" d="M138 143q70 -20 184 -20q19 48 26 73q1 7 2 13.5t1 14.5v13t-2 15t-2.5 14.5t-3.5 16.5t-4 16.5t-5 19.5t-5 20l-171 714l99 8l131 -540q40 -163 44 -212q64 110 158.5 180t205.5 70q142 0 240 -91.5t98 -212.5q0 -62 -35.5 -114.5t-111.5 -84.5q-126 -56 -512 -56 q-169 0 -269 19zM423 123h45q359 0 461 34q57 18 85 42t28 64q0 69 -69.5 128.5t-172.5 59.5q-232 0 -377 -328zM584 838q0 28 17.5 46.5t43.5 18.5q40 0 64 -25.5t24 -64.5q0 -26 -18 -44.5t-46 -18.5q-38 -1 -61.5 23.5t-23.5 64.5z" />
<glyph unicode="&#x639;" horiz-adv-x="800" d="M178 465q0 102 73 172t189 70t192 -52l29 -108q-93 53 -203 53q-96 0 -141 -44t-45 -103q0 -74 62 -127.5t146 -68.5q11 0 53.5 14.5t118.5 41t138 44.5l6 -124q-115 -27 -262 -84q-102 -43 -154 -114t-52 -151q0 -39 11.5 -80.5t44 -88.5t82 -83t135 -60t193.5 -24 q167 0 275 39l-23 -103q-44 -22 -119.5 -34t-143.5 -12q-251 0 -406 119t-155 327q0 87 46.5 166t126.5 134q-108 47 -162.5 120t-54.5 161z" />
<glyph unicode="&#x63a;" horiz-adv-x="800" d="M178 465q0 102 73 172t189 70t192 -52l29 -108q-93 53 -203 53q-96 0 -141 -44t-45 -103q0 -74 62 -127.5t146 -68.5q11 0 53.5 14.5t118.5 41t138 44.5l6 -124q-115 -27 -262 -84q-102 -43 -154 -114t-52 -151q0 -39 11.5 -80.5t44 -88.5t82 -83t135 -60t193.5 -24 q167 0 275 39l-23 -103q-44 -22 -119.5 -34t-143.5 -12q-251 0 -406 119t-155 327q0 87 46.5 166t126.5 134q-108 47 -162.5 120t-54.5 161zM221 974q0 28 17.5 46.5t43.5 18.5q40 0 64 -25.5t24 -64.5q0 -26 -18 -44.5t-46 -18.5q-38 -1 -61.5 23.5t-23.5 64.5z" />
<glyph unicode="&#x640;" horiz-adv-x="387" d="M64 64q0 25 18 42t50 17h377q39 0 60.5 -17.5t21.5 -48.5q0 -21 -14 -39t-43 -18h-388q-25 0 -42.5 6.5t-25.5 17.5t-11 20.5t-3 19.5z" />
<glyph unicode="&#x641;" horiz-adv-x="1315" d="M136 449q0 70 10 117l81 -7q-3 -48 -3 -69q0 -106 36.5 -185t104 -125.5t156 -69t199.5 -22.5q175 0 316 28t206 60q0 4 0.5 15t0.5 18v21q-96 -6 -173 8t-124 41.5t-78.5 65t-43.5 74.5t-12 75q0 86 42 141q58 79 151 79q59 0 116.5 -33.5t105 -96t77 -162.5t29.5 -222 q0 -64 -6 -99q-66 -52 -237 -92t-360 -40q-139 0 -246 30t-171.5 77t-105.5 112t-56 128t-15 133zM841 995q0 28 18 46t44 18q40 0 63.5 -25t23.5 -64q0 -26 -18 -44.5t-46 -18.5q-38 -1 -61.5 23.5t-23.5 64.5zM903 493q0 -76 89.5 -122t239.5 -39q-24 116 -81.5 194 t-139.5 78q-48 0 -78 -32.5t-30 -78.5z" />
<glyph unicode="&#x642;" horiz-adv-x="1060" d="M177 256q0 97 18 165l79 -10q-9 -46 -9 -114q0 -112 33.5 -199.5t90 -140t126.5 -79.5t148 -27q129 0 219 47t126 130v4q1 5 1.5 12t0.5 15t0.5 17.5t0.5 17.5v14q-34 -9 -103 -9q-144 0 -232 75.5t-88 202.5q0 90 59 152.5t137 62.5q130 0 224 -141.5t94 -372.5 q0 -62 -6 -82q-15 -47 -49.5 -91.5t-86.5 -84t-128.5 -64t-164.5 -24.5q-214 0 -352 142.5t-138 381.5zM511 867q0 28 17 46.5t43 18.5q39 0 61 -24.5t22 -61.5q0 -27 -17 -45t-45 -18q-36 0 -58.5 23.5t-22.5 60.5zM677 377q0 -66 55 -114t174 -48q45 0 95 6 q-23 124 -83 194.5t-134 70.5q-48 0 -77.5 -32.5t-29.5 -76.5zM698 867q0 28 17.5 46.5t43.5 18.5q38 0 61 -24.5t23 -61.5q0 -27 -17.5 -45t-44.5 -18q-36 0 -59.5 23.5t-23.5 60.5z" />
<glyph unicode="&#x643;" horiz-adv-x="1189" d="M145 363l83 14q14 -79 50.5 -131.5t96.5 -80t128.5 -38t165.5 -10.5q235 0 368 48q-7 53 -29 139l-183 749l102 8l192 -796q32 -133 28 -174q-190 -91 -476 -91q-143 0 -242 23.5t-157.5 72t-87.5 112.5t-39 155zM452 465q70 1 124 17t76 33t22 28q0 12 -19 17.5t-74 8.5 q-67 4 -90.5 24t-23.5 65q0 59 45.5 114t120.5 71l24 -76q-61 -11 -94 -40t-33 -56q0 -13 14.5 -20t56.5 -9q74 -5 104.5 -24.5t30.5 -63.5q0 -63 -61.5 -107.5t-143.5 -44.5q-31 0 -44 3z" />
<glyph unicode="&#x644;" horiz-adv-x="942" d="M184 212q0 81 15 143l83 -13q-6 -96 -6 -101q0 -78 22 -138t54.5 -95.5t76 -58t82 -30.5t76.5 -8q94 0 168.5 35t94.5 95q5 15 -12 80l-227 932l104 8l218 -904q16 -65 16 -103q0 -35 -19 -77q-38 -83 -135 -132.5t-213 -49.5q-178 0 -288 112.5t-110 304.5z" />
<glyph unicode="&#x645;" horiz-adv-x="1122" d="M209 -140q341 152 426 298q15 27 39 193q21 122 67.5 179.5t121.5 57.5q78 0 148 -61t108.5 -144t40.5 -158q0 -68 -38.5 -107t-101.5 -39q-128 0 -278 104q-14 -87 -35 -122q-45 -80 -173.5 -160.5t-254.5 -111.5zM759 297q49 -40 119.5 -70t126.5 -30q63 0 63 47 q0 64 -65 149t-131 85q-93 0 -113 -181z" />
<glyph unicode="&#x646;" horiz-adv-x="927" d="M181 206q2 92 19 144l87 -15q-11 -71 -11 -108q0 -161 96 -246.5t235 -85.5q104 0 178.5 44.5t98.5 119.5q7 15 7 35q0 54 -56.5 171t-155.5 256l98 35q81 -111 143 -238t62 -236q0 -25 -9 -64q-31 -107 -136 -177.5t-239 -70.5q-182 0 -299.5 117t-117.5 319zM342 755 q0 28 18 47t44 19q40 0 64 -26t24 -64q0 -27 -18.5 -45.5t-46.5 -18.5q-37 0 -61 25t-24 63z" />
<glyph unicode="&#x647;" horiz-adv-x="646" d="M155 301q0 125 104 302q-6 3 -18.5 11t-19.5 11l50 84q181 -111 280 -212q126 -131 126 -272q0 -109 -68 -173t-163 -64q-132 0 -211.5 92.5t-79.5 220.5zM246 309q0 -85 58 -140.5t135 -55.5q72 0 109 43t37 88q0 136 -249 307q-40 -61 -65 -127t-25 -115z" />
<glyph unicode="&#x648;" horiz-adv-x="727" d="M218 -253l1 82q86 -41 188 -41q124 0 195 89t81 218q-43 -9 -105 -9q-135 0 -225 70.5t-90 197.5q0 93 59.5 160t142.5 67q95 0 167.5 -65.5t107.5 -165t35 -212.5q0 -202 -96 -332.5t-253 -130.5q-127 0 -208 72zM354 360q0 -79 64.5 -118t153.5 -39q71 0 108 11 q-9 69 -33 122.5t-55.5 83.5t-63 45t-60.5 15q-54 0 -84 -35.5t-30 -84.5z" />
<glyph unicode="&#x649;" horiz-adv-x="1043" d="M192 181q0 84 16 151l79 -10q-6 -101 -5 -120q3 -84 29.5 -150.5t66.5 -107.5t92 -68.5t102 -38t101 -10.5q100 0 178.5 32.5t119.5 87.5q33 48 33 78q0 36 -32.5 59t-136.5 56l-86 28q-109 34 -153.5 74.5t-44.5 130.5q0 97 69 184q37 49 93.5 79.5t114.5 30.5 q57 0 108.5 -32t78.5 -101l-52 -78q-54 103 -147 103q-72 0 -123.5 -57.5t-51.5 -121.5q0 -36 25.5 -55t101.5 -44l114 -38q37 -12 58.5 -19.5t50 -20.5t44.5 -26t32 -31.5t22.5 -42t6.5 -53.5q0 -77 -53 -158q-55 -80 -155 -128.5t-212 -48.5q-223 0 -353.5 124t-130.5 342 z" />
<glyph unicode="&#x64a;" horiz-adv-x="1043" d="M192 181q0 84 16 151l79 -10q-6 -101 -5 -120q3 -84 29.5 -150.5t66.5 -107.5t92 -68.5t102 -38t101 -10.5q100 0 178.5 32.5t119.5 87.5q33 48 33 78q0 36 -32.5 59t-136.5 56l-86 28q-109 34 -153.5 74.5t-44.5 130.5q0 97 69 184q37 49 93.5 79.5t114.5 30.5 q57 0 108.5 -32t78.5 -101l-52 -78q-54 103 -147 103q-72 0 -123.5 -57.5t-51.5 -121.5q0 -36 25.5 -55t101.5 -44l114 -38q37 -12 58.5 -19.5t50 -20.5t44.5 -26t32 -31.5t22.5 -42t6.5 -53.5q0 -77 -53 -158q-55 -80 -155 -128.5t-212 -48.5q-223 0 -353.5 124t-130.5 342 zM611 -490q0 28 18 46t44 18q39 0 61 -24t22 -63q0 -26 -16.5 -44t-44.5 -18q-36 -1 -60 23.5t-24 61.5zM800 -490q0 28 18 46t44 18q38 0 60.5 -24.5t22.5 -62.5q0 -26 -17.5 -44t-45.5 -18q-35 -1 -58.5 23.5t-23.5 61.5z" />
<glyph unicode="&#x64b;" d="M-196 1378q254 86 345 130l32 -79q-97 -45 -346 -127zM-152 1194q26 9 90.5 31.5t98 34.5t79.5 30.5t77 33.5l34 -78q-90 -43 -347 -125z" />
<glyph unicode="&#x64c;" d="M-260 1352q32 32 86 32q74 0 95 -98q7 -27 9 -82q122 0 169 72q-78 5 -131 47t-53 106q0 53 33.5 86t83.5 33q57 0 104.5 -52.5t47.5 -148.5q0 -109 -79 -165t-197 -56q-5 0 -18 1t-17 1q0 3 0.5 20.5t0.5 21.5q0 141 -60 141q-33 0 -66 -30zM-26 1428q0 -36 39.5 -59 t107.5 -23q1 47 -24.5 90.5t-68.5 43.5q-25 0 -39.5 -15t-14.5 -37z" />
<glyph unicode="&#x64d;" d="M-32 -138q254 86 345 131l32 -79q-109 -51 -346 -126zM13 -320q254 86 345 130l31 -79q-93 -45 -347 -127z" />
<glyph unicode="&#x64e;" d="M-151 1194q29 11 90.5 32t97 33.5t81 31t77.5 33.5l32 -78q-90 -43 -347 -125z" />
<glyph unicode="&#x64f;" d="M-118 1221q30 -7 79 -7q39 0 75.5 16.5t49.5 46.5q-83 -7 -138.5 29t-55.5 109q0 49 34.5 84.5t85.5 35.5q55 0 104.5 -50t50.5 -145q0 -90 -58.5 -142.5t-133.5 -52.5q-55 0 -89 19zM-50 1412q0 -34 39 -58t115 -18q1 51 -25.5 91t-71.5 40q-29 0 -43 -16.5t-14 -38.5z " />
<glyph unicode="&#x650;" d="M-32 -138q254 86 345 131l32 -79q-109 -51 -346 -126z" />
<glyph unicode="&#x651;" d="M-173 1317v26l56 23q2 -50 10 -85q4 -26 19.5 -43t33.5 -17q72 0 25 173l52 24q21 -81 43.5 -113t50.5 -32q19 0 30.5 12t10.5 33q-2 52 -59 127l62 27q60 -83 60 -169q0 -50 -24.5 -79t-63.5 -29q-54 0 -88 46q-7 -47 -37 -73t-64 -26q-58 0 -87.5 46.5t-29.5 128.5z " />
<glyph unicode="&#x652;" d="M-123 1337q0 59 32 105.5t85 46.5q71 0 126.5 -60.5t55.5 -142.5q0 -53 -39.5 -86t-95.5 -33q-70 0 -117 42.5t-47 127.5zM-59 1330q0 -44 25 -68t69 -24q35 0 55.5 15.5t20.5 45.5q0 48 -31.5 83.5t-70.5 35.5q-29 0 -48.5 -23.5t-19.5 -64.5z" />
<glyph unicode="&#x653;" d="M-159 1176q-10 58 11.5 94t77.5 36q36 0 99 -19t92 -19q48 0 93 49l26 -62q-11 -32 -42 -50.5t-72 -18.5q-34 0 -94 18.5t-83 18.5q-43 0 -40 -69z" />
<glyph unicode="&#x654;" d="M-107 1346q0 49 38.5 78t93.5 29q77 0 123 -40l-9 -63q-49 32 -114 32q-31 0 -47 -12.5t-16 -30.5q0 -35 43 -61.5t105 -26.5h93l-13 -70h-93q-133 0 -191 -25l-4 67q23 16 60 16q-69 37 -69 107z" />
<glyph unicode="&#x655;" d="M61 -148q0 49 39 79.5t93 30.5q78 0 124 -38l-8 -66q-49 32 -114 32q-31 0 -47 -13.5t-16 -31.5q0 -36 41.5 -61t105.5 -25h94l-15 -74h-92q-136 0 -191 -23l-5 67q27 16 63 16q-72 41 -72 107z" />
<glyph unicode="&#x656;" d="M104 -41l93 7l85 -354l-83 -6z" />
<glyph unicode="&#x657;" d="M-108 1321q0 92 69 153t153 50l7 -64q-59 1 -100.5 -30t-48.5 -86q58 6 99.5 -19t41.5 -82q1 -39 -26 -64t-64 -25q-62 0 -96.5 47.5t-34.5 119.5z" />
<glyph unicode="&#x658;" d="M-154 1375l60 16q24 -72 54.5 -106t74.5 -34q95 0 95 153l63 -7q11 -110 -33 -171.5t-121 -61.5q-69 0 -117.5 48t-75.5 163z" />
<glyph unicode="&#x659;" d="M-126 1245h362l2 -82h-359z" />
<glyph unicode="&#x65a;" d="M-177 1393l59 46q94 -87 168 -184q38 97 92 186l63 -40q-77 -136 -108 -238h-75q-50 82 -199 230z" />
<glyph unicode="&#x65b;" d="M-130 1185q75 135 108 238h73q46 -76 199 -229l-58 -47q-91 84 -167 184q-40 -96 -92 -186z" />
<glyph unicode="&#x65c;" d="M94 -99q0 29 19.5 50t50.5 21q34 0 55.5 -21.5t21.5 -58.5q0 -29 -19.5 -49t-47.5 -20q-35 0 -57.5 21.5t-22.5 56.5z" />
<glyph unicode="&#x65d;" d="M-159 1382q0 67 41 110t90 43q56 0 94.5 -39.5t38.5 -101.5q0 -50 -40.5 -85.5t-102.5 -40.5q45 -33 108 -46.5t127 -4.5l5 -55q-28 -17 -85 -17q-46 0 -91.5 12.5t-88.5 39t-69.5 74.5t-26.5 111zM-95 1385q0 -30 12 -58q60 4 92.5 24t32.5 50q0 28 -18.5 47t-46.5 19 q-27 0 -49.5 -21t-22.5 -61z" />
<glyph unicode="&#x65e;" d="M-155 1431q0 19 14 34t36 15q25 0 39.5 -15.5t14.5 -42.5q0 -19 -13.5 -33.5t-33.5 -14.5q-25 0 -41 15.5t-16 41.5zM-113 1205l237 272l52 -43l-243 -275zM111 1207q0 19 12.5 34.5t34.5 15.5q25 0 41 -16.5t16 -42.5q0 -20 -14.5 -34t-35.5 -14q-24 0 -39 15t-15 42z " />
<glyph unicode="&#x660;" horiz-adv-x="373" d="M126 456q0 45 30.5 78.5t76.5 33.5q54 0 88 -34t34 -91q0 -47 -30.5 -77.5t-75.5 -30.5q-52 0 -87.5 33t-35.5 88z" />
<glyph unicode="&#x661;" horiz-adv-x="416" d="M-3 952l114 13q124 -182 234 -447t170 -518h-108q-139 560 -410 952z" />
<glyph unicode="&#x662;" horiz-adv-x="706" d="M-1 952l112 11q7 -11 28.5 -47.5t39 -63t27.5 -36.5q68 -77 183 -77q166 0 129 213l88 8q16 -50 16 -104q0 -104 -55.5 -167t-146.5 -63q-88 0 -149 44q62 -123 131 -309t110 -361h-107q-138 557 -406 952z" />
<glyph unicode="&#x663;" horiz-adv-x="778" d="M-1 952l111 13q10 -14 27.5 -42.5t36.5 -61.5t22 -39q50 -80 121 -80q77 0 77 80q0 45 -34 130l79 6q29 -98 60 -134.5t67 -36.5q47 0 47 69q0 30 -21 96l78 8q32 -64 32 -144q0 -70 -28 -106t-73 -36q-66 0 -120 66q-4 -56 -35 -85.5t-76 -29.5q-57 0 -95 38 q62 -122 126 -297.5t112 -365.5h-108q-136 550 -406 952z" />
<glyph unicode="&#x664;" horiz-adv-x="658" d="M105 683q0 101 83.5 180t213.5 107l53 -104q-133 -33 -194 -85t-61 -105t59 -89t175 -36q49 0 117 11l21 -103q-117 -29 -169.5 -83.5t-52.5 -112.5q0 -55 45.5 -100t142.5 -45q117 0 201 55l28 -107q-78 -70 -220 -70q-114 0 -204.5 70t-90.5 191q0 61 31.5 115t85.5 90 q-123 9 -193.5 71t-70.5 150z" />
<glyph unicode="&#x665;" horiz-adv-x="746" d="M127 565q0 162 58 258.5t157 96.5q101 0 193.5 -90.5t145 -222.5t52.5 -259q0 -123 -60 -202.5t-184 -79.5q-91 0 -162.5 45.5t-114 119.5t-64 159.5t-21.5 174.5zM222 550q0 -50 12.5 -107t39.5 -116.5t79.5 -98.5t121.5 -39q164 0 164 178q0 48 -18.5 116.5t-52 139 t-91 119.5t-124.5 49q-131 0 -131 -241z" />
<glyph unicode="&#x666;" horiz-adv-x="668" d="M-16 964q59 -12 238 -12h221q9 -94 35 -222q34 -167 108.5 -372t175.5 -358h-114q-112 179 -184.5 402t-109.5 435h-155q-145 0 -209 14z" />
<glyph unicode="&#x667;" horiz-adv-x="779" d="M-13 952l126 8q109 -156 235.5 -404.5t182.5 -415.5h4q-8 143 6 393t43 427l117 -8q-35 -149 -59 -432.5t-23 -519.5h-123q-246 597 -509 952z" />
<glyph unicode="&#x668;" horiz-adv-x="779" d="M180 0q35 151 60 440.5t23 510.5l123 9q266 -627 508 -960h-129q-103 149 -227.5 393t-182.5 404h-4q8 -140 -8.5 -378t-47.5 -419h-115z" />
<glyph unicode="&#x669;" horiz-adv-x="690" d="M60 739q0 95 58 162t141 67q93 0 169.5 -79.5t136.5 -268.5q16 -50 46.5 -147t43.5 -137t36.5 -106.5t46 -119t50.5 -110.5h-109q-80 176 -167 458q-43 -10 -117 -10q-135 0 -235 79.5t-100 211.5zM154 734q0 -88 67.5 -131.5t177.5 -43.5q51 0 81 7q-24 87 -51 146 t-55.5 89.5t-54.5 42.5t-57 12q-47 0 -77.5 -36.5t-30.5 -85.5z" />
<glyph unicode="&#x66a;" horiz-adv-x="801" d="M51 898q0 31 18.5 50.5t48.5 19.5q43 0 73.5 -30t30.5 -73q0 -32 -18.5 -51.5t-49.5 -19.5q-41 0 -72 30t-31 74zM197 23q56 179 168 476t200 500l85 -57q-209 -480 -365 -973zM620 105q0 30 19 49.5t50 19.5q41 0 71 -30.5t30 -74.5q0 -32 -18 -50.5t-49 -18.5 q-43 0 -73 30t-30 75z" />
<glyph unicode="&#x66b;" horiz-adv-x="557" d="M241 374q0 43 33.5 76t78.5 33q63 0 103.5 -53t40.5 -148t-54 -179t-124 -123l-73 58q76 40 118 104t41 127q-67 -17 -115.5 13.5t-48.5 91.5z" />
<glyph unicode="&#x66c;" horiz-adv-x="557" d="M236 180q0 96 54 180t125 123l72 -57q-76 -41 -118 -105t-40 -128q67 17 115.5 -13.5t48.5 -91.5q0 -43 -33 -75.5t-78 -32.5q-64 0 -105 53t-41 147z" />
<glyph unicode="&#x66d;" horiz-adv-x="930" d="M135 462l3 11l292 -11l25 284h12l137 -284l293 11l4 -8l-212 -165l155 -277l-4 -5l-271 179l-190 -179l-10 5l41 277z" />
<glyph unicode="&#x66e;" horiz-adv-x="1291" d="M136 430q0 44 9 100l80 -12q0 -6 -1.5 -25.5t-1.5 -28.5q0 -190 122 -283t377 -93q332 0 506 77q-12 140 -181 370l95 30q75 -96 129.5 -216t54.5 -228q0 -24 -3 -39q-236 -113 -585 -113q-136 0 -240.5 23t-172 62.5t-110.5 98.5t-60.5 126.5t-17.5 150.5z" />
<glyph unicode="&#x66f;" horiz-adv-x="1060" d="M177 256q0 97 18 165l79 -10q-9 -46 -9 -114q0 -112 33.5 -199.5t90 -140t126.5 -79.5t148 -27q129 0 219 47t126 130v4q1 5 1.5 12t0.5 15t0.5 17.5t0.5 17.5v14q-34 -9 -103 -9q-144 0 -232 75.5t-88 202.5q0 90 59 152.5t137 62.5q130 0 224 -141.5t94 -372.5 q0 -62 -6 -82q-15 -47 -49.5 -91.5t-86.5 -84t-128.5 -64t-164.5 -24.5q-214 0 -352 142.5t-138 381.5zM677 377q0 -66 55 -114t174 -48q45 0 95 6q-23 124 -83 194.5t-134 70.5q-48 0 -77.5 -32.5t-29.5 -76.5z" />
<glyph unicode="&#x670;" d="M-73 1517l92 7l86 -352l-83 -6z" />
<glyph unicode="&#x671;" horiz-adv-x="362" d="M-187 1268q17 38 58 38q18 0 32 -6q61 137 148 137q60 0 101 -45.5t41 -105.5q0 -51 -35 -82t-88 -31q-44 0 -107 25.5t-79 25.5q-34 0 -54 -33zM-38 1274q44 -23 102 -23q28 0 45.5 12.5t17.5 31.5q0 22 -19.5 43t-50.5 21q-58 2 -95 -85zM28 1053l101 8l257 -1061h-104 z" />
<glyph unicode="&#x674;" horiz-adv-x="433" d="M-22 1258q0 49 38.5 78t93.5 29q77 0 123 -40l-9 -63q-50 33 -114 33q-31 0 -47 -13t-16 -31q0 -35 43 -61.5t105 -26.5h93l-13 -70h-94q-132 0 -190 -25l-4 67q23 16 60 16q-69 37 -69 107z" />
<glyph unicode="&#x675;" horiz-adv-x="462" d="M28 1053l101 8l257 -1061h-104zM168 1258q0 49 39 80t93 31q75 0 124 -39l-9 -66q-52 34 -114 34q-31 0 -47 -14t-16 -33q0 -35 42.5 -61t105.5 -26h94l-15 -71h-92q-134 0 -192 -25l-4 67q23 16 63 16q-72 41 -72 107z" />
<glyph unicode="&#x676;" horiz-adv-x="836" d="M218 -253l1 82q86 -41 188 -41q124 0 195 89t81 218q-43 -9 -105 -9q-135 0 -225 70.5t-90 197.5q0 93 59.5 160t142.5 67q95 0 167.5 -65.5t107.5 -165t35 -212.5q0 -202 -96 -332.5t-253 -130.5q-127 0 -208 72zM354 360q0 -79 64.5 -118t153.5 -39q71 0 108 11 q-9 69 -33 122.5t-55.5 83.5t-63 45t-60.5 15q-54 0 -84 -35.5t-30 -84.5zM487 914q0 49 39 80t93 31q75 0 124 -39l-9 -66q-52 34 -114 34q-31 0 -47 -14t-16 -33q0 -35 42.5 -60.5t105.5 -25.5h94l-15 -72h-92q-134 0 -192 -25l-4 67q23 16 63 16q-72 41 -72 107z" />
<glyph unicode="&#x677;" horiz-adv-x="836" d="M108 740q33 -7 79 -7q41 0 78 16.5t50 46.5q-84 -7 -140.5 28.5t-56.5 108.5q0 49 35.5 84.5t86.5 35.5q55 0 104 -50t50 -144q1 -90 -57.5 -142.5t-133.5 -52.5q-55 0 -89 19zM177 930q0 -34 39 -58t115 -18q1 51 -25.5 91.5t-71.5 40.5q-28 0 -42.5 -17t-14.5 -39z M218 -253l1 82q86 -41 188 -41q124 0 195 89t81 218q-43 -9 -105 -9q-135 0 -225 70.5t-90 197.5q0 93 59.5 160t142.5 67q95 0 167.5 -65.5t107.5 -165t35 -212.5q0 -202 -96 -332.5t-253 -130.5q-127 0 -208 72zM354 360q0 -79 64.5 -118t153.5 -39q71 0 108 11 q-9 69 -33 122.5t-55.5 83.5t-63 45t-60.5 15q-54 0 -84 -35.5t-30 -84.5zM487 914q0 49 39 80t93 31q75 0 124 -39l-9 -66q-52 34 -114 34q-31 0 -47 -14t-16 -33q0 -35 42.5 -60.5t105.5 -25.5h94l-15 -72h-92q-134 0 -192 -25l-4 67q23 16 63 16q-72 41 -72 107z" />
<glyph unicode="&#x678;" horiz-adv-x="1275" d="M192 181q0 84 16 151l79 -10q-6 -101 -5 -120q3 -84 29.5 -150.5t66.5 -107.5t92 -68.5t102 -38t101 -10.5q100 0 178.5 32.5t119.5 87.5q33 48 33 78q0 36 -32.5 59t-136.5 56l-86 28q-109 34 -153.5 74.5t-44.5 130.5q0 97 69 184q37 49 93.5 79.5t114.5 30.5 q57 0 108.5 -32t78.5 -101l-52 -78q-54 103 -147 103q-72 0 -123.5 -57.5t-51.5 -121.5q0 -36 25.5 -55t101.5 -44l114 -38q37 -12 58.5 -19.5t50 -20.5t44.5 -26t32 -31.5t22.5 -42t6.5 -53.5q0 -77 -53 -158q-55 -80 -155 -128.5t-212 -48.5q-223 0 -353.5 124t-130.5 342 zM930 979q0 49 39 80t93 31q77 0 123 -40l-7 -65q-50 33 -115 33q-31 0 -46.5 -14t-15.5 -33q0 -35 42 -60.5t105 -25.5h94l-15 -72h-92q-133 0 -191 -25l-5 68q23 16 63 16q-72 41 -72 107z" />
<glyph unicode="&#x679;" horiz-adv-x="1291" d="M136 430q0 44 9 100l80 -12q0 -6 -1.5 -25.5t-1.5 -28.5q0 -190 122 -283t377 -93q332 0 506 77q-12 140 -181 370l95 30q75 -96 129.5 -216t54.5 -228q0 -24 -3 -39q-236 -113 -585 -113q-136 0 -240.5 23t-172 62.5t-110.5 98.5t-60.5 126.5t-17.5 150.5zM453 683 l84 -6q10 40 -9 114l-63 232l63 4l43 -158q14 -40 14 -86q45 93 122 93q52 0 86 -35.5t34 -88.5q0 -70 -65 -106.5t-159 -36.5h-95zM592 679q92 0 132.5 20.5t40.5 52.5q0 21 -16 37.5t-41 16.5q-72 0 -116 -127z" />
<glyph unicode="&#x67e;" horiz-adv-x="1291" d="M136 430q0 44 9 100l80 -12q0 -6 -1.5 -25.5t-1.5 -28.5q0 -190 122 -283t377 -93q332 0 506 77q-12 140 -181 370l95 30q75 -96 129.5 -216t54.5 -228q0 -24 -3 -39q-236 -113 -585 -113q-136 0 -240.5 23t-172 62.5t-110.5 98.5t-60.5 126.5t-17.5 150.5zM707 -274 q0 26 17 44t44 18q36 0 59.5 -24t23.5 -61q0 -28 -17.5 -46t-43.5 -18q-39 0 -61 24t-22 63zM832 -448q0 27 17.5 45t45.5 18q36 0 59 -24t23 -62q0 -26 -17.5 -44.5t-43.5 -18.5q-38 0 -61 24.5t-23 61.5zM894 -274q0 26 17.5 44t45.5 18q36 0 59 -24t23 -61q0 -28 -17 -46 t-43 -18q-39 0 -62 24.5t-23 62.5z" />
<glyph unicode="&#x686;" horiz-adv-x="943" d="M138 408l16 116q68 32 168 32q55 0 118.5 -13t99 -25t109 -40t91.5 -35q100 -35 149 -35l78 -1l-25 -120q-28 4 -94 4q-77 0 -172 -22q-147 -38 -234 -123.5t-87 -211.5q0 -96 44 -171.5t120.5 -122t173.5 -70t208 -23.5q138 0 225 21l-30 -105q-59 -25 -220 -25 q-181 0 -324.5 57t-229 170t-85.5 265q0 76 28.5 142.5t74 113t105.5 83t119 57.5t118 31q-6 2 -80.5 29t-139 43t-121.5 16q-132 0 -203 -37zM591 -10q0 25 16 41.5t40 16.5q35 0 55.5 -22.5t20.5 -56.5q0 -24 -15.5 -39.5t-41.5 -15.5q-33 -1 -54 20.5t-21 55.5zM699 -176 q0 24 15.5 41t38.5 17q35 0 56.5 -22.5t21.5 -56.5q0 -24 -16 -40t-41 -16q-33 0 -54 21t-21 56zM764 -10q0 25 15.5 41.5t39.5 16.5q35 0 55.5 -22t20.5 -57q0 -24 -15.5 -39.5t-41.5 -15.5q-32 -1 -53 20.5t-21 55.5z" />
<glyph unicode="&#x688;" horiz-adv-x="702" d="M54 952l84 -6q10 40 -9 115l-65 231l65 4l42 -158q14 -50 15 -86q45 93 121 93q52 0 86 -35.5t34 -88.5q0 -70 -65 -106.5t-159 -36.5h-95zM184 151q86 -27 231 -27q80 0 141 14.5t86 37.5q-7 44 -31.5 94t-70.5 110t-126 123t-183 114l75 81q163 -80 283.5 -218 t149.5 -287q10 -57 9 -85q-90 -108 -315 -108q-129 0 -202 31zM192 948q92 0 133 20.5t41 52.5q0 21 -16 37.5t-41 16.5q-70 0 -117 -127z" />
<glyph unicode="&#x691;" horiz-adv-x="669" d="M162 796l84 -6q12 38 -9 114l-63 231l63 5l42 -158q15 -43 15 -87q46 94 121 94q52 0 86 -35.5t34 -88.5q0 -70 -64.5 -107t-158.5 -37h-94zM231 -165q77 -44 179 -44q39 0 77.5 15t77.5 57t57 106q10 37 10 63q0 154 -231 479l96 45q89 -124 157.5 -268.5t68.5 -256.5 q0 -57 -8 -82q-23 -123 -102 -197.5t-179 -74.5q-135 0 -203 68v90zM301 791q92 0 132.5 21t40.5 53q0 21 -16 37.5t-41 16.5q-71 0 -116 -128z" />
<glyph unicode="&#x698;" horiz-adv-x="669" d="M180 815q0 28 17 46t43 18q39 0 62 -24.5t23 -61.5q0 -27 -17.5 -45t-45.5 -18q-36 0 -59 24t-23 61zM230 -255l1 90q77 -44 179 -44q62 0 123 42.5t89 135.5q8 30 8 63q0 157 -229 479l95 45q90 -123 158.5 -268t68.5 -257q0 -44 -8 -82q-23 -123 -102 -197.5 t-180 -74.5q-133 0 -203 68zM241 989q0 27 17.5 45t44.5 18q38 0 60.5 -24.5t22.5 -62.5q0 -26 -17.5 -43.5t-45.5 -17.5q-35 0 -58.5 24t-23.5 61zM367 815q0 28 18 46t44 18q39 0 61 -24.5t22 -61.5q0 -27 -17 -45t-44 -18q-36 0 -60 24t-24 61z" />
<glyph unicode="&#x6a1;" horiz-adv-x="1315" d="M136 449q0 70 10 117l81 -7q-3 -48 -3 -69q0 -106 36.5 -185t104 -125.5t156 -69t199.5 -22.5q175 0 316 28t206 60q0 4 0.5 15t0.5 18v21q-96 -6 -173 8t-124 41.5t-78.5 65t-43.5 74.5t-12 75q0 86 42 141q58 79 151 79q59 0 116.5 -33.5t105 -96t77 -162.5t29.5 -222 q0 -64 -6 -99q-66 -52 -237 -92t-360 -40q-139 0 -246 30t-171.5 77t-105.5 112t-56 128t-15 133zM903 493q0 -76 89.5 -122t239.5 -39q-24 116 -81.5 194t-139.5 78q-48 0 -78 -32.5t-30 -78.5z" />
<glyph unicode="&#x6a4;" horiz-adv-x="1315" d="M136 449q0 70 10 117l81 -7q-3 -48 -3 -69q0 -106 36.5 -185t104 -125.5t156 -69t199.5 -22.5q175 0 316 28t206 60q0 4 0.5 15t0.5 18v21q-96 -6 -173 8t-124 41.5t-78.5 65t-43.5 74.5t-12 75q0 86 42 141q58 79 151 79q59 0 116.5 -33.5t105 -96t77 -162.5t29.5 -222 q0 -64 -6 -99q-66 -52 -237 -92t-360 -40q-139 0 -246 30t-171.5 77t-105.5 112t-56 128t-15 133zM749 992q0 28 17 46t43 18q39 0 61 -24.5t22 -61.5q0 -27 -16.5 -45t-44.5 -18q-36 0 -59 24t-23 61zM810 1166q0 28 17 45.5t43 17.5q39 0 62 -24.5t23 -62.5 q0 -26 -17.5 -43.5t-45.5 -17.5q-36 0 -59 24t-23 61zM903 493q0 -76 89.5 -122t239.5 -39q-24 116 -81.5 194t-139.5 78q-48 0 -78 -32.5t-30 -78.5zM936 992q0 28 18 46t44 18q37 0 60 -24.5t23 -61.5q0 -27 -17 -45t-44 -18q-36 0 -60 24t-24 61z" />
<glyph unicode="&#x6a9;" horiz-adv-x="1334" d="M148 440l83 -14q0 -182 125.5 -258.5t418.5 -76.5q130 0 225.5 14t146 37t73.5 48.5t23 53.5q0 38 -29 78.5t-98 97.5q-23 18 -47.5 35.5t-44.5 31t-50 31.5t-46.5 27.5t-52 28.5t-49 25.5t-55 28t-53.5 27.5q-13 63 -7 110q1 12 60 48q81 55 234 126t288 117l-22 -126 q-111 -34 -252.5 -97t-213.5 -110q68 -34 121.5 -63t119 -69t113.5 -79t90.5 -83.5t64.5 -93.5t22 -98q0 -84 -76 -147.5t-200.5 -95t-276.5 -31.5q-239 0 -382.5 52.5t-203 156.5t-49.5 268z" />
<glyph unicode="&#x6aa;" horiz-adv-x="1582" d="M158 155q134 -35 363 -35q163 0 322.5 8t386 25t288.5 21q-5 101 -87 150.5t-218 49.5q-134 0 -305 -14q-267 -15 -342 -15q-45 0 -80 3t-75.5 14t-67 30t-44.5 53.5t-18 81.5q0 56 35 117t88 111q120 116 345 230l-20 -135q-69 -31 -158.5 -90.5t-143.5 -121.5 q-51 -60 -51 -104q0 -82 175 -82q74 0 145.5 3t163 9t107.5 7q153 10 233 10q213 -1 310.5 -89.5t107.5 -251.5q5 -33 3 -77q-11 -1 -152 -13t-277 -23t-318.5 -20.5t-310.5 -9.5q-93 0 -194 6.5t-132 15.5z" />
<glyph unicode="&#x6ad;" horiz-adv-x="1189" d="M145 363l83 14q14 -79 50.5 -131.5t96.5 -80t128.5 -38t165.5 -10.5q235 0 368 48q-7 53 -29 139l-183 749l102 8l192 -796q32 -133 28 -174q-190 -91 -476 -91q-143 0 -242 23.5t-157.5 72t-87.5 112.5t-39 155zM293 1078q0 25 16.5 42.5t40.5 17.5q37 0 58.5 -23 t21.5 -59q0 -25 -16 -41.5t-42 -16.5q-35 0 -57 22t-22 58zM353 1243q0 25 16.5 42.5t40.5 17.5q37 0 58.5 -23t21.5 -59q0 -25 -16.5 -42t-43.5 -17q-34 0 -55.5 22.5t-21.5 58.5zM452 465q70 1 124 17t76 33t22 28q0 12 -19 17.5t-74 8.5q-67 4 -90.5 24t-23.5 65 q0 59 45.5 114t120.5 71l24 -76q-61 -11 -94 -40t-33 -56q0 -13 14.5 -20t56.5 -9q74 -5 104.5 -24.5t30.5 -63.5q0 -63 -61.5 -107.5t-143.5 -44.5q-31 0 -44 3zM473 1078q0 25 16.5 42.5t40.5 17.5q37 0 58.5 -23t21.5 -59q0 -25 -16.5 -41.5t-43.5 -16.5q-34 0 -55.5 22 t-21.5 58z" />
<glyph unicode="&#x6af;" horiz-adv-x="1334" d="M148 440l83 -14q0 -182 125.5 -258.5t418.5 -76.5q130 0 225.5 14t146 37t73.5 48.5t23 53.5q0 38 -29 78.5t-98 97.5q-23 18 -47.5 35.5t-44.5 31t-50 31.5t-46.5 27.5t-52 28.5t-49 25.5t-55 28t-53.5 27.5q-13 63 -7 110q1 12 60 48q81 55 234 126t288 117l-22 -126 q-111 -34 -252.5 -97t-213.5 -110q68 -34 121.5 -63t119 -69t113.5 -79t90.5 -83.5t64.5 -93.5t22 -98q0 -84 -76 -147.5t-200.5 -95t-276.5 -31.5q-239 0 -382.5 52.5t-203 156.5t-49.5 268zM721 1043q85 53 224.5 120t275.5 116l-1 -96q-284 -101 -496 -231z" />
<glyph unicode="&#x6ba;" horiz-adv-x="937" d="M181 206q2 92 19 144l87 -15q-11 -71 -11 -108q0 -161 96 -246.5t235 -85.5q104 0 178.5 44.5t98.5 119.5q7 15 7 35q0 54 -56.5 171t-155.5 256l98 35q81 -111 143 -238t62 -236q0 -25 -9 -64q-31 -107 -136 -177.5t-239 -70.5q-182 0 -299.5 117t-117.5 319z" />
<glyph unicode="&#x6be;" horiz-adv-x="1016" d="M148 78q194 5 307 39q-146 119 -146 268q0 156 156 238l-80 54l48 85q20 -12 120.5 -72t157.5 -95q55 -35 92.5 -60.5t89 -68.5t82.5 -81.5t54 -89.5t23 -102q0 -95 -63 -150t-176 -55q-121 0 -237 54q-146 -85 -365 -89zM399 391q0 -62 47 -121t122 -102q103 69 103 190 q0 92 -46.5 147t-84.5 55q-43 0 -92 -48.5t-49 -120.5zM676 121q63 -20 123 -20q84 0 122.5 27t38.5 71q0 123 -233 275q35 -57 35 -139q0 -122 -86 -214z" />
<glyph unicode="&#x6c0;" horiz-adv-x="646" d="M95 1015q0 49 39 80t93 31q75 0 124 -39l-9 -66q-52 34 -114 34q-31 0 -47 -14t-16 -33q0 -35 42.5 -60.5t105.5 -25.5h94l-15 -72h-92q-134 0 -192 -25l-4 67q23 16 63 16q-72 41 -72 107zM155 301q0 125 104 302q-6 3 -18.5 11t-19.5 11l50 84q181 -111 280 -212 q126 -131 126 -272q0 -109 -68 -173t-163 -64q-132 0 -211.5 92.5t-79.5 220.5zM246 309q0 -85 58 -140.5t135 -55.5q72 0 109 43t37 88q0 136 -249 307q-40 -61 -65 -127t-25 -115z" />
<glyph unicode="&#x6c1;" horiz-adv-x="646" d="M155 301q0 125 104 302q-6 3 -18.5 11t-19.5 11l50 84q181 -111 280 -212q126 -131 126 -272q0 -109 -68 -173t-163 -64q-132 0 -211.5 92.5t-79.5 220.5zM246 309q0 -85 58 -140.5t135 -55.5q72 0 109 43t37 88q0 136 -249 307q-40 -61 -65 -127t-25 -115z" />
<glyph unicode="&#x6c2;" horiz-adv-x="646" d="M95 1015q0 49 39 80t93 31q75 0 124 -39l-9 -66q-52 34 -114 34q-31 0 -47 -14t-16 -33q0 -35 42.5 -60.5t105.5 -25.5h94l-15 -72h-92q-134 0 -192 -25l-4 67q23 16 63 16q-72 41 -72 107zM155 301q0 125 104 302q-6 3 -18.5 11t-19.5 11l50 84q181 -111 280 -212 q126 -131 126 -272q0 -109 -68 -173t-163 -64q-132 0 -211.5 92.5t-79.5 220.5zM246 309q0 -85 58 -140.5t135 -55.5q72 0 109 43t37 88q0 136 -249 307q-40 -61 -65 -127t-25 -115z" />
<glyph unicode="&#x6c3;" horiz-adv-x="646" d="M85 925q0 28 17 46t43 18q39 0 62 -24.5t23 -61.5q0 -27 -17.5 -45t-45.5 -18q-36 0 -59 24t-23 61zM155 301q0 125 104 302q-6 3 -18.5 11t-19.5 11l50 84q181 -111 280 -212q126 -131 126 -272q0 -109 -68 -173t-163 -64q-132 0 -211.5 92.5t-79.5 220.5zM246 309 q0 -85 58 -140.5t135 -55.5q72 0 109 43t37 88q0 136 -249 307q-40 -61 -65 -127t-25 -115zM272 925q0 28 18 46t44 18q37 0 60 -24.5t23 -61.5q0 -27 -17.5 -45t-44.5 -18q-36 0 -59.5 24t-23.5 61z" />
<glyph unicode="&#x6c5;" horiz-adv-x="731" d="M222 -272l2 82q89 -41 187 -41q167 0 237 152l-328 -1l-16 73h369q13 48 15 102q-42 -9 -106 -9q-136 0 -227.5 70.5t-91.5 197.5q0 93 59.5 160t142.5 67q95 0 169 -66.5t110.5 -167t36.5 -214.5q0 -207 -96 -341t-253 -134q-129 0 -210 70zM353 360q0 -79 63.5 -118 t155.5 -39q69 0 111 11q-17 129 -82 197.5t-134 68.5q-56 0 -85 -34.5t-29 -85.5z" />
<glyph unicode="&#x6c6;" horiz-adv-x="727" d="M130 996l59 47q94 -87 168 -184q37 94 92 185l63 -39q-77 -136 -108 -238h-75q-48 80 -199 229zM218 -253l1 82q86 -41 188 -41q124 0 195 89t81 218q-43 -9 -105 -9q-135 0 -225 70.5t-90 197.5q0 93 59.5 160t142.5 67q95 0 167.5 -65.5t107.5 -165t35 -212.5 q0 -202 -96 -332.5t-253 -130.5q-127 0 -208 72zM354 360q0 -79 64.5 -118t153.5 -39q71 0 108 11q-9 69 -33 122.5t-55.5 83.5t-63 45t-60.5 15q-54 0 -84 -35.5t-30 -84.5z" />
<glyph unicode="&#x6c7;" horiz-adv-x="727" d="M189 825q30 -7 79 -7q39 0 76 16.5t50 46.5q-83 -7 -139 28.5t-56 108.5q0 49 34.5 84.5t85.5 35.5q55 0 104.5 -49.5t50.5 -144.5q0 -90 -58.5 -142.5t-133.5 -52.5q-55 0 -89 19zM218 -253l1 82q86 -41 188 -41q124 0 195 89t81 218q-43 -9 -105 -9q-135 0 -225 70.5 t-90 197.5q0 93 59.5 160t142.5 67q95 0 167.5 -65.5t107.5 -165t35 -212.5q0 -202 -96 -332.5t-253 -130.5q-127 0 -208 72zM257 1015q0 -34 39 -58t115 -18q1 51 -25 91.5t-71 40.5q-29 0 -43.5 -17t-14.5 -39zM354 360q0 -79 64.5 -118t153.5 -39q71 0 108 11 q-9 69 -33 122.5t-55.5 83.5t-63 45t-60.5 15q-54 0 -84 -35.5t-30 -84.5z" />
<glyph unicode="&#x6c8;" horiz-adv-x="727" d="M218 -253l1 82q86 -41 188 -41q124 0 195 89t81 218q-43 -9 -105 -9q-135 0 -225 70.5t-90 197.5q0 93 59.5 160t142.5 67q95 0 167.5 -65.5t107.5 -165t35 -212.5q0 -202 -96 -332.5t-253 -130.5q-127 0 -208 72zM234 1121l92 7l87 -353l-84 -6zM354 360 q0 -79 64.5 -118t153.5 -39q71 0 108 11q-9 69 -33 122.5t-55.5 83.5t-63 45t-60.5 15q-54 0 -84 -35.5t-30 -84.5z" />
<glyph unicode="&#x6c9;" horiz-adv-x="727" d="M177 788q75 134 108 239h73q47 -78 199 -230l-58 -47q-89 81 -167 185q-40 -96 -92 -186zM218 -253l1 82q86 -41 188 -41q124 0 195 89t81 218q-43 -9 -105 -9q-135 0 -225 70.5t-90 197.5q0 93 59.5 160t142.5 67q95 0 167.5 -65.5t107.5 -165t35 -212.5 q0 -202 -96 -332.5t-253 -130.5q-127 0 -208 72zM354 360q0 -79 64.5 -118t153.5 -39q71 0 108 11q-9 69 -33 122.5t-55.5 83.5t-63 45t-60.5 15q-54 0 -84 -35.5t-30 -84.5z" />
<glyph unicode="&#x6cb;" horiz-adv-x="727" d="M186 859q0 28 17 46t43 18q39 0 62 -24.5t23 -61.5q0 -27 -17.5 -45t-45.5 -18q-36 0 -59 24t-23 61zM218 -253l1 82q86 -41 188 -41q124 0 195 89t81 218q-43 -9 -105 -9q-135 0 -225 70.5t-90 197.5q0 93 59.5 160t142.5 67q95 0 167.5 -65.5t107.5 -165t35 -212.5 q0 -202 -96 -332.5t-253 -130.5q-127 0 -208 72zM247 1033q0 27 17.5 45t44.5 18q38 0 60.5 -24.5t22.5 -62.5q0 -26 -17.5 -43.5t-45.5 -17.5q-35 0 -58.5 24t-23.5 61zM354 360q0 -79 64.5 -118t153.5 -39q71 0 108 11q-9 69 -33 122.5t-55.5 83.5t-63 45t-60.5 15 q-54 0 -84 -35.5t-30 -84.5zM373 859q0 28 17.5 46t43.5 18q38 0 61 -24.5t23 -61.5q0 -27 -17.5 -45t-44.5 -18q-36 0 -59.5 24t-23.5 61z" />
<glyph unicode="&#x6cc;" horiz-adv-x="1043" d="M192 181q0 84 16 151l79 -10q-6 -101 -5 -120q3 -84 29.5 -150.5t66.5 -107.5t92 -68.5t102 -38t101 -10.5q100 0 178.5 32.5t119.5 87.5q33 48 33 78q0 36 -32.5 59t-136.5 56l-86 28q-109 34 -153.5 74.5t-44.5 130.5q0 97 69 184q37 49 93.5 79.5t114.5 30.5 q57 0 108.5 -32t78.5 -101l-52 -78q-54 103 -147 103q-72 0 -123.5 -57.5t-51.5 -121.5q0 -36 25.5 -55t101.5 -44l114 -38q37 -12 58.5 -19.5t50 -20.5t44.5 -26t32 -31.5t22.5 -42t6.5 -53.5q0 -77 -53 -158q-55 -80 -155 -128.5t-212 -48.5q-223 0 -353.5 124t-130.5 342 z" />
<glyph unicode="&#x6d0;" horiz-adv-x="1043" d="M192 181q0 84 16 151l79 -10q-6 -101 -5 -120q3 -84 29.5 -150.5t66.5 -107.5t92 -68.5t102 -38t101 -10.5q100 0 178.5 32.5t119.5 87.5q33 48 33 78q0 36 -32.5 59t-136.5 56l-86 28q-109 34 -153.5 74.5t-44.5 130.5q0 97 69 184q37 49 93.5 79.5t114.5 30.5 q57 0 108.5 -32t78.5 -101l-52 -78q-54 103 -147 103q-72 0 -123.5 -57.5t-51.5 -121.5q0 -36 25.5 -55t101.5 -44l114 -38q37 -12 58.5 -19.5t50 -20.5t44.5 -26t32 -31.5t22.5 -42t6.5 -53.5q0 -77 -53 -158q-55 -80 -155 -128.5t-212 -48.5q-223 0 -353.5 124t-130.5 342 zM702 -475q0 28 17 46t43 18q39 0 62 -25t23 -63q0 -26 -17.5 -43.5t-45.5 -17.5q-36 0 -59 24t-23 61zM742 -667q0 26 17.5 44.5t43.5 18.5q39 0 61 -24t22 -62q0 -26 -16.5 -44.5t-44.5 -18.5q-36 0 -59.5 24t-23.5 62z" />
<glyph unicode="&#x6d2;" horiz-adv-x="1609" d="M173 206q0 73 33 137.5t84 104.5q20 17 67.5 50.5t71.5 55.5q36 32 60 65t52 89q27 55 51.5 73.5t59.5 18.5q59 0 116 -69.5t95 -170.5l-72 -58q-75 177 -130 177q-22 0 -38 -32q-4 -8 -16.5 -34.5t-22.5 -45t-24 -37.5q-47 -69 -178 -147q-54 -33 -85.5 -75.5 t-31.5 -80.5q0 -33 23.5 -54t86 -33.5t168.5 -12.5q121 0 247 2.5t261 8.5t220 10t227.5 12t179.5 10l-40 -123q-649 -47 -1126 -47q-181 0 -260 53t-79 153z" />
<glyph unicode="&#x6d3;" horiz-adv-x="1609" d="M173 206q0 73 33 137.5t84 104.5q20 17 67.5 50.5t71.5 55.5q36 32 60 65t52 89q27 55 51.5 73.5t59.5 18.5q59 0 116 -69.5t95 -170.5l-72 -58q-75 177 -130 177q-22 0 -38 -32q-4 -8 -16.5 -34.5t-22.5 -45t-24 -37.5q-47 -69 -178 -147q-54 -33 -85.5 -75.5 t-31.5 -80.5q0 -33 23.5 -54t86 -33.5t168.5 -12.5q121 0 247 2.5t261 8.5t220 10t227.5 12t179.5 10l-40 -123q-649 -47 -1126 -47q-181 0 -260 53t-79 153zM176 1042q0 49 38.5 80t92.5 31q77 0 123 -40l-7 -66q-52 34 -114 34q-31 0 -47 -14t-16 -33q0 -35 42.5 -60.5 t105.5 -25.5h93l-14 -72h-93q-133 0 -191 -25l-5 68q23 16 63 16q-71 41 -71 107z" />
<glyph unicode="&#x6d4;" horiz-adv-x="607" d="M184 124h183q217 0 306 25l-2 -120q-46 -29 -187 -29q-220 0 -297 47z" />
<glyph unicode="&#x6d5;" horiz-adv-x="646" d="M155 301q0 125 104 302q-6 3 -18.5 11t-19.5 11l50 84q181 -111 280 -212q126 -131 126 -272q0 -109 -68 -173t-163 -64q-132 0 -211.5 92.5t-79.5 220.5zM246 309q0 -85 58 -140.5t135 -55.5q72 0 109 43t37 88q0 136 -249 307q-40 -61 -65 -127t-25 -115z" />
<glyph unicode="&#x6f0;" horiz-adv-x="373" d="M126 456q0 45 30.5 78.5t76.5 33.5q54 0 88 -34t34 -91q0 -47 -30.5 -77.5t-75.5 -30.5q-52 0 -87.5 33t-35.5 88z" />
<glyph unicode="&#x6f1;" horiz-adv-x="416" d="M-3 952l114 13q124 -182 234 -447t170 -518h-108q-139 560 -410 952z" />
<glyph unicode="&#x6f2;" horiz-adv-x="706" d="M-1 952l112 11q7 -11 28.5 -47.5t39 -63t27.5 -36.5q68 -77 183 -77q166 0 129 213l88 8q16 -50 16 -104q0 -104 -55.5 -167t-146.5 -63q-88 0 -149 44q62 -123 131 -309t110 -361h-107q-138 557 -406 952z" />
<glyph unicode="&#x6f3;" horiz-adv-x="778" d="M-1 952l111 13q10 -14 27.5 -42.5t36.5 -61.5t22 -39q50 -80 121 -80q77 0 77 80q0 45 -34 130l79 6q29 -98 60 -134.5t67 -36.5q47 0 47 69q0 30 -21 96l78 8q32 -64 32 -144q0 -70 -28 -106t-73 -36q-66 0 -120 66q-4 -56 -35 -85.5t-76 -29.5q-57 0 -95 38 q62 -122 126 -297.5t112 -365.5h-108q-136 550 -406 952z" />
<glyph unicode="&#x6f4;" horiz-adv-x="779" d="M-1 952l115 8q36 -46 97 -166q12 70 67.5 122t138.5 52q123 0 200 -86l-22 -91q-87 71 -171 71q-44 0 -76 -16t-47.5 -40t-22.5 -46.5t-7 -41.5q0 -46 64 -94t152 -48q72 0 120.5 22.5t93.5 75.5l58 -84q-72 -122 -240 -122q-103 0 -174 51q55 -107 113.5 -267.5 t78.5 -251.5h-107q-54 209 -165 468.5t-266 483.5z" />
<glyph unicode="&#x6f5;" horiz-adv-x="773" d="M158 385q0 240 136 567l79 9q76 -85 128 -148t111 -145t94 -150.5t58.5 -148.5t23.5 -155q0 -94 -37.5 -154t-102.5 -60q-93 0 -136 105q-12 -50 -43 -77.5t-70 -27.5q-60 0 -108 35.5t-76 92.5t-42.5 123t-14.5 134zM256 386q0 -123 40 -188.5t87 -65.5q17 0 29 5.5 t24.5 24t11.5 55t-9 98.5h79q23 -111 50.5 -147t64.5 -36q26 0 41.5 26.5t15.5 75.5q0 256 -339 595q-95 -216 -95 -443z" />
<glyph unicode="&#x6f6;" horiz-adv-x="743" d="M127 727q0 66 31 124q30 52 84 84.5t122 32.5q119 0 186 -67l-4 -101q-76 59 -176 59q-77 0 -113 -41.5t-36 -93.5q0 -46 22 -82t56 -56t67.5 -30t63.5 -10q13 0 31.5 6t46 19.5t50.5 26t62.5 34.5t64.5 35l52 -110q-18 -8 -49 -22.5t-43.5 -20.5t-35 -17t-31.5 -15.5 t-25.5 -13t-23.5 -13.5t-18.5 -12t-18.5 -13t-15 -13.5t-16 -15.5q-43 -48 -87 -161.5t-65 -239.5h-112q18 114 66.5 245.5t106.5 200.5q-106 29 -174.5 100.5t-68.5 180.5z" />
<glyph unicode="&#x6f7;" horiz-adv-x="779" d="M-13 952l126 8q109 -156 235.5 -404.5t182.5 -415.5h4q-8 143 6 393t43 427l117 -8q-35 -149 -59 -432.5t-23 -519.5h-123q-246 597 -509 952z" />
<glyph unicode="&#x6f8;" horiz-adv-x="779" d="M180 0q35 151 60 440.5t23 510.5l123 9q266 -627 508 -960h-129q-103 149 -227.5 393t-182.5 404h-4q8 -140 -8.5 -378t-47.5 -419h-115z" />
</font>
</defs>
</svg>
